<svg xmlns="http://www.w3.org/2000/svg" width="44.601" height="44.601" viewBox="0 0 44.601 44.601"><defs><style>.a{fill:#ce001b;}</style></defs><g transform="translate(-706.427 -477.482)"><path class="a" d="M728.728,522.083a22.3,22.3,0,1,1,22.3-22.3A22.326,22.326,0,0,1,728.728,522.083Zm0-43.368A21.068,21.068,0,1,0,749.8,499.783,21.092,21.092,0,0,0,728.728,478.715Z"/><path class="a" d="M718.767,492.573c.123,3.187,2.272,6.267,4.089,8.755a32.43,32.43,0,0,0,5.776,6.09,27.19,27.19,0,0,0,4.447,2.958,3.208,3.208,0,0,0,2.718.495c1.711-.486,5.65-2.505,4.989-4.716-.335-1.122-1.7-2.22-2.565-2.93-1.043-.858-2.874-2.37-4.1-.959-.731.705-1.489,2.32-2.636,2.431-1.229.12-2.322-1.3-3.088-2.084a30.344,30.344,0,0,1-3.4-4.15c-.947-1.544.237-2.183,1.385-3.023.525-.384,1.193-.747,1.449-1.379.478-1.179-.645-2.637-1.291-3.545a14.5,14.5,0,0,0-2.093-2.341c-1.019-.919-2.142-.188-3,.543A9.182,9.182,0,0,0,718.767,492.573Z"/></g></svg>