<svg xmlns="http://www.w3.org/2000/svg" width="370.787" height="274.943" viewBox="0 0 370.787 274.943"><defs><style>.a{fill:#240e15;}.b{fill:#172334;}.c{fill:#203248;}.d{fill:#a4b8d2;}.e{fill:#788ea4;}.f{fill:#7f4946;}.g{fill:#caa94f;}.h{fill:#962251;}.i{fill:#9e635d;}.j{fill:#1a2b40;}.k{fill:#2c4057;}.l{fill:#00376b;}.m{fill:#ebc762;}.n{fill:#adb5be;}.o{fill:#f2796b;}.p{fill:#afcdde;}.q{fill:#d46a62;}.r{fill:#d0d8e0;}.s{fill:#653330;}.t{fill:#4e2423;}.u{fill:#0b2751;}.v{fill:#92b9ce;}.w{fill:#cd6a6b;}.x{fill:#0f1b29;}.y{fill:#ad2d59;}.z{fill:#232d3d;}.aa,.ab{fill:#c1ceea;}.aa{opacity:0.25;}.ab{opacity:0.38;}.ac{fill:#891845;}.ad{fill:#912147;}.ae{fill:#b5c8db;}</style></defs><g transform="translate(-187.786 -2259.065)"><path class="a" d="M306.49,2493.609s35.779,14.491,39.791,13.566,10.855,1.446,18.574-9.408,2.716-44.657-13.718-48.862S285.177,2471.589,306.49,2493.609Z"/><path class="a" d="M446.538,2457.592s35.78,14.491,39.792,13.567,10.855,1.445,18.574-9.409,2.716-44.656-13.719-48.862S425.225,2435.573,446.538,2457.592Z"/><path class="b" d="M345.7,2495.094c3.444-14.4-.464-28.428-9-36.353l.6-2.5-9.265-2.757c-.738-.257-1.488-.488-2.26-.673-15.694-3.754-32.216,9.089-36.9,28.687s-1.332,31.834,14.126,38.756l21.646,7.731-3.417-4.548C332.421,2520.234,342.255,2509.492,345.7,2495.094Z"/><ellipse class="c" cx="36.486" cy="28.144" rx="36.486" ry="28.144" transform="translate(293.992 2520.912) rotate(-76.546)"/><path class="d" d="M349.578,2497.238a36.006,36.006,0,0,1-1.1,3.705,33.242,33.242,0,0,1-4.947,9.177c-5.161,6.672-12.434,10.21-19.377,8.549a14.63,14.63,0,0,1-3.062-1.1,16.019,16.019,0,0,1-4.485-3.293c-5.545-5.712-7.917-15.791-5.423-26.219.127-.53.264-1.058.416-1.571a33.5,33.5,0,0,1,5.68-11.363c5.153-6.636,12.4-10.147,19.323-8.492a14.963,14.963,0,0,1,4.378,1.826,17.343,17.343,0,0,1,4.987,4.741C350.188,2479.095,351.781,2488.03,349.578,2497.238Z"/><path class="e" d="M349.578,2497.238a36.006,36.006,0,0,1-1.1,3.705c-1.258-.274-8.08-2.021-11.784-8.12-3.452-5.674,6.17-16.4,9.274-19.628C350.188,2479.095,351.781,2488.03,349.578,2497.238Z"/><path class="e" d="M316.611,2514.273c-5.545-5.712-7.917-15.791-5.423-26.219.127-.53.264-1.058.416-1.571,3.983,1.345,14.819,5.1,14.346,10.792C325.468,2503.113,318.167,2510.543,316.611,2514.273Z"/><path class="e" d="M328.15,2486.18c-4.288,4.046-9.04-6.423-10.866-11.06,5.153-6.636,12.4-10.147,19.323-8.492a14.963,14.963,0,0,1,4.378,1.826C340.854,2473.2,332.612,2481.975,328.15,2486.18Z"/><path class="e" d="M343.535,2510.12c-5.161,6.672-12.434,10.21-19.377,8.549a14.63,14.63,0,0,1-3.062-1.1c1.414-4.221,3.954-10.307,7.392-12.488C333.15,2502.123,340.961,2503.91,343.535,2510.12Z"/><path class="b" d="M249.962,2471.585c0-14.8-7.065-27.54-17.211-33.261v-2.57l-9.652-.526a23.52,23.52,0,0,0-2.355-.129c-16.136,0-29.218,16.336-29.218,36.486s6.111,31.27,22.755,34.406l18.47,2.735v-3.88C242.9,2499.125,249.962,2486.39,249.962,2471.585Z"/><ellipse class="c" cx="28.144" cy="36.486" rx="28.144" ry="36.486" transform="translate(205.68 2435.754)"/><path class="d" d="M254.561,2474.14a35.907,35.907,0,0,1-.2,3.858,33.257,33.257,0,0,1-2.676,10.076c-3.468,7.69-9.718,12.823-16.857,12.823a14.593,14.593,0,0,1-3.234-.36,16.038,16.038,0,0,1-5.129-2.159c-6.721-4.265-11.373-13.516-11.373-24.238,0-.545.009-1.09.039-1.624a33.518,33.518,0,0,1,2.879-12.374c3.468-7.652,9.7-12.754,16.818-12.754a14.986,14.986,0,0,1,4.682.757,17.347,17.347,0,0,1,5.954,3.451C250.933,2456.353,254.561,2464.673,254.561,2474.14Z"/><path class="e" d="M254.561,2474.14a35.907,35.907,0,0,1-.2,3.858c-1.287.027-8.329-.085-13.351-5.154-4.676-4.716,2.186-17.385,4.454-21.248C250.933,2456.353,254.561,2464.673,254.561,2474.14Z"/><path class="e" d="M226.461,2498.378c-6.721-4.265-11.373-13.516-11.373-24.238,0-.545.009-1.09.039-1.624,4.186.381,11.257,2.519,12.121,8.165C228.137,2486.471,227.107,2494.388,226.461,2498.378Z"/><path class="e" d="M231.148,2468.372c-3.23,4.932-10.286-4.144-13.142-8.23,3.468-7.652,9.7-12.754,16.818-12.754a14.986,14.986,0,0,1,4.682.757C240.482,2452.786,234.509,2463.244,231.148,2468.372Z"/><path class="e" d="M251.681,2488.074c-3.468,7.69-9.718,12.823-16.857,12.823a14.593,14.593,0,0,1-3.234-.36c.393-4.434,1.447-10.944,4.283-13.865C239.719,2482.714,247.733,2482.634,251.681,2488.074Z"/><path class="b" d="M490.075,2468.475c3.373-10.936,1.056-21.953-5.135-28.49l.585-1.9-7.01-2.588c-.557-.234-1.124-.45-1.71-.631-11.92-3.676-25.3,5.41-29.895,20.3-4.476,14.511-.385,25.484,6.7,30.094a7.7,7.7,0,0,0,1.152.6l14.139,6.13,6.107-2.436C483.8,2487.638,486.7,2479.411,490.075,2468.475Z"/><ellipse class="c" cx="28.204" cy="21.756" rx="28.204" ry="21.756" transform="matrix(0.295, -0.956, 0.956, 0.295, 448.903, 2485.822)"/><path class="d" d="M493.119,2470.637a27.612,27.612,0,0,1-1.03,2.8,25.694,25.694,0,0,1-4.272,6.834c-4.313,4.89-10.1,7.258-15.373,5.631a11.3,11.3,0,0,1-2.307-1,12.413,12.413,0,0,1-3.3-2.764c-3.993-4.682-5.322-12.575-2.879-20.495.124-.4.255-.8.4-1.192a25.905,25.905,0,0,1,4.946-8.483c4.3-4.863,10.073-7.211,15.329-5.59a11.575,11.575,0,0,1,3.286,1.626,13.4,13.4,0,0,1,3.612,3.905C494.492,2456.671,495.276,2463.643,493.119,2470.637Z"/><path class="e" d="M493.119,2470.637a27.612,27.612,0,0,1-1.03,2.8c-.956-.274-6.133-1.96-8.687-6.849-2.38-4.549,5.575-12.344,8.131-14.681C494.492,2456.671,495.276,2463.643,493.119,2470.637Z"/><path class="e" d="M466.84,2482.139c-3.993-4.682-5.322-12.575-2.879-20.495.124-.4.255-.8.4-1.192,3.005,1.236,7.741,4.426,7.093,8.794C470.791,2473.725,468.227,2479.339,466.84,2482.139Z"/><path class="e" d="M477.139,2461.042c-3.51,2.907-6.654-5.405-7.833-9.073,4.3-4.863,10.073-7.211,15.329-5.59a11.575,11.575,0,0,1,3.286,1.626C487.584,2451.655,480.789,2458.019,477.139,2461.042Z"/><path class="e" d="M487.817,2480.274c-4.313,4.89-10.1,7.258-15.373,5.631a11.3,11.3,0,0,1-2.307-1c1.3-3.187,3.562-7.755,6.323-9.267A8.284,8.284,0,0,1,487.817,2480.274Z"/><path class="b" d="M275.9,2404.9s71.641-11.765,82.047-15.743,57.767-6.049,72.983-3.084,63.136,14.8,50.918,22.987-119.71,26.815-140.465,20.9S275.9,2404.9,275.9,2404.9Z"/><path class="f" d="M440.228,2377.06a41.819,41.819,0,0,1-.756-8.732c-1.251.49-2.555.841-3.993,1.3A87.468,87.468,0,0,0,440.228,2377.06Z"/><path class="g" d="M442.571,2340.358l-9.73,4.3s-1.057,13.488-2,15.1c-.484.828,2.07,5.564,4.636,9.876,1.438-.46,3.97-1.024,4.347-1.506S440.226,2342.477,442.571,2340.358Z"/><path class="h" d="M442.571,2340.358l.561-.247A.826.826,0,0,0,442.571,2340.358Z"/><path class="i" d="M415.435,2342.2s-18.525-2.613-29.176-11.551c-3.133-2.63-11.556-16.922-13.155-19.56s-3.633-3.413-8.957-9.142c-1.975-2.124-3.035-7.44-1.149-4.688s4.307,4.225,3.532,4.359-3.319-4.4-3.621-5.992.677-1.85,2.831,1.532c1.281,2.012,2.253,2.369,1.91,1.81,0,0-3.885-6.05-2.943-6.792,1.617-1.273,2.449,2.691,3.381,3.668.7.737-1.875-4.614.275-4.879.886-.109.393,3.354,4.287,8.842,1.056,1.488,1.812.71,2.033-.8.1-.707-1.124-3.037-1-4.434.333-3.888,3.052,2.274,3.236,5.221.273,4.365-1.138,4.817,1.366,8.095,1.516,1.984,12.233,14.916,13.667,16.1,3.226,2.66,18.161,4.467,22.815,4.215S416.836,2341.062,415.435,2342.2Z"/><path class="i" d="M435.942,2328.563l-10.823,28.908a3.512,3.512,0,0,1-6.778-.835l-1.955-17.2s-.628-9.028.917-11.454c.591-.933,1.735-.286,2.221-3.045.77-4.4,1.313-9.387,1.313-9.387l12.415-4.668a49.783,49.783,0,0,0-1.4,10.01C431.733,2329.428,435.942,2328.563,435.942,2328.563Z"/><path class="f" d="M433.252,2310.884a49.783,49.783,0,0,0-1.4,10.01,15.04,15.04,0,0,1-5.991,4.014c-3.212,1.186-5.169.791-6.339.031.77-4.4,1.313-9.387,1.313-9.387Z"/><path class="i" d="M428.143,2296.074a11.5,11.5,0,0,0-10.6,9.286c-1.135,5.508-2.561,16.162,3.12,17.15,7.7,1.338,13.059-2.844,14.9-14.554C436.623,2301.223,433.25,2295.855,428.143,2296.074Z"/><path class="j" d="M418.529,2302.5c-.335-1.585.912-3.679.463-4.128-3.1-3.095-4-10.188.144-12.611,4.86-2.844,8.393,2.994,8.394,2.492,0-.945-2.241-3.849,2.176-6.691,9.618-6.19,6.237,4.851,6.237,4.851a5.845,5.845,0,0,1,5.973-2.677c4.471.749.643,4.505.643,4.505s5.714.681,5.045,6.369-2.891,5.168-2.39,4.886,3.851,3.039.55,6.656c-4.935,5.407-10.2,1.809-10.2,1.809s-2.48,3.68-2.313-5.322C433.352,2297.259,422.534,2294.348,418.529,2302.5Z"/><path class="k" d="M420.982,2296.355c-2.01.816-2.866-1.966-2.137-3.361.076-.146.256-.131.322-.3.288-.731.068-1.553,1.241-1.651.351-.03.354-.581,0-.551a1.731,1.731,0,0,0-1.571,1.131c-.086.206-.066.411-.169.623-.123.252-.237.246-.358.442a1.788,1.788,0,0,0-.281.9c-.139,1.741.989,4.15,3.1,3.293C421.452,2296.754,421.31,2296.221,420.982,2296.355Z"/><path class="k" d="M432.758,2286.446a2.127,2.127,0,0,0-2.918.118,3.416,3.416,0,0,0-1.046,1.663,10.617,10.617,0,0,0-.111,1.172q.288.99-1.127,1.176c-.207-.023-.415-.042-.624-.056-2.686-.119-4.606,3.327-1.869,4.858.309.173.587-.3.278-.476-2.15-1.2-.67-3.831,1.383-3.848.664,0,1.378.241,1.988-.152a1.207,1.207,0,0,0,.565-1.094,4.359,4.359,0,0,1,.3-2.052c.482-.874,1.773-1.881,2.792-.92C432.626,2287.078,433.016,2286.689,432.758,2286.446Z"/><path class="k" d="M445.2,2291.613a2.658,2.658,0,0,0-4.712.482c-.831-.727-2.114-.481-3.113-.053a5.114,5.114,0,0,0-3.24,3.541c-.071.346.46.494.531.146a4.209,4.209,0,0,1,2.2-2.82c.93-.532,2.721-1.336,3.5-.126a.278.278,0,0,0,.5-.065,2.116,2.116,0,0,1,3.857-.827C444.935,2292.175,445.413,2291.9,445.2,2291.613Z"/><path class="l" d="M418.593,2302.374c0,.884-.412-1.455-.356-2.426.192-3.294,6.251-7.38,12.113-6.169a9.586,9.586,0,0,1,7.121,6.8c.815,2.731,1.184,7.124-.239,8.547-1.128,1.128-3.1-.387-3.1-.387s1.358-5.384-.223-9.374c-.658-1.66-3.744-3.75-7.522-3.75C423.561,2295.618,418.593,2298.283,418.593,2302.374Z"/><path class="i" d="M432.131,2307.067c.25,0,4.6-3.9,5.6-.976s-1.423,7.784-3.431,6.011S432.131,2307.067,432.131,2307.067Z"/><path class="i" d="M442.852,2331.865s10.424,29.36,11.535,32.894,9.18,18.6,9.18,18.6l-6.664,3.5s-10.826-17.466-11.037-18.1-8.3-18.985-8.822-20.245C432.681,2338.039,438.9,2325.592,442.852,2331.865Z"/><path class="i" d="M440.3,2377.267a57.563,57.563,0,0,1-1.892-8.488c-8.656,2.637-18.407,3.6-27.006.41a52.81,52.81,0,0,1-.284,8.652C420.218,2381.381,431.793,2382.148,440.3,2377.267Z"/><path class="m" d="M441.5,2380.591c-.448-1.064-.843-2.181-1.2-3.324-8.5,4.881-20.079,4.114-29.182.574a32.478,32.478,0,0,1-4.6,13.747c-3.271,5.088-17.2,18.962-8.931,24.016s31.259-1.837,42.263-9.688S444.361,2387.4,441.5,2380.591Z"/><path class="m" d="M438.4,2368.779c-1.021-6.783-.548-13.367-1.063-16.7-4.09-26.42,5.333-20.908,3.143-22.164a11.641,11.641,0,0,0-2.9-1.373l-4.329-1.705s-11.973,8.48-14.634,0c-.512.512-1.866.955-3.855,1.359-2.346,5.991-5.377,14.007-6.334,16.463-3.792,9.731.809,10.08,1.589,13.831.332,1.6-.019,10.288.938,10.7C419.555,2372.376,429.749,2371.416,438.4,2368.779Z"/><path class="n" d="M435.654,2314.326c-.06-.132-.113-.252-.144-.34h0c-.008-.023-.013-.041-.023-.067a.245.245,0,0,0-.351-.108,5.733,5.733,0,0,1-.317-1.331,1.414,1.414,0,0,0,.2-.242,1.1,1.1,0,0,0,.261-1.443.266.266,0,0,0-.411-.077c-.034.037-.054.074-.084.111a3.486,3.486,0,0,1,.046-.405c.056-.335-.471-.368-.527-.037a3.788,3.788,0,0,0-.046.445.273.273,0,0,0-.135.276c.137.844.282,1.688.468,2.523a4.1,4.1,0,0,0,.128.509l.018.27c.014.2.191.238.334.177.013.009.023.018.037.026a.268.268,0,0,0,.075.027l.069.2a.876.876,0,0,1-.172.142l-.132-.149a.267.267,0,0,0-.46.158,1.987,1.987,0,0,0,.058.456.256.256,0,0,0,0,.21,2.84,2.84,0,0,0,.411.612c.148.322.293.613.679.438a.518.518,0,0,0,.431-.155c.244-.23.191-.66.047-1.111A1.485,1.485,0,0,0,435.654,2314.326Z"/><path class="o" d="M485.038,2357.37s.347-4.485,6.943-9.3,23.39-12.936,25.141-14.125,22.475-18.178,24.994-19.176,6.489-.24,10.849-2.443c4.111-2.077,4.766-3.535,3.788-3.78s-4.674,2.283-5.46,1.721c0,0,7.559-4.709,7.273-6.4s-7.731,3.822-7.731,3.822,7.677-4.086,6.643-6.073c-.844-1.624-7.054,3.287-7.742,3.564s6.684-4.874,5.585-5.681-5.826,3-8.2,4.772c-5.054,3.779,1.372-2.972-.594-3.982-1.41-.724-2.8,2.119-5.338,4.712a30.058,30.058,0,0,0-4.357,5.608c-.754,1.1-22.45,11.969-23.932,13.845s-18.906,9.669-21.973,8.534-6.747-3.371-7.292-2.584S477.988,2352.887,485.038,2357.37Z"/><path class="p" d="M539.079,2314.253a21.193,21.193,0,0,0-3.747-5.029c-.254-.266-.657.137-.4.4a22.539,22.539,0,0,1,3.422,4.479c.093.166,1.359,2.9.7,2.984-.569.07-1.734-1.743-1.975-2.115-.8-1.235-1.372-2.6-2.172-3.84-.315-.487-.836-1.311-1.534-.914-.875.5.049,2.262.3,2.877a20.482,20.482,0,0,0,2.369,3.726c.434.633,1.454,3.252.067,2.552-.673-.339-1.248-1.719-1.575-2.384-.833-1.695-1.539-3.461-2.3-5.191-.148-.335-.639-.045-.493.288a47.117,47.117,0,0,0,2.952,6.393c.383.6,1.287,2.206,2.166,1.907,1.213-.414.291-2.857-.085-3.486-.484-.813-4-5.019-2.833-5.676.457-.257.671.52.9.917.209.367.405.741.6,1.114a20.74,20.74,0,0,0,1.484,2.515c.378.518,1.631,2.3,2.436,1.891C540.36,2317.158,539.412,2314.926,539.079,2314.253Z"/><path class="o" d="M460.643,2343.481s-8.708-21.712-9.661-37.581c-.28-4.667,3.25-21.592,4.182-24.993s-.022-5.7.548-14.622c.212-3.309,2.8-6.3,1.994-2.568s.874,4.826.153,4.288,1.046-6.217,2.128-7.717,2.068-.892.953,3.555c-.663,2.645-.2,3.733,0,3.008,0,0,1.969-7.981,3.325-7.782,2.328.342-.949,4.772-.6,7.943.13,1.157,2.564-7.436,4.474-5.86.787.65-1.143,2.195-2.637,9.742-.4,2.046-.5,2.83.933,1.823.668-.47,1.4-1.459,2.653-2.458,3.49-2.78.75,2.461-1.551,4.93-3.409,3.658-4.894,2.841-5.647,7.5-.455,2.817-1.016,20.126-.87,22.246.327,4.769,5.2,19.784,9.067,23.449S464.291,2345.808,460.643,2343.481Z"/><path class="o" d="M482.31,2366.514c-4.545,6.309-20.968-8.909-20.968-8.909s-4.826-10.78-1.2-16.085c2.664-3.913,8.054-7.706,9.953-14.14a17.816,17.816,0,0,0,.417-8.054c-.057-.348-.1-.678-.126-.992a56.327,56.327,0,0,1,3.223-5.442c3.479-.37,8.481,2.573,8.481,2.573s.052,1.717.217,4.095a.025.025,0,0,1,0,.029c.337,4.877,1.141,9.862,2.921,11.317C487.876,2333.079,489.127,2357.051,482.31,2366.514Z"/><path class="q" d="M482.3,2319.56a.025.025,0,0,1,0,.029c-.256,10.426-7.728,9.377-12.212,7.791a17.816,17.816,0,0,0,.417-8.054c-.057-.348-.1-.678-.126-.992a56.327,56.327,0,0,1,3.223-5.442c3.479-.37,8.481,2.573,8.481,2.573A28.744,28.744,0,0,1,482.3,2319.56Z"/><path class="r" d="M468.61,2332.008c1.15,1.15,7.479,6.275,15.97,1.412,1.42-.813,1.644-2.606,2.066-2.358s3.671,1.764,4.743,1.784,6.772-2,7.186-1.807,5.174,11.7,4.527,12.347-13.869,8.192-14.659,9.845-4.455,10.778-4.455,10.778l-26.947-1.315s3.7-19.7,2.874-20.53-5.389-11.066-5.389-12.144,11.181-9.787,11.569-9.4,3.729,7.491,3.729,7.491Z"/><path class="n" d="M467.067,2327.245a2.9,2.9,0,0,1-.516-.047,3.836,3.836,0,0,1-2.735-2.6,9.253,9.253,0,0,1-.373-5.012c.613-3.353,2.659-5.9,4.865-6.059a.208.208,0,0,1,.217.189.2.2,0,0,1-.189.218c-1.99.141-3.922,2.6-4.492,5.726a8.846,8.846,0,0,0,.35,4.787,3.448,3.448,0,0,0,2.43,2.349c2.182.4,4.478-2.155,5.125-5.692.511-2.795-.183-5.53-1.686-6.651a.2.2,0,0,1,.244-.326c1.648,1.229,2.388,4.062,1.842,7.05C471.512,2324.667,469.3,2327.244,467.067,2327.245Z"/><path class="o" d="M470.046,2303.494s-8.221,19.693,1.428,22.105,13.991-9.408,15.921-14.956S480.158,2291.828,470.046,2303.494Z"/><path class="s" d="M469.215,2305.714c.831-2.22-.827-10.026,5.661-11.956l.814-.242c3.078-.916,4.6.794,7.157-1.145,2.33-1.764,7.02-3.963,10.88-2.171,6.754,3.136,1.705,5.182,9.867,3.075,4.907-1.266,5.691,3.8,11.168,2.9,8.335-1.371,3.46-3.538,16.953-7.463,1.979-.576,6.825-1.582,8.092,7.463.572,4.084-8.726,23.132-18.836,18.387-4.3-2.018-10.222-.4-10.419,1.869-.922,10.581-9.984,12.708-15.438,6.4-6.055-7.007-6.579-5.233-10.071-3.769-1.812.759-.362-6.648-.25-12.628.078-4.189-4.645-8.586-8.592-7.285C471.313,2300.754,469.215,2305.714,469.215,2305.714Z"/><path class="t" d="M520.446,2297.967c-2.091,4.192-7.518,3.259-11.267,2.761a16.113,16.113,0,0,0-5.916.134c-2.241.527-4.506,1.539-6.856,1.1-2.417-.447-3.085-2.439-4.557-4.052a8.843,8.843,0,0,0-3.49-2.3,9.338,9.338,0,0,0-8.386.929c-.3.2-.018.7.288.492a8.862,8.862,0,0,1,10.66.757c1.335,1.2,1.938,3.045,3.485,4.019a6.78,6.78,0,0,0,4.617.707c2.337-.347,4.5-1.382,6.885-1.456,2.513-.078,4.964.63,7.466.728,2.9.112,6.175-.754,7.563-3.538C521.1,2297.928,520.61,2297.638,520.446,2297.967Z"/><path class="t" d="M530.537,2299.185a.285.285,0,0,0-.55.151c1.178,4.457-5.049,6.034-8.215,6.63-3.8.715-7.68.732-11.513,1.168-5.423.616-11.169,2.319-14.432,7.011-.21.3.284.588.492.288,4.371-6.284,12.721-6.67,19.631-7.2,3.638-.281,7.411-.648,10.792-2.121C529.11,2304.076,531.276,2301.98,530.537,2299.185Z"/><path class="t" d="M504.88,2305.12c-2.306,2.266-6.768,1.364-9.462.372-2.477-.913-4.885-2.222-7.567-1.342-.347.114-.2.665.152.55,3.478-1.141,6.86,1.589,10.23,2.126,2.323.371,5.251.466,7.05-1.3C505.546,2305.265,505.142,2304.862,504.88,2305.12Z"/><path class="o" d="M483.441,2311s3.709-4.161,4.975-1.99-2.019,8.2-4.342,7.327S483.441,2311,483.441,2311Z"/><path class="q" d="M487.274,2311.23a1.646,1.646,0,0,0-2.036-.582c-.284.131-.106.585.18.453a1.152,1.152,0,0,1,.367-.1,4.477,4.477,0,0,1,.4,1.648c.015.314.5.26.485-.053a4.823,4.823,0,0,0-.32-1.511,1.168,1.168,0,0,1,.53.437C487.056,2311.786,487.445,2311.492,487.274,2311.23Z"/><path class="l" d="M462.789,2338.859l.575.647,5.522-7.238-.276-.26.739-2.308C467.2,2332.277,463.2,2338.189,462.789,2338.859Z"/><path class="l" d="M463.939,2339.019c-1.458,3.739-1.072,12.2,1.581,18.351,0,0,3.208-6.437,6.075-8.738,7.249-5.821,6.357-5.246,10.124-8.522,3.8-3.306-1.117,5.148.591,12.264s3.125,8.794,3.125,8.794-3.669,10.519-3.125,15.17c.737,6.3,7.236,26.189-12.464,30.651-17.669,4-18.585,12-23.4,7.035s-6.628-15.9-7.894-17.938,7.236-9.665,8.684-11.914,7.614-6.551,8.6-10.551.767-12.13,0-15.13A11.988,11.988,0,0,1,457,2343.928C460.116,2340.291,465.079,2336.1,463.939,2339.019Z"/><path class="l" d="M482.31,2340.11s4.057-7.693,5.036-8.672c.45,0,.813.158.813.34s-5.339,8.985-5.339,8.985Z"/><path class="n" d="M485.773,2328.391c-2.441,0-4.426-3.107-4.426-6.927,0-3.41,1.555-6.284,3.7-6.835a.2.2,0,0,1,.1.4c-1.933.5-3.391,3.265-3.391,6.44,0,3.595,1.8,6.52,4.019,6.52s4.017-2.925,4.017-6.52c0-2.841-1.173-5.407-2.852-6.239a.2.2,0,1,1,.18-.365c1.842.912,3.08,3.566,3.08,6.6C490.2,2325.284,488.213,2328.391,485.773,2328.391Z"/><path class="c" d="M371.971,2436.564s30.756-36.2,33.288-36.679,41.611-.507,42.7,5.558-10.4,31.121-10.4,31.121Z"/><path class="c" d="M419.853,2377.064s25.328-.283,26.293,4.059a20.938,20.938,0,0,1-.21,7.356,5.1,5.1,0,0,1-5.3,4.25c-7.5-.409-22.306-1.394-23.92-2.868C414.546,2387.877,417,2377.308,419.853,2377.064Z"/><path class="c" d="M340.409,2417.028c.684-1.092,4.628-10.227,7.41-16.734a10.064,10.064,0,0,1,9.967-6.083l26.491,1.875L370.059,2419.8Z"/><path class="c" d="M360.183,2378.413s20.45-2.008,21.181,1.279-.913,8.947-.913,8.947-19.721-.831-21.364-2.333S358.02,2378.6,360.183,2378.413Z"/><path class="o" d="M334.644,2419.245s7.635-21.39,13.677-23.674c2.082-.79,3.424-3.16,4.3-5.93a42.709,42.709,0,0,0,1.551-10.307,17.169,17.169,0,0,1,2.1-1.427l8.88,1.106a8.719,8.719,0,0,1,.6,3.012,13.927,13.927,0,0,1-.012,1.467,45.424,45.424,0,0,0-1.72,4.553v.006a11.478,11.478,0,0,0-.666,3.96c.322,3.7,3.492,1.788,6.939,4.761,1.7,1.467-8.749,25.809-15.436,26.355C348.023,2423.686,334.644,2419.245,334.644,2419.245Z"/><path class="q" d="M365.747,2383.492a45.424,45.424,0,0,0-1.72,4.553v.006c-2.708,2.911-7.949,2.273-11.407,1.59a42.709,42.709,0,0,0,1.551-10.307,17.169,17.169,0,0,1,2.1-1.427l8.88,1.106a8.719,8.719,0,0,1,.6,3.012A13.927,13.927,0,0,1,365.747,2383.492Z"/><path class="o" d="M344.128,2393.439s-14.673-.217-18.967.878-19.241,11.158-20,14.268-1.989,8.7-1.989,8.7L322.9,2404.02s17.39.481,18.68-.484S344.128,2393.439,344.128,2393.439Z"/><path class="o" d="M370.3,2396.772c1.684-.245,3.559-.468,5.169,2.575s1.226,25.617-2.083,26.587-9.709.2-9.709.2S367.021,2397.249,370.3,2396.772Z"/><path class="l" d="M343.649,2392.681c-1.006,0-13.2-.219-14.156.74s-1.367,4.18-1.87,6.983-1.271,7.218-.358,8.132,9.27-1.81,9.27-1.81Z"/><path class="u" d="M328.918,2407.923c-.921-.921,10.869-9.4,10.869-9.4l-7.047,9.033S329.784,2408.789,328.918,2407.923Z"/><path class="o" d="M354.924,2367.735s-7.861,15.495-2.022,18.872,12.534.6,17.4-7.2S370.67,2347.633,354.924,2367.735Z"/><path class="l" d="M351.53,2392.323s-2.659,8.056-.393,9.268c4.3,2.3,13.355-7.373,13.573-7.274l-.218-.1s7.921.52,7.646,2.288-8.464,13.809-7.9,16.568c.241,1.187-.328,4.774-.556,7.59a24.631,24.631,0,0,0,0,5.474l-24.38-.746-11.674-2.483s.5-5.627,3.92-14.986c1.56-4.275,7.575-5.2,11.154-14.829A17.2,17.2,0,0,1,351.53,2392.323Z"/><path class="u" d="M363.793,2403.867c-1.174,1.173-4.255,12.16-2.583,16.02a2.9,2.9,0,0,0,2.867.5Z"/><path class="s" d="M354.924,2367.735c-1.539,1.4-2.251-8.617,1.7-10.436,8.164-3.758,12.892,2.147,17.375-1.968a22.291,22.291,0,0,1,13.639-6.263c4.98-.537,5.68,4.294,14.279,3.579,5.138-.428,5.33,3.65,3.606,7.375-1.612,3.48-5.327,5.062-8.521,6.742-1.238.652-3.029,1.378-3.927,2.682-.977,1.419-.553,3.514-2,4.665-1.294,1.031-3.068.775-4.586.6a10.49,10.49,0,0,0-9.045,4.35,10.582,10.582,0,0,1-10.86,4.961s4.188-9.42-.006-14.118a4.571,4.571,0,0,1-.976-1.628C364.432,2364.627,357.988,2364.948,354.924,2367.735Z"/><path class="t" d="M387.1,2352.149c-2.261,1.857-3.383,4.9-5.93,6.418-1.861,1.111-3.555.561-5.438-.132a17.573,17.573,0,0,0-4.122-.993,17.335,17.335,0,0,0-8.482,1.157c-1.9.78-3.732,2.052-3.975,4.234-.04.361.524.358.564,0,.362-3.25,4.867-4.384,7.533-4.765a18.307,18.307,0,0,1,9.056,1.186,5.586,5.586,0,0,0,5.93-.755c2.1-1.67,3.19-4.249,5.263-5.951C387.776,2352.317,387.375,2351.92,387.1,2352.149Z"/><path class="t" d="M386.469,2360.776a6.129,6.129,0,0,0-1.681,1.135,3.807,3.807,0,0,1-1.448.931,6.4,6.4,0,0,1-2.517-.284,31.874,31.874,0,0,0-5.968-.7c-2.9,0-7.561.7-8.341,4.11-.08.354.463.505.544.15.943-4.122,7.571-3.891,10.748-3.49,1.642.207,3.53.943,5.187.826,1.557-.11,2.273-1.585,3.625-2.135C386.95,2361.185,386.8,2360.639,386.469,2360.776Z"/><path class="t" d="M399.39,2355.084c-5.3,2.422-7.582,8.132-11.682,11.925a11.9,11.9,0,0,1-4.063,2.579,23.362,23.362,0,0,1-4.893.73c-2.07.267-4.224,1.2-4.8,3.382a.282.282,0,0,0,.544.15c.9-3.378,5.112-2.863,7.773-3.324a11.912,11.912,0,0,0,6.163-3.424c3.864-3.748,6.136-9.2,11.247-11.531C400,2355.42,399.718,2354.934,399.39,2355.084Z"/><path class="o" d="M366.662,2376.913c.459-.123,2.8-3.959,3.823-1.5s-1.4,6.76-3.364,5.891S366.662,2376.913,366.662,2376.913Z"/><path class="q" d="M369.288,2376.366c-.074-.355-.618-.205-.544.15a4.852,4.852,0,0,1-.151,2.554c-.113.345.431.494.544.15A5.437,5.437,0,0,0,369.288,2376.366Z"/><path class="l" d="M371.1,2395.779c1.421-.218,4.113,1.623,4.671,2.65,1.294,2.382,2.875,12.984,2.875,15.438s-4.566,1.521-6.324,1.952-7.744,4.18-8.617,4.18-1.36-5.545-1.36-7.845S364.488,2396.794,371.1,2395.779Z"/><path class="n" d="M349.5,2395.692a.733.733,0,0,1-.647-.461,1.325,1.325,0,0,1-.051-.738,2.9,2.9,0,0,1,.236-.755h0a1.758,1.758,0,0,1,.621-.544.385.385,0,0,1,.283-.12.5.5,0,0,1,.394.193.852.852,0,0,1,.128.556,3.412,3.412,0,0,1-.247,1.3.859.859,0,0,1-.672.568A.347.347,0,0,1,349.5,2395.692Zm-.094-1.781a2.519,2.519,0,0,0-.2.65.913.913,0,0,0,.025.51.32.32,0,0,0,.286.213c.175-.013.3-.256.332-.33a3,3,0,0,0,.211-1.142.533.533,0,0,0-.048-.3.09.09,0,0,0-.067-.029l-.048.047a1.71,1.71,0,0,0-.488.383Z"/><path class="n" d="M349.858,2394.213a.733.733,0,0,1-.648-.461,1.325,1.325,0,0,1-.051-.738,2.906,2.906,0,0,1,.236-.755h0a1.761,1.761,0,0,1,.621-.545.388.388,0,0,1,.283-.119.5.5,0,0,1,.394.193.851.851,0,0,1,.128.556,3.4,3.4,0,0,1-.247,1.3.858.858,0,0,1-.672.569A.332.332,0,0,1,349.858,2394.213Zm-.1-1.781a2.505,2.505,0,0,0-.2.65.913.913,0,0,0,.025.51.32.32,0,0,0,.286.213c.175-.013.3-.257.332-.331a3,3,0,0,0,.211-1.141.538.538,0,0,0-.048-.3.092.092,0,0,0-.067-.028l-.048.047a1.71,1.71,0,0,0-.488.383Z"/><path class="n" d="M349.107,2397.3a.731.731,0,0,1-.647-.461,1.318,1.318,0,0,1-.052-.738,2.9,2.9,0,0,1,.236-.755,1.758,1.758,0,0,1,.621-.544.385.385,0,0,1,.283-.12.457.457,0,0,1,.395.193.856.856,0,0,1,.127.556,3.4,3.4,0,0,1-.247,1.3.862.862,0,0,1-.672.57Zm-.279-1.867.184.086a2.556,2.556,0,0,0-.2.65.913.913,0,0,0,.025.51.324.324,0,0,0,.286.214c.175-.014.3-.257.332-.332a2.993,2.993,0,0,0,.211-1.141.538.538,0,0,0-.048-.3.084.084,0,0,0-.066-.028l-.049.047a1.71,1.71,0,0,0-.488.383Z"/><path class="n" d="M348.856,2398.725a.732.732,0,0,1-.647-.461,1.327,1.327,0,0,1-.052-.738,2.942,2.942,0,0,1,.236-.755h0a1.768,1.768,0,0,1,.621-.545.4.4,0,0,1,.284-.12.5.5,0,0,1,.394.194.856.856,0,0,1,.127.556,3.383,3.383,0,0,1-.246,1.3.86.86,0,0,1-.672.569Zm-.094-1.781a2.5,2.5,0,0,0-.2.65.905.905,0,0,0,.025.51.323.323,0,0,0,.285.213c.176-.014.3-.257.333-.331a2.976,2.976,0,0,0,.21-1.142.537.537,0,0,0-.047-.3.094.094,0,0,0-.067-.028l-.049.046a1.712,1.712,0,0,0-.487.384Z"/><path class="n" d="M348.464,2400.407a.733.733,0,0,1-.647-.462,1.327,1.327,0,0,1-.052-.738,2.984,2.984,0,0,1,.236-.755,1.777,1.777,0,0,1,.621-.544.388.388,0,0,1,.284-.12.516.516,0,0,1,.394.193.853.853,0,0,1,.127.557,3.388,3.388,0,0,1-.246,1.3.862.862,0,0,1-.672.569Zm.448-2.212h-.006l-.049.047a1.712,1.712,0,0,0-.487.383h0a2.519,2.519,0,0,0-.2.65.9.9,0,0,0,.025.51.324.324,0,0,0,.286.214c.175-.014.3-.257.332-.331a3.014,3.014,0,0,0,.21-1.142.525.525,0,0,0-.047-.3A.088.088,0,0,0,348.912,2398.2Z"/><path class="n" d="M348.363,2402.12a.732.732,0,0,1-.647-.461,1.326,1.326,0,0,1-.052-.738,2.944,2.944,0,0,1,.236-.755,1.765,1.765,0,0,1,.621-.544.392.392,0,0,1,.283-.121.482.482,0,0,1,.4.194.857.857,0,0,1,.127.556,3.382,3.382,0,0,1-.246,1.3.858.858,0,0,1-.672.569A.308.308,0,0,1,348.363,2402.12Zm.448-2.212H348.8l-.049.047a1.712,1.712,0,0,0-.487.383h0a2.5,2.5,0,0,0-.2.65.9.9,0,0,0,.025.51.318.318,0,0,0,.285.213c.176-.013.3-.256.333-.331a2.975,2.975,0,0,0,.21-1.141.539.539,0,0,0-.047-.3A.092.092,0,0,0,348.811,2399.908Z"/><path class="n" d="M349.508,2403.506a.789.789,0,0,1-.3-.059,1.316,1.316,0,0,1-.557-.486,2.939,2.939,0,0,1-.366-.7,1.779,1.779,0,0,1,.056-.825.389.389,0,0,1,.116-.284.487.487,0,0,1,.417-.141.851.851,0,0,1,.482.3,3.387,3.387,0,0,1,.741,1.094.858.858,0,0,1-.075.877A.672.672,0,0,1,349.508,2403.506Zm-.7-2.094a.092.092,0,0,0-.061.027l.008.045-.009.022a1.7,1.7,0,0,0-.075.616h0a2.482,2.482,0,0,0,.314.6.908.908,0,0,0,.377.344.327.327,0,0,0,.354-.05c.114-.134.03-.393,0-.47a3.039,3.039,0,0,0-.656-.957.534.534,0,0,0-.248-.181Z"/><path class="n" d="M351.01,2403.818c-.04,0-.081,0-.124,0a2.934,2.934,0,0,1-.777-.15h0a1.773,1.773,0,0,1-.611-.557.39.39,0,0,1-.151-.268.488.488,0,0,1,.149-.413.853.853,0,0,1,.538-.189,3.387,3.387,0,0,1,1.318.1.849.849,0,0,1,.64.6.722.722,0,0,1-.379.739A1.19,1.19,0,0,1,351.01,2403.818Zm-.77-.539a2.492,2.492,0,0,0,.668.129.9.9,0,0,0,.5-.081.322.322,0,0,0,.18-.308c-.033-.173-.288-.269-.366-.294a3.018,3.018,0,0,0-1.158-.081.536.536,0,0,0-.295.081.084.084,0,0,0-.021.069l.052.044A1.692,1.692,0,0,0,350.24,2403.279Z"/><path class="n" d="M352.751,2404.1c-.04,0-.082,0-.125,0a2.891,2.891,0,0,1-.776-.15h0a1.761,1.761,0,0,1-.611-.556.39.39,0,0,1-.151-.268.493.493,0,0,1,.148-.414.859.859,0,0,1,.538-.188,3.385,3.385,0,0,1,1.318.1.863.863,0,0,1,.641.6.725.725,0,0,1-.38.74A1.186,1.186,0,0,1,352.751,2404.1Zm-.517-1.2c-.147,0-.291.009-.426.02a.53.53,0,0,0-.294.082.084.084,0,0,0-.021.069l.052.043a1.717,1.717,0,0,0,.435.442h0a2.548,2.548,0,0,0,.669.129.916.916,0,0,0,.5-.082.324.324,0,0,0,.18-.308c-.033-.173-.289-.268-.366-.293A2.37,2.37,0,0,0,352.234,2402.908Z"/><path class="n" d="M354.16,2404.075a2.894,2.894,0,0,1-.351-.021h0a1.781,1.781,0,0,1-.712-.42.4.4,0,0,1-.2-.231.5.5,0,0,1,.061-.436.855.855,0,0,1,.488-.295,3.4,3.4,0,0,1,1.31-.172.862.862,0,0,1,.751.46.723.723,0,0,1-.22.8,1.288,1.288,0,0,1-.684.28A2.832,2.832,0,0,1,354.16,2404.075Zm-.3-.426a2.488,2.488,0,0,0,.68-.01.913.913,0,0,0,.477-.183.324.324,0,0,0,.113-.339c-.068-.162-.337-.2-.418-.212a3.048,3.048,0,0,0-1.151.157.545.545,0,0,0-.272.14.087.087,0,0,0-.006.073l.06.031a1.685,1.685,0,0,0,.517.343Z"/><path class="n" d="M355.622,2403.907a2.25,2.25,0,0,1-.683-.157.393.393,0,0,1-.271-.146.49.49,0,0,1-.1-.429.854.854,0,0,1,.354-.447,3.389,3.389,0,0,1,1.166-.621.852.852,0,0,1,.865.168.723.723,0,0,1,.075.827,1.319,1.319,0,0,1-.543.5,2.918,2.918,0,0,1-.736.289h0A.529.529,0,0,1,355.622,2403.907Zm-.592-.561.022.011a1.7,1.7,0,0,0,.605.14,2.529,2.529,0,0,0,.633-.248.913.913,0,0,0,.383-.339.325.325,0,0,0-.013-.357c-.121-.128-.388-.072-.466-.051a2.958,2.958,0,0,0-1.022.551.518.518,0,0,0-.206.226.088.088,0,0,0,.02.07Z"/><path class="n" d="M356.982,2403.263a3.143,3.143,0,0,1-.42-.032.387.387,0,0,1-.3-.085.487.487,0,0,1-.185-.4.856.856,0,0,1,.25-.513,3.4,3.4,0,0,1,1.007-.855.86.86,0,0,1,.88-.021.722.722,0,0,1,.25.792,1.323,1.323,0,0,1-.423.607,2.914,2.914,0,0,1-.658.439h0A.981.981,0,0,1,356.982,2403.263Zm-.417-.447.024.007a1.692,1.692,0,0,0,.62.008,2.508,2.508,0,0,0,.566-.378.9.9,0,0,0,.3-.413.322.322,0,0,0-.088-.345c-.145-.1-.394.012-.467.049a3.022,3.022,0,0,0-.881.756.527.527,0,0,0-.152.265.086.086,0,0,0,.034.064Z"/><path class="n" d="M358.3,2402.216a2.991,2.991,0,0,1-.421-.033.386.386,0,0,1-.3-.084.491.491,0,0,1-.186-.4.852.852,0,0,1,.251-.513,3.373,3.373,0,0,1,1.007-.855.86.86,0,0,1,.88-.021.724.724,0,0,1,.25.792,1.335,1.335,0,0,1-.423.607,2.959,2.959,0,0,1-.658.439h0A.981.981,0,0,1,358.3,2402.216Zm-.417-.447.024.007a1.7,1.7,0,0,0,.619.008,2.513,2.513,0,0,0,.567-.378.915.915,0,0,0,.3-.413.325.325,0,0,0-.088-.345c-.146-.1-.394.012-.467.049a2.961,2.961,0,0,0-.881.756.541.541,0,0,0-.153.264.09.09,0,0,0,.034.065Z"/><path class="n" d="M359.4,2401.217a.428.428,0,0,1-.155-.031.491.491,0,0,1-.289-.331.853.853,0,0,1,.1-.562,3.4,3.4,0,0,1,.728-1.1.857.857,0,0,1,.839-.266.723.723,0,0,1,.461.691,1.323,1.323,0,0,1-.236.7,2.953,2.953,0,0,1-.509.606h0a1.761,1.761,0,0,1-.783.263A.367.367,0,0,1,359.4,2401.217Zm1.025-1.917a.649.649,0,0,0-.367.188,2.981,2.981,0,0,0-.634.973.53.53,0,0,0-.073.3.091.091,0,0,0,.051.052l.063-.025a1.7,1.7,0,0,0,.6-.165h0a2.514,2.514,0,0,0,.438-.522.9.9,0,0,0,.174-.48.324.324,0,0,0-.181-.307A.222.222,0,0,0,360.427,2399.3Z"/><path class="n" d="M360.6,2399.9a.4.4,0,0,1-.155-.031.488.488,0,0,1-.289-.331.854.854,0,0,1,.1-.562,3.365,3.365,0,0,1,.728-1.1.863.863,0,0,1,.839-.267.724.724,0,0,1,.461.691,1.284,1.284,0,0,1-.237.7,2.892,2.892,0,0,1-.508.6h0a1.775,1.775,0,0,1-.783.264A.381.381,0,0,1,360.6,2399.9Zm1.025-1.916a.644.644,0,0,0-.367.188,2.978,2.978,0,0,0-.634.972.531.531,0,0,0-.073.3.085.085,0,0,0,.051.052l.063-.025a1.694,1.694,0,0,0,.6-.165h0a2.514,2.514,0,0,0,.438-.521.907.907,0,0,0,.174-.481.323.323,0,0,0-.182-.307A.215.215,0,0,0,361.625,2397.981Z"/><path class="n" d="M361.79,2398.577a.408.408,0,0,1-.155-.031.488.488,0,0,1-.289-.331.854.854,0,0,1,.1-.562,3.4,3.4,0,0,1,.728-1.1.858.858,0,0,1,.839-.266.724.724,0,0,1,.461.691,1.279,1.279,0,0,1-.236.7,2.959,2.959,0,0,1-.509.606h0a1.77,1.77,0,0,1-.783.263A.382.382,0,0,1,361.79,2398.577Zm1.025-1.916a.649.649,0,0,0-.367.188,2.977,2.977,0,0,0-.634.972.533.533,0,0,0-.073.3.084.084,0,0,0,.051.052l.063-.024a1.691,1.691,0,0,0,.6-.166h0a2.482,2.482,0,0,0,.438-.521.907.907,0,0,0,.174-.48.325.325,0,0,0-.181-.308A.229.229,0,0,0,362.815,2396.661Z"/><path class="n" d="M362.987,2397.149a.424.424,0,0,1-.155-.031.491.491,0,0,1-.289-.331.846.846,0,0,1,.1-.562,3.388,3.388,0,0,1,.727-1.1.862.862,0,0,1,.84-.266.724.724,0,0,1,.461.691,1.316,1.316,0,0,1-.237.7,2.9,2.9,0,0,1-.508.606,1.758,1.758,0,0,1-.783.263A.367.367,0,0,1,362.987,2397.149Zm1.024-1.917a.65.65,0,0,0-.366.188,2.966,2.966,0,0,0-.634.973.531.531,0,0,0-.073.3.09.09,0,0,0,.051.052l.063-.025a1.7,1.7,0,0,0,.6-.165h0a2.519,2.519,0,0,0,.438-.521.9.9,0,0,0,.174-.48.323.323,0,0,0-.182-.307A.23.23,0,0,0,364.011,2395.232Z"/><path class="n" d="M363.772,2396.043a.408.408,0,0,1-.155-.031.491.491,0,0,1-.289-.331.854.854,0,0,1,.1-.562,3.389,3.389,0,0,1,.728-1.1.862.862,0,0,1,.839-.266.724.724,0,0,1,.461.691,1.282,1.282,0,0,1-.236.7,2.954,2.954,0,0,1-.509.6,1.761,1.761,0,0,1-.783.263A.366.366,0,0,1,363.772,2396.043Zm1.025-1.916a.644.644,0,0,0-.367.188,2.968,2.968,0,0,0-.634.972.531.531,0,0,0-.073.3.087.087,0,0,0,.051.052l.063-.025a1.694,1.694,0,0,0,.6-.165h0a2.514,2.514,0,0,0,.438-.521.907.907,0,0,0,.174-.481.323.323,0,0,0-.182-.307A.215.215,0,0,0,364.8,2394.127Z"/><path class="n" d="M347.927,2408.738a6.118,6.118,0,0,1-1.229-.12,3.8,3.8,0,0,1-3.152-2.7c-1.339-4.456,3.8-12.857,4.893-13.953a.2.2,0,0,1,.288,0,.2.2,0,0,1,0,.288c-1.069,1.068-6.085,9.241-4.791,13.548a3.423,3.423,0,0,0,2.843,2.415c3.323.678,7.408-1.851,10.249-4.093,5.122-4.042,8.985-9.177,9-9.743a.212.212,0,0,1,.207-.2.2.2,0,0,1,.2.2c0,.832-4.1,5.938-8.661,9.663C355.061,2406.264,351.278,2408.738,347.927,2408.738Z"/><path class="n" d="M346.043,2412.515a4.621,4.621,0,0,1-3.495-1.66c-2.849-3.082,5.071-17.518,6.432-18.879a.2.2,0,0,1,.288.288c-1.319,1.319-9.056,15.465-6.421,18.315,3.016,3.264,6.627.62,9.527-1.5a16.662,16.662,0,0,1,2.624-1.706c4.81-2.149,10.537-13.021,10.594-13.131a.2.2,0,0,1,.361.188c-.236.453-5.85,11.108-10.789,13.315a16.473,16.473,0,0,0-2.549,1.662C350.721,2410.79,348.364,2412.515,346.043,2412.515Z"/><path class="o" d="M435.509,2395.781c-.266.289-13.626,13.3-22.12,14.388-6.067.778-8.13-10.2-8.13-10.284,0-.114,7.891-1.252,9-3.887a22.76,22.76,0,0,0,1.626-7.923c.3-7.187,11.065-5.772,14.259-5.191.565.1.89.177.89.177a6.234,6.234,0,0,0-.764,2.453c-.017.125-.046.257-.069.393-.388,2.265-.673,5.277-.821,6.851C429.138,2395.313,435.971,2395.284,435.509,2395.781Z"/><path class="q" d="M430.273,2385.514c-.017.125-.046.257-.069.393a10.767,10.767,0,0,1-.507,1.717c-3.873,10.244-11.807,9.4-15.435,8.374a22.76,22.76,0,0,0,1.626-7.923c.3-7.187,11.065-5.772,14.259-5.191A5.828,5.828,0,0,1,430.273,2385.514Z"/><path class="o" d="M414.384,2365.641s-6.3,17.627-3.8,23.6,12.99,2.719,14.8,1.814a13.014,13.014,0,0,0,6.131-6.342c1.829-3.789,3.178-12.923,2.454-14.008S424.649,2359.49,414.384,2365.641Z"/><path class="s" d="M421.128,2368.174s-7.908,1.689-9.718-3.015,2.369-3.98,2.369-3.98-.2-4.342,2.818-5.186,4.461,2.532,5.487,2.05,2.232-2.412,4.523-1.086,1.689.845,1.689.845,1.568-4.373,5.065-1.946a8.972,8.972,0,0,1,3.739,7.817c-.241,1.124,3.619,3.036,2.533,7.266s-6.875,10.5-6.875,10.5,2.247-3.857-.723-4.011c-1.329-.069.171-6.66,0-8.287s-5.208-4.234-6.645-3.144A9,9,0,0,1,421.128,2368.174Z"/><path class="t" d="M425.132,2363.693a18.21,18.21,0,0,0-4.029-1.43,8.116,8.116,0,0,1-2.168-.585c-1.067-.582-1.23-1.816-1.3-2.912-.024-.365-.6-.367-.571,0,.1,1.441.337,2.819,1.772,3.487a11.927,11.927,0,0,0,2.36.613,17.582,17.582,0,0,1,3.651,1.319C425.173,2364.345,425.463,2363.853,425.132,2363.693Z"/><path class="t" d="M418.545,2365.809c-.854.391-2.068-.292-2.7-.836a4.09,4.09,0,0,1-1.27-2.056.285.285,0,0,0-.55.152c.486,1.789,2.747,4.174,4.8,3.232C419.167,2366.149,418.877,2365.657,418.545,2365.809Z"/><path class="t" d="M435.928,2367.651a6.186,6.186,0,0,0-2.132-2.134c-.6-.344-1.359-.447-1.716-1.065-.594-1.026.346-1.669.911-2.518a2.989,2.989,0,0,0-.919-4.284c-.311-.2-.6.3-.288.493a2.445,2.445,0,0,1,1.207,2.193c-.043.922-.625,1.367-1.1,2.054a2.426,2.426,0,0,0-.635,2.03c.173.616.631.852,1.174,1.1a6.221,6.221,0,0,1,3.006,2.417C435.63,2368.249,436.123,2367.963,435.928,2367.651Z"/><path class="t" d="M427.765,2362.274a6.118,6.118,0,0,0-3.117-2.5c-.345-.125-.494.426-.151.55a5.485,5.485,0,0,1,2.775,2.239C427.468,2362.871,427.962,2362.585,427.765,2362.274Z"/><path class="b" d="M417.251,2375.561c-.457,3.371-1.962,5.333-5.271,5.03a.077.077,0,0,0-.034-.005,2.361,2.361,0,0,1-1.928-1.181c-.941-1.626-.331-4.443-.08-5.407a.737.737,0,0,1,.451-.5,8.208,8.208,0,0,1,3.7-.3,6.352,6.352,0,0,1,2.053.593c.086.046.166.1.245.149a.005.005,0,0,0,.006.005,1.74,1.74,0,0,1,.833,1.073A1.435,1.435,0,0,1,417.251,2375.561Z"/><path class="b" d="M428.556,2375.863a11.338,11.338,0,0,1-.81,2.31c-.827,1.745-2.384,3.8-5.077,3.593a3.567,3.567,0,0,1-1.557-.473,4.05,4.05,0,0,1-1.58-1.808,7.612,7.612,0,0,1-.65-3.662.5.5,0,0,1,.011-.091c.092-.827.839-1.432,1.9-1.774h.006a7.812,7.812,0,0,1,2.572-.337,8.942,8.942,0,0,1,2.23.331,5.4,5.4,0,0,1,2.824,1.74A1.771,1.771,0,0,1,428.556,2375.863Z"/><path class="b" d="M413.074,2373.438a24.252,24.252,0,0,1,4.41.753c1.408.335,6.444-1.1,7.319-.155s-5.278,2.546-5.421,2.644-.3-1.776-2.024-1.676a2.049,2.049,0,0,0-1.807,1.453Z"/><path class="b" d="M428.1,2375.747l6.065-1.109s-.63.481-.731.866-5.115,2.438-5.722,2.677S428.1,2375.747,428.1,2375.747Z"/><path class="c" d="M416.144,2373.792l-.057.092-1.129,1.848-2.978,4.859a.077.077,0,0,0-.034-.005,2.361,2.361,0,0,1-1.928-1.181c1.113-1.757,2.51-3.93,3.514-5.407.12-.171.234-.337.336-.485.08-.114.154-.217.223-.314A6.352,6.352,0,0,1,416.144,2373.792Z"/><path class="c" d="M425.6,2373.952l-4.489,7.341a4.05,4.05,0,0,1-1.58-1.808c.719-1.129,1.546-2.424,2.31-3.588.537-.827,1.05-1.591,1.466-2.19a.758.758,0,0,1,.063-.086A8.942,8.942,0,0,1,425.6,2373.952Z"/><path class="o" d="M431.14,2379.06a8.508,8.508,0,0,1,1.623-3.862c1.307-1.37,3.5-1.964,3.845.326.528,3.518-2.505,7.572-3.85,7.036A2.834,2.834,0,0,1,431.14,2379.06Z"/><path class="q" d="M435.279,2376.341a12.949,12.949,0,0,0-1.378.047.249.249,0,0,0-.283.026c-.228.024-.455.052-.682.088-.3.048-.175.51.128.463.2-.032.4-.046.607-.067a4.054,4.054,0,0,1,.557,1.931c.01.308.49.309.48,0a4.564,4.564,0,0,0-.52-1.986c.362-.022.726-.03,1.091-.022A.24.24,0,0,0,435.279,2376.341Z"/><path class="p" d="M442.53,2422.908c-7.78,3.16-69.553,14.534-74.127,7.581s33.059-32.712,33.059-32.712a24.444,24.444,0,0,1,8.379-2.418,9.6,9.6,0,0,1,4.421.639l-2.367,6.456,19.142-7.42s1.107.011,2.829.085c5.727.245,27.236,2,29.787,8.715C465.4,2408.437,450.3,2419.754,442.53,2422.908Z"/><path class="v" d="M455.833,2400.376c-1.079-1.491-30.588.659-36.852,18.334-2.007,5.662-2.264,6.884-2.264,6.884s24.967-3.387,25.087-3.748,4.638-7.822,4.638-7.822Z"/><path class="v" d="M433.866,2395.119c-.194,1.01-10.35,6.385-11.248,6.97-4.574,2.98-6.521-.489-9.881,1.183-1.169.581-2.667,3.067-3.86,3.717-.017,0,3.248-4.272-.482-6.431a36.193,36.193,0,0,1,1.923-5.22,7.706,7.706,0,0,1,3.944.66l-2.367,6.456,19.142-7.42S432.144,2395.045,433.866,2395.119Z"/><path class="n" d="M410.841,2404.04c-.054-.362-.6-.208-.55.152.209,1.4-1.591,2.975-2.272,4.092a45.116,45.116,0,0,0-2.811,5.428,35.211,35.211,0,0,0-2.893,10.244c-.036.329.471.373.56.076l.127-.422a.254.254,0,0,0-.037-.232,36.561,36.561,0,0,1,3.741-11.523,30.561,30.561,0,0,1,2.79-4.7C410.172,2406.251,411.019,2405.235,410.841,2404.04Z"/><path class="p" d="M429.872,2392.546a2.125,2.125,0,0,0-.786.519c-3.968,4.019-10.192,6.9-17.191,9.389l5.124-.871s1.346,1.414,2.412,1.387c.867-.021,9.391-5.436,12.179-7.261a1.8,1.8,0,0,0,.632-2.307A1.705,1.705,0,0,0,429.872,2392.546Z"/><path class="p" d="M410.773,2395.37l-1.534,5.007,1.622-.684,1.034,2.761,2.367-6.456c-.647-1.289-1.2-1.729-2.367-1.456A1.766,1.766,0,0,0,410.773,2395.37Z"/><path class="o" d="M363.2,2408.867s2.633-6.264,3.447-7.44-1.462-.8-2.445-.291-3.45,3.778-3.45,3.778S358.945,2409.242,363.2,2408.867Z"/><path class="o" d="M366.2,2418.864s-4.752,1.614-5.989,0-6.389-2.786-4.837-7.842c.818-2.669.581-6.674,2.184-9.224,1-1.6,2.248-2.658,3.531-2.544.764.075,2.207,3.64,2.863,4.256.548.519,1,2.287,1.016,4.192a11.091,11.091,0,0,1-.075,1.432,7.248,7.248,0,0,1-.707,2.532,5.287,5.287,0,0,0-.673,2.709C363.7,2417.661,365.927,2418.037,366.2,2418.864Z"/><path class="w" d="M364.964,2407.7a11.091,11.091,0,0,1-.075,1.432,10.184,10.184,0,0,0-2.549-2.145c-1.375-.662-6.97,4.033-6.97,4.033l-1.552-6.252a28.015,28.015,0,0,1,3.736-2.972,8.057,8.057,0,0,1,.907-.5c1.934-.89,2.664-.371,3.879,0C363.15,2401.547,364.29,2405.255,364.964,2407.7Z"/><path class="x" d="M396.8,2426.022c.327-9.4-6.6-18.943-17.487-22.912a27.721,27.721,0,0,0-18.666-.365,19.4,19.4,0,0,0-12.2,11.544c-3.98,10.917,3.388,23.666,16.425,28.42a29.394,29.394,0,0,0,10.05,1.809,25.838,25.838,0,0,0,8.616-1.444,19.4,19.4,0,0,0,12.2-11.544,17.766,17.766,0,0,0,.868-3.422A2.713,2.713,0,0,0,396.8,2426.022Zm-44.809-10.442a15.7,15.7,0,0,1,9.912-9.281q.855-.3,1.738-.529l4.44,17.687-5.987,1.754-4.26,1.248-2.129.624c-.684-.1-1.034,0-1.059.3a2.482,2.482,0,0,0-1.813.232A15.388,15.388,0,0,1,351.994,2415.58Zm40.205,14.659a15.7,15.7,0,0,1-9.911,9.281,23.959,23.959,0,0,1-16.119-.352,25,25,0,0,1-10.069-6.714c1.316-.333,2.64-.909,3.635-1.2l12.245-3.588a2.4,2.4,0,0,0,1.528-1.218c2.4.6,5.02.739,7.3,1.1l11.661,1.878C392.385,2429.7,392.3,2429.971,392.2,2430.239Zm-8.954-7.463c-3.149-.507-7.728-.451-10.581-2.157q-1.95-7.77-3.9-15.54c.168,0,.335-.01.5-.01a25.637,25.637,0,0,1,8.758,1.582c8.716,3.178,14.507,10.4,15,17.7Z"/><path class="o" d="M354.33,2407.894c.9-.386.261-2.51.261-2.51s.169-.846.383-.25c.58,1.619.674,2.06,1.527,1.8s.226-3.458.226-3.458l.281-.282s-.038,2.084,1.343,1.312c.529-.3.621-2.347.621-2.347s.225,2.41,1.12,1.663c.378-.315.792-.872,1.031-2.89a3.166,3.166,0,0,0-.038-1.672c-.1-.415-1.425-.02-2.171,1.132-.171.264-1.726-.279-1.785,1.18-2.43-.3-1.6,1.455-2.271,1.371-1.67-.206-2.091,1.785-2.091,1.785S353.431,2408.279,354.33,2407.894Z"/><path class="y" d="M517.414,2421.345c-4.94,2.719-101.9,23.359-160.51,33-8.856,1.457-16.809-.172-23.4.743-11.735,1.627-18.679,7.023-19.2,6.11-4.166-7.351,41.538-35.983,53.7-36.992,0,0,46.56-4.5,80.059-9.767l.519-.08c.941-.154,1.865-.3,2.784-.451,1.494-.244,2.96-.494,4.386-.738,14.334-2.475,24.88-5.056,25.77-7.366.53-1.37-.274-2.735-1.825-4.01.085-.117.171-.234.245-.35a13.751,13.751,0,0,0,1.871-2.337C496.06,2398.5,523.061,2418.228,517.414,2421.345Z"/><path class="y" d="M378.482,2436c-3.976,1.684-51.74,13.139-62.594,20.553-5.254,3.585-29.529,1.6-56.32-1.726-3.371-.419-6.776-.86-10.193-1.312-.77-.106-1.54-.207-2.31-.308-1.2-.164-2.39-.324-3.588-.488q-2.516-.344-5.014-.691c-5.082-.706-10.1-1.418-14.944-2.119-3.758-.536-7.415-1.067-10.917-1.572-.428-.063-.85-.122-1.272-.18-1.631-.239-3.228-.468-4.78-.685-2.937-.42-5.721-.813-8.322-1.174-.473-.064-5.052-1.319-4.8-1.684a41.429,41.429,0,0,1,13.76-12.216c26.6-15.387,71.788-27.731,73.775-30.212,2.917,2.716,95.1,17.309,99.205,21.01S382.463,2434.316,378.482,2436Z"/><path class="y" d="M315.575,2456.552v6.4a99.52,99.52,0,0,0-10.888,14.514q-.9,1.458-1.774,3.006c-.73,1.285-1.415,2.565-2.059,3.823a95.11,95.11,0,0,0-8.077,22.455q-2.207.022-4.534,0a227.467,227.467,0,0,1-40.076-3.909q-3.858-.725-7.483-1.423-4.278-.813-8.248-1.62c-5.373-1.089-10.341-2.172-14.973-3.335a124.073,124.073,0,0,1-21.52-7.17c-.531-.239-1.061-.489-1.58-.738,0,0-10.917-19.6-4.62-37.223a30.307,30.307,0,0,1,1.471-3.458,29.431,29.431,0,0,1,6.6-8.3C199.742,2437.772,315.575,2456.552,315.575,2456.552Z"/><path class="z" d="M285.674,2398.219a3.426,3.426,0,0,0,.839,2.318,22.949,22.949,0,0,0,4.668,4.668c10.573,8.562,22.718,11.82,35.959,13.4,9.989,1.193,19.741,3.315,29.654,4.938q.877.144,1.756.276c.261.036.83.118.892.125,1.013.117,2.027.223,3.044.3a38.839,38.839,0,0,0,6.357.21c-.752.028,1.353-.521,1.989-.735.8-.269,1.6-.565,2.417-.774a18.249,18.249,0,0,1,6.985-.455c9.434-15.376,23.128-38.732,23.128-38.732-1.84-15.22-73.5-19.934-87.866-14.495-8.9,3.37-21.186,16.75-29.25,26.445C286.024,2396.9,285.731,2397.573,285.674,2398.219Zm3.154,1.072c6.054-7.062,19.938-26.328,29.832-26.7,20.191-.768,57.966,1.875,71.954,9.827,1.113.632.778,2.405.174,3.519-2.676,4.982-15.561,25.756-20.791,33.954,0,0-30.2-5.975-54.5-9.963-7.221-1.183-20.271-5.759-25.176-6.593A2.463,2.463,0,0,1,288.828,2399.291Z"/><path class="aa" d="M319,2371.488s-35.122,19.1-31.055,33.581,84.723,15.55,84.723,15.55,29.339-34.714,21.74-39.961S342.006,2369.013,319,2371.488Z"/><path class="ab" d="M343.336,2370.647l-54.242,32.976,2.485,6.545L357,2373.2Z"/><path class="ab" d="M365.922,2372.293l-59.433,36.533,15.939,7.739,71.679-40.959Z"/><path class="y" d="M315.888,2368.174c-14.112,5.43-36.91,36.9-36.91,36.9s-2.892,2.173,7.238,6.879c2.618,1.215,79.774,30.618,87.2,19.176s28.8-48.488,28.8-48.488C400.413,2367.45,330,2362.744,315.888,2368.174Zm73.979,16.638c-2.63,4.974-15.29,25.713-20.429,33.9,0,0-29.669-5.966-53.551-9.947-7.1-1.181-17.071-5.476-21.89-6.309-1.888-.325-5.551-2.846-4.313-4.306,5.949-7.05,19.591-26.284,29.312-26.66,19.839-.766,56.955,1.872,70.7,9.811C390.789,2381.93,390.46,2383.7,389.867,2384.812Z"/><path class="z" d="M369.021,2420c-1.287,0-4.359-.367-12.522-1.819-7.936-1.413-17.64-3.347-26.625-5.3-25.789-5.621-39.785-9.964-41.6-12.906a1.974,1.974,0,0,1,.555-2.75c2.572-3.013,21.12-24.529,27.469-25.926,3.862-.848,48.423-2.5,71.6,7.73a4.654,4.654,0,0,1,2.524,2.746,4.588,4.588,0,0,1-.312,3.661c-18.092,33.244-19.52,34.06-20.057,34.367A1.745,1.745,0,0,1,369.021,2420Zm-.317-2.3Zm-78.04-18.773c1.161.974,7.227,4.359,38.6,11.25,19.467,4.277,36.786,7.274,39.62,7.333,1.645-1.983,9-14.828,19.037-33.277a2.047,2.047,0,0,0,.142-1.657,2.119,2.119,0,0,0-1.165-1.264c-22.692-10.011-66.28-8.405-70.056-7.575C314.506,2374.251,305.613,2381.383,290.664,2398.928Z"/><path class="y" d="M282.6,2403.72s-.481-3.67-2.267-5.168-5.693-5.268-5.512-8.144a18.469,18.469,0,0,1,.751-3.782,3.276,3.276,0,0,1,4.774-1.957,5.053,5.053,0,0,1,2.254,2.682c1.266,3.618.724,7.052.9,7.958a30.146,30.146,0,0,0,2.352,4.384Z"/><path class="ac" d="M293.092,2506.747s19.387-56.475,46.162-50.411c21.1,4.778,23.168,30.161,23.1,40.71a3.716,3.716,0,0,0,4.721,3.413l79.4-19.237a6.641,6.641,0,0,0,4.929-4.623c2.622-9.665,10.978-35.32,26.223-37.23,18.815-2.359,26.19,6.669,24.381,25.9,0,0,11.761-11.148,14.462-15.879,3.191-5.592,2.082-30.989,1.236-30.861-.55.083-3.172.793-11.253,2.253-4.567.825-141.1,33.622-149.269,32.265-39.989-6.638-44.7,4.9-53.271,14.12-21.116,22.707-19.141,37.9-19.141,37.9Z"/><path class="o" d="M434.168,2408.3s-12.785,4.673-14.636,5.732-9.532,1.574-11.137,3.3a10.355,10.355,0,0,0-2.155,4.272l11.993-1.571s19.712-.121,20.918-.905S434.168,2408.3,434.168,2408.3Z"/><path class="p" d="M450.886,2417.649c-.467.12-.924.234-1.38.343-1.072.268-2.116.513-3.086.73-.576.125-1.129.245-1.654.353a32.7,32.7,0,0,1-4.939.81c-2.487-.091-5.807-11.116-7.4-11.584s3.08-3.234,3.08-3.234c2.315,1.922,2.219-.759,4.888-1.563.7-.211,1.437-.428,2.2-.656,4.472-1.318,9.611-2.766,10.792-2.96,8.681-1.426,13.98,5.9,14.824,10C468.722,2412.373,459.1,2415.55,450.886,2417.649Z"/><path class="v" d="M446.42,2418.722c-.576.125-1.129.245-1.654.353l-4.922-8.846C440.2,2410.6,445.051,2415.818,446.42,2418.722Z"/><path class="v" d="M450.886,2417.649c-.467.12-.924.234-1.38.343-.827-3.434-2.6-8.55-6.2-11.824-1.158-1.05-2.116-1.928-2.909-2.664.7-.211,1.437-.428,2.2-.656C445.821,2406.413,450.75,2412.653,450.886,2417.649Z"/><path class="y" d="M374.283,2423.07s12.586-5.98,13.888-6.992,3.625-5.281,5.51-5.909,16.1-3.1,17.368-1.108,4.522,7.823,1.447,9.068-20.281,1.747-22.081,2.49-14.774,7-14.774,7Z"/><path class="ad" d="M311.784,2461.3s-45.554,18-50.13,18-57.04-10.462-59-11.57c-1.574-.888-9.217-9.133-13.723-13.762-4.372,17.937,5.433,34.58,5.433,34.58.519.249,1.05.5,1.58.738a124.084,124.084,0,0,0,21.521,7.17c4.631,1.163,9.6,2.246,14.972,3.335q3.971.8,8.248,1.619,3.629.7,7.484,1.424a227.466,227.466,0,0,0,40.075,3.909q2.326.024,4.535,0a95.128,95.128,0,0,1,6.253-18.66Z"/><path class="c" d="M359.773,2462.441c1.413,1.256,5.327,4.193,6.269,7.189,3.79,0,31.156-10.985,31.156-10.985S358.361,2461.185,359.773,2462.441Z"/><path class="e" d="M397.2,2458.645s-27.366,10.985-31.156,10.985c-.942-3-4.856-5.933-6.269-7.189s37.425-3.8,37.425-3.8Zm0-1.152c-.029,0-.058,0-.087,0-.093.006-9.358.614-18.565,1.371-5.415.445-9.754.854-12.895,1.216-1.884.217-3.362.421-4.392.6-1.628.291-2.4.543-2.683,1.268a1.171,1.171,0,0,0,.342,1.318c.215.191.475.41.775.664,1.556,1.315,4.453,3.764,5.161,6.016a1.229,1.229,0,0,0,1.187.828c1.12,0,4.148-.578,17.462-5.576,7.245-2.72,14.115-5.476,14.184-5.5a1.132,1.132,0,0,0,.712-1.33,1.223,1.223,0,0,0-1.2-.88Z"/><path class="ae" d="M315.575,2460c-8.593,11.02-12.486,10.937-20.478,13.524-3.55,1.149-19.968,5.041-22.8,5.041-3.306,0-1.825-13.062-1.3-13.742,2.015-2.6,15.45-5.3,37.944-9.274C320.293,2453.54,319.69,2454.721,315.575,2460Z"/><path class="e" d="M288.775,2464.729c-8.477,2.108-15.127,7.744-17.023,13.7a1.131,1.131,0,0,0,.541.138c2.836,0,19.254-3.892,22.8-5.041,6.9-2.234,11.462-2.615,17.6-10.044C305.992,2462.712,296.133,2462.9,288.775,2464.729Z"/><path class="ae" d="M196.947,2440.3c-5.039,4.09-6.457,8.6-7.807,13.731a74.844,74.844,0,0,0,7.1,7.383c2.652,1.865,9.827-9.368,9.84-10.207C206.1,2449.354,202.717,2446.318,196.947,2440.3Z"/><path class="e" d="M193.8,2443.444a31,31,0,0,0-4.873,10.531,72.133,72.133,0,0,0,7.309,7.444,1.135,1.135,0,0,0,.523.2C198.841,2456.334,198.14,2449.582,193.8,2443.444Z"/><path class="e" d="M211.358,2459.295c2.243-.47,42.709,6.719,45.27,9.1s6.611,8.668,6.611,11.289-1.293,17.742-3.161,19.482-54.469-10.17-56.768-12.311-2.012-16.178-1.006-18.46S208.627,2459.866,211.358,2459.295Z"/><path class="c" d="M212.836,2461.643c2.1-.382,39.7,6.463,42.051,8.589s6.034,7.69,6,9.989-1.462,15.544-3.228,17.045-50.606-9.647-52.718-11.555-1.64-14.217-.67-16.2S210.283,2462.107,212.836,2461.643Z"/><path class="e" d="M261.673,2492.667a13.082,13.082,0,0,1-2.867,1.875c-9.4-1.38-18.785-2.9-28.085-4.771-9.095-1.829-18.022-4.126-26.9-6.617a5.838,5.838,0,0,1-1.559-2.828c9.473,2.706,18.286,5.033,28,7.021C240.651,2489.472,251.15,2491.143,261.673,2492.667Z"/><path class="e" d="M261.943,2487.514c-.063.124-.132.248-.2.371l-1,1.742c-10.047-1.54-20.072-3.2-30-5.346-9.6-2.07-19-4.762-28.355-7.641l.056-1.864c.005-.165.016-.336.033-.5,9.19,2.841,18.421,5.512,27.848,7.583C240.773,2484.155,251.353,2485.909,261.943,2487.514Z"/><path class="e" d="M261.422,2483.51c-10.608-1.623-21.206-3.365-31.688-5.658-9.257-2.021-18.327-4.63-27.35-7.427a10.048,10.048,0,0,1,1.1-2.059c8.531,2.647,17.1,5.118,25.842,7.063,10.644,2.365,21.422,4.152,32.21,5.809A10.269,10.269,0,0,1,261.422,2483.51Z"/><path class="e" d="M261.408,2477.082c-10.146-1.484-20.276-3.106-30.308-5.175-8.917-1.844-17.675-4.181-26.378-6.71a13.058,13.058,0,0,1,3.06-1.5c7.549,2.16,15.152,4.162,22.875,5.784,9.592,2.014,19.27,3.6,28.976,5.042A11.3,11.3,0,0,1,261.408,2477.082Z"/></g></svg>