<svg xmlns="http://www.w3.org/2000/svg" width="78.881" height="45.983" viewBox="0 0 78.881 45.983"><defs><style>.a{fill:#fff;}.b{fill:#040505;}</style></defs><g transform="translate(-1858.344 -717.219)"><path class="a" d="M1863.471,717.568h68.624c2.461,0,4.481,1.088,4.481,2.415v35.642c0,1.332-2.02,2.415-4.481,2.415h-68.624c-2.47,0-4.478-1.083-4.478-2.415V719.983C1858.993,718.656,1861,717.568,1863.471,717.568Z"/><path class="b" d="M1932.095,758.39h-68.624c-2.827,0-5.127-1.241-5.127-2.765V719.983c0-1.524,2.3-2.764,5.127-2.764h68.624c2.829,0,5.13,1.24,5.13,2.764v35.642C1937.225,757.149,1934.924,758.39,1932.095,758.39Zm-68.624-40.472c-2.112,0-3.83.926-3.83,2.065v35.642c0,1.139,1.718,2.065,3.83,2.065h68.624c2.114,0,3.833-.926,3.833-2.065V719.983c0-1.139-1.719-2.065-3.833-2.065Z"/><path class="b" d="M1870.087,758.39l-5.928,4.812h1.317l8.845-4.812Z"/><path class="b" d="M1921.248,758.39h4.234l5.928,4.812"/></g></svg>