<svg xmlns="http://www.w3.org/2000/svg" width="57.241" height="74.503" viewBox="0 0 57.241 74.503"><defs><style>.a{fill:#bc071c;}</style></defs><g transform="translate(-457.158 -1340.786)"><g transform="translate(-4172.768 -15.194)"><path class="a" d="M4687.119,1430.483h-3.376v-52.527h-18.509v-18.54h-31.885v67.357h1.237q19.368,0,38.735-.024c1.023,0,11.056-.962,11.659-.108.544.77.15,2.616.881,3.457h-55.935v-74.116h1.082q17.878,0,35.756.021a2.259,2.259,0,0,1,1.443.584q9.189,9.121,18.306,18.317a2.153,2.153,0,0,1,.625,1.335c.038,7.579.028,45.9.025,53.474C4687.163,1429.953,4687.136,1430.194,4687.119,1430.483Zm-6.315-56.047-12.133-12.144v12.144Z"/><path class="a" d="M4673.621,1406.572v3.321H4643.39v-3.321Z"/><path class="a" d="M4673.624,1386.409v3.227h-30.239v-3.227Z"/><path class="a" d="M4665.2,1396.505v3.234H4643.39v-3.234Z"/></g></g></svg>