<svg xmlns="http://www.w3.org/2000/svg" width="47.086" height="47.086" viewBox="0 0 47.086 47.086"><defs><style>.a{fill:none;stroke:#ce001b;stroke-miterlimit:10;}</style></defs><g transform="translate(-746.609 -1424.055)"><path class="a" d="M770.152,1424.555a23.043,23.043,0,1,1-23.043,23.043A23.043,23.043,0,0,1,770.152,1424.555Z"/><path class="a" d="M778.211,1447.137a1.626,1.626,0,0,0-1.4-.8h-2.167V1433.8H765.5v12.539h-2.167a1.627,1.627,0,0,0-1.422,2.416l6.74,6.879a1.626,1.626,0,0,0,2.843,0l6.74-6.879A1.63,1.63,0,0,0,778.211,1447.137Z"/><rect class="a" width="16.731" height="2.979" transform="translate(761.705 1455.63)"/></g></svg>