<svg xmlns="http://www.w3.org/2000/svg" width="74.41" height="70.602" viewBox="0 0 74.41 70.602"><defs><style>.a{fill:none;stroke:#000;}.a,.b{stroke-miterlimit:10;}.b{fill:#ce001b;stroke:#040505;}</style></defs><g transform="translate(-4684.455 -727.34)"><path class="a" d="M4726.578,758.227c-2.827-7.321-12.293-5.122-10.422,1.985.256,1.768,4.884,6.361,2.955,7.355-9.888,6.8-24.46,4.112-30.754-6.28-9.742-14.421,2.823-35.265,20.146-33.315,14.45.748,24.183,17.135,18.252,30.249Z"/><path class="a" d="M4729.284,765.548c3.039-3.79,3.641-.31,5.8-2.476a5.422,5.422,0,0,1,6.312-1.4c1.7.883,3.1-.861,4.853-.617,3.992,1.215,6.719,6.663,7.855,10.454,2.438,21.41,12.47,13.107-9.61,25.63-1.2.684-1.214.684-2.227-.268-5.425-5.141-9.96-10.952-18.313-8.989-3.5.908-7.837-2.734-5.2-6.283,2.157-2.645,5.571-3.346,8.755-4.008-2.108-4.053-4.585-7.95-6.752-11.99-1.127-2.573-3.658-4.89-3.476-7.832a3.756,3.756,0,0,1,6.113-1.691C4725.757,758.957,4727.171,762.5,4729.284,765.548Z"/><path class="b" d="M4704.565,756.434c4.607-3.843,8.873-8.093,13.357-12.086.536-.668-1.135-2.707-1.851-1.768-3.572,3.156-7.181,6.271-10.728,9.456-1.306,1.295-4.282-3.542-5.593-4.333-.444-.921-2.663,1.854-1.852,2.123C4700.254,751.892,4702.1,754.523,4704.565,756.434Z"/></g></svg>