<svg xmlns="http://www.w3.org/2000/svg" width="407.299" height="365.027" viewBox="0 0 407.299 365.027"><defs><style>.a{fill:#bd2e23;}.b{fill:#ffb900;}.c{fill:#9d171a;}.d{fill:#282828;}.e{fill:#d99369;}.f{fill:#686f26;}.g{fill:#4f5b22;}.h{fill:#c9c9c9;}.i{fill:#fddfd5;}.j{fill:#e39f68;}.k{fill:#c88463;}.l{fill:#fff;}.m{fill:#d8686a;}</style></defs><g transform="translate(-776.626 -164.844)"><path class="a" d="M1074.43,309.154h0a1.571,1.571,0,0,1-1.571-1.571v-6.94a1.571,1.571,0,0,1,1.571-1.57h0a1.57,1.57,0,0,1,1.57,1.57v6.94A1.57,1.57,0,0,1,1074.43,309.154Z"/><path class="b" d="M1090.925,193.054c-2.626-3.44-5.57-5.339-8.753-5.647-4.908-.475-8.819,2.941-8.857,2.975l-1.957-2.2c.2-.176,4.925-4.3,11.1-3.7,4.031.39,7.668,2.675,10.811,6.792Z"/><path class="a" d="M1065.824,188.2l-7.832,7.832a5.538,5.538,0,0,0,0,7.831h0a5.538,5.538,0,0,0,7.831,0l7.832-7.832a5.538,5.538,0,0,0,0-7.831h0A5.538,5.538,0,0,0,1065.824,188.2Z"/><path class="c" d="M1038.6,197.466l28.651,28.651a20.259,20.259,0,0,0-28.651-28.651Z"/><path class="a" d="M1116.15,252.04l-28.731-58.527,8.968-4.4,28.731,58.527Zm-24.616-57.122,26.021,53.006,3.447-1.692-26.021-53.006Z"/><path class="a" d="M1106.035,313.058l-9.454-3.228,21.069-61.7,9.454,3.228Zm-5.55-5.145,3.633,1.241,19.082-55.881-3.633-1.24Z"/><path class="b" d="M1068.006,229.051h0a1.544,1.544,0,0,1-2.184,0l-30.15-30.151a1.543,1.543,0,0,1,0-2.184h0a1.543,1.543,0,0,1,2.183,0l30.151,30.151A1.544,1.544,0,0,1,1068.006,229.051Z"/><path class="c" d="M1128.425,250.872a7.284,7.284,0,1,1-7.284-7.284A7.284,7.284,0,0,1,1128.425,250.872Z"/><path class="b" d="M1062.476,303.882h47.786a9.978,9.978,0,0,1,9.979,9.978H1052.5A9.978,9.978,0,0,1,1062.476,303.882Z"/><path class="d" d="M833.374,396.088l2.7-2.289c-9.9-11.7-15.345-33.98-15.744-64.448A321.66,321.66,0,0,1,822.817,286l-3.508-.494a325.6,325.6,0,0,0-2.518,43.841,191.624,191.624,0,0,0,3.568,36.5C823.127,378.983,827.506,389.157,833.374,396.088Z"/><path class="a" d="M838.311,250.073c-1.464,0-42.452-4.88-43.428,2.44s-2.928,64.41,6.831,66.361,57.091-6.831,57.091-6.831Z"/><path class="d" d="M889.114,172.1a41.215,41.215,0,0,0-25.055-7.224c-.859.032-1.623.079-2.224.144-10.014,1.093-15.946,9.644-19.437,13.722-3.371,3.936-6.176,8.445-10.271,11.622-8.915,6.918-21.505,5.917-32.129,9.718a15.108,15.108,0,0,0-6.641,4.118,15.834,15.834,0,0,0-3.017,7.41,47.085,47.085,0,0,0-.537,13.868c.186,1.69.411,3.581-.632,4.923-1.373,1.766-4.04,1.547-6.192,2.155-4.456,1.258-6.022,6.518-6.1,11.147-.119,6.88-1.564,13.042,4.071,20.614,4.183,5.621,21.379,28.358,63.883,18.321,6-1.417,13.714-10.288,15.329-12.707,5.594-8.379,13.031-7.736,22.3-11.679a15.954,15.954,0,0,0,6.11-3.9c3.55-4.147,2.44-10.35,3.179-15.759,1.625-11.891,12.832-21.26,12.841-33.261a32.584,32.584,0,0,0-1.121-7.581c-1.823-7.609-4.437-15.233-9.382-21.3A24.609,24.609,0,0,0,889.114,172.1Z"/><path class="e" d="M977.932,305.492c.5-.775-.759-2.091-1.706-3.078-1.049-1.093-7.4-3.839-8.482-4.169s-10.338.975-13.881,2.136a12.549,12.549,0,0,1-5.879.684c-.93-.19-2.326-.444-3.411-.669l-1.231,8.261c8.319-.105,16.027.518,16.816.5,2.5-.063,7.079-2.68,8.141-3.064a7.465,7.465,0,0,1,4.66.6c1.447.679,5.658,2.29,6.363,1.915S977.932,305.492,977.932,305.492Z"/><path class="f" d="M1154.829,269.29a17.552,17.552,0,0,0-1.513-6.193c-1.2-2.306-3.305-3.969-5.145-5.8a32.172,32.172,0,0,1-7.673-12.23c-1.228-3.549-1.841-7.329-3.533-10.68-1.033-2.046-2.442-3.876-3.616-5.845-2.775-4.652-4.284-10.152-8.047-14.046a16.884,16.884,0,0,0,3.814,13.356,22.5,22.5,0,0,1,2.707,3.292c1.281,2.245,1.165,4.984,1.315,7.566a33.233,33.233,0,0,0,3.973,13.9c2.468,4.533,6.031,8.569,7.351,13.56.989,3.741.695,7.936,2.8,11.178a2.85,2.85,0,0,1,.546,1.119,2.481,2.481,0,0,1-.041.7c-.047.3-.095.6-.142.9-.48,3.061-.975,6.956,1.655,9.247,1.823,1.588,4.17,1.623,5.479-.486s1.2-5.231,1.1-7.622C1155.7,277.237,1155.277,273.246,1154.829,269.29Z"/><path class="g" d="M1159.567,266.827c-1.023-3.544-2.612-6.919-3.408-10.52a49.615,49.615,0,0,1-.781-10.684q0-5.882-.008-11.763a44.413,44.413,0,0,0-.408-7.3c-.868-5.18-3.56-9.969-4.016-15.2-.2-2.262.032-4.549-.217-6.807a10.7,10.7,0,0,0-1.07-3.75,1.671,1.671,0,0,0-3,.084,15.24,15.24,0,0,0-1.608,8.931,36.539,36.539,0,0,0,1.694,5.271c2.622,7.8,1.23,16.435,3.259,24.41.612,2.408,1.539,4.769,1.646,7.251.258,5.941-4.179,11.368-3.772,17.3.334,4.864,3.831,8.889,5.3,13.537.821,2.6,1,5.38,1.877,7.963.684,2.006,2.275,4.443,4.745,3.834,2.345-.578,1.637-2.493,1.532-4.321C1160.978,278.872,1161.312,272.871,1159.567,266.827Z"/><path class="f" d="M1164.935,270.074a28.329,28.329,0,0,1-.157-5.518,32.167,32.167,0,0,1,1.271-4.49,40.343,40.343,0,0,0,1.223-8.651q.543-7.939,1.085-15.879a207.512,207.512,0,0,1,2.666-24.581c.427-2.249.907-4.686-.1-6.74-.212-.433-.632-.892-1.091-.748-.328.1-.489.463-.607.786-3.363,9.139-4.634,18.978-8.388,27.963a35.906,35.906,0,0,0-2.41,6.556c-.559,2.745-.252,5.58-.18,8.381a39.5,39.5,0,0,1-1.4,11.926,49.484,49.484,0,0,0-1.675,6.074,31.933,31.933,0,0,0,.185,7.84,120.44,120.44,0,0,1,.483,15.1c-.091,2.962,2.409,2.884,4.066,1.065,1.157-1.272,1.147-2.669,1.543-4.253C1162.749,279.706,1165.251,275.712,1164.935,270.074Z"/><path class="g" d="M1149.316,278.105c-2.21-3.552-6.614-5.571-8.027-9.51-.359-1-.5-2.081-.939-3.051-.976-2.155-3.194-3.372-5.374-4.363a.461.461,0,0,0-.652.415h0a1.574,1.574,0,0,0,.683,1.33,8.847,8.847,0,0,1,3.525,4.807c.673,2.309.381,4.84,1.218,7.094.7,1.893,2.15,3.44,2.829,5.341.622,1.737.556,3.636.848,5.459s1.1,3.756,2.776,4.527C1152.258,292.945,1150.744,280.4,1149.316,278.105Z"/><path class="f" d="M1174.5,276.933c-.094,1.717.169,3.518-.5,5.1a15.461,15.461,0,0,1-1.839,2.729c-2.228,3.153-3.037,7.62-6.462,9.4a1.163,1.163,0,0,1-.728.175,1.114,1.114,0,0,1-.722-.732c-.84-1.956.1-4.16.66-6.215a1.526,1.526,0,0,0,.009-1.091c-.189-.364-.619-.522-.912-.807a2.659,2.659,0,0,1-.414-2.32,52.748,52.748,0,0,1,1.221-6,10.49,10.49,0,0,1,1.285-3.208,14.215,14.215,0,0,1,2.705-2.678,32.056,32.056,0,0,0,9.36-13.817,9.075,9.075,0,0,1,1.567-3.273,2.609,2.609,0,0,1,3.27-.667c.709.5-2.193,5.166-2.531,5.726-.967,1.6-.98,2.992-1.527,4.768C1177.6,268.373,1174.758,272.269,1174.5,276.933Z"/><path class="g" d="M1171.126,278.919a21.177,21.177,0,0,0,1.481-5.042c.232-1.939-.076-3.923.255-5.847.426-2.475,1.869-4.651,2.583-7.058a46.6,46.6,0,0,0,.952-5.35c.886-5.108,3.287-10.1,2.6-15.239-.15-1.118-.654-2.421-1.763-2.611a2.141,2.141,0,0,0-2.18,1.732,9.351,9.351,0,0,0,.005,3.046,12.569,12.569,0,0,1-2.252,8.065c-1.578,2.233-3.867,3.914-5.286,6.25-1.742,2.866-1.979,6.364-2.868,9.6-1.767,6.433-6.2,12.046-7.007,18.669-.322,2.636.3,5.84,2.729,6.892C1167.408,295.072,1169.532,283.04,1171.126,278.919Z"/><path class="b" d="M1158.827,287.084h-16.144a1.712,1.712,0,0,0-1.664,2.109l5.886,24.818a1.709,1.709,0,0,0,1.663,1.316h19.394a1.709,1.709,0,0,0,1.663-1.316l5.885-24.818a1.712,1.712,0,0,0-1.663-2.109Z"/><path class="d" d="M865.628,529.466l5.033-.045c-.664-48.747-1.249-122.779-.14-126.931a1.511,1.511,0,0,1-.334.558l-4.085-2.365c-.66.738-1.058,1.182-1.2,21.912-.071,10.669-.044,25.4.08,43.787C865.2,497.682,865.624,529.151,865.628,529.466Z"/><path class="a" d="M919.37,399.939c-2.106-.421,5.367,7.319,0,9.759s-86.368.976-92.712-1.952-14.151-7.807-11.223-14.151,52.844-14.638,52.844-14.638l45.235,12.2S921.81,400.427,919.37,399.939Z"/><path class="e" d="M956.784,300.656l-45.509-13.917a374.126,374.126,0,0,0-24.129-38.259c-4.93,4.879-7.67,12.376-12.634,17.208l36.822,40.728a7.028,7.028,0,0,0,5.194,2.317l43.63.423Z"/><path class="h" d="M888.2,283.208s-16.25-11.875-21.163-20.38,3.345-2.968,11.781-5.206c3.194-.848,2.386-19.567,8.425-13.482,9.907,9.983,18,29.809,18,29.809Z"/><path class="i" d="M863.894,235.552s-17.133-3.382-24.952,3.15,1.675,64.609,1.668,74.237-5.369,36.83-5.369,36.83,51.93,9.089,60.178-5.364c0,0,2.347-55.065,2-61.989s-8.049-35.244-10.177-38.276S863.894,235.552,863.894,235.552Z"/><path class="j" d="M863.787,209.049s-.09.513-.252,1.384c-.777,4.182-3.77,18.055-5.791,21.868-2.444,4.609,8.363,19.309,18.765,17.515,3.1-.534-2.617-13.506-2.343-14.88.526-2.631,1.239-6.219,1.968-9.9.412-2.076.828-4.18,1.22-6.158,1.112-5.621,2.02-10.218,2.02-10.218Z"/><path class="k" d="M863.535,210.433c.162-.871.252-1.384.252-1.384l15.587-.387s-.908,4.6-2.02,10.218c-.39,1.967-.8,4.059-1.213,6.123a14.612,14.612,0,0,1-7.442-3.724,19.612,19.612,0,0,1-5.637-8.367C863.254,211.929,863.414,211.082,863.535,210.433Z"/><path class="j" d="M874.277,173.692s-7.346-.847-11.951,5.1-9.568,24.325,1.871,34.319,22.742-1.318,24.418-13.312S890.943,173.259,874.277,173.692Z"/><path class="d" d="M875.1,171.727s-9.815,17.48-16.836,18.288-7.943,10.1-7.943,10.1,2.51-21.4,9.461-25.53S875.1,171.727,875.1,171.727Z"/><path class="d" d="M837.945,523.9h59.977a5,5,0,0,1,5,5h0a.875.875,0,0,1-.875.875H833.817a.874.874,0,0,1-.874-.875h0A5,5,0,0,1,837.945,523.9Z"/><path class="j" d="M926.16,482.3s-15.763,18.9-15.867,20.544.626,19.594,2.5,21.239,7.382,2.81,5.611,4.66c-1.338,1.4-11.632,1.1-18.455.724-1.991-.11-4.489-16-5.278-18.336-1.145-3.391-3.931-11.031-2.89-13.4.508-1.152,2.935-3.519,6.357-5.729,3.6-2.324,17.362-21.475,17.362-21.475Z"/><path class="a" d="M898.361,491.894s10.585,29.8,14.728,31.24c1.1.382,6.378,1.351,7.374,3.685a10.1,10.1,0,0,1,0,3.052H898.4s-2.791-13.13-3.893-18.9c0,0-5.84-14.1-5.191-15.378S898.361,491.894,898.361,491.894Z"/><path class="j" d="M1020.575,491.376s12.872,18.122,11.74,23.855c-.606,3.07-3.306,7.088-1.757,9.977s3.32,3.611,3.32,3.611l40.153.646c2.187.035.742-1.37-1.021-2.664-2.887-2.118-5.217-3.518-14.437-7.97-.6-.29-2.791-1.68-3.581-2.16a27.777,27.777,0,0,1-5.743-5.064c-2.883-3.2-15.561-29.308-15.561-29.308Z"/><path class="a" d="M1054.987,516.667c-10.619,2.719-18.469.871-22.86-.9-1.133,3.2-2.634,7.221-1.838,9.538.975,2.837,2.363,3.478,3.589,3.51,9.7.254,35.53.6,42.926.7a1.206,1.206,0,0,0,.939-1.982C1075.909,525.347,1055.778,517.15,1054.987,516.667Z"/><path class="g" d="M974.016,379.578s-15.939,18.192-20.005,21.074-43.079,74.722-43.079,74.722l13.9,10.148s34.868-43.476,51.243-66.731c13.846-19.662,8.746-18.416,16.888-30.384a15.99,15.99,0,0,0-2.445-20.845q-1.1-1-2.4-2.083c-12.052-10.045-94.664-21.35-94.664-21.35L840.61,349.3s43.172,30.274,44.783,31.08,59.619,9.264,60.827,9.264S974.016,379.578,974.016,379.578Z"/><path class="f" d="M835.241,349.769s-9.064,27.191,4.532,39.879,94.362,11.28,120.949,11.28c0,0,10.877,29.809,12.085,34.643s53.979,67.272,53.979,67.272l14.5-9.264s-56.8-110.375-61.23-115.21-67.675-24.169-83.386-28.6S835.241,349.769,835.241,349.769Z"/><path class="d" d="M864.08,518.969h7.347a3.936,3.936,0,0,1,3.936,3.936h0a3.936,3.936,0,0,1-3.936,3.936H864.08a3.936,3.936,0,0,1-3.936-3.936h0A3.936,3.936,0,0,1,864.08,518.969Z"/><rect class="d" width="6.644" height="208.547" transform="translate(933.615 320.986)"/><rect class="d" width="6.643" height="208.547" transform="translate(1165.032 320.986)"/><path class="j" d="M939.871,301.478l-48-11.666s-16.976-22.767-33.325-42.4c-5.03,4.776-7.924,12.215-12.988,16.943l35.973,41.482a7.03,7.03,0,0,0,5.145,2.423l51.1,1.227Z"/><path class="h" d="M863.984,288.252s-22.825-18.784-27.737-27.289-1.269-22.754,7.166-24.992,35.961,36.265,35.961,36.265Z"/><path class="d" d="M928.748,324.824h249.88a5.532,5.532,0,0,0,5.3-5.742h0a5.533,5.533,0,0,0-5.3-5.742H928.748a5.533,5.533,0,0,0-5.3,5.742h0A5.532,5.532,0,0,0,928.748,324.824Z"/><path class="l" d="M878.7,206.5l-10.777-.558s.036,4.106,4.769,4.488C878.46,210.9,878.7,206.5,878.7,206.5Z"/><path class="m" d="M960.91,300.037s8.436-.124,8.666.6c.153.481.75,1.462-6.7,2.443S960.91,300.037,960.91,300.037Z"/><path class="j" d="M972.518,306.319c.5-.776-.759-2.092-1.706-3.078-1.05-1.094-7.4-3.839-8.482-4.169s-10.338.974-13.882,2.136a12.55,12.55,0,0,1-5.879.684c-.929-.19-2.326-.445-3.41-.669l-2.222,8.265c8.319-.105,17.018.514,17.806.495,2.5-.064,7.08-2.68,8.142-3.064a7.465,7.465,0,0,1,4.66.6c1.446.678,5.657,2.29,6.363,1.914S972.518,306.319,972.518,306.319Z"/><path class="a" d="M1082.3,245.948h-79.545a5.187,5.187,0,0,0-4.8,3.219L973.465,308.9H929.611a2.219,2.219,0,0,0-2.22,2.219h0a2.219,2.219,0,0,0,2.22,2.218h124.811a8.712,8.712,0,0,0,7.948-5.144l24.663-54.937A5.187,5.187,0,0,0,1082.3,245.948Z"/><path class="l" d="M1039.474,280.733c-.537,2.683-2.878,4.477-5.228,4.007s-3.819-3.025-3.281-5.708,2.877-4.478,5.227-4.008S1040.011,278.05,1039.474,280.733Z"/><rect class="d" width="231.568" height="7.062" transform="translate(936.785 398.347)"/></g></svg>