<svg xmlns="http://www.w3.org/2000/svg" width="88.575" height="88.575" viewBox="0 0 88.575 88.575"><defs><style>.a{fill:#fff;}.b{fill:#ce001b;}</style></defs><g transform="translate(-347.876 -1082.389)"><circle class="a" cx="44.288" cy="44.288" r="44.288" transform="translate(347.876 1082.389)"/><path class="a" d="M411.935,1113.81c9.2,13.129,4.386,29.644-8.394,36.447a24.666,24.666,0,1,1-15.1-46.273l-.31-1.561c-11.308,1.231-20.858,11.212-22.278,23.123a26.446,26.446,0,0,0,48.53,17.235c6.77-10.42,4.574-23.284-1.14-29.93Z"/><path class="a" d="M392.679,1098.809v28.032q9.906-9.879,19.947-19.889A26.258,26.258,0,0,0,392.679,1098.809Z"/><path d="M411.935,1113.81l1.308-.959c5.714,6.646,7.91,19.51,1.14,29.93a26.446,26.446,0,0,1-48.53-17.235c1.42-11.911,10.97-21.892,22.278-23.123l.31,1.561a24.666,24.666,0,1,0,15.1,46.273C416.321,1143.454,421.134,1126.939,411.935,1113.81Z"/><path d="M392.679,1098.809a26.258,26.258,0,0,1,19.947,8.143q-10.065,10.035-19.947,19.889Zm5.9,6.634c-2.868,2.312-5.466,4.764-3.814,9.206l7.983-8.183,1.263,1.456a99.914,99.914,0,0,1-7.516,7.383c-2.551,2.051-2.247,4.477-2.059,6.836l15.335-15.3a23.872,23.872,0,0,0-14.216-6.113c-.369-.033-1.113.493-1.135.8-.116,1.588-.054,3.189-.054,5.179l2.932-2.659Z"/><path class="b" d="M398.579,1105.443l-1.281-1.4-2.932,2.659c0-1.99-.062-3.591.054-5.179.022-.306.766-.832,1.135-.8a23.872,23.872,0,0,1,14.216,6.113l-15.335,15.3c-.188-2.359-.492-4.785,2.059-6.836a99.914,99.914,0,0,0,7.516-7.383l-1.263-1.456-7.983,8.183C393.113,1110.207,395.711,1107.755,398.579,1105.443Z"/></g></svg>