<svg xmlns="http://www.w3.org/2000/svg" width="44.601" height="44.601" viewBox="0 0 44.601 44.601"><defs><style>.a{fill:#ce001b;}</style></defs><g transform="translate(-706.427 -546.58)"><path class="a" d="M728.728,591.181a22.3,22.3,0,1,1,22.3-22.3A22.326,22.326,0,0,1,728.728,591.181Zm0-43.368A21.068,21.068,0,1,0,749.8,568.881,21.092,21.092,0,0,0,728.728,547.813Z"/><path class="a" d="M719.493,561.974l9.234,7.733,9.234-7.733Z"/><path class="a" d="M729.171,571.137l-.011.006a.656.656,0,0,1-.183.1l-.043.015a.683.683,0,0,1-.2.035h0a.684.684,0,0,1-.205-.035l-.043-.015a.657.657,0,0,1-.183-.1l-.011-.006-9.77-8.182v12.833h20.428V562.955Z"/></g></svg>