<svg xmlns="http://www.w3.org/2000/svg" width="88.476" height="81.73" viewBox="0 0 88.476 81.73"><defs><style>.a{fill:#fff;}.b{fill:none;stroke:#ce001b;stroke-miterlimit:10;}</style></defs><g transform="translate(-7689.602 -751.916)"><path class="a" d="M7692.883,820.452c-.356-.527-.761-.893-.69-1.072a1.805,1.805,0,0,1,.851-.782c.076-.04.61.442.578.621C7693.561,819.57,7693.249,819.878,7692.883,820.452Z"/><path d="M7716.712,812.369c-4.192,0-8.19.007-12.188,0-3.708-.007-5.531-1.472-6.268-5.083q-1.473-7.2-2.888-14.422c-.893-4.536,2.367-7.91,6.625-6.846a4.933,4.933,0,0,1,3.771,4.059q1.334,6.237,2.533,12.5c.176.931.548,1.216,1.457,1.2,2.87-.045,5.741-.02,8.611-.016,2.848,0,4.739,1.694,4.772,4.535.071,6.132.052,12.265.006,18.4a3.222,3.222,0,1,1-6.428-.1c-.01-4.219,0-8.438,0-12.657Z"/><path d="M7707.127,818.536a49.344,49.344,0,0,1-4.957-.026,10.836,10.836,0,0,1-9.685-8.847c-.968-4.584-1.891-9.178-2.822-13.769a2.493,2.493,0,0,1,1.934-3.056,2.383,2.383,0,0,1,2.866,2.009c.892,4.29,1.777,8.581,2.623,12.881.75,3.811,3.008,5.713,6.888,5.716,2.567,0,5.135-.01,7.7,0,1.8.01,2.865.932,2.912,2.478.048,1.584-1.052,2.606-2.892,2.637-1.523.025-3.046.005-4.569.005Z"/><path d="M7699.805,784.948a6.035,6.035,0,1,1,6.12-5.972A6.035,6.035,0,0,1,7699.805,784.948Z"/><path d="M7724.562,790.694a8.741,8.741,0,0,1-8.862-8.809,8.847,8.847,0,1,1,8.862,8.809Zm-.187-1.463a7.3,7.3,0,1,0-7.147-7.568A7.307,7.307,0,0,0,7724.375,789.231Z"/><path class="a" d="M7724.375,789.231a7.3,7.3,0,1,1,7.482-6.958A7.318,7.318,0,0,1,7724.375,789.231Zm.422-7.726c0-1.436.041-2.682-.027-3.922-.018-.333-.364-.647-.56-.97-.19.326-.538.65-.544.98-.029,1.562.032,3.126.066,4.69.016.722.341.933,1.007.607,1.285-.629,2.593-1.214,3.852-1.892.283-.153.4-.611.6-.929a2.635,2.635,0,0,0-1.021-.05C7727.087,780.442,7726.04,780.948,7724.8,781.505Z"/><path d="M7724.8,781.505c1.243-.557,2.29-1.063,3.369-1.486a2.635,2.635,0,0,1,1.021.05c-.194.318-.313.776-.6.929-1.259.678-2.567,1.263-3.852,1.892-.666.326-.991.115-1.007-.607-.034-1.564-.095-3.128-.066-4.69.006-.33.354-.654.544-.98.2.323.542.637.56.97C7724.838,778.823,7724.8,780.069,7724.8,781.505Z"/><path class="b" d="M7739.918,833.146h-5.357c-.956-.122-1.914-.228-2.866-.368a38.613,38.613,0,0,1-20.953-9.688c-11.893-10.9-16.3-24.366-12.56-40.1,2.7-11.377,9.578-19.887,19.775-25.561a40.038,40.038,0,0,1,46.1,5.325,39.856,39.856,0,0,1,13.052,23.957c.179,1.133.314,2.272.469,3.409v5.358c-.053.251-.119.5-.157.754-.245,1.658-.392,3.336-.741,4.971a39.3,39.3,0,0,1-9.45,18.474,39.854,39.854,0,0,1-23.9,13C7742.194,832.856,7741.054,832.991,7739.918,833.146Zm15.285-65.17a30.47,30.47,0,0,0-41.479,5.139c-10.382,12.292-8.419,28.735-1.261,37.608Zm-35.869,49.68c10.585,8.2,29.249,8.842,41.154-4.859,10.371-11.935,9.015-28.536,1.582-37.87Z"/></g></svg>