<svg xmlns="http://www.w3.org/2000/svg" width="51.03" height="51.03" viewBox="0 0 51.03 51.03"><defs><style>.a{fill:#fff;}.b{fill:#ce001b;}</style></defs><g transform="translate(-4898.021 -741.386)"><path class="a" d="M4949.051,768.707v23.709h-51.03v-51.03h23.709q-1.266.216-2.532.432a25.36,25.36,0,0,0,8.066,50.068c10.075-1.595,16.932-7.445,20.406-17.066A48.48,48.48,0,0,0,4949.051,768.707Z"/><path d="M4949.051,768.707a48.48,48.48,0,0,1-1.381,6.113c-3.474,9.621-10.331,15.471-20.406,17.066a25.36,25.36,0,0,1-8.066-50.068q1.266-.218,2.532-.432h3.838c.587.086,1.177.151,1.759.26,10.1,1.891,17.012,7.583,20.387,17.335a49.872,49.872,0,0,1,1.337,6.339Zm-48.976-2.018c.2,13.5,10.8,24,24.193,23.629a23.555,23.555,0,0,0-1.046-47.1C4910.577,743.4,4899.892,754.229,4900.075,766.689Z"/><path class="a" d="M4949.051,765.32a49.872,49.872,0,0,0-1.337-6.339c-3.375-9.752-10.287-15.444-20.387-17.335-.582-.109-1.172-.174-1.759-.26h23.483Z"/><path d="M4923.564,783.742a17.036,17.036,0,0,1-16.7-14.777,7.113,7.113,0,0,1-.05-2.021c.061-.376.49-.692.754-1.035.345.32.9.589.993.97.218.9.158,1.863.31,2.784a14.967,14.967,0,0,0,14.692,12.163c7.259.025,13.7-5.209,14.867-12.112.15-.884.087-1.811.3-2.673a1.633,1.633,0,0,1,.959-1.085c.715-.116.832.526.84,1.152a16.939,16.939,0,0,1-13.611,16.265C4925.808,783.556,4924.682,783.622,4923.564,783.742Z"/><path d="M4917.009,761.2a17.2,17.2,0,0,1-.039,2.58c-.061.393-.544.722-.835,1.08-.316-.343-.886-.672-.9-1.03a51.741,51.741,0,0,1,0-5.393c.019-.354.6-.679.915-1.017.288.36.768.693.824,1.087A19.329,19.329,0,0,1,4917.009,761.2Z"/><path d="M4932.111,761.143a15.277,15.277,0,0,1-.043,2.579c-.072.42-.595.762-.914,1.139-.289-.361-.808-.71-.827-1.085a52.319,52.319,0,0,1,0-5.28c.019-.372.542-.718.833-1.075.317.378.835.722.908,1.143A15.381,15.381,0,0,1,4932.111,761.143Z"/><path class="b" d="M0,0H34.981a0,0,0,0,1,0,0V1.692A17.491,17.491,0,0,1,17.491,19.183h0A17.491,17.491,0,0,1,0,1.692V0A0,0,0,0,1,0,0Z" transform="translate(4906.013 765.238)"/><path class="a" d="M4900.113,766.689c-.183-12.46,10.5-23.294,23.146-23.468a23.555,23.555,0,0,1,1.046,47.1C4910.915,790.685,4900.312,780.189,4900.113,766.689Zm23.489,17.053c1.117-.12,2.244-.186,3.351-.369a16.939,16.939,0,0,0,13.611-16.265c-.007-.626-.124-1.268-.839-1.152a1.633,1.633,0,0,0-.959,1.085c-.215.862-.152,1.789-.3,2.673-1.169,6.9-7.608,12.137-14.868,12.112a14.967,14.967,0,0,1-14.691-12.163c-.152-.921-.093-1.884-.311-2.784-.092-.381-.648-.65-.993-.97-.263.343-.692.659-.753,1.035a7.113,7.113,0,0,0,.05,2.021A17.035,17.035,0,0,0,4923.6,783.742Zm-6.555-22.541a19.328,19.328,0,0,0-.039-2.693c-.056-.394-.537-.727-.825-1.087-.319.338-.9.663-.914,1.017a51.741,51.741,0,0,0,0,5.393c.019.358.589.687.9,1.03.291-.358.774-.687.834-1.08A17.137,17.137,0,0,0,4917.047,761.2Zm15.1-.058a15.381,15.381,0,0,0-.042-2.579c-.073-.421-.592-.765-.908-1.143-.291.357-.814.7-.833,1.075a52.319,52.319,0,0,0,0,5.28c.019.375.538.724.827,1.085.319-.377.841-.719.914-1.139A15.277,15.277,0,0,0,4932.149,761.143Z"/></g></svg>