<svg xmlns="http://www.w3.org/2000/svg" width="45.217" height="42.726" viewBox="0 0 45.217 42.726"><defs><style>.a{fill:#ce001b;}.a,.b{stroke:#040505;stroke-miterlimit:10;}.b{fill:#fff;}</style></defs><g transform="translate(-853.323 -758.288)"><path class="a" d="M863.59,800.514h-7.073a2.626,2.626,0,0,1-2.694-2.552l2.357-22.012a2.627,2.627,0,0,1,2.7-2.552h4.715a2.627,2.627,0,0,1,2.695,2.552v22.012A2.627,2.627,0,0,1,863.59,800.514Z"/><path class="b" d="M896.161,779.669h-1.347a1.88,1.88,0,0,0,1.879-1.88v-2.512a1.88,1.88,0,0,0-1.879-1.879H881.163l.764-1.435c.231-.435,1.742-3.047,1.727-4.034a3.906,3.906,0,0,0,.064-.688v-4.914a3.539,3.539,0,0,0-3.54-3.539h-.215a3.538,3.538,0,0,0-3.539,3.539v.152a10.132,10.132,0,0,1-2.968,7.165l-3.382,3.273a5.506,5.506,0,0,0-.63.763,1.878,1.878,0,0,0-.893,1.6v20.649a1.88,1.88,0,0,0,1.879,1.88h20.679a1.88,1.88,0,0,0,1.879-1.88v-2.512a1.872,1.872,0,0,0-.438-1.205h2.264a1.879,1.879,0,0,0,1.879-1.879v-2.512a1.879,1.879,0,0,0-1.879-1.879h1.347a1.879,1.879,0,0,0,1.879-1.879v-2.512A1.879,1.879,0,0,0,896.161,779.669Z"/></g></svg>