<svg xmlns="http://www.w3.org/2000/svg" width="34" height="34" viewBox="0 0 34 34"><path d="M17,0A17,17,0,1,0,34,17,17,17,0,0,0,17,0Zm7.762,13.255q.011.251.011.5a11.027,11.027,0,0,1-11.1,11.1h0A11.045,11.045,0,0,1,7.69,23.108a7.936,7.936,0,0,0,.931.054,7.829,7.829,0,0,0,4.846-1.67,3.906,3.906,0,0,1-3.645-2.71,3.889,3.889,0,0,0,1.762-.067,3.9,3.9,0,0,1-3.13-3.825c0-.018,0-.033,0-.05a3.875,3.875,0,0,0,1.767.488,3.905,3.905,0,0,1-1.208-5.209A11.078,11.078,0,0,0,17.057,14.2a3.9,3.9,0,0,1,6.649-3.558,7.826,7.826,0,0,0,2.478-.947,3.917,3.917,0,0,1-1.716,2.158,7.782,7.782,0,0,0,2.241-.615A7.93,7.93,0,0,1,24.762,13.255Zm0,0"/></svg>