<svg xmlns="http://www.w3.org/2000/svg" width="44.601" height="44.6" viewBox="0 0 44.601 44.6"><defs><style>.a{fill:#248332;fill-rule:evenodd;}.b{fill:#ce001b;}</style></defs><g transform="translate(-706.427 -614.224)"><g transform="translate(0 -1)"><path class="a" d="M742.42,636.831a13.453,13.453,0,0,0-26.881-.245c-.006.2-.012.39-.012.586a13.242,13.242,0,0,0,1.927,6.894l-2.425,7.16,7.449-2.368a13.467,13.467,0,0,0,19.948-11.686C742.426,637.058,742.426,636.945,742.42,636.831Zm-13.444,11.561a11.269,11.269,0,0,1-6.221-1.857l-4.344,1.385,1.41-4.169a11.1,11.1,0,0,1-2.153-6.579,10.654,10.654,0,0,1,.056-1.09,11.313,11.313,0,0,1,22.523.214c.026.29.038.58.038.876A11.277,11.277,0,0,1,728.976,648.392Z"/><path class="a" d="M735.141,639.866c-.334-.163-1.952-.957-2.254-1.064s-.523-.163-.743.164-.857,1.064-1.046,1.278-.383.246-.717.082a8.918,8.918,0,0,1-2.651-1.624,9.8,9.8,0,0,1-1.833-2.261c-.189-.327-.018-.5.145-.667s.328-.384.5-.573c.044-.057.081-.107.119-.158a3.637,3.637,0,0,0,.208-.39.591.591,0,0,0-.025-.573c-.082-.164-.743-1.776-1.02-2.431s-.548-.541-.743-.541-.409-.032-.63-.032a1.217,1.217,0,0,0-.881.41,3.658,3.658,0,0,0-1.153,2.732,4.186,4.186,0,0,0,.17,1.115,7.434,7.434,0,0,0,1.178,2.267c.163.214,2.279,3.627,5.629,4.943s3.356.869,3.961.812a3.289,3.289,0,0,0,2.222-1.555,2.7,2.7,0,0,0,.2-1.556C735.689,640.112,735.468,640.03,735.141,639.866Z"/></g><g transform="translate(0 -1)"><path class="b" d="M728.728,659.824a22.3,22.3,0,1,1,22.3-22.3A22.325,22.325,0,0,1,728.728,659.824Zm0-43.368A21.068,21.068,0,1,0,749.8,637.524,21.092,21.092,0,0,0,728.728,616.456Z"/></g></g></svg>