<svg xmlns="http://www.w3.org/2000/svg" width="34" height="34" viewBox="0 0 34 34"><path d="M19.558,2.25A16.627,16.627,0,0,0,2.867,18.812a16.391,16.391,0,0,0,2.4,8.552L2.25,36.25l9.241-2.936a16.719,16.719,0,0,0,24.759-14.5A16.627,16.627,0,0,0,19.558,2.25Zm8.3,22.852A4.311,4.311,0,0,1,24.906,27c-.783.042-.805.607-5.073-1.247S13,19.395,12.8,19.1a8.185,8.185,0,0,1-1.575-4.436,4.729,4.729,0,0,1,1.624-3.47A1.635,1.635,0,0,1,14,10.711c.336-.005.554-.01.8,0s.622-.052.945.807,1.1,2.971,1.2,3.187a.773.773,0,0,1,.008.742,2.9,2.9,0,0,1-.452.689c-.223.239-.469.534-.667.717-.222.2-.453.423-.22.855a12.772,12.772,0,0,0,2.26,3.016,11.646,11.646,0,0,0,3.347,2.225c.419.228.668.2.928-.071s1.111-1.2,1.411-1.607.581-.332.967-.177,2.44,1.256,2.859,1.484.7.344.8.524A3.505,3.505,0,0,1,27.858,25.1Z" transform="translate(-2.25 -2.25)"/></svg>