<svg xmlns="http://www.w3.org/2000/svg" width="68.616" height="60.893" viewBox="0 0 68.616 60.893"><defs><style>.a,.c{fill:#fff;}.b{fill:#040505;}.c{stroke:#040505;stroke-miterlimit:10;}.c,.d{fill-rule:evenodd;}.d{fill:#ce001b;}</style></defs><g transform="translate(-625.446 -739.755)"><path class="a" d="M638.748,772.553h40.145c1.439,0,2.621.748,2.621,1.662v24.531c0,.916-1.182,1.662-2.621,1.662H638.748c-1.445,0-2.62-.746-2.62-1.662V774.215C636.128,773.3,637.3,772.553,638.748,772.553Z"/><path class="b" d="M678.893,800.648H638.748c-1.654,0-3-.853-3-1.9V774.215c0-1.049,1.345-1.9,3-1.9h40.145c1.655,0,3,.854,3,1.9v24.531C681.894,799.795,680.548,800.648,678.893,800.648Zm-40.145-27.855c-1.235,0-2.24.638-2.24,1.422v24.531c0,.783,1.005,1.421,2.24,1.421h40.145c1.237,0,2.242-.638,2.242-1.421V774.215c0-.784-1.005-1.422-2.242-1.422Z"/><path class="a" d="M639.507,771.66h40.145c1.439,0,2.621.749,2.621,1.662v24.531c0,.916-1.182,1.662-2.621,1.662H639.507c-1.445,0-2.62-.746-2.62-1.662V773.322C636.887,772.409,638.062,771.66,639.507,771.66Z"/><path class="b" d="M679.652,799.756H639.507c-1.654,0-3-.854-3-1.9V773.322c0-1.049,1.345-1.9,3-1.9h40.145c1.654,0,3,.854,3,1.9v24.531C682.652,798.9,681.306,799.756,679.652,799.756ZM639.507,771.9c-1.236,0-2.241.637-2.241,1.421v24.531c0,.783,1.005,1.421,2.241,1.421h40.145c1.236,0,2.242-.638,2.242-1.421V773.322c0-.784-1.006-1.421-2.242-1.421Z"/><path class="c" d="M626.019,771.9c.481,1.148,2.3,1.816,4.495,1.625a11.132,11.132,0,0,0,1.719-.382c2.583-.766,16.062-5.354,16.156-5.545h.286l-.191-.192c-1.527-1.337-2.294-2.675-1.913-3.727.478-1.624,2.678-2.678,6.215-2.964a45.735,45.735,0,0,1,11.948.861H663.11c-3.44,0-6.6,0-9.08.191-3.922.288-5.735,1.148-6.023,2.676-.1.958.477,1.722,1.815,2.391a31.415,31.415,0,0,0,7.361,1.529c2.008.382,3.823.67,5.163.956,4.683,1.242,9.461,2.485,15.007,2.006a11.179,11.179,0,0,0,2.582-.382,107.063,107.063,0,0,0,12.806-2.963l.478-.1-6.4-9.27a22.792,22.792,0,0,1-3.537.573,15.977,15.977,0,0,1-4.3-.1c-1.818-.286-6.31-1.147-10.519-2.008-4.4-1.051-8.6-1.815-10.227-2.006a9,9,0,0,0-2.773-.1,17.15,17.15,0,0,0-6.4,2.485c-.668.382-1.435.668-2.008,1.052l-19.116,10.322c-2.1,1.338-2.1,2.389-1.914,3.059Z"/><path class="d" d="M655.491,740.72l-.522-.965-.522.965c-2.239,3.682-3.588,5.926-3.2,9.11a5.005,5.005,0,0,0,.964,2.456,3.4,3.4,0,0,0,5.6-.12,4.955,4.955,0,0,0,.9-2.529C659.025,746.554,657.686,744.327,655.491,740.72Z"/><path class="d" d="M663.812,740.708l-.236-.436-.237.436c-1.012,1.664-1.622,2.679-1.445,4.118a2.263,2.263,0,0,0,.436,1.11,1.536,1.536,0,0,0,2.53-.054,2.238,2.238,0,0,0,.407-1.143C665.409,743.345,664.8,742.339,663.812,740.708Z"/><path class="d" d="M672.894,745.6l-.236-.436-.236.436c-1.013,1.664-1.622,2.679-1.446,4.118a2.267,2.267,0,0,0,.436,1.11,1.538,1.538,0,0,0,2.53-.054,2.233,2.233,0,0,0,.407-1.143C674.491,748.239,673.886,747.233,672.894,745.6Z"/><path class="d" d="M646.738,745.353l-.236-.437-.236.437c-1.012,1.664-1.622,2.678-1.445,4.117a2.271,2.271,0,0,0,.435,1.111,1.539,1.539,0,0,0,2.531-.054,2.245,2.245,0,0,0,.406-1.144C648.336,747.99,647.73,746.983,646.738,745.353Z"/><path class="d" d="M666.261,749.264l-.118-.218-.118.218a3.1,3.1,0,0,0-.722,2.059,1.127,1.127,0,0,0,.218.555.768.768,0,0,0,1.265-.027,1.125,1.125,0,0,0,.2-.571A3.166,3.166,0,0,0,666.261,749.264Z"/></g></svg>