<svg xmlns="http://www.w3.org/2000/svg" xmlns:xlink="http://www.w3.org/1999/xlink" width="584.943" height="298.816" viewBox="0 0 584.943 298.816"><defs><style>.a{fill:#78a4b9;}.a,.b,.bo,.bp,.bq,.br,.bs,.bt,.bu,.bv,.bx,.by,.ca,.cb,.cc,.ce,.cf,.cg,.ch,.ci,.cj,.ck,.cp,.cq,.cr,.cs,.ct,.cu,.cx,.cy,.e,.i,.m,.n,.u,.v,.w{fill-rule:evenodd;}.b{fill:#a3c1cc;}.c{fill:#648aa3;}.af,.d{opacity:0.18;}.af,.bc,.e{fill:#060707;}.f{fill:#ace2fa;}.g{fill:#7dabbe;}.h{fill:#b9c0c9;}.ae,.at,.av,.ax,.i{fill:#fff;}.j{fill:#6d8c98;}.k{fill:#818386;}.l{fill:#a1481a;}.m{fill:#ecebeb;}.n{fill:#e0e1e1;}.o{fill:#5a7e9b;}.p{fill:#277147;}.q{fill:#7f7e7d;}.r{fill:#586c77;}.s{fill:#3b9e6b;}.t{fill:#6989a4;}.u{fill:#c1621a;}.v{fill:#616161;}.w,.x{fill:#bd3f1b;}.y{fill:#45535c;}.z{fill:#565655;}.aa{fill:#737374;}.ab{fill:#919495;}.ac{fill:#eee;}.ad{fill:#cacdcb;}.ae{stroke:#fff;}.ae,.cz{stroke-miterlimit:10;}.ag{fill:#323233;}.ah{fill:url(#a);}.ai{fill:#8a8c90;}.aj{fill:url(#b);}.ak,.aq,.bf,.bg{fill:#1a1718;}.al{fill:#484849;}.am{fill:#242221;}.an{fill:#8b8049;}.ao{fill:#7a6c3c;}.ap{fill:#9c9255;}.aq,.bf,.bk,.bl,.co{opacity:0.3;}.ar{fill:url(#c);}.as{fill:#ada15e;}.at,.bn{opacity:0.8;}.au{fill:#d8b799;}.av{opacity:0.7;}.aw{fill:#895c75;}.ay{fill:#adafb1;}.az{fill:#708370;}.ba{fill:#232222;}.bb{fill:#353535;}.bd{fill:#eb494f;}.be{fill:#605e5f;}.bf,.cn,.co{mix-blend-mode:multiply;isolation:isolate;}.bg{opacity:0.5;}.bh{fill:url(#d);}.bi{fill:#090a0a;}.bj,.bn{fill:#c5c8c9;}.bk{fill:url(#e);}.bl{fill:url(#f);}.bm{fill:#4e020f;}.bo{fill:#e49162;}.bp{fill:#156c6a;}.bq{fill:#2d973b;}.br{fill:#47bed4;}.bs,.cd{fill:#f05e2c;}.bt{fill:#c0371b;}.bu{fill:#3087ca;}.bv{fill:#276c9a;}.bw{fill:#c6932e;}.bx{fill:#428ecd;}.by{fill:#2b75ae;}.bz{fill:#e0aa31;}.ca{fill:#bd1a1c;}.cb{fill:#297036;}.cc{fill:#f0a502;}.ce{fill:#efa172;}.cf{fill:#251211;}.cg{fill:#e85e4d;}.ch{fill:#2b110f;}.ci{fill:#3a2116;}.cj{fill:#a3c424;}.ck{fill:#ca3328;}.cl{fill:#323740;}.cm{fill:#c7dcdf;}.cn{fill:#192232;opacity:0.4;}.co{fill:#39485e;}.cp{fill:#712a16;}.cq{fill:#3f170c;}.cr{fill:#38481d;}.cs{fill:#91c04b;}.ct{fill:#566b27;}.cu{fill:#647e2a;}.cv{fill:#bebdbd;}.cw{fill:#afb1b3;}.cx{fill:#cedce3;}.cy{fill:#c1d1dd;}.cz{fill:none;stroke:#4d4e4e;}</style><linearGradient id="a" x1="19.26" y1="8.537" x2="19.26" y2="7.531" gradientUnits="objectBoundingBox"><stop offset="0.034" stop-color="#95989c"/><stop offset="0.212" stop-color="#a3a6a9"/><stop offset="0.382" stop-color="#b6b9bb"/><stop offset="0.555" stop-color="#a7aaad"/><stop offset="0.719" stop-color="#95989c"/><stop offset="1" stop-color="#c5c8c9"/><stop offset="1" stop-color="#95989c"/></linearGradient><linearGradient id="b" x1="14.834" y1="3.78" x2="14.834" y2="2.777" xlink:href="#a"/><linearGradient id="c" x1="35.687" y1="-5.145" x2="36.708" y2="-5.145" gradientUnits="objectBoundingBox"><stop offset="0.005" stop-color="#47484a"/><stop offset="0.5" stop-color="#323233"/><stop offset="1" stop-color="#1a1718"/></linearGradient><linearGradient id="d" x1="91.963" y1="-4.886" x2="91.963" y2="-5.902" gradientUnits="objectBoundingBox"><stop offset="0" stop-color="#dedad6"/><stop offset="0" stop-color="#d6d0cb"/><stop offset="0.037" stop-color="#c7c2be"/><stop offset="0.107" stop-color="#a09f9c"/><stop offset="0.202" stop-color="#616767"/><stop offset="0.264" stop-color="#364042"/><stop offset="0.276" stop-color="#3e4749"/><stop offset="0.381" stop-color="#808585"/><stop offset="0.469" stop-color="#b0b2b1"/><stop offset="0.535" stop-color="#cdcdcc"/><stop offset="0.573" stop-color="#d9d8d7"/><stop offset="0.626" stop-color="#cfcfce"/><stop offset="0.715" stop-color="#b5b7b9"/><stop offset="0.829" stop-color="#8a9096"/><stop offset="0.876" stop-color="#777f86"/><stop offset="1" stop-color="#c5c8c9"/><stop offset="1" stop-color="#95989c"/></linearGradient><linearGradient id="e" x1="194.003" y1="5.623" x2="194.804" y2="4.983" gradientUnits="objectBoundingBox"><stop offset="0.006" stop-color="#6196d0"/><stop offset="0.073" stop-color="#20416b"/><stop offset="0.5" stop-color="#d3dff2"/><stop offset="0.618" stop-color="#a7c0e4"/><stop offset="0.663" stop-color="#a3bde2"/><stop offset="0.707" stop-color="#97b6df"/><stop offset="0.751" stop-color="#83aad9"/><stop offset="0.795" stop-color="#679ad1"/><stop offset="0.809" stop-color="#5d94cf"/><stop offset="1" stop-color="#0a3e59"/></linearGradient><linearGradient id="f" x1="194.393" y1="8.079" x2="195.267" y2="8.079" xlink:href="#e"/></defs><g transform="translate(-4812.953 -208.158)"><path class="a" d="M5190.361,439.738a3.65,3.65,0,0,0,3.64-3.672v-2.792a3.907,3.907,0,0,1,.06-.576,6.67,6.67,0,0,1-1.838-4.6c0-3.7,2.977-13.27,6.637-13.27s6.637,9.573,6.637,13.27a7.255,7.255,0,0,1-.18,1.506h8.022V335.676h6.322v-8.863h6.779v-2.738h.068v-5.349h3.879v-8.605h12.663v8.605h3.88v8.087h6.844v6.556h.028v2.307h7.1v33.377h58.9V335.676h7.492v-8.863h2.88v-1.759h.028v-2.671h11.113v2.671h.039v1.759h6.066v-1.759h.093v-2.671h11.116v4.43h2.776v6.748h.1v2.115h4.719V461.514H5192.168a5.487,5.487,0,0,1-5.447-5.488V443.413A3.659,3.659,0,0,1,5190.361,439.738Z"/><path class="b" d="M5185.2,439.633a3.664,3.664,0,0,0,2.77-3.567v-2.792a3.772,3.772,0,0,1,.057-.576,6.667,6.667,0,0,1-1.835-4.6c0-3.7,2.975-13.27,6.635-13.27s6.638,9.573,6.638,13.27a7.126,7.126,0,0,1-.182,1.506h8.024V335.676h6.322v-8.863h6.778v-2.738h.067v-5.349h3.88v-8.605h12.663v8.605h3.879v8.087h6.845v6.556h.029v2.307h7.1v33.377h58.9V335.676h7.493v-8.863h2.879v-1.759h.03v-2.671h11.114v2.671h.036v1.759h6.066v-1.759h.095v-2.671H5352.6v4.43h2.775v6.748h.106v2.115h4.719V461.514H5186.135a5.34,5.34,0,0,1-.934-.082Z"/><rect class="c" width="94.398" height="68.595" transform="translate(4955.378 383.528)"/><g class="d"><path class="e" d="M4952.742,450.383H4832.481V330.122h98.349V282.283h126.895V383.945H4952.742Z"/></g><rect class="f" width="103.32" height="100.33" transform="translate(4839.461 340.089)"/><rect class="f" width="102.785" height="81.728" transform="translate(4944.976 292.249)"/><rect class="g" width="0.916" height="4.016" transform="translate(4868.913 326.134)"/><rect class="h" width="1.273" height="7.001" transform="translate(4867.679 324.261)"/><rect class="h" width="1.273" height="7.001" transform="translate(4914.344 324.261)"/><rect class="g" width="0.918" height="4.016" transform="translate(4915.575 326.134)"/><rect class="f" width="54.502" height="25.635" transform="translate(4864.596 300.524)"/><path class="i" d="M4872.009,322.689V304.908h3.429l2.57,12.991,2.416-12.991h3.446v17.781h-2.46v-6.628l.1-6.085-2.437,12.63h-2.188l-2.545-12.63.105,6.085v6.628Z"/><path class="i" d="M4891.974,317.342l-1.18-8.711v-3.723h1.728l2.745,17.781h-2.57l-.432-3.174h-1.471v-2.173Zm-1.18-8.711-.03-.218h-.044l-1.107,8.929h1.181v2.173h-1.447l-.393,3.174H4886.3l2.58-17.781h1.916Z"/><path class="i" d="M4897.687,322.689V304.908h2.755v15.479h3.484v2.3Z"/><path class="i" d="M4906.043,322.689V304.908h2.754v15.479h3.484v2.3Z"/><rect class="j" width="43.993" height="64.961" transform="translate(5057.646 383.858)"/><rect class="f" width="11.875" height="13.405" transform="translate(5060.761 386.376)"/><rect class="f" width="11.867" height="13.405" transform="translate(5073.443 386.376)"/><rect class="f" width="11.868" height="13.405" transform="translate(5086.121 386.376)"/><rect class="f" width="11.875" height="13.401" transform="translate(5060.761 401.411)"/><rect class="f" width="11.867" height="13.401" transform="translate(5073.443 401.411)"/><rect class="f" width="11.868" height="13.401" transform="translate(5086.121 401.411)"/><rect class="f" width="11.875" height="13.398" transform="translate(5060.761 416.438)"/><rect class="f" width="11.867" height="13.398" transform="translate(5073.443 416.438)"/><rect class="f" width="11.868" height="13.398" transform="translate(5086.121 416.438)"/><rect class="f" width="11.875" height="13.392" transform="translate(5060.761 431.469)"/><rect class="f" width="11.867" height="13.392" transform="translate(5073.443 431.469)"/><rect class="f" width="11.868" height="13.392" transform="translate(5086.121 431.469)"/><rect class="k" width="9.468" height="65.279" transform="translate(5101.639 383.446)"/><rect class="l" width="2.671" height="63.715" transform="translate(5108.428 383.984)"/><rect class="f" width="30.267" height="14.936" transform="translate(4955.378 383.529)"/><rect class="f" width="31.629" height="14.936" transform="translate(4986.403 383.529)"/><rect class="f" width="31.634" height="14.936" transform="translate(5020.174 383.529)"/><rect class="f" width="30.267" height="14.937" transform="translate(4955.378 400.28)"/><rect class="f" width="31.629" height="14.937" transform="translate(4986.403 400.28)"/><rect class="f" width="31.634" height="14.937" transform="translate(5020.174 400.28)"/><rect class="f" width="30.267" height="14.933" transform="translate(4955.378 417.04)"/><rect class="f" width="31.629" height="14.933" transform="translate(4986.403 417.04)"/><rect class="f" width="31.634" height="14.933" transform="translate(5020.174 417.04)"/><rect class="f" width="30.267" height="14.941" transform="translate(4955.378 433.784)"/><rect class="f" width="33.562" height="14.941" transform="translate(4988.871 433.784)"/><rect class="f" width="26.635" height="14.941" transform="translate(5028.593 433.784)"/><path class="m" d="M4977.917,291.59h-16.469v1.964h14.509v33.657h-14.509v1.965h16.469V291.59Zm-16.469,0h-16.472v37.586h16.472v-1.965H4946.94V293.554h14.508Z"/><path class="m" d="M5013.082,291.59h-16.469v1.964h14.5v33.657h-14.5v1.965h16.469V291.59Zm-16.469,0h-16.469v37.586h16.469v-1.965h-14.5V293.554h14.5Z"/><path class="m" d="M5048.26,291.59h-16.472v1.964H5046.3v33.657h-14.508v1.965h16.472V291.59Zm-16.472,0h-16.474v37.586h16.474v-1.965h-14.509V293.554h14.509Z"/><path class="n" d="M4872.406,340.906h-16.474v1.965h14.509v18.947h-14.509v1.969h16.474V340.906Zm-16.474,0H4839.46v22.881h16.472v-1.969h-14.508V342.871h14.508Z"/><path class="n" d="M4907.579,340.906h-16.473v1.965h14.508v18.947h-14.508v1.969h16.473V340.906Zm-16.473,0h-16.477v22.881h16.477v-1.969H4876.6V342.871h14.508Z"/><path class="n" d="M4942.741,340.906h-16.47v1.965h14.5v18.947h-14.5v1.969h16.47V340.906Zm-16.47,0H4909.8v22.881h16.468v-1.969h-14.5V342.871h14.5Z"/><path class="m" d="M4977.917,331.745h-16.469v1.964h14.509V371.42h-14.509v1.965h16.469v-41.64Zm-16.469,0h-16.472v41.64h16.472V371.42H4946.94V333.709h14.508Z"/><path class="m" d="M5013.082,331.745h-16.469v1.964h14.5V371.42h-14.5v1.965h16.469v-41.64Zm-16.469,0h-16.469v41.64h16.469V371.42h-14.5V333.709h14.5Z"/><path class="m" d="M5048.26,331.745h-16.472v1.964H5046.3V371.42h-14.508v1.965h16.472v-41.64Zm-16.472,0h-16.474v41.64h16.474V371.42h-14.509V333.709h14.509Z"/><path class="n" d="M4872.406,366.565h-16.474v1.964h14.509v18.947h-14.509v1.964h16.474V366.565Zm-16.474,0H4839.46V389.44h16.472v-1.964h-14.508V368.529h14.508Z"/><path class="n" d="M4907.579,366.565h-16.473v1.964h14.508v18.947h-14.508v1.964h16.473V366.565Zm-16.473,0h-16.477V389.44h16.477v-1.964H4876.6V368.529h14.508Z"/><path class="n" d="M4942.741,366.565h-16.47v1.964h14.5v18.947h-14.5v1.964h16.47V366.565Zm-16.47,0H4909.8V389.44h16.468v-1.964h-14.5V368.529h14.5Z"/><path class="n" d="M4872.406,392.225h-16.474v1.966h14.509v18.94h-14.509v1.963h16.474V392.225Zm-16.474,0H4839.46v22.869h16.472v-1.963h-14.508v-18.94h14.508Z"/><path class="n" d="M4907.579,392.225h-16.473v1.966h14.508v18.94h-14.508v1.963h16.473V392.225Zm-16.473,0h-16.477v22.869h16.477v-1.963H4876.6v-18.94h14.508Z"/><path class="n" d="M4942.741,392.225h-16.47v1.966h14.5v18.94h-14.5v1.963h16.47V392.225Zm-16.47,0H4909.8v22.869h16.468v-1.963h-14.5v-18.94h14.5Z"/><path class="n" d="M4872.406,417.876h-16.474v1.964h14.509v18.948h-14.509v1.965h16.474V417.876Zm-16.474,0H4839.46v22.877h16.472v-1.965h-14.508V419.84h14.508Z"/><path class="n" d="M4907.579,417.876h-16.473v1.964h14.508v18.948h-14.508v1.965h16.473V417.876Zm-16.473,0h-16.477v22.877h16.477v-1.965H4876.6V419.84h14.508Z"/><path class="n" d="M4942.741,417.876h-16.47v1.964h14.5v18.948h-14.5v1.965h16.47V417.876Zm-16.47,0H4909.8v22.877h16.468v-1.965h-14.5V419.84h14.5Z"/><rect class="k" width="9.468" height="65.279" transform="translate(5048.178 383.446)"/><rect class="k" width="9.468" height="65.279" transform="translate(4981.485 383.446)"/><rect class="o" width="37.877" height="15.436" transform="translate(4999.096 433.791)"/><rect class="p" width="7.899" height="0.149" transform="translate(5110.998 391.753) rotate(-88.42)"/><rect class="q" width="0.176" height="0.055" transform="translate(5057.729 383.889)"/><rect class="k" width="57.944" height="101.575" transform="translate(5057.725 282.283)"/><rect class="l" width="2.577" height="63.475" transform="translate(4988.407 384.223)"/><rect class="k" width="2.572" height="63.978" transform="translate(4952.806 383.791)"/><rect class="l" width="2.669" height="63.715" transform="translate(5054.969 383.984)"/><rect class="r" width="0.098" height="3.358" transform="translate(4981.387 386.931)"/><rect class="r" width="0.039" height="3.358" transform="translate(5048.139 386.931)"/><rect class="s" width="2.695" height="11.04" transform="translate(5063.208 448.819)"/><rect class="t" width="2.695" height="0.913" transform="translate(5063.208 447.906)"/><path class="u" d="M5057.646,386.931h-.007v-2.948h-.035v-.028h-9.425v-.011h9.468Z"/><path class="u" d="M4990.953,384.223h-.053v-.267h-9.416v-.011h9.468v.278Z"/><path class="v" d="M4952.806,433.784h-.064v-1.811h.064v1.811Zm0-16.744h-.064v-1.823h.064v1.823Zm0-16.76h-.064v-1.816h.064Z"/><rect class="r" width="0.064" height="14.933" transform="translate(4952.742 417.04)"/><path class="w" d="M4990.985,386.931h-.084v-2.708h.084Z"/><rect class="x" width="0.035" height="2.947" transform="translate(5057.603 383.984)"/><rect class="r" width="0.098" height="0.239" transform="translate(4981.387 383.956)"/><rect class="y" width="0.098" height="2.736" transform="translate(4981.387 384.195)"/><rect class="y" width="0.039" height="2.975" transform="translate(5048.139 383.956)"/><rect class="z" width="240.191" height="7.747" transform="translate(4874.661 447.77)"/><rect class="k" width="240.186" height="7.747" transform="translate(4823.018 447.77)"/><rect class="aa" width="240.191" height="7.751" transform="translate(4874.661 452.123)"/><rect class="ab" width="240.186" height="7.751" transform="translate(4823.018 452.123)"/><rect class="f" width="33.469" height="13.958" transform="translate(5001.619 433.835)"/><rect class="ac" width="41.491" height="5.509" transform="translate(4995.852 428.295)"/><rect class="ad" width="5.414" height="5.492" transform="translate(5037.201 428.311)"/><rect class="o" width="0.928" height="13.818" transform="translate(5008.324 433.905)"/><rect class="o" width="0.924" height="13.817" transform="translate(5030.211 433.953)"/><rect class="o" width="0.92" height="13.814" transform="translate(5019.438 433.858)"/><rect class="k" width="311.153" height="5.681" transform="translate(4812.953 457.772)"/><rect class="g" width="2.243" height="25.63" transform="translate(4919.098 300.524)"/><path class="ae" d="M5323.669,427"/><path class="af" d="M5366.793,481.107c0,3.206-111.711,5.806-249.514,5.806s-249.514-2.6-249.514-5.806,111.711-5.807,249.514-5.807S5366.793,477.9,5366.793,481.107Z"/><path class="ag" d="M4906.443,421.493c-.349.59-.685,1.208-1,1.852a24.538,24.538,0,0,0-1.314,3.982c-4.929,19.813.2,40,.2,40l-.06.007A55.581,55.581,0,0,0,4909.691,480a6.271,6.271,0,0,0,3.349.886,73.572,73.572,0,0,0,23.077-2.441c2.746-.761,5.011-9.569,5.315-14.222C4941.432,464.223,4945.479,398.891,4906.443,421.493Z"/><path class="ah" d="M4904.841,452.723c1.627,13.122,6.777,23.286,11.5,22.7s7.239-11.7,5.612-24.822-6.777-23.287-11.5-22.7S4903.214,439.6,4904.841,452.723Z"/><path class="ai" d="M4908.932,452.215c1.238,9.987,5.157,17.721,8.753,17.275s5.509-8.9,4.271-18.889-5.158-17.721-8.754-17.276S4907.693,442.229,4908.932,452.215Z"/><path class="ag" d="M5005.514,414.052q-.656,1.032-1.26,2.165a29.032,29.032,0,0,0-1.705,4.684c-6.571,23.365-1.2,47.54-1.2,47.54l-.07.007a66.088,66.088,0,0,0,5.99,15.242,7.455,7.455,0,0,0,3.948,1.174,87.444,87.444,0,0,0,27.509-2.07c3.291-.8,6.3-11.189,6.828-16.707C5045.549,466.087,5052.712,388.6,5005.514,414.052Z"/><path class="aj" d="M5002.484,451.1c1.46,15.652,7.214,27.914,12.851,27.389s9.023-13.642,7.563-29.294-7.214-27.915-12.851-27.389S5001.024,435.45,5002.484,451.1Z"/><ellipse class="ai" cx="7.801" cy="21.661" rx="7.801" ry="21.661" transform="matrix(0.996, -0.093, 0.093, 0.996, 5005.351, 429.08)"/><path class="ak" d="M5010.579,459.4c-1.2,7.88.121,14.619,2.959,15.053s6.114-5.6,7.318-13.483-.122-14.619-2.959-15.053S5011.782,451.52,5010.579,459.4Z"/><path class="al" d="M5009.454,459.228c-1.2,7.88.121,14.619,2.959,15.053s6.114-5.6,7.318-13.483-.121-14.619-2.959-15.052S5010.658,451.349,5009.454,459.228Z"/><path class="am" d="M4997.453,430.158l7.087-2.843,9.884,24.63a.64.64,0,0,1,.4-.085c1.169.178,1.513,4.266.77,9.13s-2.682,8.6-3.85,8.425c-.891-.136-1.645-4.3-1.46-7.592Z"/><path class="an" d="M4956.152,423.345s-4.091,19.89,7.024,29.868c0,0-8.1-7.361-35.142,2.2l-7.98-2.619s18.226-20.486,19.539-32.525C4939.593,420.274,4949.157,416.275,4956.152,423.345Z"/><path class="ao" d="M4955.256,450.674c-6.731-9.658-4.139-26.842-4.139-26.842l-.156-3.83a13.819,13.819,0,0,1,5.191,3.343s-4.091,19.89,7.024,29.868C4963.176,453.213,4961.029,451.262,4955.256,450.674Z"/><path class="ap" d="M4973.832,396.088s2.736,7.288-.418,10.785-13.885,18.244-18.892,17.479l-13.7-2.092-35.139-11.327-.867-16.53,6.167-8.645s48.918-1.243,62.848,10.33"/><path class="aq" d="M4951.117,423.832l11.916-10.586c7.662-6.807,7.045-15.168,5.629-20.271a22.993,22.993,0,0,1,5.17,3.113s2.736,7.288-.418,10.785-13.885,18.244-18.892,17.479Z"/><path class="ar" d="M4974.54,399.5l-2.818-13.6s-.519-3.59-9.218-5.27-42.513-7.372-42.513-7.372-6.431-2.562-7.719,4.965l-1.288,7.528s28.336,8.717,33.657,11.812C4950.564,396.719,4973.556,392.156,4974.54,399.5Z"/><path class="as" d="M4927.119,455.279s23.445-12.505,16.236-29.674-9.029-17.51-9.029-17.51-16.9-15.627-26.543-.479-17.594,28.913-17.594,28.913-2.788,9.268,5.678,11.869S4927.119,455.279,4927.119,455.279Z"/><path class="at" d="M4890.189,436.529s7.955-13.766,17.594-28.913c.326-.512.66-.987,1-1.43-4.892,9.176-14.46,27.857-14.161,33.066.247,4.282,2.357,7.62,6.349,10.522-1.974-.486-3.729-.953-5.1-1.376C4887.4,445.8,4890.189,436.529,4890.189,436.529Z"/><path class="au" d="M4967.364,453.852s-18.993-10.662-39.33,1.566l17.05,16.335s24.795.879,23.248-18.111"/><path class="av" d="M4910.829,415.814l-3.586,8.061-5.352.563,2.723,7.116-2.292,9.111,5.269-3.662,3.936,5.068.533-9.38,4.724-5.979-4.939-2.135Z"/><path class="aw" d="M5024.552,327.06c-.622,4.077.741,7.668,3.045,8.02s4.678-2.668,5.3-6.745-.741-7.668-3.045-8.02S5025.175,322.983,5024.552,327.06Z"/><path class="ax" d="M5029.78,320.8s-4.589.295-4.974,8.16C5024.806,328.955,5025.88,322.822,5029.78,320.8Z"/><path class="ay" d="M5025.832,341.065l3.868-11.9a1.472,1.472,0,0,1-.066-.717,1.332,1.332,0,1,1,2.627.4,1.391,1.391,0,0,1-1.326,1.213l-3.869,11.9L5019.5,347.4l-.847-1.18Z"/><path class="az" d="M5009.3,372.8l8.435.185-4.546-19.268-9.08-3.6Z"/><path class="ax" d="M5008.163,359.283l10.169-9.593-11.3-11.982s-1.9-2.014-6.984,2.783-3.185,6.81-3.185,6.81Z"/><path class="ay" d="M5008.842,360.022l10.169-9.593-11.3-11.982s-1.9-2.013-6.984,2.783-3.185,6.81-3.185,6.81Z"/><path class="ba" d="M5006.644,353.985l-13.891-6.3-3.264-.469-.786,5.147,3.374.515,13.711,6.368S5010.6,355.192,5006.644,353.985Z"/><path class="bb" d="M5001.327,354.885a7.225,7.225,0,0,0,.6-3.415l5.026,2.281c4.506,1.374.3,6.444.3,6.444l-7.307-3.261A7.181,7.181,0,0,0,5001.327,354.885Z"/><path class="bc" d="M4984.729,349.254c-.652,4.274.013,7.921,1.487,8.147s3.2-3.058,3.851-7.332-.013-7.922-1.487-8.147S4985.382,344.979,4984.729,349.254Z"/><path class="bd" d="M4983.414,349.053c-.653,4.274.013,7.922,1.487,8.147s3.2-3.058,3.85-7.332-.012-7.921-1.486-8.147S4984.067,344.779,4983.414,349.053Z"/><path class="aw" d="M4964.732,349.744l20.558,3.14s1.7-.53,2.126-3.337-1.033-3.82-1.033-3.82l-20.558-3.14Z"/><path class="be" d="M4964,345.971c-.3,1.976.024,3.665.728,3.773s1.518-1.407,1.82-3.384-.023-3.665-.727-3.773S4964.306,343.995,4964,345.971Z"/><path class="as" d="M5010.638,370.453s-30.238-3.477-31.721,24.621a185.433,185.433,0,0,1-4.68,32.708l12.936-1.662-10.929,6.241,3.881,1.032-4.81,2.459,17.626.951-18.569,2.594,3.215.855-3.6.589,10.308,2.742-14.108-2.155c-5.5,15.192-13.89,27.505-26.109,30.018,0,0,40.092,12.678,49.747,2.683,1.76-1.822,4.192-6.152,6.855-12.065a75.106,75.106,0,0,1,8.867-23.486C5018.573,410.46,5024.757,375.545,5010.638,370.453Z"/><path class="as" d="M5048.978,422.461s4.652-29.309-2.665-36.571-14.682-11.909-18.338-12.111c0,0,14.3,20.142-3.1,54.766C5024.876,428.545,5045.91,440.249,5048.978,422.461Z"/><path class="bf" d="M5048.978,422.461s4.652-29.309-2.665-36.571-14.682-11.909-18.338-12.111c0,0,14.3,20.142-3.1,54.766C5024.876,428.545,5045.91,440.249,5048.978,422.461Z"/><path class="bd" d="M5012.752,373.758l.139.217C5012.855,373.92,5012.81,373.848,5012.752,373.758Z"/><path class="bd" d="M5012.443,373.276h0l.277.434C5012.646,373.592,5012.554,373.449,5012.443,373.276Z"/><path class="bd" d="M5012.72,373.709l.032.049Z"/><path class="ap" d="M5012.947,374.063l.007.01c-.7-1.489-1.115-1.743-.511-.8l-.8-1.255c11.26-7.2,17.836,1.747,18.026,1.989,13.716,24.816-3.916,54.67-3.916,54.67l-20.112-3.073c14.544-30.071,9.513-46.867,7.316-51.533Z"/><path class="bd" d="M5012.935,374.045l.012.018Z"/><path class="bd" d="M5012.891,373.975l.044.07Z"/><path class="bf" d="M5022.2,369.407a12.732,12.732,0,0,1,7.467,4.6c13.716,24.816-3.916,54.67-3.916,54.67l-5.725-.875C5034.81,396.9,5027.156,377.668,5022.2,369.407Z"/><path class="bg" d="M5040.221,416.374s-43.134-21.886-39.828,35.789C5006.084,445.884,5017.466,411.134,5040.221,416.374Z"/><path class="ap" d="M4999.928,457.465c.944-11.372.017-43.525,25.348-44.074,28.183-.611,34.877,27.555,31.671,40.876s-16.651,3.542-16.651,3.542c-14.416-11.1-10.109-14.89-15.345-22.712-8.084-12.078-15.9,3.08-20.3,14.887a114.365,114.365,0,0,0-4.545,26.332l-.07-.011c.033,1.876.126,3.714.278,5.5-5.784.446-11.875-4.783-11.875-4.783C4996.062,474.006,4998.983,468.837,4999.928,457.465Z"/><path class="bf" d="M5025.276,413.391c28.183-.611,34.877,27.555,31.671,40.876-1.1,4.592-3.427,6.439-6,6.888C5051.382,447.661,5050.017,413.6,5025.276,413.391Z"/><path class="bh" d="M5011.755,343.162a10.741,10.741,0,0,0-4.165,4.263,11.792,11.792,0,0,0-1.652,5.9s4,2.911-.213,6.324c6.536,4.334,18.245,7.533,18.245,7.533l5.015-27.745S5015.718,341.347,5011.755,343.162Z"/><path class="bi" d="M5036.677,347.2a16.69,16.69,0,0,0-.53-1.866,14.387,14.387,0,0,0-.743-1.776,11.483,11.483,0,0,0-2.214-3.108,8.034,8.034,0,0,0-3.25-1.964l-.459-.121c-.154-.033-.309-.059-.462-.088l-.058-.01-.029-.006-.035-.005h-.014l-.107-.012-.214-.022-.106-.011a.956.956,0,0,0-.112-.009l-.24-.008-.239-.006c-.079,0-.153.005-.229.007l-.227.011-.113.006-.112.013-.444.056-.432.085a8.507,8.507,0,0,0-1.6.541c-.125.057-.245.12-.366.179-.06.031-.121.059-.18.091l-.173.1c-.114.066-.231.13-.341.2l-.326.213c-.11.069-.211.146-.313.221s-.205.148-.3.226-.192.157-.287.236l-.142.117-.135.122-.268.243c-.087.081-.169.166-.253.249s-.168.164-.246.25l-.232.255a16.485,16.485,0,0,0-2.639,4.052,19.907,19.907,0,0,0-1.2,3.388,9,9,0,0,0-.426,3.012c-.041-.006-.118.255-.225.758a17.78,17.78,0,0,0-.268,2.244,19.936,19.936,0,0,0,.136,3.593,16.52,16.52,0,0,0,1.309,4.655c.048.1.1.207.145.312s.107.208.161.312.108.21.167.314.121.207.183.311l.092.157.1.155.205.31c.069.1.147.2.221.306s.148.206.233.3l.247.3c.084.1.177.194.266.292l.136.147c.047.047.1.093.144.14.1.093.194.189.3.281a8.617,8.617,0,0,0,1.37,1,7.161,7.161,0,0,0,1.653.7l.222.062c.074.022.151.032.227.049l.228.046.115.023.015,0,.034,0,.027,0,.054.006c.144.017.284.036.433.051l.493.022a8.036,8.036,0,0,0,3.691-.9,11.488,11.488,0,0,0,3.04-2.306,14.255,14.255,0,0,0,1.239-1.472,16.966,16.966,0,0,0,1.064-1.623,22.237,22.237,0,0,0,2.353-15.41Z"/><path class="ax" d="M5021.932,351.2c-3.9,7.293-3.186,15.28,1.6,17.84s11.828-1.275,15.73-8.568,3.185-15.28-1.6-17.84S5025.833,343.9,5021.932,351.2Z"/><path class="bj" d="M5022.013,351.674c-2.49,4.653-2.033,9.75,1.021,11.384s7.548-.814,10.037-5.468,2.033-9.75-1.021-11.384S5024.5,347.02,5022.013,351.674Z"/><path class="bk" d="M5021.932,351.2c-3.9,7.293-3.186,15.28,1.6,17.84s11.828-1.275,15.73-8.568,3.185-15.28-1.6-17.84S5025.833,343.9,5021.932,351.2Z"/><path class="bl" d="M5023.575,355.386a15.158,15.158,0,0,0,18.153-3.045,20.847,20.847,0,0,1-2.466,8.127c-3.9,7.293-10.945,11.129-15.73,8.568-4.282-2.29-5.305-8.925-2.679-15.519A14.919,14.919,0,0,0,5023.575,355.386Z"/><path class="bm" d="M5021.932,351.2c.086.047.613-.9,1.79-2.43a22.8,22.8,0,0,1,2.364-2.6,16.783,16.783,0,0,1,3.786-2.689l.292-.145c.1-.049.2-.09.3-.135s.2-.092.305-.134l.315-.122.158-.061.162-.055.327-.108c.11-.036.223-.063.336-.1s.224-.065.34-.087l.347-.077c.117-.024.236-.039.354-.059l.178-.029c.06-.008.12-.012.18-.019.121-.011.242-.026.364-.035a7.74,7.74,0,0,1,1.487.051l.375.062.372.089.093.022.092.03.184.058c.06.021.125.038.182.061l.172.07.173.069a.8.8,0,0,1,.092.041l.1.048.192.1.1.047.012.006c-.035-.017,0,0-.009,0l.021.013.043.025c.112.069.227.135.34.2l.326.23a6.936,6.936,0,0,1,2.031,2.552,10.526,10.526,0,0,1,.911,3.33,13.4,13.4,0,0,1,.086,1.787,15.989,15.989,0,0,1-.128,1.817,21.581,21.581,0,0,1-7,13.086,16,16,0,0,1-1.441,1.114,13.462,13.462,0,0,1-1.534.92,10.5,10.5,0,0,1-3.276,1.09,6.954,6.954,0,0,1-3.248-.273l-.356-.136c-.127-.057-.26-.123-.389-.184l-.049-.023-.025-.012.008,0-.011-.006-.085-.049-.171-.1c-.056-.034-.115-.062-.168-.1l-.161-.11a6.092,6.092,0,0,1-1.15-1.012,7.689,7.689,0,0,1-.868-1.209c-.06-.106-.115-.215-.172-.321-.028-.054-.058-.107-.085-.161l-.075-.164c-.048-.11-.1-.217-.147-.327s-.086-.222-.129-.331-.079-.221-.116-.332-.075-.221-.107-.331l-.091-.333-.045-.165-.037-.166c-.024-.11-.048-.22-.073-.329s-.039-.22-.059-.328-.04-.218-.054-.326-.027-.216-.041-.323a16.76,16.76,0,0,1,.137-4.642,22.9,22.9,0,0,1,.851-3.41c.305-.918.6-1.61.78-2.087s.286-.732.249-.751-.2.2-.465.64a17.859,17.859,0,0,0-1,2.027,19.883,19.883,0,0,0-1.068,3.432,16.509,16.509,0,0,0-.318,4.826c.011.113.022.227.033.343s.032.231.047.347.032.234.053.351.046.236.069.355l.035.179.043.179c.029.119.059.24.089.361s.071.24.107.362.071.244.118.364.089.243.133.366.1.242.154.364l.079.184c.028.06.059.12.089.18.062.121.12.243.185.363a8.59,8.59,0,0,0,.961,1.4,7.146,7.146,0,0,0,1.326,1.208l.188.133c.063.045.132.081.2.121l.2.12.1.059.013.008.031.016.024.012.049.024c.13.064.256.129.392.192l.456.186a8.035,8.035,0,0,0,3.781.377,11.491,11.491,0,0,0,3.635-1.16,14.424,14.424,0,0,0,1.66-.976,16.71,16.71,0,0,0,1.543-1.176,22.251,22.251,0,0,0,7.354-13.744,17.077,17.077,0,0,0,.122-1.937,14.5,14.5,0,0,0-.109-1.922,11.482,11.482,0,0,0-1.052-3.667,8.027,8.027,0,0,0-2.411-2.935l-.391-.267c-.135-.082-.272-.159-.407-.237l-.051-.029-.025-.015-.032-.017-.012-.006-.1-.046-.194-.092-.1-.047c-.032-.015-.064-.03-.1-.045l-.224-.087-.223-.086c-.074-.028-.146-.046-.219-.069l-.217-.065-.109-.033-.109-.025-.437-.1-.436-.064a8.678,8.678,0,0,0-1.694-.025c-.136.013-.27.032-.4.048-.067.008-.134.015-.2.025l-.2.037c-.13.025-.261.045-.388.074l-.378.092c-.127.028-.248.068-.369.1s-.243.072-.36.112l-.35.127-.173.063-.168.07-.333.14c-.11.048-.215.1-.322.151s-.213.1-.315.153l-.3.163a16.484,16.484,0,0,0-3.838,2.942,19.856,19.856,0,0,0-2.262,2.793A8.993,8.993,0,0,0,5021.932,351.2Z"/><path class="at" d="M5001.665,373.648s-18.08.48-20.306,20.55-2.633,23.365-2.633,23.365,3.535-16.562,4.658-23.056S4985.872,377.9,5001.665,373.648Z"/><path class="aw" d="M4977.956,319.264c-.349,5.724,1.989,10.524,5.224,10.722s6.141-4.282,6.491-10.006-1.989-10.524-5.224-10.721S4978.306,313.541,4977.956,319.264Z"/><path class="ax" d="M4984.406,309.932s-6.316.987-5.86,11.924C4978.546,321.856,4979.261,313.23,4984.406,309.932Z"/><path class="ay" d="M4984.492,318.518a1.634,1.634,0,0,1,1.7,1.561,1.653,1.653,0,0,1-1.211,1.759l3.117,13.383,8.974,14.42-2.492-1.131-8.1-12.946-3.166-14.436a1.758,1.758,0,0,1-.267-.812A1.633,1.633,0,0,1,4984.492,318.518Z"/><path class="bn" d="M5050.436,414.631c0,1.874,3.769,3.394,8.419,3.394s8.42-1.52,8.42-3.394a1.443,1.443,0,0,0-.071-.435,5.356,5.356,0,0,0-.2-4.143c.173,0,.346.005.522.005,4.216,0,7.729-.881,8.51-2.05.054,0,.108,0,.163,0,5.283,0,9.566-3.45,9.566-7.7,0-2.837-1.905-5.314-4.74-6.652a3.269,3.269,0,0,0,.148-.618h.033c6.9,0,12.491-2.84,12.491-6.343a3.347,3.347,0,0,0-.1-.821,61.383,61.383,0,0,0,13.09,1.339c14.295,0,25.883-4.369,25.883-9.757,0-5.046-10.16-9.2-23.19-9.7a5.191,5.191,0,0,0,2.368-3.948,4.483,4.483,0,0,0-1.387-3.062,17.813,17.813,0,0,0,11.009,3.386c7.7,0,13.936-3.919,13.936-8.752,0-2.922-2.28-5.509-5.784-7.1a11.37,11.37,0,0,0,3.048-7.441c0-10.033-15.6-18.167-34.845-18.167s-34.845,8.134-34.845,18.167c0,3.394,1.788,6.57,4.9,9.288-7.424.253-13.282,3.215-13.282,6.831,0,3.783,6.408,6.849,14.314,6.849.755,0,1.5-.028,2.221-.082,0,.027,0,.055,0,.082,0,3.8,6.082,7.016,14.438,8.066-2.936,1.583-4.66,3.508-4.66,5.586a4.552,4.552,0,0,0,1.171,2.909c-.253-.007-.508-.012-.765-.012-6.9,0-12.491,2.84-12.491,6.342v.042c-5.553.344-9.864,2.838-9.864,5.865,0,2.7,3.433,4.977,8.117,5.68a6.33,6.33,0,0,0-.336,2.025,6.777,6.777,0,0,0,1.978,4.69c-.356-.013-.717-.021-1.085-.021-4.79,0-8.674,1.138-8.674,2.542,0,.5.49.961,1.332,1.352a4.99,4.99,0,0,0-1.214,2.368h-.118C5054.205,411.236,5050.436,412.756,5050.436,414.631Zm57.725-56.458a7.86,7.86,0,0,0,1.289,1.739,13.828,13.828,0,0,0-2.519-1.552C5107.344,358.3,5107.755,358.24,5108.161,358.173Z"/><path class="bo" d="M5046.2,291.244c-1.869-1.194-4.475-4.62-4.992-4.948s2.022-11.953,2.022-11.953a24.182,24.182,0,0,1,6.924,3.77,40.7,40.7,0,0,1,6.98,7.553c1.694,2.492-4.208,6.042-4.455,6.47S5048.072,292.438,5046.2,291.244Z"/><path class="bo" d="M5049.083,277.226a2.077,2.077,0,1,1-2.178,3.538l-8.609-6.285c-.974-.6-1.766-1.205-1.163-2.181s1.764-.516,2.736.085Z"/><path class="bo" d="M5047.39,279.872a2.148,2.148,0,0,1-2.253,3.659l-8.907-6.5c-1.01-.622-1.827-1.248-1.205-2.259s1.822-.535,2.832.088Z"/><path class="bo" d="M5046.542,282.709a2.075,2.075,0,1,1-2.176,3.533l-8.6-6.279c-.969-.6-1.764-1.207-1.161-2.182s1.765-.519,2.736.082Z"/><path class="bo" d="M5046.062,286.079a1.689,1.689,0,1,1-1.728,2.8l-8.67-6.121c-.972-.6-1.77-1.185-1.294-1.958s1.61-.276,2.578.323Z"/><path class="bo" d="M5050.37,287.074c-.976,1.778-.773,3.762.457,4.438l7.957,4.371c1.23.676,3.011-.219,3.988-2h0c.98-1.779.776-3.76-.457-4.434l-7.959-4.372c-1.227-.672-3.006.215-3.986,1.993Z"/><path class="bp" d="M5140.511,276.623s-13.4,16.9-16.99,23.626c-.084.162-3.894,6.811-3.894,6.811,1.586-21.322,14.2-30.449,14.2-30.449S5136.492,274.856,5140.511,276.623Z"/><path class="bq" d="M5104.614,276.478s-15.46,11.093-22.864,13.989c-.439-.043,1.876,15.184,4.1,15.8,13.481.133,29.818-7.693,39.486-20.881C5129.215,275.1,5114.1,271.746,5104.614,276.478Z"/><path class="br" d="M5114.4,447.429l2.421,7.621s7.552.46,7.723-.394-2.277-8.738-2.277-8.738l-6.533,1.293Z"/><path class="br" d="M5148.7,447.211l1.085,7.839s7.55.46,7.725-.394-1.431-8.473-1.431-8.473Z"/><path class="bs" d="M5109.21,338.263s-15.4,17.929-14.256,59.583c.518,18.793,18.842,51.6,18.842,51.6l10.49-1.01s-11.277-25.638-12.46-47.519c-1.232-22.728,10.034-40.023,10.732-40.491,1.374-.913,12.746.039,12.746.039s.578,20.415,2.743,41.2c2.448,23.475,9.119,47.778,9.236,48.387.231,1.145,10.892,0,10.892,0s-2.321-23.3-4.331-48.844c-2.166-27.447-1.494-57.287-1.374-62.023.226-9.164-43.26-.923-43.26-.923Z"/><path class="bt" d="M5122.251,360.434a2.463,2.463,0,0,1,.923-.26c-3.349-.175-7.491-.27-8.288.26-.7.463-11.961,17.763-10.733,40.486,1.189,21.885,14.686,48.126,14.686,48.126l5.447-.607s-11.588-25.632-12.77-47.519c-1.231-22.723,10.033-40.023,10.735-40.486Z"/><path class="bt" d="M5154.3,405.625c-.423-9.971-1.933-54.125-2.147-60.465l.43-4.2-44.234-2.263-4.54,8.776,39.088,1.706c-.161,13.872.158,35.819,1.132,45,1.569,14.788,9.406,56.427,9.406,56.427l4.741-.555s-3.417-33.676-3.876-44.427Z"/><path class="bu" d="M5127.693,451.892c-.052,9.257,5.345,11.416,2.627,19.286l-40.931-.309a6.784,6.784,0,0,1,2.216-6.291c2.774-.2,6.418-.453,10.223-.7,7.072-1.432,7.178-6.653,12.2-10.678C5118.582,452.776,5123.135,452.324,5127.693,451.892Z"/><path class="bv" d="M5127.715,453.3c.43,7.1,4.077,9.74,3.23,15.334l-21.391-10.285a24.037,24.037,0,0,1,4.472-5.15l8.1-.786Z"/><rect class="bw" width="2.675" height="43.319" transform="matrix(0.007, -1, 1, 0.007, 5088.396, 473.53)"/><path class="bx" d="M5159.566,452.9c-.051,9.255,5.345,11.414,2.627,19.285l-40.931-.309a6.8,6.8,0,0,1,2.215-6.293c2.776-.2,6.419-.452,10.224-.7,7.073-1.432,7.177-6.651,12.2-10.677C5150.455,453.786,5155.009,453.334,5159.566,452.9Z"/><path class="by" d="M5159.589,454.313c.43,7.1,4.077,9.737,3.229,15.331l-21.39-10.282a23.945,23.945,0,0,1,4.472-5.152l8.1-.787Z"/><rect class="bz" width="2.677" height="43.319" transform="matrix(0.007, -1, 1, 0.007, 5120.269, 474.54)"/><path class="ca" d="M5127,447.8a1.363,1.363,0,0,1-1.107,1.574l-12.224,2.125a1.362,1.362,0,0,1-1.574-1.108h0a1.362,1.362,0,0,1,1.107-1.575l12.224-2.126A1.36,1.36,0,0,1,5127,447.8Z"/><path class="ca" d="M5160.486,448.976a1.364,1.364,0,0,1-1.286,1.435l-12.39.655a1.362,1.362,0,0,1-1.431-1.285v0a1.362,1.362,0,0,1,1.287-1.432l12.39-.658a1.36,1.36,0,0,1,1.43,1.287Z"/><path class="bq" d="M5156.081,341.671s-12.064,4.545-24.318,4.1a199.57,199.57,0,0,1-26.331-3.2s-7.021-18.229,2.732-47.155c2.2-6.529-.248-20.213-.248-20.213s6.2-3.578,24.092-3.609c24.879-.04,25.272,3.94,25.272,3.94s-5.138,14.2,2.5,22.216C5164.238,299.19,5155.408,321.992,5156.081,341.671Z"/><path class="cb" d="M5164.238,299.19c-7.641-8.018,3.539-15.415,3.539-15.415s-5.732-14.509-35.845-12.326q-1.66,0-3.173.067c3.8,1.045,17.153,2.1,19.612,5.629s5.243,31.114.55,45.31a90,90,0,0,1-10.516,21.521c11.7.518,17.676-2.305,17.676-2.305C5159.24,323.8,5162.281,306.355,5164.238,299.19Z"/><path class="cc" d="M5152.9,348.771c-12.355,2.587-23.364-.966-47.588-6.521-.314-1.031-1-4.269-1.312-5.3,12.386,5.77,35.359,10.015,52.076,4.722C5155.464,342.913,5153.522,347.529,5152.9,348.771Z"/><path class="bq" d="M5051.567,293.645l6.635-9.513s16.57,8.364,23.547,6.336a18.353,18.353,0,0,1,11.488.23s7.455,5.834-.482,12.58-22.286,1.307-30.63-2.265S5051.567,293.645,5051.567,293.645Z"/><rect class="cd" width="14.948" height="3.569" transform="translate(5049.139 295.901) rotate(-55.918)"/><path class="ce" d="M5049.4,280.55a9.01,9.01,0,0,1,1.642-3.071c.728-.69,1.13-1.449,3.034-.54,0,0,2.125,1.594,2.027,3.277C5056.214,289.2,5050.726,282.406,5049.4,280.55Z"/><path class="ce" d="M5048.681,271.513s-.927,2.1,1.844,5.787c.523.765,2.163-1.344,5.5,2.24-.2-1.081-.575-1.171-3.233-4.132C5050.355,272.747,5048.929,269.506,5048.681,271.513Z"/><path class="i" d="M5126.649,272.839c1.051,8.125,1.561,13.652,6.044,17.532,5.473-6.793,9.952-12.463,14.968-18.334,0,0-6.382-1.936-11.486-1.308C5133.543,271.05,5132.958,270.694,5126.649,272.839Z"/><path class="bo" d="M5141.266,275.889c.43,2.211-1.5,4.444-4.309,4.991s-5.437-.813-5.865-3.02l-1.219-6.279c-.43-2.211,1.5-4.444,4.311-4.992s5.434.8,5.863,3.016Z"/><path class="bo" d="M5164.11,251.273a4.7,4.7,0,0,1-4.44,4.929c-2.553.1-7.108-1.178-7.215-3.788s4.276-5.587,6.833-5.687A4.688,4.688,0,0,1,5164.11,251.273Z"/><path class="bo" d="M5157.4,250.313c-1.984,11.52-12.78,21.712-24.776,20.449s-19.868-13.4-18.643-25.027,5.113-23.63,17.1-22.365S5161.97,223.8,5157.4,250.313Z"/><path class="ce" d="M5117.223,232.141c9.433,1.848,30.8,16.192,38.447,23.843-3.942,8.963-13.079,15.829-23.05,14.778-11.987-1.267-19.868-13.4-18.643-25.027A45.484,45.484,0,0,1,5117.223,232.141Z"/><path class="bo" d="M5157.622,233.989c.224,5.466-2.324,11.769-5.494,17.5-5.657,10.235-19.068,15.666-29.619,9.835a20.18,20.18,0,0,1-8.006-8.285c1.18,6.342,4.68,12.153,10.464,15.353,10.553,5.827,23.963.4,29.619-9.833C5159.267,250.1,5162.569,240.4,5157.622,233.989Z"/><path class="cf" d="M5144.254,246.5a.892.892,0,0,1-.628-.665,4,4,0,0,0-4.76-3.039.886.886,0,0,1-.384-1.73,5.773,5.773,0,0,1,6.875,4.385.884.884,0,0,1-.674,1.056.865.865,0,0,1-.429-.007Zm-26.277-3.545a.885.885,0,0,1-.224-1.234,5.76,5.76,0,0,1,8.014-1.484.888.888,0,0,1,.229,1.233.877.877,0,0,1-1.233.227,3.988,3.988,0,0,0-5.551,1.031.887.887,0,0,1-.969.35A.838.838,0,0,1,5117.977,242.951Z"/><path class="cg" d="M5137.965,261.532c-4.9-3.184-10.675-4.979-14.165-2.651C5124.588,267.7,5133.54,266.4,5137.965,261.532Z"/><path class="ch" d="M5124.56,246.958c-.162,1.524-1.082,2.673-2.059,2.569s-1.639-1.42-1.476-2.941,1.081-2.669,2.056-2.566S5124.72,245.439,5124.56,246.958Z"/><path class="i" d="M5123.061,245.386c-.047.458-.351.795-.68.761s-.561-.431-.514-.884.356-.794.689-.761S5123.111,244.936,5123.061,245.386Z"/><path class="ch" d="M5142.067,248.889c-.164,1.521-1.083,2.67-2.062,2.568s-1.634-1.418-1.47-2.941,1.076-2.671,2.053-2.565S5142.226,247.367,5142.067,248.889Z"/><path class="i" d="M5140.524,247.561c-.049.454-.355.8-.686.759s-.556-.431-.508-.882.353-.8.684-.762S5140.571,247.108,5140.524,247.561Z"/><path class="cg" d="M5129.729,255.169l.057.016a3.186,3.186,0,0,0,2.652-.511.889.889,0,1,0-1.044-1.44,1.405,1.405,0,0,1-1.17.231.1.1,0,0,1-.025,0,1.4,1.4,0,0,1-.989-1.629.887.887,0,1,0-1.738-.36A3.17,3.17,0,0,0,5129.729,255.169Z"/><path class="cg" d="M5158.646,254.978a3.163,3.163,0,0,0,2.29-5.862.873.873,0,0,0-1.195.378.886.886,0,0,0,.383,1.194,1.4,1.4,0,0,1,.633,1.82,1.414,1.414,0,0,1-1.788.71.863.863,0,0,0-1.153.491.887.887,0,0,0,.494,1.155A3.022,3.022,0,0,0,5158.646,254.978Z"/><path class="ci" d="M5164.691,225.786c-4.983-8.58-35.985-33.578-48.646,4.606-.532,1.6-.124,3.522-.01,5.527,0,0,2.73-9.421,10.659-6.812,3.735,1.233,9.9,3.805,16.106,3.854,4.9.038,6.058-2.593,8.232-2.169a7.249,7.249,0,0,1,5.624,5.542c.149.635-.1,1.367.213,1.966,2.9,5.625-2.987,12.691-3.44,15.388-.185,1.117,4.227-4.725,5.725-5.851,1.684-1.264,2.281-.594,2.281-.594S5169.676,234.369,5164.691,225.786Z"/><path class="bq" d="M5166,223.623c-5.774-10.948-37.478-31.624-49.951,6.769,4.086-2.945,12.214-7.705,24.446-2.226,27.543,15.1,17.165,20.8,18.663,19.671,1.684-1.264,2.281-.594,2.281-.594S5170.625,232.4,5166,223.623Z"/><path class="cj" d="M5121.934,218.064c11.045,7.718,34.366,9.222,43.349,4.356C5159,212.813,5135.894,198.178,5121.934,218.064Z"/><path class="cj" d="M5156.207,239.1c-5.391.131-3.361-.092-8.751.039-4.123.4-11.009-5.619-15.325-6.51a24.287,24.287,0,0,0-13.949,1.237c-1.127-1.353-2.777-4.6-.141-5.392C5132.723,220.429,5147.721,228.729,5156.207,239.1Z"/><path class="cc" d="M5140.25,224.447a6.654,6.654,0,1,1,6.653-6.653A6.665,6.665,0,0,1,5140.25,224.447Z"/><path class="bs" d="M5140.25,222.558a4.764,4.764,0,1,1,4.765-4.764A4.773,4.773,0,0,1,5140.25,222.558Z"/><path class="bo" d="M5226.56,295.1c1.869-1.192,4.475-4.618,4.992-4.946s-2.022-11.955-2.022-11.955a24.208,24.208,0,0,0-6.924,3.771,40.638,40.638,0,0,0-6.98,7.554c-1.694,2.49,4.208,6.04,4.456,6.469S5224.688,296.29,5226.56,295.1Z"/><path class="bo" d="M5223.677,281.078a2.078,2.078,0,0,0,2.178,3.539l8.609-6.285c.974-.6,1.766-1.2,1.163-2.182s-1.764-.516-2.737.086Z"/><path class="bo" d="M5225.37,283.725a2.148,2.148,0,1,0,2.253,3.658l8.907-6.5c1.01-.622,1.827-1.246,1.205-2.257s-1.822-.536-2.833.086Z"/><path class="bo" d="M5226.218,286.562a2.075,2.075,0,1,0,2.176,3.533l8.6-6.28c.969-.6,1.764-1.207,1.161-2.182s-1.766-.517-2.736.083Z"/><path class="bo" d="M5226.7,289.931a1.689,1.689,0,1,0,1.727,2.8l8.67-6.121c.972-.6,1.77-1.186,1.294-1.958s-1.61-.277-2.578.323Z"/><path class="bo" d="M5222.39,290.928c.976,1.776.773,3.76-.457,4.436l-7.957,4.372c-1.23.676-3.011-.22-3.988-2h0c-.98-1.777-.776-3.759.457-4.434l7.959-4.372c1.227-.672,3.006.216,3.986,1.995Z"/><path class="cb" d="M5168.146,280.331s15.46,11.092,22.863,13.989c.44-.043-1.875,15.185-4.1,15.8-13.056-1.836-20.268-3.547-29.936-16.735C5153.1,283.1,5158.657,275.6,5168.146,280.331Z"/><path class="bq" d="M5221.194,297.5l-6.636-9.511s-16.57,8.361-23.547,6.334c-6.044-1.758-9.554,11.169-4.105,15.8,7.923,2.733,15.386-1.683,23.729-5.256S5221.194,297.5,5221.194,297.5Z"/><rect class="cd" width="3.569" height="14.949" transform="translate(5212.288 289.374) rotate(-34.081)"/><path class="ce" d="M5223.362,284.4a8.985,8.985,0,0,0-1.642-3.072c-.728-.69-1.129-1.45-3.034-.541,0,0-2.125,1.594-2.026,3.278C5216.546,293.055,5222.034,286.259,5223.362,284.4Z"/><path class="ce" d="M5224.079,275.367s.927,2.1-1.844,5.786c-.523.765-2.163-1.345-5.5,2.24.205-1.081.575-1.171,3.233-4.132C5222.4,276.6,5223.831,273.36,5224.079,275.367Z"/><path class="ck" d="M5136.623,260.987c-.283-.4-10.293-3.384-12.274-2.28C5126.41,266.42,5132.58,263.7,5136.623,260.987Z"/><path class="i" d="M5135.469,260.521a10.148,10.148,0,0,1-3.938.719c-3.131,0-5.671-1.146-5.671-2.559a1.23,1.23,0,0,1,.015-.179C5128.661,258.474,5133.051,259.691,5135.469,260.521Z"/><path class="cl" d="M5220.071,456.7c-4.31,5.388-23.436,12.123-30.979,13.739-4.9,1.056-7.414-.582-9.008-4.106a27.291,27.291,0,0,1-1.671-5.452c-.118-.56-.248-1.153-.366-1.756a67.233,67.233,0,0,1,.517-19.655c.043-.258.086-.506.14-.765a35.263,35.263,0,0,1,1.5-5.441c1.94-5.227,7.769-10.7,14.967-13.071a21.838,21.838,0,0,1,18.706,2.026,18.14,18.14,0,0,1,1.563,1.066C5227.614,432.409,5224.209,451.525,5220.071,456.7Z"/><path class="cm" d="M5201.753,448.885c-1.412,2.446-5.9,5.14-10.819,7.392a84.118,84.118,0,0,1-12.521,4.6c-.118-.56-.248-1.153-.366-1.756a67.435,67.435,0,0,1,.657-20.42c1.972-.474,5.14-1.2,8.491-1.81a61.742,61.742,0,0,1,9.978-1.207C5203.908,435.685,5204.716,443.767,5201.753,448.885Z"/><path class="cn" d="M5220.071,456.7c-4.31,5.388-23.436,12.123-30.979,13.739-4.9,1.056-7.414-.582-9.008-4.106,7.844,1.38,20.387,1.671,28.4-7.747,11.659-13.7,9.245-37.65-13.319-38.393a21.838,21.838,0,0,1,18.706,2.026,18.14,18.14,0,0,1,1.563,1.066C5227.614,432.409,5224.209,451.525,5220.071,456.7Z"/><path class="co" d="M5201.753,448.885c-1.412,2.446-5.9,5.14-10.819,7.392,6.853-7.36,7.284-18.114-3.739-19.385a61.742,61.742,0,0,1,9.978-1.207C5203.908,435.685,5204.716,443.767,5201.753,448.885Z"/><path class="cp" d="M5346.774,460.7h-11.565l2.1-76.779h7.369Z"/><path class="cq" d="M5347.62,460.7H5342.2V383.924h3.324Z"/><path class="cq" d="M5345.386,416l-.816-1.66a23.126,23.126,0,0,0,9.305-33.187l1.561-.993a24.977,24.977,0,0,1-10.05,35.84Z"/><path class="cp" d="M5337.143,413.69a25.9,25.9,0,0,1-10.42-37.168l3.12,1.986a22.2,22.2,0,0,0,8.931,31.863Z"/><path class="cr" d="M5397.416,310.27a32.32,32.32,0,0,0-25.848-26.083,32.926,32.926,0,0,0-3.618-.433c-1.986-6.823-8.655-11.846-16.6-11.846a17.821,17.821,0,0,0-11.6,4.218,36.935,36.935,0,0,0-52.159,46.348,42.353,42.353,0,0,0-10.247,27.635,42.961,42.961,0,0,0,37.754,42.434,55.564,55.564,0,0,0,79.414-62.38A32.014,32.014,0,0,0,5397.416,310.27Z"/><path class="cs" d="M5324.518,319.885c-3.275,3.092-9.336,1.993-13.541-2.456s-4.962-10.561-1.689-13.656,9.333-1.994,13.54,2.454S5327.789,316.789,5324.518,319.885Z"/><path class="ct" d="M5360.8,346.436a20.076,20.076,0,0,0-3.551-.283c-6.829.076-13.642-1.884-18.433-6.752a26.437,26.437,0,0,0-19.292-7.91,26.839,26.839,0,0,0-26.12,25.771,26.524,26.524,0,0,0,38.489,24.434,16.909,16.909,0,0,1,16.106-.008,19.034,19.034,0,1,0,12.8-35.252Z"/><path class="cs" d="M5341.291,299.007c-1.98,1.87-5.647,1.208-8.19-1.483s-3-6.391-1.023-8.263,5.648-1.2,8.192,1.485S5343.272,297.136,5341.291,299.007Z"/><path class="ct" d="M5376.94,285.672a31.281,31.281,0,0,0-5.373-1.484,33.128,33.128,0,0,0-3.618-.434c-1.984-6.823-8.654-11.846-16.6-11.846a17.818,17.818,0,0,0-11.6,4.218,36.935,36.935,0,0,0-52.159,46.348,42.411,42.411,0,0,0,3.623,59.014,111.06,111.06,0,0,0,30.588-8.651C5362.194,354.955,5385.366,317.284,5376.94,285.672Z"/><path class="cu" d="M5324.518,319.885c-3.275,3.092-9.337,1.993-13.542-2.456s-4.961-10.561-1.688-13.656,9.333-1.994,13.54,2.454S5327.789,316.789,5324.518,319.885Z"/><path class="cu" d="M5358.807,346.2c-.525-.037-1.046-.053-1.559-.048-6.829.076-13.641-1.884-18.433-6.752a26.431,26.431,0,0,0-19.291-7.909,26.838,26.838,0,0,0-26.121,25.77,26.5,26.5,0,0,0,10.378,21.812,113.69,113.69,0,0,0,18.014-6.237A107.686,107.686,0,0,0,5358.807,346.2Z"/><path class="cu" d="M5341.291,299.008c-1.98,1.868-5.647,1.207-8.19-1.484s-3-6.391-1.023-8.263,5.647-1.2,8.193,1.485S5343.272,297.136,5341.291,299.008Z"/><path class="cu" d="M4887.285,448.105c0,10.679-38.8,10.679-38.8,0,0-10.719,16.422-22.191,27.181-22.191C4886.342,425.914,4887.285,437.386,4887.285,448.105Z"/><path class="cr" d="M4879.871,443.332c0-6.391-.324-13.023-2.886-17.365,9.25,1.078,10.084,11.891,10.084,22.085,0,10.056-34.325,10.652-38.4,1.765C4859.971,453.161,4879.871,451.018,4879.871,443.332Z"/><rect class="cv" width="43.189" height="9.68" transform="translate(4844.627 451.178)"/><rect class="cw" width="32.331" height="9.68" transform="translate(4859.674 451.178)"/><path class="cx" d="M5305.664,239.319c-1.092-1.133-3.371-1.915-6.014-1.915a11.7,11.7,0,0,0-3.626.547,6.833,6.833,0,0,0-6.277-5.181,9.579,9.579,0,0,0-18.205-1.846,15.756,15.756,0,0,0-1.582-.088c-4.613,0-8.518,1.979-9.879,4.715a4.645,4.645,0,0,0-8.168,1.078c-5.755.221-10.338,1.3-11.491,2.691Z"/><path class="cy" d="M4913.556,225.176c1.022-1.061,3.154-1.792,5.627-1.792a10.918,10.918,0,0,1,3.393.511,6.392,6.392,0,0,1,5.873-4.847,8.962,8.962,0,0,1,17.033-1.727,14.631,14.631,0,0,1,1.48-.082c4.316,0,7.97,1.851,9.243,4.41a4.347,4.347,0,0,1,7.642,1.009c5.384.207,9.673,1.219,10.752,2.518Z"/><path class="cz" d="M4985.645,455.912l-32.9,25.917,35.7-4.81-23.708,18.335-10.64,10.934,23.825-3.156"/></g></svg>