<svg xmlns="http://www.w3.org/2000/svg" viewBox="0 0 27.3 9.7"><defs><style>.cls-1{fill:#bbbdc0;fill-rule:evenodd;}</style></defs><title>grey-car-mini</title><g id="Layer_2" data-name="Layer 2"><g id="Layer_2-2" data-name="Layer 2"><path class="cls-1" d="M0,5.38a1.69,1.69,0,0,1,.22-.53,1.13,1.13,0,0,0,.26-1c0-.2,0-.41,0-.61,0-.62.1-.74.72-.83a11.2,11.2,0,0,0,3-.79A19.38,19.38,0,0,1,10.94,0a12.15,12.15,0,0,1,5.59.92l4.37,2a2.13,2.13,0,0,0,.33.11c.9.19,1.82.34,2.71.58s1.68.55,2.52.84A.81.81,0,0,1,27,5c.1.33.22.64.33,1V6.5c-.06.21-.09.44-.17.64s-.14.44-.28.52A5.22,5.22,0,0,1,25,8.1a2.49,2.49,0,1,0-4.85.2L7.89,8.05A2.52,2.52,0,0,0,6,5.24a2.27,2.27,0,0,0-1.54.15A2.51,2.51,0,0,0,2.94,7.66c-.66-.12-1.28-.23-1.89-.36A1,1,0,0,1,.51,7,9.85,9.85,0,0,1,0,6Zm12.5-3c.16.67.17.66.86.68l3.57.11h.23c.11-.31.21-.58.32-.91C16,1.08,14.06.82,12.07.65,12.23,1.28,12.36,1.84,12.5,2.41Zm-1.06-1a.43.43,0,0,1,0,0c0-.22,0-.55-.15-.65a1.23,1.23,0,0,0-.72,0C9.78.78,9,.91,8.22,1a.55.55,0,0,0-.45.33,1.07,1.07,0,0,1-.16.27.93.93,0,0,0-.15,1.07.25.25,0,0,0,.24.19L11.48,3h.21C11.6,2.45,11.52,1.94,11.44,1.42ZM6.21,2.85a.26.26,0,0,0,.18-.09c.35-.47.69-.95,1-1.43l0-.06c-.65.31-1.3.61-1.94.93a.56.56,0,0,0-.27.65Z"/><path class="cls-1" d="M7.48,7.63a2.05,2.05,0,0,1-2,2.07,2.06,2.06,0,1,1,2-2.07ZM5.6,6.35a4.12,4.12,0,0,0,0,.51c0,.16.12.21.25.1s.22-.2.38-.35Zm.28,2s-.13-.07-.18,0a.22.22,0,0,0-.09.16,3.59,3.59,0,0,0,0,.48l.66-.26ZM4.13,7.47h.5s.13,0,.14-.08a.3.3,0,0,0,0-.18c-.09-.12-.19-.23-.32-.41C4.29,7.07,4.22,7.25,4.13,7.47Zm.23.93.1.06c.09-.12.18-.23.26-.36a.32.32,0,0,0,.06-.17.21.21,0,0,0-.17-.09,3.59,3.59,0,0,0-.48,0ZM6.5,6.91l-.09,0-.33.46.57.11.06-.08Zm.22.92h-.5c-.19,0-.19.12-.1.25l.27.35.11,0ZM4.58,6.63c.17.14.29.24.41.32s.12.06.15,0a.22.22,0,0,0,.1-.15,3.81,3.81,0,0,0,0-.5Zm.6,2.29.05-.06c0-.19-.05-.38-.07-.56l-.5.32,0,.09Z"/><path class="cls-1" d="M22.5,5.59a2.06,2.06,0,1,0,.05,4.11,2.06,2.06,0,0,0-.05-4.11Zm-.15.76a3.91,3.91,0,0,1,0,.5c0,.17-.1.22-.24.11s-.23-.2-.4-.35Zm-.86.48c.14.15.24.25.33.36a.26.26,0,0,1,.06.18.22.22,0,0,1-.16.09h-.49Zm-.25,1a4.33,4.33,0,0,1,.52,0c.15,0,.19.11.09.23a5.29,5.29,0,0,1-.36.39ZM22.35,9l-.61-.27a3.74,3.74,0,0,1,.37-.35c.12-.1.22-.06.23.09A4.3,4.3,0,0,1,22.35,9Zm1.48-1.48h-.48a.19.19,0,0,1-.16-.09s0-.13,0-.18.18-.22.32-.39C23.66,7.07,23.74,7.25,23.83,7.47ZM22.71,6.35l.65.26L23,6.94s-.13.07-.18,0a.21.21,0,0,1-.09-.15A3.79,3.79,0,0,1,22.71,6.35Zm0,2.59c0-.2,0-.35,0-.5s.11-.21.25-.11l.42.34Zm.86-.48a5.29,5.29,0,0,1-.36-.39c-.09-.12-.06-.22.1-.23a4.24,4.24,0,0,1,.52,0C23.74,8.05,23.67,8.23,23.57,8.46Z"/></g></g></svg>