<svg xmlns="http://www.w3.org/2000/svg" width="641.484" height="343.301" viewBox="0 0 641.484 343.301"><defs><style>.a,.ac,.ag,.d,.n{fill:#fff;}.a{stroke:#fff;}.a,.ah,.ai,.aj{stroke-miterlimit:10;}.b{fill:#cee3e2;}.c{fill:#1f96ba;}.d,.v{opacity:0.5;}.ae,.af,.e{fill:#9ebde0;}.f{fill:#1b4378;}.g{fill:#357e68;}.h{fill:#4bb494;}.i{fill:#72a1d6;}.j{fill:#8accba;}.k{fill:#6d6f72;}.l{fill:#afb1b3;}.m{fill:#ffe900;}.ak,.al,.am,.an,.ao,.ap,.aq,.ar,.as,.at,.au,.av,.aw,.ax,.ay,.az,.ba,.bb,.bc,.bf,.bg,.bh,.bi,.bj,.bo,.m,.n{fill-rule:evenodd;}.o{fill:#072948;}.p{fill:#141414;}.q{fill:#76767c;}.r{fill:#b7b9bd;}.s{fill:#5a3714;}.t{fill:#ad112b;}.u{fill:#17120c;}.v{fill:#ea8f27;mix-blend-mode:multiply;isolation:isolate;}.w{fill:#162f50;}.x{fill:#a84131;}.y{fill:#f1766c;}.z{fill:#de7a6a;}.aa{fill:#da5d40;}.ab{fill:#002a4b;}.ad{fill:#88867a;}.ae{opacity:0.6;}.af{opacity:0.7;}.ag{opacity:0.2;}.ah,.ai,.aj{fill:none;}.ah,.aj{stroke:#5a3714;}.ai{stroke:#002a4b;stroke-width:0.5px;}.aj{stroke-width:2px;}.ak{fill:#efa172;}.al{fill:#e49162;}.am{fill:#2b1911;}.an{fill:#4f3226;}.ao{fill:#2d973b;}.ap{fill:#a3c424;}.aq{fill:#251211;}.ar,.be{fill:#e85e4d;}.as{fill:#ca231b;}.at{fill:#88231d;}.au{fill:#040505;}.av{fill:#3a2116;}.aw{fill:#bd1b6b;}.ax{fill:#095863;}.ay{fill:#128b8f;}.az{fill:#4c4d4c;}.ba{fill:#1f4030;}.bb{fill:#2f5644;}.bc{fill:#e92a17;}.bd{fill:#261110;}.bf{fill:#2c100e;}.bg{fill:#22100f;}.bh{fill:#432514;}.bi{fill:#347364;}.bj{fill:#334249;}.bk{fill:#c6932e;}.bl{fill:#e0aa31;}.bm,.bo{fill:#97999d;}.bn{fill:#c8c9ca;}.bp{fill:#323233;}</style></defs><g transform="translate(-6187.798 -219.742)"><path class="a" d="M6736,435.01"/><path class="b" d="M6713.381,386.42H6241.3c-39.13,15.734-18.993,63.076,13.69,72.673,35.181,10.331-20.684,46.059,33.511,57.656,35.385,7.571,83.341-.887,106.767,15.413,27.522,19.152,73.243,42.463,158.394,24.349,65.674-13.971,30-40.906,137.472-49.015,55.261-4.17,44.583-39.847,39.43-47.219-4.488-6.421-34.179-16.606,7.085-30.632C6798.153,409.078,6714.807,386.8,6713.381,386.42Z"/><path class="c" d="M6236.8,489.791h500.056c41.449-24.055,20.119-96.441-14.5-111.114-37.266-15.8,21.909-70.422-35.5-88.153-37.481-11.576-88.28,1.356-113.093-23.567-29.153-29.282-77.583-64.924-167.78-37.227-69.565,21.361-31.781,62.543-145.617,74.941-58.535,6.376-47.224,60.924-41.766,72.2,4.754,9.818,36.2,25.391-7.5,46.836C6147.008,455.148,6235.292,489.212,6236.8,489.791Z"/><path class="d" d="M6451.529,283.748a8.942,8.942,0,0,0-10.959-6.638,13.158,13.158,0,0,0-15.82-6.989,16.208,16.208,0,0,0-29.113,2.832,11.118,11.118,0,0,0-16.524,9.716c0,.364.019.724.053,1.079Z"/><path class="d" d="M6578.3,389.622a3.12,3.12,0,0,1,3.823-2.315,4.592,4.592,0,0,1,5.518-2.438,5.654,5.654,0,0,1,10.155.988,3.878,3.878,0,0,1,5.763,3.389c0,.127-.006.252-.018.376Z"/><path class="d" d="M6533.989,371.627a3.828,3.828,0,0,0-4.7-2.845,5.64,5.64,0,0,0-6.782-3A6.947,6.947,0,0,0,6510.031,367a4.764,4.764,0,0,0-7.083,4.164c0,.156.008.311.023.463Z"/><path class="d" d="M6572.419,300.7a7.143,7.143,0,0,0-8.758-5.3,10.518,10.518,0,0,0-12.645-5.586,12.953,12.953,0,0,0-23.267,2.263,8.886,8.886,0,0,0-13.206,7.765c0,.291.015.579.042.863Z"/><path class="d" d="M6425.425,379.7a2.579,2.579,0,0,1,3.162-1.916,3.8,3.8,0,0,1,4.566-2.016,4.677,4.677,0,0,1,8.4.817,3.207,3.207,0,0,1,4.768,2.8c0,.1,0,.208-.015.311Z"/><path class="e" d="M6415.541,398.7s58.824-74.518,93.809-74.278,73.095,49.082,122.881,90.8c55.793,46.747-17.059,48.709-21.263,49.094s-149.269-4.738-151.688-7.262-41.152-34.844-41.152-34.844Z"/><rect class="f" width="2.486" height="27.555" transform="translate(6719.855 400.937) rotate(180)"/><path class="g" d="M6718.612,319.927l8.114,65.577H6710.5Z"/><path class="h" d="M6723.783,361.72l-11.57,9.922.445-3.6,10.767-9.232Z"/><path class="h" d="M6722,347.345l-7.085,2.422.333-2.692,6.446-2.2Z"/><path class="g" d="M6378.83,352.42l7.244,58.546h-14.489Z"/><path class="g" d="M6391.591,361.019l5.517,44.589h-11.035Z"/><path class="g" d="M6402.626,374.3l5.517,44.589h-11.035Z"/><path class="g" d="M6365.276,365.495l7.244,58.546h-14.488Z"/><path class="i" d="M6392.667,383.7c62.84,10.456,157.13,104.422,228.947,104.422S6708.9,465.65,6735.827,470.4s63.086,17.722,63.086,17.722L6265.234,489.7S6329.827,373.247,6392.667,383.7Z"/><path class="g" d="M6620.135,356.317l7.245,58.546h-14.489Z"/><path class="g" d="M6637.386,373.553l5.517,44.589h-11.035Z"/><path class="g" d="M6593.915,397.354l5.517,44.589H6588.4Z"/><path class="g" d="M6606.581,369.391l7.245,58.546h-14.489Z"/><path class="i" d="M6677.5,383.7c-62.84,10.456-157.13,104.422-228.947,104.422s-87.282-22.475-114.213-17.722-63.086,17.722-63.086,17.722L6804.93,489.7S6740.337,373.247,6677.5,383.7Z"/><rect class="f" width="2.706" height="47.416" transform="translate(6690.743 484.832) rotate(180)"/><path class="g" d="M6688.682,352.879l13.334,95.708h-26.668Z"/><path class="h" d="M6701.17,442.514l-23.926-7.543.361-2.6,23.169,7.3Z"/><path class="h" d="M6696.957,412.278l-15.855-5,.362-2.6,15.1,4.76Z"/><path class="j" d="M6265.234,489.7s68.9-59.847,157.734-63.524c29.831-1.234,151.981,23.517,254.843,42.963,4.324.817,13.673,8.82,18.051,9.643,48.7,9.154,94.077,11.088,108.755,11.679Z"/><path class="j" d="M6829.282,491.817s-25.292-33.6-41.208-38.748-.915,15.312-.915,15.312-28.235-30.874-38.6-28.091c-9.5,2.551,0,21.688,0,21.688s-10.7-10.6-23.67-10.6,10.027,39.68,10.027,39.68Z"/><path class="g" d="M6748.563,491.062s-17.289-46.235-38.7-40.888c-17.351,4.333-5.015,27.6-6.073,26.539s-10.363-16.848-25.421-16.848,4.622,21.311,4.622,21.311-32.081-10.019-34.593.5c-2.085,8.732,9.575,9.385,9.575,9.385Z"/><rect class="k" width="6.58" height="64.711" transform="translate(6576.184 425.046)"/><rect class="l" width="2.715" height="134.93" transform="translate(6578.116 290.119)"/><rect class="l" width="11.97" height="4.39" transform="translate(6573.489 420.659)"/><path class="m" d="M6579.473,311.807a12.727,12.727,0,1,0-12.726-12.727A12.752,12.752,0,0,0,6579.473,311.807Z"/><rect class="l" width="11.97" height="2.22" transform="translate(6573.489 313.148)"/><rect class="l" width="7.564" height="2.22" transform="translate(6575.691 316.476)"/><path class="n" d="M6579.473,303.821a4.741,4.741,0,1,0-4.74-4.741A4.75,4.75,0,0,0,6579.473,303.821Z"/><path class="o" d="M6270.445,455.1s65.857,11.876,66.655,11.412,9.861-37.227,9.861-37.227-54.448-10.577-55.332-10.59-12.889,9.32-13.056,9.951S6270.445,455.1,6270.445,455.1Z"/><path class="o" d="M6471.668,467.285c1.581.18,81.545-.416,81.545-.416l-5.758-18.475s-10.847-16.911-16.708-16.688-40.615-5.911-46.685-1.826-11.406.686-14.394,10.619-5.227,11.019-3.092,17.061A36.08,36.08,0,0,0,6471.668,467.285Z"/><ellipse class="p" cx="27.22" cy="27.211" rx="27.22" ry="27.211" transform="translate(6276.001 488.872) rotate(-88.997)"/><ellipse class="q" cx="18.939" cy="18.933" rx="18.939" ry="18.933" transform="matrix(0.016, -1, 1, 0.016, 6284.453, 480.767)"/><ellipse class="r" cx="12.666" cy="12.662" rx="12.666" ry="12.662" transform="translate(6290.821 474.593) rotate(-89.078)"/><ellipse class="p" cx="27.22" cy="27.211" rx="27.22" ry="27.211" transform="translate(6489.262 500.181) rotate(-88.994)"/><ellipse class="q" cx="18.939" cy="18.933" rx="18.939" ry="18.933" transform="translate(6497.751 492.115) rotate(-89.2)"/><path class="r" d="M6504.286,473.266a12.662,12.662,0,1,0,12.838-12.488A12.664,12.664,0,0,0,6504.286,473.266Z"/><path class="s" d="M6574,441.628c2.965-18.863-7.483-20.091-29.419-24.8-24.2-5.194-54.8-21.454-54.8-21.454s-52.194-26.484-65.028-29.619-44.5-2.732-71.1-2.893-42.318,7.009-55.974,17.373-37.2,18.058-37.2,18.058l-4.267.7a9.177,9.177,0,0,0-7.69,8.928l-.526,37.64a9.392,9.392,0,0,0,6.865,9.176l15.325,4.277h0a2.2,2.2,0,0,0,2.582-1.9c1.9-15.375,15.375-26.892,31.249-26.652a30.772,30.772,0,0,1,29.686,36.806,3.057,3.057,0,0,0,2.956,3.655l141.558,1.977a4.554,4.554,0,0,0,4.595-5.08,30.753,30.753,0,1,1,61.283-3.249,31.207,31.207,0,0,1-.23,3.366,5.28,5.28,0,0,0,5.152,5.952l20.355.284c3.7.052-2.518-11.406-2.466-15.107l9.537-11.217C6576.487,445.236,6573.6,444.211,6574,441.628Z"/><path class="t" d="M6249.365,412.39l16.765.235a2.01,2.01,0,0,1,1.815,2.812L6266,419.9a11.527,11.527,0,0,1-10.73,6.923l-6.1-.085a2.166,2.166,0,0,1-2.134-2.194l.14-10.026A2.164,2.164,0,0,1,6249.365,412.39Z"/><path class="b" d="M6549.558,423.55c9.213,1.543,19.724,10.434,19.724,10.434a4.127,4.127,0,0,1-3.379,6.884l-17.985-1.389a8.88,8.88,0,0,1-7.881-6.5h0C6538.37,426.906,6539.929,421.938,6549.558,423.55Z"/><path class="u" d="M6248.083,446.968a1.617,1.617,0,0,0-1.578,2.183,10.513,10.513,0,0,0,7,6.39l17.171,4.794a2.464,2.464,0,0,0,2.894-2.132,33.173,33.173,0,0,1,2.15-8.324,1.385,1.385,0,0,0-1.237-1.9Z"/><path class="u" d="M6561.328,462.6a2.128,2.128,0,0,0-2.685,1.8,34.464,34.464,0,0,1-1.947,7.913,5.859,5.859,0,0,0,4.006,7.761l21.881,5.612a7.437,7.437,0,0,0,9.051-5.356l1.452-5.663a3.054,3.054,0,0,0-2.127-3.7Z"/><path class="v" d="M6489.7,404.093c-.3-.169-29.99-17-49.705-26.471-19.519-9.374-41.463-8.715-42.409-8.681-2.519-.093-54.972-1.964-71.173,2.838-16.32,4.838-37.806,27.614-38.712,28.581l-.251.267,5.318,26.784.61-.025c16.564-.7,29.173,3.879,36.458,13.249a29.882,29.882,0,0,1,6.1,14.565l.046.636,59.652,2.368v0l.689.023.735.029v0l83.125,2.783.021-.715c.793-27.015,9.73-55.113,9.82-55.394l.177-.551Zm-152.408,50.369a31.431,31.431,0,0,0-6.284-14.641c-5.232-6.763-15.9-14.623-37.08-13.883l-4.937-24.867c2.486-2.6,22.8-23.472,37.827-27.926s63.637-3.015,70.046-2.8l-1.208,86.436Zm141.513,5.1-81.725-2.736,1.208-86.482c3.848-.057,23.485.1,41.09,8.557,18.264,8.771,45.131,23.89,49.119,26.143C6487.251,409.106,6479.668,434.673,6478.808,459.567Z"/><path class="v" d="M6246.5,449.151a10.513,10.513,0,0,0,7,6.39l17.171,4.794a2.464,2.464,0,0,0,2.894-2.132,33.047,33.047,0,0,1,.583-3.315Z"/><path class="s" d="M6483.91,465.783a30.986,30.986,0,0,1,.385-4.539,2.992,2.992,0,0,0-2.824-3.485l-147.184-5.65a2.373,2.373,0,0,0-2.368,3.007,30.95,30.95,0,0,1,1.052,8.483,31.435,31.435,0,0,1-.6,5.677,3.12,3.12,0,0,0,3,3.75l144.079,2.012a4.657,4.657,0,0,0,4.668-5.238A31.478,31.478,0,0,1,6483.91,465.783Z"/><path class="u" d="M6483.91,465.783l0-.076L6332.971,463.6a31.435,31.435,0,0,1-.6,5.677,3.12,3.12,0,0,0,3,3.75l144.079,2.012a4.657,4.657,0,0,0,4.668-5.238A31.478,31.478,0,0,1,6483.91,465.783Z"/><path class="b" d="M6305.071,404.039l81.358,1.9s4.982-.064,5.725-4.741.966-24.75.966-24.75-.534-4.038-4.393-4.143c-2.345-.065-21.985-1.744-41.138.318a69.982,69.982,0,0,0-41.244,19.394l-5.857,5.7S6296.507,403.838,6305.071,404.039Z"/><path class="b" d="M6402.142,379.126l-.294,21.044a5.027,5.027,0,0,0,4.68,5.154l63.9,3.464A4.3,4.3,0,0,0,6474.2,407c1.171-1.676,1.343-4.456-4.334-8.267-9.873-6.627-35.025-21.013-44.383-22.5a187.171,187.171,0,0,0-18.647-1.659A4.553,4.553,0,0,0,6402.142,379.126Z"/><path class="w" d="M6429.609,400.7s4.8,5.842,6.1,12.093l-1.572,2.473-3.034-3.307Z"/><path class="f" d="M6421.913,398.856s-5.539-.431-7.766,1.926,4.569,21.342,4.925,24.386-3.4,9.052-3.4,9.052,15.159,7.352,18.915,4.944c0,0-.256-24.36-.625-26.536s-3.568-11.049-4.354-11.928S6421.913,398.856,6421.913,398.856Z"/><path class="x" d="M6315.939,395.39a2.123,2.123,0,0,0-.655-1.028l-13.547,7.7s-10.235,9.251,11.98,9.685l6.111.119Z"/><path class="y" d="M6414.356,425.773c-.012-.053,2.213-8.949,3.09-10.91s4.3-11.082,4.3-11.082l-4.258-.993s-2.854,7.134-4.155,10.36-.848,9.212-.928,10.9c0,.025-.2,1.425-.205,1.449h0a2.647,2.647,0,0,1-.106.371,5.15,5.15,0,0,0-.214.694,1.969,1.969,0,0,1-.187.32c-.053.082-.185,1.227-.212,1.412a2.742,2.742,0,0,0,.048.6l-.055.768c-.041.564.545.423.545.423-.017.266.074.407.222.459a1.2,1.2,0,0,0,.355.023c.028.012.038.1.038.1-.018.169.171.3.294.327a.557.557,0,0,0,.407-.125c.063-.073.106-.061.106-.061a.7.7,0,0,0,.712-.042,9.839,9.839,0,0,0,.275-1.034.867.867,0,0,0,.176-.312c.017-.117.42-.942.445-1.108s-.21-.728-.259-1.064a4.068,4.068,0,0,0-.444-1.012,1.275,1.275,0,0,1,0-.461Z"/><path class="z" d="M6409.277,392.923l-1.418,8.569s4.6,10.289,7.441,9.442c2.385-.711,1.051-9.777,1.051-9.777s-1.227-4.876-.805-7.3S6409.277,392.923,6409.277,392.923Z"/><path class="aa" d="M6415.546,393.855c.422-2.425-6.269-.932-6.269-.932l-.117.711a3.956,3.956,0,0,0,.706,1.207,8.768,8.768,0,0,0,5.795,2.729A13.282,13.282,0,0,1,6415.546,393.855Z"/><path class="z" d="M6408.352,380.761c-.187-.072-1.647,9.758.825,12.5s7.348,3.7,9.132,1.59c1.973-2.334,2.023-12.919-1.84-15.761S6408.352,380.761,6408.352,380.761Z"/><path class="ab" d="M6415.058,373.8a10.833,10.833,0,0,0-5.733,3.175c-1.371.143-3.243.877-5.209,4.043a8,8,0,0,0,1.987,10.439,6.231,6.231,0,0,1,2.649,4.638l.452-1.27a7.138,7.138,0,0,0,.387-3,5.88,5.88,0,0,0-.42-1.812c-.642-1.434,1.454-2.352,2.055-3.53.462-.907.513-3,1.243-4.494l.862-1.141a5.374,5.374,0,0,1,3.877-1.04C6419.112,380.271,6418.938,373.067,6415.058,373.8Z"/><path class="z" d="M6411.073,388.24c0,1.2-.555,2.178-1.246,2.18s-1.255-.97-1.258-2.172.555-2.178,1.246-2.18S6411.07,387.038,6411.073,388.24Z"/><path class="ac" d="M6415.106,391.918l3.371-1.728s.205.987-1.255,1.789C6415.441,392.958,6415.106,391.918,6415.106,391.918Z"/><path class="g" d="M6406.791,401.133h0a2.184,2.184,0,0,1,1.743-1.125c3.183-.24,11.917-.124,16.268,7.658a16.046,16.046,0,0,1,1.517,3.918l.883,3.879-22.974-1.068.075-2.552A20.1,20.1,0,0,1,6406.791,401.133Z"/><path class="p" d="M6461.173,417.349l3.527-13.505a1.693,1.693,0,0,0-3.276-.856l-3.7,14.156Z"/><path class="z" d="M6452.555,416.838c.953-.577,1.726-1.052,2.246-1.357.04-.023,2.461-1.143,2.5-1.165h0a4.947,4.947,0,0,1,.7-.214,9.877,9.877,0,0,0,1.317-.377,3.983,3.983,0,0,1,.7-.033c.182,0,2.126-.971,2.447-1.117a5.209,5.209,0,0,0,.905-.7l1.27-.7c.933-.516.106-1.3.106-1.3.439-.246.567-.535.5-.824a2.338,2.338,0,0,0-.328-.585c-.011-.056.111-.158.111-.158a.677.677,0,0,0,.215-.8,1.06,1.06,0,0,0-.617-.514c-.18-.025-.206-.105-.206-.105.044-.306-.445-1.063-.8-1.084a18.337,18.337,0,0,0-1.915.63,1.589,1.589,0,0,0-.674.043c-.2.092-1.921.3-2.208.436s-.935,1.08-1.415,1.5a7.665,7.665,0,0,0-1.141,1.745,2.378,2.378,0,0,1-.734.466h0c-.056.058-10.589,3.7-16.818,5.461Z"/><path class="h" d="M6419.9,415.068c-.595-3.908-1.338-8.017-2.171-9.922-1.827-4.175-8.152-6.734-11.306-4.2-1.684,1.353-1.056,7.914.281,13.589Z"/><path class="x" d="M6323.02,407.21s8.1,6.628,8.987,7.97c.663,1-1.744,12.172-1.744,12.172s-3.241.057-4.707-1.115c0,0,.994-7.73.609-8.038s-9.317-4.43-9.317-4.43l.632-4.585Z"/><path class="s" d="M6402.325,405.091l68.194,3.857s-6.229,19.829-6.39,20.821-22.723,12.9-28.347,12.673-18.682-5.118-21.493-5.988-10.067-6.694-9.578-10.209S6402.325,405.091,6402.325,405.091Z"/><rect class="ad" width="19.947" height="3.219" rx="0.687" transform="translate(6402.738 411.981) rotate(0.8)"/><path class="s" d="M6430.273,377.559l9.192,3.934-.5-1.91-3.42-1.95s-2.816-.589-3.089-.739S6430.273,377.559,6430.273,377.559Z"/><path class="ae" d="M6474.008,402.527l-72.093-7.186-.067,4.829a5.027,5.027,0,0,0,4.68,5.154l63.9,3.464A4.3,4.3,0,0,0,6474.2,407C6474.94,405.94,6475.279,404.443,6474.008,402.527Z"/><path class="af" d="M6401.916,395.341l.01-.694,71.829,7.521.254.359Z"/><path class="ag" d="M6418.39,405.967l6.574.356,5.515-8.135-6.385-.636Z"/><path class="ag" d="M6430.055,406.6l5.368-7.918-2.427-.242-5.44,8.024Z"/><path class="s" d="M6304,403.978l82.433,1.966.374,26.14s-9.828,13.875-10.988,13.712-25.728-4.468-27.941-4.352-21.382-9.626-22.3-9.45-6.883-3.136-6.883-3.136l-9.707-7.061-9.578-10.139Z"/><rect class="ad" width="19.948" height="3.219" rx="0.687" transform="translate(6301.488 408.957) rotate(0.8)"/><path class="s" d="M6410.763,374.777l8.054.622s-1.289-2.2-1.849-2.21l-4.247-.06Z"/><path class="ah" d="M6549.6,432.906l10.516-5.221,8.267,1.833-11.509,4.751,14.277-1.061"/><path class="ai" d="M6415.715,384.118s-2.193-2.481-3.06,1.626"/><path class="ai" d="M6419.63,382.045s-1.984-2.481-2.769,1.626"/><path class="aj" d="M6504.093,403.929l46.985,8.706s20.337,2.915,21.01,9.612"/><path class="u" d="M6563.587,491.817l-5.791,6.974h7.494Z"/><path class="u" d="M6590.933,460.377l2.982-8.27-5.518,7.46Z"/><path class="u" d="M6561.543,453.672l11.946,5.9-5.973-11.671-.77,5.776Z"/><path class="u" d="M6583.256,495.3l8.944,3.487-4.472,2.044,1.745-5.531Z"/><path class="ak" d="M6514.208,404.806c-.577-.1-.758,1.264-.183,1.363l3.555.382c.239.039.451.041.514-.358h0a.434.434,0,0,0-.421-.553Z"/><path class="al" d="M6508.225,408.81c1.042.556,3.355.271,3.619.358,1.154-1.112,2.523-3.172,2.488-4.069,0,0-.408-.605-2.387-1.054-1.4-.318-2.819.193-3.876.291-1.359.126-1.675,2.658-1.755,2.868S6507.183,408.256,6508.225,408.81Z"/><path class="am" d="M6457.4,374.3a11.6,11.6,0,0,0-6.031-1.642c-3.674-.027-7.006.585-8,2.446s3.539,8.766,2.054,10.421c-3.533,3.938-9.617,2.328-9.617,2.328a12.722,12.722,0,0,0,7.206,1.678c3.711-.453,4.4-1.138,4.4-1.138s.367,1.417-3.1,2.025c-1.293.226,6.336.064,8.9-1.126,2.712-1.258-.05-7.917-.171-10.141S6457.4,374.3,6457.4,374.3Z"/><path class="an" d="M6438.628,388.749s6.084,1.611,9.615-2.328c1.485-1.655-2.92-7.965-1.929-9.825s5.7-3.5,8.848-2.005c.619-.02,2.76-.369,2.76-.369a5.019,5.019,0,0,0-4.811-3.13c-3.674-.027-8.738,2.193-9.731,4.054s3.539,8.766,2.054,10.422c-3.533,3.937-9.617,2.327-9.617,2.327a13.971,13.971,0,0,0,4.23,1.554A11.95,11.95,0,0,1,6438.628,388.749Z"/><path class="al" d="M6476.5,396.312s16.622,11.343,17.625,10.566c.169-.132-1.466,4.9-2.3,5-4.222-.434-13.562-6.581-16.427-9.084C6472.975,400.672,6476.5,396.312,6476.5,396.312Z"/><path class="am" d="M6476.672,373.39a11.592,11.592,0,0,1,6.238-.38c3.6.721,6.741,2,7.334,4.023s-5.249,7.862-4.132,9.784c2.656,4.575,8.941,4.237,8.941,4.237a12.727,12.727,0,0,1-7.4.177c-3.541-1.2-4.075-2.01-4.075-2.01s-.648,1.313,2.626,2.614c1.22.485-4.315-.829-6.581-2.516-2.4-1.784,1.66-7.742,2.232-9.894S6476.672,373.39,6476.672,373.39Z"/><path class="an" d="M6492.111,391.353s-6.284.339-8.94-4.236c-1.116-1.923,4.482-7.2,3.889-9.227s-4.865-4.585-8.254-3.765c-.6-.145-2.627-.922-2.627-.922a5.016,5.016,0,0,1,5.348-2.085c3.6.721,8.108,3.926,8.7,5.949s-5.249,7.863-4.133,9.785c2.657,4.575,8.942,4.237,8.942,4.237a13.973,13.973,0,0,1-4.458.661A11.941,11.941,0,0,0,6492.111,391.353Z"/><path class="ak" d="M6468.2,427.815s4.795,8.5,4.252,28.243c-.244,8.907-5.053,24.858-5.053,24.858l-4.712-.277s3.83-12.762,4.392-23.137c.582-10.771-3.428-19.149-3.76-19.369-.651-.435-7.485.205-7.485.205s-.276,9.674-1.3,19.529c-1.16,11.126-3.088,22.6-3.146,22.889-.109.542-4.506.027-4.506.027a186.077,186.077,0,0,0,1.929-22.64,247.63,247.63,0,0,0-1.028-28.329C6447.675,425.474,6468.2,427.815,6468.2,427.815Z"/><path class="al" d="M6452.55,436.634s-.293,12.1-1.32,21.953c-1.042,10-2.706,20.276-3.074,22.463,1.309.108,3.163.2,3.233-.151.058-.288,1.986-11.763,3.146-22.888.922-8.837,3.18-19.822,3.236-21.52C6456.058,436.6,6452.55,436.634,6452.55,436.634Z"/><path class="al" d="M6468.2,427.959s-14.865-2.815-19.277-1c6.038-.3,15.972,1.578,15.972,1.578s4.794,8.5,4.252,28.243c-.213,7.759-3.284,20.861-4.718,24.109l2.97.175s4.809-15.951,5.053-24.858C6473,436.456,6468.2,427.959,6468.2,427.959Z"/><path class="ao" d="M6476.5,396.312c-4.49,13.739-7.1,27.549-3.417,42.52l-25.053,1.956c1.691-11.816,12.079-26.71,13.1-46.929,0,0,5.816-2.192,8.075-1.25C6470.371,393.1,6476.5,396.312,6476.5,396.312Z"/><path class="ap" d="M6461.13,393.859s5.816-2.192,8.075-1.25a4.056,4.056,0,0,1,1.787,1.957c.456.546-.426,5.26-.994,7.793-4.906,21.9-10.6,23.121-8.127,37.225l-14.473,1.26C6443.755,421.061,6459.466,420.964,6461.13,393.859Z"/><path class="al" d="M6466.146,394.472a2.622,2.622,0,0,0,5.043-.752l-.463-3.113a2.623,2.623,0,0,0-5.043.751Z"/><path class="al" d="M6454.708,378.217a2.31,2.31,0,0,0,1.537,2.878c1.208.352,3.536.278,3.894-.957s-1.382-3.172-2.591-3.522A2.308,2.308,0,0,0,6454.708,378.217Z"/><path class="ak" d="M6458.028,378.551c-.413,5.736,3.537,11.88,9.414,12.693s11.072-4.05,11.862-9.749.351-11.889-5.525-12.7S6458.977,365.349,6458.028,378.551Z"/><path class="al" d="M6476.555,370.01c1.069,2.469,1.013,5.815.571,9.006-.789,5.7-5.987,10.561-11.861,9.749a9.951,9.951,0,0,1-5.141-2.389,10.676,10.676,0,0,0,7.518,5.2c5.875.812,11.073-4.051,11.862-9.749C6480.156,377.115,6479.959,372.077,6476.555,370.01Z"/><path class="aq" d="M6477.755,377.392a.435.435,0,0,0,.253-.562,2.834,2.834,0,0,0-3.654-1.655.436.436,0,0,0,.309.816,1.961,1.961,0,0,1,2.529,1.148.442.442,0,0,0,.42.284A.486.486,0,0,0,6477.755,377.392Z"/><path class="aq" d="M6463.054,375.851a1.964,1.964,0,0,1,2.633-.887.436.436,0,0,0,.388-.781,2.84,2.84,0,0,0-3.8,1.282.436.436,0,1,0,.781.386Z"/><path class="ar" d="M6470.666,384.14l-.029,0a1.564,1.564,0,0,1-1.205-.559.437.437,0,1,1,.667-.564.7.7,0,0,0,.531.249.034.034,0,0,0,.014,0,.685.685,0,0,0,.664-.659.437.437,0,1,1,.873.032A1.56,1.56,0,0,1,6470.666,384.14Z"/><path class="ar" d="M6456.879,380.633a1.557,1.557,0,0,1-.4-3.072.429.429,0,0,1,.526.322.436.436,0,0,1-.322.526.688.688,0,0,0-.519.794.7.7,0,0,0,.77.55.425.425,0,0,1,.492.372.433.433,0,0,1-.372.491A1.683,1.683,0,0,1,6456.879,380.633Z"/><path class="as" d="M6472.171,387.7a1.621,1.621,0,0,1-1.667,1.368c-.874-.084-3.207-2.585-2.545-2.517,1.179.123.689-2,2.861-.706C6473.155,384.8,6472.236,387.037,6472.171,387.7Z"/><path class="at" d="M6471.008,387.3a.385.385,0,1,1-.336-.48A.414.414,0,0,1,6471.008,387.3Z"/><path class="au" d="M6473.755,378.975c.042,1.084.587,1.944,1.223,1.92s1.116-.921,1.076-2.006-.588-1.942-1.223-1.919S6473.714,377.892,6473.755,378.975Z"/><path class="au" d="M6464.121,378.841c.041,1.086.587,1.944,1.223,1.92s1.115-.921,1.075-2-.587-1.943-1.223-1.919S6464.081,377.759,6464.121,378.841Z"/><path class="n" d="M6465.247,378.378c.006.369.184.666.394.662s.38-.307.372-.677-.185-.667-.4-.663S6465.238,378.008,6465.247,378.378Z"/><path class="n" d="M6474.96,378.495c.007.37.185.667.4.663s.38-.308.372-.678-.184-.668-.4-.664S6474.953,378.124,6474.96,378.495Z"/><path class="av" d="M6455.516,367.323c1.931-7.181,23.265-13.608,24.8,6.123a34.634,34.634,0,0,1-.217,6.044s-9.255-.944-13.809-7.285c-.926-1.29-2.727-2.717-3.816-2.771-1.434-.071-3.685,7.293-3.788,8.634a14.872,14.872,0,0,0,.575,3.433,37.3,37.3,0,0,0-1.78-4.339c-.653-.8-1.018-.554-1.018-.554S6453.516,374.759,6455.516,367.323Z"/><path class="an" d="M6458.685,378.068a25.288,25.288,0,0,1,1.281-4.528.447.447,0,0,0-.427-.036s-1.483-1.545.516-8.98c.108-.4,2.2-2.908,2.421-3.3-1.839,1.226-6.935,3.945-7.388,6.593-1.3,7.591,1.374,8.791,1.374,8.791s.365-.249,1.018.554a37.3,37.3,0,0,1,1.78,4.339A14.817,14.817,0,0,1,6458.685,378.068Z"/><path class="an" d="M6464.37,361.714c-.288-.6-3.442,5.558-1.04,7.966a8.532,8.532,0,0,1,2.959,2.525c4.554,6.341,13.809,7.285,13.809,7.285C6480.267,378.948,6470.623,374.767,6464.37,361.714Z"/><path class="ao" d="M6471.188,393.72l6.969,3.21-2.727,8.464Z"/><path class="al" d="M6509.68,405.3a1.654,1.654,0,0,1-.985,2.268l-7.833,3.266c-7.646,2.081-10.527.785-11.516.356,0,0-.113-4.692,2.966-4.49l15.111-2.185a1.558,1.558,0,0,1,2.257.785Z"/><path class="ak" d="M6514.837,406.721c.564.144.239,1.36-.321,1.2l-2.1-.875c-.237-.062-.43-.154-.321-.54h0a.438.438,0,0,1,.615-.329Z"/><path class="ak" d="M6514.468,407.968c.557.174.207,1.3-.347,1.121l-2.078-.939c-.231-.071-.422-.167-.3-.55a.439.439,0,0,1,.625-.309Z"/><path class="ak" d="M6513.913,409.082a.442.442,0,0,1,.089.615h0a.459.459,0,0,1-.577.249l-1.594-1.118c-.182-.1-.329-.21-.194-.448h0c.136-.239.356-.174.538-.075Z"/><path class="al" d="M6462.047,397.507s-15.262,12.531-14.739,13.687c.089.2-4.066-1.571-3.965-2.4,1.4-4.005,11.836-11.985,14.937-14.189C6460.907,392.737,6462.047,397.507,6462.047,397.507Z"/><path class="al" d="M6461.87,418.71a1.655,1.655,0,0,1-2.285.948l-7.9-3.089c-6.947-3.814-7.924-6.781-8.337-7.777,0,0,2.347-3.33,4.423-1.045,4.13,2.973,7.083,6.581,12.39,8.921.974.321,2.05,1.02,1.712,2.042Z"/><path class="ap" d="M6465.815,392.554l-7.58,1.179.519,9.762Z"/><path class="al" d="M6459.466,420.966a24.414,24.414,0,0,0,2.52,1.6c.192.176,4.309-1.367,4.309-1.367a12.031,12.031,0,0,0-2.314-2.375,20.9,20.9,0,0,0-3.765-2.2c-1.165-.5-1.776,1.874-1.908,1.988A4.341,4.341,0,0,0,6459.466,420.966Z"/><path class="al" d="M6464.456,419.173a.889.889,0,0,0-1.178-.105.747.747,0,0,0,.1,1.1l3.487,2.871c.351.33.683.593.979.319s-.025-.682-.377-1.011Z"/><path class="al" d="M6463.658,419.938a.92.92,0,0,0-1.218-.107.77.77,0,0,0,.106,1.132l3.6,2.97c.365.343.707.613,1.015.33s-.026-.7-.391-1.046Z"/><path class="al" d="M6462.682,420.4a.888.888,0,0,0-1.177-.1.747.747,0,0,0,.1,1.1l3.484,2.869c.352.329.683.593.98.318s-.025-.682-.377-1.011Z"/><path class="al" d="M6461.456,420.751c-.351-.331-.828-.421-1.062-.205s-.141.661.21.991l3.432,2.9c.351.329.676.6.911.379s-.1-.612-.449-.94Z"/><path class="aw" d="M6462.54,480.511c.021,4.327-4.05,8.126-2.781,11.807l19.129-.127c.268-1.19-1.248-2.559-1.9-3.086-1.3-.1-2.47-.053-4.247-.166-3.305-.673-5.717-2.13-5.223-8.42Z"/><path class="n" d="M6459.1,492.165l20.244.022.009,1.4-20.243-.022Z"/><path class="n" d="M6476.335,492.291c.268-1.19-1.228-2.744-1.876-3.271-.113-.008-.222-.009-.336-.019,1.069.038,1.941.036,2.87.1a2.738,2.738,0,0,1,1.876,3.352Z"/><path class="n" d="M6463.552,489.253a1.513,1.513,0,1,0,1.514-1.508A1.516,1.516,0,0,0,6463.552,489.253Z"/><path class="n" d="M6465.926,484.418a.2.2,0,0,0,.2.2h1.975a.2.2,0,0,0,.2-.2h0a.2.2,0,0,0-.2-.2h-1.972a.194.194,0,0,0-.2.193Z"/><path class="n" d="M6471.174,489.412c.074.085.17.119.222.071l.955-.8c.055-.04.043-.147-.029-.229h0c-.067-.086-.168-.116-.222-.071l-.954.8c-.054.043-.041.148.028.229Z"/><path class="n" d="M6470.2,488.964c.07.08.169.115.22.069l.954-.8c.055-.042.042-.147-.026-.23h0c-.07-.085-.171-.117-.224-.072l-.956.8c-.054.041-.042.145.032.23Z"/><path class="n" d="M6469.216,488.431c.07.083.17.116.22.07l.956-.8c.055-.048.041-.147-.03-.234h0c-.068-.081-.169-.112-.222-.069l-.958.8c-.051.046-.036.15.034.232Z"/><path class="aw" d="M6446.518,480.511c.021,4.327-4.05,8.126-2.781,11.807l19.129-.127c.268-1.19-1.249-2.559-1.9-3.086-1.3-.1-2.47-.053-4.247-.166-3.305-.673-5.718-2.13-5.223-8.42Z"/><path class="n" d="M6443.075,492.165l20.244.022.009,1.4-20.243-.022Z"/><path class="n" d="M6460.314,492.291c.267-1.19-1.23-2.744-1.877-3.271-.113-.008-.223-.009-.337-.019,1.069.038,1.942.036,2.871.1a2.74,2.74,0,0,1,1.876,3.352Z"/><path class="n" d="M6447.53,489.253a1.513,1.513,0,1,0,1.514-1.508A1.516,1.516,0,0,0,6447.53,489.253Z"/><path class="n" d="M6449.9,484.418a.2.2,0,0,0,.2.2h1.976a.2.2,0,0,0,.2-.2h0a.2.2,0,0,0-.2-.2H6450.1a.193.193,0,0,0-.2.193Z"/><path class="n" d="M6455.151,489.412c.075.085.171.119.222.071l.956-.8c.056-.04.043-.147-.029-.229h0c-.067-.086-.168-.116-.222-.071l-.955.8c-.053.043-.04.148.028.229Z"/><path class="n" d="M6454.173,488.964c.07.08.169.115.22.069l.955-.8c.055-.042.041-.147-.026-.23h0c-.07-.085-.171-.117-.224-.072l-.956.8c-.054.041-.041.145.031.23Z"/><path class="n" d="M6453.193,488.431c.071.083.17.116.221.07l.956-.8c.054-.048.041-.147-.03-.234h0c-.069-.081-.169-.112-.223-.069l-.957.8c-.052.046-.036.15.033.232Z"/><path class="ak" d="M6510.228,405.965a4.829,4.829,0,0,0,.164-1.853c-.124-.521-.081-.978-1.2-1.129,0,0-1.416.091-1.864.872C6504.652,407.839,6509.092,406.406,6510.228,405.965Z"/><path class="ak" d="M6513.19,402.136s-.2,1.209-2.516,2.047c-.457.188-.574-1.234-3.114-.609.407-.423.6-.354,2.653-.9C6512.082,402.2,6513.667,401.166,6513.19,402.136Z"/><path class="ax" d="M6598.633,400.13l6.785-3.553s4.107,8.492,7.035,10.485c3.958,2.7,6.724,1.474,6.724,1.474s.612,6.866-4.771,7.6-9.036-6.288-11.695-10.2S6598.633,400.13,6598.633,400.13Z"/><path class="ay" d="M6601.6,398.573l3.813-2s4.107,8.492,7.035,10.485a9.994,9.994,0,0,0,3.581,1.6,5.121,5.121,0,0,1-2.243.834c-5.382.734-9.037-6.288-11.695-10.2Z"/><path class="ax" d="M6620.512,391.291c-2.117,1.5-6.162,17.989-6.36,18.107s2.453,6.059,3.308,5.211c2.658-2.644,8.7-14.317,9.632-18.258C6627.88,393.016,6620.512,391.291,6620.512,391.291Z"/><path class="al" d="M6599.815,399.052l-1.174-.952s-.882-2.976-1.029-3.232,3.537-4.657,3.537-4.657a11.642,11.642,0,0,1,2.117,3.16c.64,1.395.416,2.982.545,4.1.167,1.444-2.4,2.33-2.6,2.458S6599.944,398.887,6599.815,399.052Z"/><path class="al" d="M6603.029,392.869a.916.916,0,0,1-.32,1.258h0a.916.916,0,0,1-1.257-.321l-2.083-4.219c-.258-.436-.443-.834-.008-1.094h0c.436-.258.795.159,1.053.594Z"/><path class="al" d="M6601.722,393.669a.919.919,0,0,1-.321,1.258h0a.915.915,0,0,1-1.256-.32l-2.084-4.22c-.257-.435-.444-.834-.008-1.093h0c.435-.258.795.158,1.054.593Z"/><path class="al" d="M6600.718,394.642a.917.917,0,0,1-.32,1.258h0a.917.917,0,0,1-1.257-.319l-2.084-4.221c-.257-.435-.443-.834-.007-1.093h0c.435-.258.8.158,1.053.593Z"/><path class="al" d="M6599.758,395.963a.841.841,0,0,1-.159,1.161h0a.841.841,0,0,1-1.1-.416l-2.147-4.183c-.257-.435-.451-.828-.1-1.035h0c.346-.2.689.222.947.657Z"/><path class="az" d="M6620.8,477.7l.547,3.951s3.808.23,3.894-.2a39.438,39.438,0,0,0-.721-4.27Z"/><path class="az" d="M6637.414,477.7l.547,3.951s3.807.23,3.894-.2a39.68,39.68,0,0,0-.721-4.27Z"/><path class="ba" d="M6617.513,422.786s-7.763,9.035-7.186,30.032c.26,9.473,8.038,26.436,8.038,26.436l8.377-.054s-7.315-13.8-7.913-24.836c-.619-11.453,5.059-20.171,5.411-20.407.692-.46,6.424.018,6.424.018s.293,10.289,1.385,20.768c1.232,11.832,3.285,24.034,3.345,24.341.116.577,8.076.116,8.076.116a224.966,224.966,0,0,1-3.461-24.689c-1.09-13.834-.752-28.873-.692-31.263C6639.432,418.633,6617.513,422.786,6617.513,422.786Z"/><path class="bb" d="M6624.085,433.958a1.238,1.238,0,0,1,.467-.13c-1.689-.088-3.776-.136-4.177.13-.352.236-6.03,8.953-5.41,20.406.6,11.033,7.912,24.837,7.912,24.837h3.711s-7.316-13.8-7.914-24.837C6618.055,442.911,6623.733,434.194,6624.085,433.958Z"/><path class="bb" d="M6640.24,456.534c-.214-5.027-.974-27.281-1.083-30.479l.218-2.116c-4.109,2.328-5.553,9.633-4.312,26.825.791,7.453,4.831,28.608,4.831,28.608l3.576-.183S6640.471,461.954,6640.24,456.534Z"/><path class="ax" d="M6644.337,391.213s-3.174,7-3.693,10.288-.866,22.323-.866,22.323a129.152,129.152,0,0,1-13.554.289,37.7,37.7,0,0,1-9.4-1.385s3.508-25.891,3.508-26.064.184-5.373.184-5.373a38.06,38.06,0,0,1,6.39-4.2c3.013-.642,7.1-1.381,9.833,0C6639.2,388.33,6642.181,389.476,6644.337,391.213Z"/><path class="ay" d="M6644.2,391.518l.045-.376c-2.148-1.7-5.082-2.829-7.51-4.056-2.734-1.381-6.82-.642-9.833,0a38.06,38.06,0,0,0-6.39,4.2c-.375,10.611,2.981,25.553,13.5,32.834.655-.043,5.765-.3,5.765-.3s.345-19.036.865-22.323C6641.1,398.622,6643.589,392.895,6644.2,391.518Z"/><path class="bc" d="M6627.2,387.714l3.547,7.375,6.26-7.288a13.3,13.3,0,0,0-4.846-.836A17.033,17.033,0,0,0,6627.2,387.714Z"/><path class="ay" d="M6636.354,396.264s17.951,9.187,18.032,9.4,6.4-1.325,5.72-2.318c-2.123-3.09-12.522-11.131-16.232-12.754C6640.734,389.221,6636.354,396.264,6636.354,396.264Z"/><path class="al" d="M6633.928,389.835a2.475,2.475,0,0,1-3.347.835h0a2.477,2.477,0,0,1-1.6-3.059l1.371-3.051a2.477,2.477,0,0,1,3.349-.836h0a2.474,2.474,0,0,1,1.6,3.059Z"/><path class="ax" d="M6635.117,390.485l5.915,2.083-.921-3.938a17.253,17.253,0,0,0-3.375-1.544Z"/><path class="ax" d="M6628.523,390.485l-5.915,2.083.921-3.938a17.272,17.272,0,0,1,3.374-1.544Z"/><path class="ax" d="M6630.653,398.9a.735.735,0,1,1-.735-.736A.734.734,0,0,1,6630.653,398.9Z"/><path class="ax" d="M6629.965,404.909a.735.735,0,1,1-.735-.737A.734.734,0,0,1,6629.965,404.909Z"/><path class="ax" d="M6629.459,410.646a.735.735,0,1,1-.735-.736A.735.735,0,0,1,6629.459,410.646Z"/><path class="ax" d="M6628.954,415.793a.736.736,0,1,1-.736-.735A.736.736,0,0,1,6628.954,415.793Z"/><path class="al" d="M6650.255,379.569a2.45,2.45,0,0,1-2.779,2.072c-1.322-.209-3.528-1.331-3.315-2.683s2.765-2.425,4.087-2.216A2.452,2.452,0,0,1,6650.255,379.569Z"/><path class="ak" d="M6646.911,378.388c-2.2,5.708-8.782,9.83-14.805,7.953s-8.822-8.912-7-14.75,5.044-11.6,11.066-9.723S6651.972,365.253,6646.911,378.388Z"/><path class="al" d="M6631.313,362.109a39.973,39.973,0,0,0-3.42,7.488c-2.205,5.7-.784,13.431,5.051,15.828a12.255,12.255,0,0,0,6.63.44l-.253.115a10.8,10.8,0,0,1-7.215.361c-6.022-1.877-8.822-8.912-7-14.75C6626.357,367.572,6628.276,363.588,6631.313,362.109Z"/><path class="bd" d="M6633.23,369.326a.449.449,0,0,0,.223-.059.462.462,0,0,0,.182-.629,2.969,2.969,0,0,0-1.827-1.433,3.078,3.078,0,0,0-2.327.281.464.464,0,1,0,.449.811,2.174,2.174,0,0,1,1.632-.2,2.052,2.052,0,0,1,1.262.987A.462.462,0,0,0,6633.23,369.326Z"/><path class="bd" d="M6641.735,372.15a.464.464,0,0,0,.4-.7,3.022,3.022,0,0,0-4.129-1.071.464.464,0,0,0,.471.8,2.088,2.088,0,0,1,2.858.742A.467.467,0,0,0,6641.735,372.15Z"/><path class="be" d="M6647.82,381.087a1.654,1.654,0,0,0,1.03-2.951.463.463,0,0,0-.58.723.729.729,0,0,1-.852,1.181.464.464,0,1,0-.5.779A1.673,1.673,0,0,0,6647.82,381.087Z"/><path class="be" d="M6631.946,382.355a.463.463,0,0,0,.411-.249c.508-.962,2.264-1.076,3.834-.251a.463.463,0,0,0,.432-.82c-2.086-1.1-4.32-.816-5.086.64a.464.464,0,0,0,.409.68Z"/><path class="bf" d="M6630.407,373.3c-.238.763-.829,1.26-1.319,1.107s-.695-.9-.457-1.661.829-1.259,1.32-1.106S6630.645,372.54,6630.407,373.3Z"/><path class="n" d="M6629.8,372.344c-.071.229-.263.371-.428.319a.386.386,0,0,1-.171-.505c.072-.229.263-.372.429-.321A.389.389,0,0,1,6629.8,372.344Z"/><path class="bf" d="M6639.191,376.088c-.237.763-.828,1.259-1.318,1.107s-.695-.9-.457-1.661.829-1.26,1.319-1.107S6639.43,375.324,6639.191,376.088Z"/><path class="n" d="M6638.536,375.249c-.071.227-.262.37-.428.318a.386.386,0,0,1-.171-.5c.071-.228.262-.37.428-.319A.389.389,0,0,1,6638.536,375.249Z"/><path class="be" d="M6633.431,378.068a1.639,1.639,0,0,0,.7-.158.463.463,0,1,0-.4-.838.727.727,0,0,1-.975-.945.463.463,0,0,0-.854-.36,1.657,1.657,0,0,0,1.523,2.3Z"/><path class="bg" d="M6653.148,367.989a4.488,4.488,0,0,0-3.247-4.763,14.9,14.9,0,0,1-1.736-.587c-.093-.04-.185-.074-.281-.117-.268-.122-2.131-2.771-4.067-4.252-.443-.339-.881.874-1.313.5-1.743-1.508-3.171-3.547-3.7-3.812-1.054-.533-2.221,2.119-2.72,1.75-.553-.409-3.116-4.528-3.562-4.857-.723-.534-1.794,2.361-2.755,5.71-.1.33-1.05.4-1.141.734a59.621,59.621,0,0,0-1.507,8.321s2.9-5.183,6.7-3.032c1.792,1.014,3.774,3.222,7.011,3.485a20.416,20.416,0,0,1,4.811.653,3.924,3.924,0,0,1,2.225,4.45c-.448,1.844-2.02,4.121-2.527,5.458-.211.555.565,1.366.587,1.39.429.465,1.253-1.3,2.137-1.721.992-.476,1.23-.07,1.23-.07a16.168,16.168,0,0,0,3.206-5.919A16.875,16.875,0,0,0,6653.148,367.989Z"/><path class="bh" d="M6632.47,352.513a10.659,10.659,0,0,0-.348,4.6c.54,3.793,4.148,6.4,6.8,6.832,11.3,1.845,10.387,6.364,9.766,8.21s-2.393,5.643-2.393,5.643,9.615-12.818-.723-14.544C6633.167,361.186,6632.47,352.513,6632.47,352.513Z"/><path class="ay" d="M6628.35,421.217a.736.736,0,1,1-.736-.735A.736.736,0,0,1,6628.35,421.217Z"/><path class="ak" d="M6643.277,417.3l-1.092,1.045s-3.064.5-3.336.613-4.174-4.1-4.174-4.1a11.646,11.646,0,0,1,3.4-1.7c1.466-.459,3.011-.037,4.137-.024,1.454.017,2.01,2.674,2.111,2.89S6643.129,417.155,6643.277,417.3Z"/><path class="ak" d="M6637.549,413.337a.916.916,0,0,1,1.207.475h0a.917.917,0,0,1-.476,1.207l-4.449,1.534c-.464.2-.883.335-1.086-.13h0c-.2-.464.258-.769.722-.97Z"/><path class="ak" d="M6638.178,414.734a.917.917,0,0,1,1.207.477h0a.915.915,0,0,1-.476,1.206l-4.449,1.535c-.464.2-.883.335-1.085-.13h0c-.2-.465.257-.769.721-.971Z"/><path class="ak" d="M6639.017,415.853a.916.916,0,0,1,1.207.476h0a.917.917,0,0,1-.476,1.206l-4.449,1.535c-.465.2-.883.334-1.086-.13h0c-.2-.465.258-.769.722-.97Z"/><path class="ak" d="M6640.205,416.972a.84.84,0,0,1,1.132.3h0a.84.84,0,0,1-.55,1.035l-4.42,1.6c-.464.2-.879.343-1.04-.026h0c-.16-.369.306-.656.77-.857Z"/><path class="ax" d="M6642.483,419.271l-2.277-7.313s9.09-2.517,11.577-5.038c3.364-3.41,2.658-6.351,2.658-6.351s6.864.631,6.619,6.057-7.808,7.761-12.134,9.674S6642.483,419.271,6642.483,419.271Z"/><path class="ay" d="M6641.315,415.521l-1.109-3.563s9.09-2.517,11.577-5.038c3.364-3.41,2.658-6.351,2.658-6.351a9.446,9.446,0,0,1,5.28,2.34l0,.052c-.244,5.426-7.808,7.76-12.133,9.673C6643.971,414.231,6641.9,415.234,6641.315,415.521Z"/><path class="bi" d="M6627.6,480.766c-.027,4.579,2.643,5.647,1.3,9.54l-20.246-.154a3.358,3.358,0,0,1,1.1-3.111c1.372-.1,3.174-.224,5.057-.345,3.5-.708,3.55-3.291,6.034-5.282C6623.094,481.2,6625.346,480.98,6627.6,480.766Z"/><path class="bj" d="M6627.611,481.464c.213,3.512,2.017,4.818,1.6,7.585l-10.581-5.087a11.9,11.9,0,0,1,2.213-2.548l4.008-.389Z"/><rect class="bk" width="1.323" height="21.427" transform="matrix(0.007, -1, 1, 0.007, 6608.163, 491.469)"/><path class="bi" d="M6643.366,481.266c-.026,4.577,2.644,5.645,1.3,9.538l-20.246-.153a3.361,3.361,0,0,1,1.1-3.112c1.373-.1,3.175-.224,5.057-.345,3.5-.708,3.55-3.29,6.034-5.281C6638.859,481.7,6641.112,481.479,6643.366,481.266Z"/><path class="bj" d="M6643.377,481.963c.213,3.511,2.017,4.817,1.6,7.584l-10.581-5.086a11.84,11.84,0,0,1,2.212-2.548l4.008-.39Z"/><rect class="bl" width="1.324" height="21.427" transform="translate(6623.928 491.969) rotate(-89.573)"/><rect class="bm" width="10.167" height="5.787" rx="0.626" transform="translate(6594.203 391.4) rotate(-40.699)"/><path class="bn" d="M.626,0H9.541a.625.625,0,0,1,.625.625V5.162a.626.626,0,0,1-.626.626H.626A.626.626,0,0,1,0,5.161V.626A.626.626,0,0,1,.626,0Z" transform="matrix(0.758, -0.652, 0.652, 0.758, 6594.577, 391.835)"/><path class="bo" d="M6597.65,393.009a.547.547,0,1,0-.058.771A.547.547,0,0,0,6597.65,393.009Z"/><rect class="bp" width="7.403" height="4.64" transform="translate(6596.572 390.875) rotate(-40.7)"/><path class="ak" d="M6600.525,394.177a4.45,4.45,0,0,1,1.551-.748c.492-.063.874-.25,1.37.669,0,0,.384,1.256-.146,1.9C6600.724,399.621,6600.514,395.306,6600.525,394.177Z"/><path class="ak" d="M6602.874,390.358s-.983.569-.951,2.849c-.014.458,1.256.094,1.546,2.5.233-.491.111-.635-.087-2.594C6603.182,391.339,6603.558,389.628,6602.874,390.358Z"/></g></svg>