<svg xmlns="http://www.w3.org/2000/svg" xmlns:xlink="http://www.w3.org/1999/xlink" width="401.976" height="377.48" viewBox="0 0 401.976 377.48"><defs><style>.a,.k,.m{fill:none;}.b{fill:url(#a);}.c{fill:#ffd66c;}.d{fill:#ffdd86;}.e{fill:url(#b);}.f{fill:url(#c);}.g{fill:url(#d);}.h{fill:url(#e);}.i{fill:url(#f);}.j{fill:url(#g);}.k,.m{stroke:#28282a;stroke-linecap:round;stroke-miterlimit:10;}.k{stroke-width:1.786px;}.l{fill:#1a171b;}.m{stroke-width:2.487px;}.n{fill:#39383b;}.o{fill:#28282a;}.p{fill:url(#h);}.q{fill:#dd5691;}.r{fill:#da4388;}.s{fill:#c90064;}.t{clip-path:url(#j);}.u{fill:#651439;}.v{fill:#92144b;}.w{fill:#310d16;}.x{clip-path:url(#k);}.y{clip-path:url(#l);}.z{clip-path:url(#m);}.aa{clip-path:url(#n);}.ab{clip-path:url(#o);}.ac{clip-path:url(#p);}.ad{clip-path:url(#q);}.ae{clip-path:url(#r);}.af{clip-path:url(#s);}.ag{fill:#85184a;}.ah{fill:#b7135b;}.ai{fill:#4f091d;}.aj{clip-path:url(#t);}.ak{clip-path:url(#u);}.al{clip-path:url(#v);}.am{clip-path:url(#w);}.an{clip-path:url(#x);}.ao{clip-path:url(#y);}.ap{clip-path:url(#z);}.aq{clip-path:url(#aa);}.ar{fill:#fff;}</style><linearGradient id="a" x1="0.5" y1="0.338" x2="0.5" y2="1.245" gradientUnits="objectBoundingBox"><stop offset="0.053" stop-color="#bfe6ef"/><stop offset="1" stop-color="#bfe6ef" stop-opacity="0"/></linearGradient><linearGradient id="b" y1="0.5" x2="1" y2="0.5" gradientUnits="objectBoundingBox"><stop offset="0.152" stop-color="#19161b"/><stop offset="1" stop-color="#39383b"/></linearGradient><linearGradient id="c" x1="0.5" y1="0.905" x2="0.5" y2="0.06" gradientUnits="objectBoundingBox"><stop offset="0.041" stop-color="#041032"/><stop offset="1" stop-color="#0e388e"/></linearGradient><linearGradient id="d" x1="0.5" y1="0.973" x2="0.5" y2="-0.187" gradientUnits="objectBoundingBox"><stop offset="0.041" stop-color="#df2019"/><stop offset="1" stop-color="#f5720e"/></linearGradient><linearGradient id="e" x1="0.5" y1="1.366" x2="0.5" y2="0.453" gradientUnits="objectBoundingBox"><stop offset="0.053" stop-color="#ffd6b2"/><stop offset="1" stop-color="#ffd6b2" stop-opacity="0"/></linearGradient><linearGradient id="f" x1="0.5" y1="1.191" x2="0.5" y2="-0.327" gradientUnits="objectBoundingBox"><stop offset="0.217" stop-color="#f9cbcd"/><stop offset="1" stop-color="#f49898"/></linearGradient><linearGradient id="g" x1="0.5" y1="1.074" x2="0.5" y2="-0.22" gradientUnits="objectBoundingBox"><stop offset="0.217" stop-color="#f9cbcd"/><stop offset="0.415" stop-color="#f8c5c6"/><stop offset="0.682" stop-color="#f6b4b5"/><stop offset="0.989" stop-color="#f49999"/><stop offset="1" stop-color="#f49898"/></linearGradient><linearGradient id="h" x1="0.5" y1="0.978" x2="0.5" y2="-0.116" gradientUnits="objectBoundingBox"><stop offset="0" stop-color="#a7aaac"/><stop offset="1" stop-color="#d3d5d7"/></linearGradient><clipPath id="j"><path class="a" d="M610.75,553.029h0a4.373,4.373,0,0,0-5.319-.583,4.686,4.686,0,0,0-2.267,4.981h0a6.859,6.859,0,0,0,7.6,5.261,1.635,1.635,0,0,0,1.054-.616A6.43,6.43,0,0,0,613,557.456,7.222,7.222,0,0,0,610.75,553.029Z"/></clipPath><clipPath id="k"><path class="a" d="M624.09,553.52h0c1.3-3.832-3.133-7.7-6.83-5.395h0a6.132,6.132,0,0,0-2.775,4.012,6.4,6.4,0,0,0,.829,4.758,1.673,1.673,0,0,0,1.029.725,6.954,6.954,0,0,0,4.783-.575,5.946,5.946,0,0,0,1.8-1.447,6.063,6.063,0,0,0,.659-.976A5.849,5.849,0,0,0,624.09,553.52Z"/></clipPath><clipPath id="l"><path class="a" d="M603.916,563.9h0a4.46,4.46,0,0,0-5.379-.164,4.694,4.694,0,0,0-1.815,5.164h0a6.5,6.5,0,0,0,3.119,3.872,7.115,7.115,0,0,0,4.866.745,1.547,1.547,0,0,0,1.012-.7,6.47,6.47,0,0,0,.773-4.713A7.034,7.034,0,0,0,603.916,563.9Z"/></clipPath><clipPath id="m"><path class="a" d="M597.985,575.278h0a4.48,4.48,0,0,0-5.377.271,4.613,4.613,0,0,0-1.382,5.294h0a6.838,6.838,0,0,0,8.336,3.958,1.537,1.537,0,0,0,.944-.777,6.739,6.739,0,0,0,.386-4.761A6.956,6.956,0,0,0,597.985,575.278Z"/></clipPath><clipPath id="n"><path class="a" d="M592.987,587.093h0a4.445,4.445,0,0,0-5.321.711,4.525,4.525,0,0,0-.963,5.383h0a6.846,6.846,0,0,0,8.632,3.275,1.526,1.526,0,0,0,.87-.854,6.306,6.306,0,0,0,.422-2.409,6.666,6.666,0,0,0-.4-2.361A7.023,7.023,0,0,0,592.987,587.093Z"/></clipPath><clipPath id="o"><path class="a" d="M621.755,560.62h0a4.958,4.958,0,0,1,2.1,2.006,4.651,4.651,0,0,1,.6,2.5,3.653,3.653,0,0,1-3.233,3.474h0a7.3,7.3,0,0,1-8.076-4.449,1.394,1.394,0,0,1,.078-1.2,6.151,6.151,0,0,1,3.693-2.883A6.565,6.565,0,0,1,621.755,560.62Z"/></clipPath><clipPath id="p"><path class="a" d="M615.506,570.56h0a4.716,4.716,0,0,1,3.025,4.254,3.645,3.645,0,0,1-2.9,3.75h0a7.492,7.492,0,0,1-4.885-.4,6.936,6.936,0,0,1-3.541-3.387,1.458,1.458,0,0,1-.009-1.2,6.111,6.111,0,0,1,3.414-3.194A6.743,6.743,0,0,1,615.506,570.56Z"/></clipPath><clipPath id="q"><path class="a" d="M610.078,580.978h0a4.692,4.692,0,0,1,3.357,3.995,3.7,3.7,0,0,1-2.585,3.978,7.321,7.321,0,0,1-8.7-3.09,1.478,1.478,0,0,1-.113-1.2,5.88,5.88,0,0,1,3.142-3.46A6.8,6.8,0,0,1,610.078,580.978Z"/></clipPath><clipPath id="r"><path class="a" d="M605.5,591.8h0a4.734,4.734,0,0,1,3.686,3.718,3.779,3.779,0,0,1-2.269,4.168h0A7.314,7.314,0,0,1,598,597.309a1.493,1.493,0,0,1-.218-1.188,6.062,6.062,0,0,1,1.041-2.169,6.249,6.249,0,0,1,1.829-1.527A6.748,6.748,0,0,1,605.5,591.8Z"/></clipPath><clipPath id="s"><path class="a" d="M565.32,530.279h0a5.822,5.822,0,0,0-5.149,4.162,5.27,5.27,0,0,0,2.208,5.961h0a8.6,8.6,0,0,0,11.41-1.43,1.992,1.992,0,0,0,.435-1.516,8.2,8.2,0,0,0-8.9-7.177Z"/></clipPath><clipPath id="t"><path class="a" d="M576.18,517.364h0c-3.3-4.844-10.163-2.288-10.433,2.951h0a8.565,8.565,0,0,0,.367,3.108,9.308,9.308,0,0,0,1.412,2.684,8.891,8.891,0,0,0,5.2,3.272,1.964,1.964,0,0,0,1.535-.321,8.456,8.456,0,0,0,3.217-8.56A9.071,9.071,0,0,0,576.18,517.364Z"/></clipPath><clipPath id="u"><path class="a" d="M568.236,545.732h0a5.735,5.735,0,0,0-5.4,3.856,5.43,5.43,0,0,0,1.856,6.216h0a8.546,8.546,0,0,0,11.473-.783,2.008,2.008,0,0,0,.521-1.491A8.332,8.332,0,0,0,568.236,545.732Z"/></clipPath><clipPath id="v"><path class="a" d="M570.265,561.509h0a5.707,5.707,0,0,0-5.583,3.619,5.513,5.513,0,0,0,1.579,6.354h0a8.518,8.518,0,0,0,11.494-.292,2.016,2.016,0,0,0,.588-1.469A8.388,8.388,0,0,0,570.265,561.509Z"/></clipPath><clipPath id="w"><path class="a" d="M571.6,577.444h0a5.7,5.7,0,0,0-5.719,3.41,5.545,5.545,0,0,0,1.339,6.433h0a8.509,8.509,0,0,0,11.5.132,2.023,2.023,0,0,0,.643-1.448,8.42,8.42,0,0,0-2.2-5.808A8.3,8.3,0,0,0,571.6,577.444Z"/></clipPath><clipPath id="x"><path class="a" d="M581.545,526.563h0a5.433,5.433,0,0,1,6.469,1.965,6.306,6.306,0,0,1,.382,7.175h0a8.2,8.2,0,0,1-11.18,2.66,2.092,2.092,0,0,1-.963-1.28,9.264,9.264,0,0,1,.7-6.248A8.7,8.7,0,0,1,581.545,526.563Z"/></clipPath><clipPath id="y"><path class="a" d="M584.684,543.181h0A5.494,5.494,0,0,1,591,545.524a6.145,6.145,0,0,1-.075,7.055h0a8.248,8.248,0,0,1-11.312,2.024,2.067,2.067,0,0,1-.886-1.33A8.874,8.874,0,0,1,584.684,543.181Z"/></clipPath><clipPath id="z"><path class="a" d="M586.82,559.778h0a5.516,5.516,0,0,1,6.194,2.618,6.062,6.062,0,0,1-.4,6.984,8.274,8.274,0,0,1-11.39,1.538,2.056,2.056,0,0,1-.825-1.365A8.812,8.812,0,0,1,586.82,559.778Z"/></clipPath><clipPath id="aa"><path class="a" d="M588.214,576.37h0a5.521,5.521,0,0,1,6.087,2.847,6.028,6.028,0,0,1-.664,6.939h0a8.283,8.283,0,0,1-11.44,1.118,2.054,2.054,0,0,1-.773-1.394,9,9,0,0,1,1.589-6.054A8.561,8.561,0,0,1,588.214,576.37Z"/></clipPath></defs><g transform="translate(-250.916 -282.151)"><path class="b" d="M267.047,282.151S242.593,304.757,253.9,350c12.29,49.159,67.935,67.594,64.647,99.8-3.3,32.374-39.8,32.658-41.641,62.358s40.616,41.465,39.871,66.307-7.4,27.961,6.936,40.995h19.543s-6.573-16.153,8.7-30.491,33.883-26.1,28.251-55.915,60.395-28.473,76.566-66.852-3.961-72.5,55.6-89.573c56.161-16.093,71.19-64.369,73-94.474Z"/><path class="c" d="M318.951,641.456h-2.664a6.169,6.169,0,0,1-6.163-6.162V625.142a2.773,2.773,0,0,1,2.77-2.769h6.057v2.658h-6.057a.111.111,0,0,0-.11.111v10.152a3.508,3.508,0,0,0,3.5,3.5h2.664Z"/><path class="d" d="M316.9,619.456V637.22s.314,8.742,5.04,13.952a4.519,4.519,0,0,0,3.357,1.441h14.043a4.521,4.521,0,0,0,3.357-1.441c4.725-5.21,5.04-13.952,5.04-13.952V619.456Z"/><path class="c" d="M317.558,641.789a20.72,20.72,0,0,0,4.392,9.379,4.528,4.528,0,0,0,3.362,1.445h14.023a4.532,4.532,0,0,0,3.362-1.445,20.719,20.719,0,0,0,4.391-9.379Z"/><rect class="e" width="368.557" height="7.019" transform="translate(284.336 652.612)"/><path class="f" d="M497.382,518.037c-4.756-16.908.933-26.347,1.243-40.769.6-27.6-21.974-42.676-44.973-40.966-24.418,1.815-42.707,22.542-38.147,49.754,3.931,23.456-2.785,26.952-12.955,38.344-3.7,4.141-18.163,25.884-5.429,44.539,22.033,32.277,102.662,22.653,114.719-2.305C523.1,543.333,500.946,530.709,497.382,518.037Z"/><path class="g" d="M456.566,533.05c-11.293.012-35.349,6.807-46.547,24.566-16.643,26.391-23.127,67.343-25.291,85.627a8.385,8.385,0,0,0,8.333,9.369h133.15a8.384,8.384,0,0,0,8.327-9.412c-2.4-19.262-9.788-63.527-29-89.284C493.74,538.095,467.9,533.038,456.566,533.05Z"/><path class="h" d="M459.637,411.788h-123.9l71.187,233.475H512.883L584.07,411.788Z"/><path class="i" d="M471.037,523.1H441.169v15.546c0,1.048,8.416,18.045,16.43,17.96,6.824-.071,13.438-17.067,13.438-17.96Z"/><path class="j" d="M431.246,488.68v11.94a31.28,31.28,0,0,0,5.864,18.233h0A37.305,37.305,0,0,0,454.22,532a6.949,6.949,0,0,0,4.92,0h0a37.308,37.308,0,0,0,17.111-13.147h0a31.286,31.286,0,0,0,5.863-18.233V494.4c0-9.508-14.1-1.7-25.437-11.834-6.568-5.868-5.728-17.689-14.051-17.19C435.156,465.82,431.246,483.12,431.246,488.68Z"/><path class="k" d="M459.42,526.955h5.865A22.417,22.417,0,0,0,487.7,504.538v-9.579"/><rect class="l" width="7.933" height="5.136" rx="1.53" transform="translate(456.164 524.387)"/><path class="m" d="M486.9,484.888v-4.437a26.978,26.978,0,0,0-26.978-26.978H453.24a26.979,26.979,0,0,0-26.978,26.978v4.437"/><path class="l" d="M429.455,481.474h0a1.339,1.339,0,0,1,1.339,1.339v17.755a1.34,1.34,0,0,1-1.339,1.339h0a1.34,1.34,0,0,1-1.339-1.339V482.813A1.339,1.339,0,0,1,429.455,481.474Z"/><path class="n" d="M4.943,0H6.477a0,0,0,0,1,0,0V16.6a0,0,0,0,1,0,0H4.943A4.943,4.943,0,0,1,0,11.659V4.943A4.943,4.943,0,0,1,4.943,0Z" transform="translate(421.639 483.238)"/><rect class="o" width="1.107" height="5.716" transform="translate(420.532 488.68)"/><path class="l" d="M483.7,481.474h0a1.338,1.338,0,0,0-1.338,1.339v17.755a1.339,1.339,0,0,0,1.338,1.339h0a1.339,1.339,0,0,0,1.339-1.339V482.813A1.338,1.338,0,0,0,483.7,481.474Z"/><path class="n" d="M4.943,0H6.477a0,0,0,0,1,0,0V16.6a0,0,0,0,1,0,0H4.943A4.943,4.943,0,0,1,0,11.659V4.943A4.943,4.943,0,0,1,4.943,0Z" transform="translate(491.519 499.839) rotate(180)"/><rect class="o" width="1.107" height="5.716" transform="translate(491.519 488.68)"/><rect class="p" width="105.965" height="68.272" transform="translate(406.919 576.991)"/><path class="p" d="M505.534,652.613H414.269a7.35,7.35,0,0,1-7.35-7.35H512.884A7.35,7.35,0,0,1,505.534,652.613Z"/><path class="q" d="M615.358,613.169H558.492l-.947-8.564H616.3Z"/><path class="r" d="M609.632,652.612H564.218l-2.839-39.443h51.092Z"/><path class="s" d="M612.018,619.463l.453-6.295H561.379l.453,6.295Z"/><g class="t"><path class="u" d="M600.938,543.778l.425,3.458c.169,1.156.363,2.313.554,3.454q.581,3.427,1.247,6.737a6.869,6.869,0,0,0,8.242,5.146q-2.809-4.47-5.45-9.183c-.878-1.571-1.752-3.167-2.594-4.773Q602.128,546.227,600.938,543.778Z"/><path class="v" d="M600.938,543.778q4.859,4.692,9.812,9.251a7.211,7.211,0,0,1,2.281,4.736,6.38,6.38,0,0,1-1.625,4.808q-2.809-4.47-5.45-9.183c-.878-1.571-1.752-3.167-2.594-4.773Q602.128,546.227,600.938,543.778Z"/></g><path class="w" d="M606.22,553.859q1.277,2.533,2.6,5c.884,1.642,1.77,3.251,2.732,4.873l.4-.314.231-.393Q609.122,558.561,606.22,553.859Z"/><g class="x"><path class="u" d="M628.6,541.6l-5.707,3.111c-1.9,1.079-3.735,2.255-5.634,3.417a6.7,6.7,0,0,0-1.09.842,6,6,0,0,0-.822,1.046,6.575,6.575,0,0,0-.921,2.427,6.39,6.39,0,0,0,1.273,5A162.582,162.582,0,0,1,628.6,541.6Z"/><path class="v" d="M628.6,541.6l-2.408,5.948c-.757,1.983-1.417,4.009-2.1,5.975a5.932,5.932,0,0,1-.546,1.166,5.821,5.821,0,0,1-.717,1.023,5.975,5.975,0,0,1-1.967,1.467,7.088,7.088,0,0,1-5.16.268A162.582,162.582,0,0,1,628.6,541.6Z"/></g><g class="y"><path class="u" d="M593.361,555.481l.728,3.417c.246,1.127.5,2.245.8,3.376q.878,3.374,1.828,6.625a6.533,6.533,0,0,0,3.4,4.019,7.16,7.16,0,0,0,5.235.438q-3.177-4.232-6.214-8.722c-1.024-1.5-1.994-3-2.947-4.524S594.292,557.045,593.361,555.481Z"/><path class="v" d="M593.361,555.481q5.236,4.278,10.555,8.418a7.069,7.069,0,0,1,2.632,4.515,6.4,6.4,0,0,1-1.193,4.942q-3.177-4.232-6.214-8.722c-1.024-1.5-1.994-3-2.947-4.524S594.292,557.045,593.361,555.481Z"/></g><path class="w" d="M599.443,565.081q2.96,4.784,6.08,9.275l.3-.379.348-.237Q602.74,569.537,599.443,565.081Z"/><g class="z"><path class="u" d="M586.768,567.741q1,3.382,2.076,6.64c.755,2.189,1.569,4.352,2.382,6.463a6.87,6.87,0,0,0,8.965,3.745c-2.345-2.644-4.672-5.386-6.923-8.2Q589.955,572.2,586.768,567.741Z"/><path class="v" d="M586.768,567.741q5.574,3.84,11.217,7.537a6.942,6.942,0,0,1,2.98,4.283,6.566,6.566,0,0,1-.774,5.028c-2.345-2.644-4.672-5.386-6.923-8.2Q589.955,572.2,586.768,567.741Z"/></g><path class="w" d="M593.623,576.838q3.315,4.445,6.762,8.6l.325-.267.324-.266Q597.273,581,593.623,576.838Z"/><g class="aa"><path class="u" d="M581.185,580.481c1.733,4.4,3.467,8.6,5.518,12.707a6.869,6.869,0,0,0,9.238,3.009A198.675,198.675,0,0,1,581.185,580.481Z"/><path class="v" d="M581.185,580.481q5.872,3.379,11.8,6.612a7.018,7.018,0,0,1,3.335,4.036,6.835,6.835,0,0,1-.381,5.068h0A198.675,198.675,0,0,1,581.185,580.481Z"/></g><path class="w" d="M588.734,588.95l1.809,2.064,1.875,2.043q1.882,2.025,3.791,3.973l.3-.293.3-.292C594.082,594.036,591.32,591.514,588.734,588.95Z"/><g class="ab"><path class="u" d="M633.665,566.948l-3.109.28c-1.025.117-2.041.255-3.073.4q-3.09.429-6.265.977a7.265,7.265,0,0,1-8.281-5.081q5.319.591,10.486,1.436c1.723.283,3.423.579,5.124.907Q631.129,566.374,633.665,566.948Z"/><path class="v" d="M633.665,566.948q-5.908-3.231-11.911-6.328a6.541,6.541,0,0,0-5.128-.466,6.131,6.131,0,0,0-3.689,3.366q5.319.591,10.486,1.436c1.723.283,3.423.579,5.124.907Q631.129,566.374,633.665,566.948Z"/></g><path class="w" d="M622.775,564.852q-2.688-.309-5.423-.547c-1.822-.158-3.673-.3-5.478-.381l.082-.51.231-.393Q617.555,563.816,622.775,564.852Z"/><g class="ac"><path class="u" d="M627.885,575.877l-3.061.55c-1.03.191-2.065.393-3.063.631q-3.031.691-6.135,1.507a7.494,7.494,0,0,1-5.17-.529,6.793,6.793,0,0,1-3.5-3.861q5.337.15,10.538.556c1.721.129,3.472.3,5.214.5S626.173,575.641,627.885,575.877Z"/><path class="v" d="M627.885,575.877q-6.148-2.727-12.379-5.317a6.667,6.667,0,0,0-5.179-.059,6.11,6.11,0,0,0-3.369,3.674q5.337.15,10.538.556c1.721.129,3.472.3,5.214.5S626.173,575.641,627.885,575.877Z"/></g><path class="w" d="M616.844,574.681q-5.329-.177-10.815-.069l.143-.457,0-.415Q611.573,574.087,616.844,574.681Z"/><g class="ad"><path class="u" d="M622.836,585.264q-2.974.776-6.016,1.677c-1.987.619-3.959,1.3-5.97,2.01a7.262,7.262,0,0,1-8.995-3.675c3.548-.191,7.04-.3,10.525-.309Q617.672,584.985,622.836,585.264Z"/><path class="v" d="M622.836,585.264q-6.345-2.214-12.758-4.286a6.784,6.784,0,0,0-5.178.357,5.956,5.956,0,0,0-3.045,3.941c3.548-.191,7.04-.3,10.525-.309Q617.672,584.985,622.836,585.264Z"/></g><path class="w" d="M611.718,584.966q-5.24.242-10.607.768l-.038-.414-.039-.415Q606.431,584.808,611.718,584.966Z"/><g class="ae"><path class="u" d="M618.548,595.036c-3.832,1.365-7.826,2.874-11.631,4.649a7.262,7.262,0,0,1-9.262-2.937A189.291,189.291,0,0,1,618.548,595.036Z"/><path class="v" d="M618.548,595.036q-6.495-1.692-13.048-3.237a6.717,6.717,0,0,0-5.113.781,5.752,5.752,0,0,0-2.732,4.168A189.291,189.291,0,0,1,618.548,595.036Z"/></g><path class="w" d="M607.478,595.651l-2.648.335-2.612.39q-2.617.408-5.261.89l-.075-.41-.075-.411C600.393,596.091,603.879,595.8,607.478,595.651Z"/><path class="w" d="M619.872,551.669a154.1,154.1,0,0,0-22.505,41.576q-1.965,5.609-3.5,11.36h1.112q1.406-5.59,3.226-11.07a153.566,153.566,0,0,1,21.78-41.778l1.9-2.523Z"/><g class="af"><path class="ag" d="M548.615,532.02a143.215,143.215,0,0,1,13.764,8.382,8.57,8.57,0,0,0,11.915-2.1A218.988,218.988,0,0,0,548.615,532.02Z"/><path class="ah" d="M548.615,532.02q8.325-.986,16.705-1.741a8.175,8.175,0,0,1,6.2,2.028,8.283,8.283,0,0,1,2.773,5.994A218.988,218.988,0,0,0,548.615,532.02Z"/></g><path class="ai" d="M562.1,534.911c2.237.653,4.425,1.371,6.641,2.106s4.444,1.5,6.639,2.307l.125-.666-.111-.594C570.936,536.912,566.547,535.835,562.1,534.911Z"/><g class="aj"><path class="ag" d="M565.234,503.707a78.025,78.025,0,0,1,.513,16.609,8.493,8.493,0,0,0,.428,3.293,8.119,8.119,0,0,0,.68,1.468,8.508,8.508,0,0,0,.912,1.334,8.915,8.915,0,0,0,5.781,3.1c-.947-4.421-1.968-8.837-3.33-13.158A78.684,78.684,0,0,0,565.234,503.707Z"/><path class="ah" d="M565.234,503.707a84.866,84.866,0,0,1,10.946,13.657,9.106,9.106,0,0,1,1.334,3.342,8.972,8.972,0,0,1,.155,1.738,9.143,9.143,0,0,1-.217,1.7,8.125,8.125,0,0,1-3.9,5.367c-.947-4.421-1.968-8.837-3.33-13.158A78.684,78.684,0,0,0,565.234,503.707Z"/></g><g class="ak"><path class="ag" d="M551.443,546.144c4.47,3,8.869,6.26,13.244,9.66a8.519,8.519,0,0,0,12.014-1.425C568.3,551.307,559.9,548.511,551.443,546.144Z"/><path class="ah" d="M551.443,546.144c5.588-.187,11.2-.331,16.793-.412a8.349,8.349,0,0,1,8.465,8.647C568.3,551.307,559.9,548.511,551.443,546.144Z"/></g><path class="ai" d="M564.725,550.2q6.45,2.438,12.868,5.152l.036-.636.18-.516C573.436,552.8,569.1,551.455,564.725,550.2Z"/><g class="al"><path class="ag" d="M553.467,561.029c4.318,3.333,8.571,6.835,12.793,10.453a8.5,8.5,0,0,0,12.064-.912C570.072,567.139,561.795,563.933,553.467,561.029Z"/><path class="ah" d="M553.467,561.029q8.393.184,16.8.48a8.4,8.4,0,0,1,8.059,9.061C570.072,567.139,561.795,563.933,553.467,561.029Z"/></g><path class="ai" d="M566.59,565.859c4.171,1.795,8.288,3.668,12.443,5.6l.2-.507.2-.508C575.148,568.858,570.9,567.322,566.59,565.859Z"/><g class="am"><path class="ag" d="M554.838,576.272q6.277,5.328,12.385,11.015a8.49,8.49,0,0,0,12.089-.467Q567.135,581.219,554.838,576.272Z"/><path class="ah" d="M554.838,576.272q8.379.54,16.765,1.172a8.424,8.424,0,0,1,7.709,9.376Q567.135,581.219,554.838,576.272Z"/></g><path class="ai" d="M567.672,581.623c4.135,1.974,8.207,4.013,12.315,6.109l.222-.5.221-.5C576.179,584.976,571.948,583.271,567.672,581.623Z"/><g class="an"><path class="ag" d="M597.119,520.181A172.489,172.489,0,0,1,588.4,535.7a8.235,8.235,0,0,1-11.9,2.2A231.353,231.353,0,0,0,597.119,520.181Z"/><path class="ah" d="M597.119,520.181q-7.758,3.306-15.574,6.382a8.719,8.719,0,0,0-4.766,4.635,9.173,9.173,0,0,0-.279,6.705A231.353,231.353,0,0,0,597.119,520.181Z"/></g><path class="ai" d="M586.341,529.965c-1.7,1.612-3.467,3.183-5.214,4.73s-3.5,3.058-5.291,4.549l-.335-.586-.111-.594C579.057,535.464,582.755,532.771,586.341,529.965Z"/><g class="ao"><path class="ag" d="M600.711,538.055c-3.132,5.03-6.428,9.845-9.784,14.524a8.278,8.278,0,0,1-12,1.526C586.3,549.063,593.6,543.755,600.711,538.055Z"/><path class="ah" d="M600.711,538.055c-5.335,1.759-10.658,3.468-16.027,5.126a8.883,8.883,0,0,0-5.758,10.924C586.3,549.063,593.6,543.755,600.711,538.055Z"/></g><path class="ai" d="M589.237,546.828q-5.421,4.348-10.942,8.443l-.181-.611-.3-.457C581.626,551.815,585.461,549.359,589.237,546.828Z"/><g class="ap"><path class="ag" d="M603.089,555.511c-3.4,4.76-6.912,9.369-10.475,13.869a8.3,8.3,0,0,1-12.055,1.012C588.149,565.673,595.682,560.734,603.089,555.511Z"/><path class="ah" d="M603.089,555.511q-8.129,2.188-16.269,4.267a8.823,8.823,0,0,0-6.261,10.614h0C588.149,565.673,595.682,560.734,603.089,555.511Z"/></g><path class="ai" d="M591.186,563.606c-3.692,2.656-7.45,5.247-11.179,7.776l-.285-.47-.284-.47C583.357,568.22,587.3,565.942,591.186,563.606Z"/><g class="aq"><path class="ag" d="M604.643,572.778c-3.593,4.57-7.277,9.024-11.006,13.378a8.306,8.306,0,0,1-12.085.568Q593.2,580.072,604.643,572.778Z"/><path class="ah" d="M604.643,572.778q-8.211,1.842-16.429,3.592a8.8,8.8,0,0,0-6.662,10.354Q593.2,580.072,604.643,572.778Z"/></g><path class="ai" d="M592.426,580.35c-3.784,2.505-7.64,4.953-11.463,7.343l-.266-.48-.267-.48C584.435,584.656,588.457,582.529,592.426,580.35Z"/><path class="ai" d="M574.726,535.673c.965,5.148,1.717,10.334,2.37,15.529,1.3,10.394,2.1,20.846,2.584,31.306q.483,11.043.442,22.1h1.434q-.113-11.088-.769-22.155c-.641-10.477-1.594-20.938-3.053-31.332-.73-5.2-1.56-10.38-2.6-15.523s-2.2-10.266-3.7-15.294c-.379-1.346-.873-2.658-1.311-3.985.38,1.346.817,2.674,1.137,4.035C572.687,525.393,573.772,530.524,574.726,535.673Z"/><path class="ar" d="M318.951,384.676,329.835,364.4l22.513,4.785Z"/><path class="ar" d="M319.66,386.76,353.417,371.1l-5.325,14.841A14.823,14.823,0,0,0,334.5,392.3Z"/><path class="ar" d="M320.646,389.513l12.727,4.754c-.129.264-.242.512-.34.75l-4.413,10.635c-.076.183-.145.373-.208.573Z"/><path class="ar" d="M362.633,390.174q-.3-.122-.6-.215l-10.882-3.407c-.263-.082-.536-.158-.824-.23l4.582-12.77Z"/><path class="ar" d="M360.842,391.926l-10.357-3.242a12.589,12.589,0,0,0-15.389,7.189l-4.11,9.9Z"/><path class="ar" d="M347.081,465.337c0,12.94,12.38,23.429,27.652,23.429a31.865,31.865,0,0,0,10.034-1.649c3.88,2.087,9.074,1.649,9.074,1.649a7.62,7.62,0,0,1-3.129-4.364c7.043-4.247,11.671-11.183,11.671-19.065,0-12.939-12.379-23.428-27.65-23.428S347.081,452.4,347.081,465.337Zm35.682.02a2.792,2.792,0,1,1,2.793,2.793A2.792,2.792,0,0,1,382.763,465.357Zm-10.824,0a2.793,2.793,0,1,1,2.793,2.793A2.793,2.793,0,0,1,371.939,465.357Zm-10.823,0a2.792,2.792,0,1,1,2.792,2.793A2.792,2.792,0,0,1,361.116,465.357Z"/><path class="ar" d="M468.838,344.756h0Z"/><path class="ar" d="M505.9,359.895l-26.2,11.2-10.865-26.336h0Z"/><path class="ar" d="M478.184,374.809l4.516-1.93,21.68-9.266-9.464,23.167-37.06-15.139,9.464-23.167,8.992,21.8Z"/><path class="ar" d="M468.837,344.756h0L505.9,359.895l-26.2,11.2-10.865-26.336Z"/><path class="ar" d="M388.616,282.151l-3.424,11.692-1.022,3.491-3.478-1.066-16.7-5.12,8.792,16.319L398.893,293.4l-6.062-11.251Z"/><path class="ar" d="M374.423,282.151l-11.839,6.378,20.175,6.186,3.68-12.564Z"/></g></svg>