<svg xmlns="http://www.w3.org/2000/svg" width="107.864" height="63.252" viewBox="0 0 107.864 63.252"><defs><style>.a{fill:none;stroke:#000;stroke-miterlimit:10;}.b{fill:#ce001b;}</style></defs><g transform="translate(-338.167 -906.731)"><path class="a" d="M392.115,969.478H374.769a4.829,4.829,0,0,1-5.093-4.534,17.119,17.119,0,0,1,.728-7.6,10.858,10.858,0,0,1,1.279-2.409,17.5,17.5,0,0,1,8.594-6.638,29.116,29.116,0,0,1,9.042-1.665,40.589,40.589,0,0,1,12.629,1.007,18.309,18.309,0,0,1,10.6,7.255,12.276,12.276,0,0,1,2.041,6.955,15.774,15.774,0,0,1-.238,3.853,4.6,4.6,0,0,1-3.56,3.7,3.717,3.717,0,0,1-.862.085q-8.907.006-17.815,0Z"/><path class="a" d="M406.066,944.97a15.568,15.568,0,0,1,3.92-3.62,21.064,21.064,0,0,1,8.994-3.013,42.181,42.181,0,0,1,13.72.463,17.247,17.247,0,0,1,10.844,6.934,10.935,10.935,0,0,1,1.92,5.692,17.528,17.528,0,0,1-.132,4.327,4.356,4.356,0,0,1-4.677,3.706c-6.739,0-13.478-.01-20.216.015-.644,0-.886-.169-.988-.815-.609-3.857-2.979-6.655-5.691-9.214a20.32,20.32,0,0,0-6.946-4.19C406.591,945.172,406.37,945.086,406.066,944.97Z"/><path class="a" d="M378.1,944.94c-1.016.453-2,.859-2.957,1.327a21.288,21.288,0,0,0-9.042,8.592,16.337,16.337,0,0,0-1.334,3.972c-.138.5-.322.628-.8.627-6.807-.012-13.615,0-20.422-.011a4.394,4.394,0,0,1-4.682-3.876,15.931,15.931,0,0,1,.18-5.922c.751-3.72,3.178-6.234,6.164-8.246a19.9,19.9,0,0,1,9.175-3.081,43.385,43.385,0,0,1,12.936.342,17.276,17.276,0,0,1,10.31,5.632c.116.136.23.273.34.413A2.227,2.227,0,0,1,378.1,944.94Z"/><path class="b" d="M404.737,926.414a21.129,21.129,0,0,1-5.058,13.018c-4.394,4.983-11.047,4.953-15.321-.135a20.18,20.18,0,0,1-4.76-14.987,12.578,12.578,0,0,1,23.135-5.386A13.616,13.616,0,0,1,404.737,926.414Z"/><path class="b" d="M371.537,919.572a19.388,19.388,0,0,1-4.857,11.97c-4.07,4.47-10.169,4.365-14.109-.227a19.43,19.43,0,0,1-4.594-12.841,11.283,11.283,0,0,1,2.511-7.2,11.73,11.73,0,0,1,13.172-3.87C368.471,909.1,371.6,913.652,371.537,919.572Z"/><path class="b" d="M436.266,919.769a19.218,19.218,0,0,1-4.647,11.617c-2.532,2.871-5.709,4.1-9.511,3.072a10.474,10.474,0,0,1-5.856-4.547,20.253,20.253,0,0,1-3.535-10.6,11.83,11.83,0,0,1,15.845-11.852C433.236,909.157,436.32,913.706,436.266,919.769Z"/></g></svg>