<svg xmlns="http://www.w3.org/2000/svg" width="73.725" height="72.272" viewBox="0 0 73.725 72.272"><defs><style>.a{fill:#ce001b;}.b{fill:#fff;}</style></defs><g transform="translate(-7505.226 -761.978)"><path d="M7555.349,798.069c4.331-5.793,7.69-2.933,11.617-.278,2.343,1.584,5.62,1.95,8.548,2.452,2.416.415,3.689,1.409,3.394,3.887-.844,7.092-2.247,14.062-6.052,20.232a36.907,36.907,0,0,1-5.356,6.552,11.451,11.451,0,0,1-8.736,3.328c-8.9-.163-17.809-.054-26.715-.055a4.376,4.376,0,0,1-1.687-.047,13.428,13.428,0,0,1-2.081-1.449c.7-.577,1.375-1.619,2.1-1.652,3.687-.171,7.386-.081,11.081-.082h12.47c-7.315-7.66-9.76-16.66-10.92-26.174-.4-3.255.458-4.3,3.749-4.47q1.135-.06,2.268-.151c2.081-.173,3.074-1.019,3.038-3.4-.142-9.183-.058-18.369-.058-28.036-2.787,0-5.4-.03-8,.035a1.466,1.466,0,0,0-1.054.755c-1.162,2.7-3.446,2.882-5.929,2.853-4.736-.056-9.487.187-14.2-.133-1.621-.11-3.164-1.509-4.718-2.362-.6-.33-1.122-1.094-1.706-1.123-2.525-.126-5.06-.054-7.761-.054v62.262c3.209,0,6.308-.125,9.387.072.988.062,1.923.971,2.882,1.493-.928.552-1.823,1.5-2.789,1.581-2.73.218-5.489.115-8.236.069-3.135-.053-4.624-1.42-4.629-4.452q-.05-29.847,0-59.7c0-3.131,1.4-4.447,4.516-4.521,1.326-.032,2.655-.053,3.979,0,2.087.089,4,.206,5.269-2.147.429-.8,2.116-1.255,3.242-1.282,5.4-.129,10.8-.157,16.2.017,1.276.041,3.121.66,3.658,1.607,1.1,1.948,2.6,1.8,4.287,1.8,8.771-.014,8.774-.006,8.778,8.752q0,10.092.006,20.184C7555.179,795.346,7555.26,796.251,7555.349,798.069Zm-9.315,5.6c.23,1.683.353,3,.595,4.292,1.3,6.946,3.2,13.652,8.132,19.035,4.628,5.051,7.74,5.018,12.383-.082a30.808,30.808,0,0,0,6.864-13.825c.746-3.055,1.246-6.17,1.911-9.535-6.279.041-10.922-2.514-15.1-6.16A21.869,21.869,0,0,1,7546.034,803.666Zm-15.53-34.389c2.357,0,4.714-.005,7.072,0,1.385,0,2.313-.307,2.32-2.049.007-1.679-.777-2.139-2.229-2.135q-7.212.021-14.426.009c-1.383,0-2.317.3-2.316,2.046,0,1.666.755,2.151,2.225,2.136C7525.6,769.262,7528.053,769.28,7530.5,769.277Z"/><path d="M7530.3,792.167c-5.584,0-11.168.005-16.752-.008-1.2,0-2.865.229-2.532-1.615.123-.676,1.724-1.536,2.658-1.545,11.072-.105,22.145-.069,33.218-.058,1.3,0,3.051-.214,2.84,1.7-.067.612-1.915,1.436-2.967,1.464C7541.28,792.248,7535.789,792.17,7530.3,792.167Z"/><path d="M7530.435,782.52c-5.581,0-11.163.07-16.74-.067-.95-.024-1.878-.934-2.815-1.435.891-.572,1.779-1.633,2.676-1.642q16.74-.165,33.481,0c.956.009,2.657.922,2.714,1.535.185,2.017-1.619,1.586-2.858,1.593C7541.407,782.538,7535.921,782.521,7530.435,782.52Z"/><path d="M7522.715,801.26c-3.123,0-6.253.115-9.364-.078-.843-.052-1.629-1.04-2.441-1.6.781-.51,1.553-1.446,2.343-1.461,6.339-.121,12.682-.13,19.02.01.818.018,1.613,1.083,2.418,1.663-.868.488-1.717,1.349-2.61,1.4C7528.967,801.368,7525.838,801.262,7522.715,801.26Z"/><path d="M7522.479,810.365c-3.03,0-6.069.117-9.087-.076-.859-.055-1.659-1.015-2.486-1.56.859-.53,1.709-1.5,2.58-1.521q9.372-.2,18.749.005c.83.019,1.637,1.063,2.455,1.632-.85.507-1.679,1.4-2.554,1.451C7528.925,810.472,7525.7,810.365,7522.479,810.365Z"/><path d="M7522.706,819.459c-3.125,0-6.257.117-9.37-.077-.842-.053-1.625-1.047-2.435-1.609.786-.509,1.563-1.444,2.358-1.459,6.342-.121,12.689-.132,19.03.008.814.018,1.6,1.093,2.406,1.678-.777.487-1.535,1.353-2.334,1.393C7529.149,819.555,7525.925,819.46,7522.706,819.459Z"/><path class="a" d="M7546.034,803.666a21.869,21.869,0,0,0,14.788-6.275c4.175,3.646,8.818,6.2,15.1,6.16-.665,3.365-1.165,6.48-1.911,9.535a30.808,30.808,0,0,1-6.864,13.825c-4.643,5.1-7.755,5.133-12.383.082-4.931-5.383-6.833-12.089-8.132-19.035C7546.387,806.665,7546.264,805.349,7546.034,803.666Zm13.655,16.1a18.976,18.976,0,0,0-1.761-3.448,11.147,11.147,0,0,0-2.449-1.725,12.66,12.66,0,0,0-.248,3.2,9.907,9.907,0,0,0,1.3,2.812c1.681,3.127,4.472,3.226,6.3.161,2.324-3.891,4.627-7.8,6.751-11.8.439-.827.053-2.091.047-3.154-.923.538-2.2.85-2.708,1.651C7564.512,811.288,7562.314,815.249,7559.689,819.77Z"/><path class="b" d="M7530.5,769.278c-2.451,0-4.9-.016-7.354.008-1.47.015-2.223-.47-2.225-2.136,0-1.747.933-2.047,2.316-2.046q7.213,0,14.426-.009c1.452,0,2.236.456,2.229,2.135-.007,1.742-.935,2.053-2.32,2.049C7535.218,769.272,7532.861,769.277,7530.5,769.278Z"/><path class="b" d="M7559.689,819.77c2.625-4.521,4.823-8.482,7.232-12.31.5-.8,1.785-1.113,2.708-1.651.006,1.063.392,2.327-.047,3.154-2.124,4-4.427,7.911-6.751,11.8-1.83,3.065-4.621,2.966-6.3-.161a9.907,9.907,0,0,1-1.3-2.812,12.66,12.66,0,0,1,.248-3.2,11.147,11.147,0,0,1,2.449,1.725A18.976,18.976,0,0,1,7559.689,819.77Z"/></g></svg>