<svg xmlns="http://www.w3.org/2000/svg" width="88.379" height="94.394" viewBox="0 0 88.379 94.394"><defs><style>.a{fill:none;stroke:#000;stroke-miterlimit:10;}.b{fill:#ce001b;}.c{fill:#fff;}.d{fill:#1a1818;}</style></defs><g transform="translate(-850.635 -872.6)"><path class="a" d="M907.768,922.05a13.009,13.009,0,0,1-12.985,12.943A13.027,13.027,0,1,1,895,908.939,12.878,12.878,0,0,1,907.768,922.05Zm-13.044,11.655c2.21-.806,4.3-1.481,6.307-2.331,1.407-.6,1.634-1.651.825-3.022a7.974,7.974,0,0,0-14.1.037c-.8,1.39-.525,2.391.887,2.987C890.58,932.194,892.573,932.889,894.724,933.705Zm4.677-15.693a4.623,4.623,0,0,0-4.457-4.722,4.674,4.674,0,1,0,4.457,4.722Z"/><path class="a" d="M912.712,902.048c1.964-1.573,3.989-2,6.1-.785a4.291,4.291,0,0,1,2.3,4.587,4.747,4.747,0,0,1-.988,2.469c-2.386,2.51-4.908,4.891-7.426,7.364-2.532-2.472-5.1-4.807-7.457-7.343a4.518,4.518,0,0,1-.01-5.941,4.791,4.791,0,0,1,5.824-1.353A17.791,17.791,0,0,1,912.712,902.048Z"/><path d="M898.344,937.471h5.985c.09,1.581.181,3.188.288,5.069h5.611V953.4H898.344Zm1.488,7.184.006.616h8.813l-.013-.616Zm8.806,3.721-.013-.543h-8.81l.02.543Zm0,3.105-.009-.608h-8.813c.006.2.011.405.017.608Z"/><path class="a" d="M886.761,907.549c-2.1-4.205-3.982-7.676-5.57-11.279a5.493,5.493,0,0,1,2.128-6.571,6.222,6.222,0,0,1,7,.076,5.541,5.541,0,0,1,1.977,6.626C890.709,899.937,888.86,903.354,886.761,907.549Zm.1-16.446c-1.235,1.642-2.546,2.649-2.406,3.38a3.654,3.654,0,0,0,2.365,2.4c.636.127,2.194-1.34,2.256-2.174C889.138,893.8,887.962,892.789,886.856,891.1Z"/><path d="M859.236,891.222a7.269,7.269,0,0,0,1.383,1.977c7.066,5.919,14.189,11.769,21.295,17.641a10.264,10.264,0,0,1,1.5,1.3c.242.3.222.806.319,1.22-.477.011-1.109.225-1.408,0-1.72-1.3-3.364-2.7-5.03-4.076-5.96-4.911-11.9-9.854-17.909-14.7a3.547,3.547,0,0,0-2.718-.731,4.315,4.315,0,0,1-5.235-1.732,4.059,4.059,0,0,1,.221-5.1,3.973,3.973,0,0,1,4.883-1.38C858.687,886.5,859.558,888.107,859.236,891.222Z"/><path d="M892.923,935.616c.218.645.708,1.334.613,1.93-.978,6.135-2.033,12.259-3.113,18.378-.253,1.436-.319,2.553,1,3.731a4.127,4.127,0,0,1-.478,6.487,4.384,4.384,0,0,1-6.169-.99c-1.519-2.168-.921-5.4,1.571-6.33,2.04-.759,2.161-2.185,2.428-3.8q1.586-9.547,3.187-19.092Z"/><path d="M906.133,930.853l25.717,21.209c1,.826,1.8,1.671,3.463,1.131,1.7-.551,3.424,1.045,3.675,2.853a3.491,3.491,0,0,1-2.948,3.718c-1.769.255-3.729-1.091-3.542-2.943.184-1.816-.82-2.5-1.879-3.372q-12.172-10.072-24.319-20.176a6.542,6.542,0,0,1-1.106-1.992Z"/><path d="M913.938,929.467a20.142,20.142,0,0,0-2.048-2.213c-1.962-1.645-1.522-3.855-1.005-5.716.26-.939,1.954-1.7,3.147-2.093a10.965,10.965,0,0,1,3.443-.079c3.9.041,5.885,3.333,4.028,6.775a3.31,3.31,0,0,1-1.635,1.384C917.842,928.283,915.758,928.883,913.938,929.467Z"/><path d="M902.948,872.6c1.167,1.223,2.525,2.037,2.819,3.137a3.775,3.775,0,0,1-1.07,3.367c-1.515.946-1.788,2.138-2.031,3.633q-1.949,12.008-4.036,23.992c-.092.523-.8.939-1.215,1.4-.193-.623-.636-1.287-.542-1.864,1.33-8.168,2.775-16.318,4.066-24.491.152-.963-.488-2.035-.678-3.071-.211-1.153-.741-2.485-.367-3.44S901.586,873.726,902.948,872.6Z"/><path d="M886.984,933.932c-.762.968-1.479,1.977-2.3,2.9-1.228,1.376-2.093,2.581-1.521,4.773a4.029,4.029,0,0,1-4.14,4.948,4.291,4.291,0,0,1-4.377-4.641,4.44,4.44,0,0,1,5.157-4.078,3.236,3.236,0,0,0,2.243-.779c1.081-1.006,1.875-2.314,2.922-3.364.384-.385,1.146-.394,1.736-.575Z"/><path d="M931.777,913.07a4.351,4.351,0,1,1-8.7-.145,4.349,4.349,0,0,1,8.7.145Z"/><path d="M873.948,890.52a3.357,3.357,0,0,1,3.295,3.343,3.445,3.445,0,0,1-3.364,3.3,3.322,3.322,0,0,1,.069-6.643Z"/><path d="M924.234,892.719a3.247,3.247,0,1,1-3.372,3.217A3.367,3.367,0,0,1,924.234,892.719Z"/><path d="M870.757,910.515a3.238,3.238,0,0,1-3.356,3.253,3.155,3.155,0,0,1-3.18-3.386,3.1,3.1,0,0,1,3.193-3.142A3.267,3.267,0,0,1,870.757,910.515Z"/><path d="M905.855,890.6c.924,1.622,1.866,2.538,1.781,3.346-.077.729-1.451,1.988-1.947,1.857a3.207,3.207,0,0,1-2.075-2.108C903.533,892.973,904.7,892.107,905.855,890.6Z"/><path d="M877.157,948.631c-1.569.944-2.466,1.905-3.314,1.863-.705-.034-1.995-1.388-1.881-1.905a3.15,3.15,0,0,1,2.023-2.147C874.759,946.37,875.648,947.522,877.157,948.631Z"/><path d="M919.743,933c1.1,1.505,2.169,2.337,2.154,3.149-.013.734-1.267,2.068-1.88,2.017a3.026,3.026,0,0,1-2.192-1.921C917.694,935.505,918.762,934.554,919.743,933Z"/><path d="M909.6,941.548h-3.7v-3.381Z"/><path class="b" d="M894.724,933.705c-2.151-.816-4.144-1.511-6.084-2.329-1.412-.6-1.689-1.6-.887-2.987a7.974,7.974,0,0,1,14.1-.037c.809,1.371.582,2.427-.825,3.022C899.02,932.224,896.934,932.9,894.724,933.705Z"/><path class="b" d="M899.4,918.012a4.588,4.588,0,1,1-4.457-4.722A4.66,4.66,0,0,1,899.4,918.012Z"/><path class="c" d="M899.832,944.655h8.806l.013.616h-8.813Z"/><path class="c" d="M908.638,948.376h-8.8l-.02-.543h8.81Z"/><path class="c" d="M908.641,951.481h-8.8c-.006-.2-.011-.405-.017-.608h8.813Z"/><path class="d" d="M864.169,919.34H874.58v.025a17.028,17.028,0,0,1-1.048,1.725H870.76a4.383,4.383,0,0,1,.779,1.852H874.5q.051.012.051.051-1,1.686-1.022,1.7h-1.916a5.549,5.549,0,0,1-.728,2.095,4.876,4.876,0,0,1-1.712,1.609,6.063,6.063,0,0,1-2.887.818v.026a4.8,4.8,0,0,0,.677,1.009l5.136,7.038v.333a.046.046,0,0,1-.052.051h-2.261q-6.105-8.061-6.106-8.1v-1.635l.026-.064a7.857,7.857,0,0,0,1.264.089q3.411,0,4.254-2.516a2.305,2.305,0,0,0,.128-.754h-6.183c-.034,0-.051-.021-.051-.064q1.022-1.686,1.048-1.686h4.918v-.026a3.047,3.047,0,0,0-1.635-1.507,4.581,4.581,0,0,0-1.559-.319h-2.746v-.064Q864.143,919.34,864.169,919.34Z"/></g></svg>