<svg xmlns="http://www.w3.org/2000/svg" width="69.908" height="80.659" viewBox="0 0 69.908 80.659"><defs><style>.a{fill:#bc071c;}</style></defs><g transform="translate(-4843.241 -1355.274)"><path class="a" d="M4913.149,1410.5l-3,3.2-7.173-6.866a18.831,18.831,0,0,1,2.705-2.693,2.278,2.278,0,0,1,2.16.106c1.863,1.645,3.555,3.483,5.31,5.25Z"/><path class="a" d="M4907.8,1355.274c2.883.971,3.959,3.035,3.941,6-.063,10.15-.024,20.3-.024,30.451,0,.167,0,.334,0,.5-.042,1.775-.876,2.892-2.128,2.851-1.205-.041-1.96-1.07-1.962-2.807q-.018-15.142-.007-30.284c0-2.669,0-2.67-2.638-2.67h-55.346c-2.333,0-2.336,0-2.337,2.3v67.929c0,2.332,0,2.335,2.3,2.335q11.871,0,23.743.005c1.693,0,2.475.667,2.456,2.017-.018,1.288-.879,2-2.534,2.013-3.511.02-7.022.006-10.533.007-4.682,0-9.364.009-14.046,0-3.452-.009-5.423-1.931-5.425-5.362q-.018-34.968-.019-69.937a5.469,5.469,0,0,1,3.681-5.352Z"/><path class="a" d="M4900.638,1409.221c2.43,2.321,4.763,4.548,7.151,6.828q-6.513,6.834-12.955,13.586a1.831,1.831,0,0,1-.656.5c-2.986,1-5.979,1.97-9.4,3.089.495-2.113.979-3.853,1.3-5.622a13.243,13.243,0,0,1,4.115-7.542C4893.789,1416.652,4897.091,1412.936,4900.638,1409.221Z"/><path class="a" d="M4877.37,1382.194c-4.343,0-8.686.026-13.029-.012-1.879-.016-2.883-1.249-2.3-2.747.494-1.274,1.635-1.349,2.784-1.349h16.371c3.063,0,6.125.006,9.188,0,1.205,0,2.24.315,2.638,1.579.432,1.37-.654,2.508-2.454,2.521C4886.168,1382.215,4881.769,1382.194,4877.37,1382.194Z"/><path class="a" d="M4877.544,1396.814c-4.346,0-8.691.007-13.037,0-1.813,0-2.651-.669-2.561-2.071.1-1.577,1.164-1.979,2.545-1.978q13.036.011,26.073.009c1.642,0,2.5.731,2.514,2.029s-.85,2-2.5,2.009C4886.235,1396.823,4881.889,1396.814,4877.544,1396.814Z"/><path class="a" d="M4870.592,1407.454c2.173,0,4.346.019,6.518-.006a1.99,1.99,0,0,1,2.22,1.98c.128,1.2-.84,2.077-2.266,2.085-4.29.024-8.579.005-12.869.01-1.392,0-2.26-.6-2.249-2.065s.912-2.022,2.3-2.01C4866.358,1407.467,4868.475,1407.453,4870.592,1407.454Z"/></g></svg>