<svg xmlns="http://www.w3.org/2000/svg" xmlns:xlink="http://www.w3.org/1999/xlink" width="447.621" height="366" viewBox="0 0 447.621 366"><defs><style>.a,.ae,.aj,.i,.m,.n{fill:none;}.al,.b{fill:#a58dc1;}.ak,.b,.t{opacity:0.5;}.c{fill:#414e9d;}.d{clip-path:url(#a);}.e,.h,.l,.t{fill:#251f5f;}.f{fill:#e8753b;}.g{clip-path:url(#b);}.h{opacity:0.4;}.ai,.h,.r,.t{mix-blend-mode:multiply;isolation:isolate;}.i,.n{stroke:#6a2325;stroke-width:0.835px;}.ae,.aj,.i,.n{stroke-miterlimit:10;}.j,.p{fill:#fff;}.k{fill:#12103b;}.l,.n{opacity:0.3;}.aj,.m{stroke:#fff;}.m{stroke-linecap:round;stroke-linejoin:round;stroke-width:4px;}.o{fill:#6f9cd3;}.p{opacity:0.6;}.q,.r{fill:url(#c);}.s{fill:#b795c5;}.u{clip-path:url(#e);}.v{fill:#374798;}.w{fill:url(#f);}.x{fill:url(#g);}.y{fill:url(#h);}.z{fill:#f4f1f8;}.aa{fill:url(#i);}.ab{clip-path:url(#j);}.ac{fill:url(#k);}.ad{fill:url(#l);}.ae{stroke:#6f9cd3;}.af{clip-path:url(#o);}.ag{clip-path:url(#q);}.ah,.ai{fill:#e54b95;}.aj{stroke-width:3px;}</style><clipPath id="a"><path class="a" d="M1012.483,246.94s-36.053,68.922-80.526,68.922S851.43,246.94,851.43,246.94s36.053-55.886,80.527-55.886S1012.483,246.94,1012.483,246.94Z"/></clipPath><clipPath id="b"><rect class="a" width="32.225" height="50.861" transform="translate(915.844 282.818)"/></clipPath><linearGradient id="c" y1="0.5" x2="1" y2="0.5" gradientUnits="objectBoundingBox"><stop offset="0" stop-color="#fd992d"/><stop offset="1" stop-color="#e3358b"/></linearGradient><clipPath id="e"><rect class="a" width="120.766" height="77.332" rx="8.751" transform="translate(711.205 266.196)"/></clipPath><linearGradient id="f" x1="0.199" y1="0.5" x2="0.801" y2="0.5" gradientUnits="objectBoundingBox"><stop offset="0" stop-color="#e3358b"/><stop offset="1" stop-color="#fd992d"/></linearGradient><linearGradient id="g" x1="0.074" y1="0.5" x2="0.926" y2="0.5" xlink:href="#f"/><linearGradient id="h" x1="0" y1="0.5" x2="1" y2="0.5" xlink:href="#f"/><linearGradient id="i" x1="0.5" y1="1" x2="0.5" gradientUnits="objectBoundingBox"><stop offset="0" stop-color="#a32563"/><stop offset="1" stop-color="#b26c1f"/></linearGradient><clipPath id="j"><path class="a" d="M1097.676,146.051H1019.55a3.085,3.085,0,0,0-3.085,3.084v56.591a3.084,3.084,0,0,0,1.275,2.5l39.063,28.295a3.088,3.088,0,0,0,3.62,0l39.062-28.295a3.087,3.087,0,0,0,1.275-2.5V149.135A3.084,3.084,0,0,0,1097.676,146.051Z"/></clipPath><linearGradient id="k" x1="0.5" y1="1" x2="0.5" y2="0" xlink:href="#f"/><linearGradient id="l" x1="0.5" y1="1" x2="0.5" y2="0" xlink:href="#c"/><clipPath id="o"><path class="a" d="M804.481,417.65s-20.311,18.532-45.366,18.532S713.75,417.65,713.75,417.65s20.311-18.532,45.365-18.532S804.481,417.65,804.481,417.65Z"/></clipPath><clipPath id="q"><path class="a" d="M1142.559,389.015c-12.14-.8-19.27,8.012-22.329,18.754-1.417,4.978-2.109,10.151-3.207,15.2-1.016,4.672-2.445,8.939-4.19,10.857-1.337,1.47-1.074,1.134-3.174,1.649a20.174,20.174,0,0,1-6.375-.673c-3.94-1.292-10.932-6.342-15.811-9.011-5.93-3.244-13.053-6.477-19.986-5.638-8.686,1.052-13.705,7.016-16.474,14.941-3.515,10.062,12.413,14.349,15.9,4.375,1.554-4.441,3.716-3.093,7.566-1.718,5.787,2.068,11.071,6.029,16.358,9.1,10.444,6.066,22.626,7.451,32.544-.331,7.637-5.991,9.295-17.592,11-26.469.454-2.369.941-4.729,1.529-7.07.849-3.376,2.359-7.765,6.656-7.486C1153.175,406.2,1153.109,389.708,1142.559,389.015Z"/></clipPath></defs><g transform="translate(-702.875 -135)"><path class="b" d="M795.676,492.214H1065.52a191.9,191.9,0,0,0,57.58-137.288c0-106.315-86.187-192.5-192.5-192.5s-192.5,86.185-192.5,192.5A191.909,191.909,0,0,0,795.676,492.214Z"/><path class="c" d="M1014.5,249.471c0,51.57-36.956,93.375-82.542,93.375s-82.543-41.805-82.543-93.375S886.369,135,931.957,135,1014.5,197.9,1014.5,249.471Z"/><path class="c" d="M913.025,288.417c-13.173,3.945-26.11,8.109-38.594,13.958A190.326,190.326,0,0,0,841.9,322.351c-22.17,16.468-44.562,36.31-55.957,62.074-6.959,15.734-9.623,31.529-5.9,48.561,2.592,11.853,10.136,23.273,19.281,31.087a93,93,0,0,0,33.421,18.036,83.414,83.414,0,0,0,19.8,3.185,25.9,25.9,0,0,0,8.4-.659c5.654-1.5,11.789-3.188,15.907-7.635,6.745-7.284,7.13-16.921,1.423-24.811-5.8-8.026-15.154-9.755-24.218-12.145-4.12-1.085-8.26-2.105-12.3-3.456-.73-.244-2.455-.959-3.606-1.435q-1.825-.923-3.607-1.932c-.873-.5-1.723-1.031-2.559-1.585-.606-.5-2.755-2.178-3.525-2.932-.558-.545-1.592-1.828-2.307-2.72-.5-.822-.96-1.664-1.4-2.518-.225-.727-.433-1.459-.629-2.194-.079-.314-.146-.629-.217-.943-.122-.775-.3-1.975-.331-2.593a46.118,46.118,0,0,1,.216-6.271c-.3,3.574.845-3.43,1.266-4.908.3-1.042,2.209-5.835,2.066-5.73.876-1.786,1.832-3.536,2.806-5.271a111.46,111.46,0,0,1,8.07-12.133c-.424.635,3.17-3.862,3.846-4.646q2.55-2.96,5.131-5.89a245.85,245.85,0,0,1,23.815-23.38c2.1-1.8,4.242-3.55,6.4-5.279.486-.385.975-.764,1.464-1.145-.582.468,2.307-1.735,2.61-1.957,4.5-3.3,9-6.6,13.63-9.712,9.268-6.235,18.652-12.315,28.824-16.974C938.464,307.687,928.242,283.861,913.025,288.417Z"/><path class="c" d="M1078.573,386.268c-10.916-25.97-32.938-46.222-54.8-63.1A190.3,190.3,0,0,0,991.614,302.6c-12.374-6.078-25.233-10.48-38.329-14.667-15.131-4.837-25.792,18.8-11.168,25.821,10.082,4.845,19.355,11.1,28.5,17.5,4.574,3.2,9.006,6.584,13.45,9.963.3.228,3.167,2.5,2.569,2,.483.392.967.78,1.446,1.176,2.127,1.768,4.242,3.551,6.3,5.395a246.078,246.078,0,0,1,23.378,23.817q2.531,2.972,5.02,5.982c.661.8,4.162,5.347,3.764,4.72a111.68,111.68,0,0,1,7.843,12.278c.94,1.751,1.863,3.517,2.708,5.32-.138-.094,1.682,4.722,1.959,5.768.393,1.487,1.411,8.514,1.176,4.928a46.326,46.326,0,0,1,.1,6.277c-.041.617-.242,1.813-.379,2.586-.078.313-.151.627-.235.939-.209.73-.43,1.458-.668,2.18q-.684,1.27-1.448,2.493c-.73.879-1.789,2.143-2.357,2.679-.784.738-2.961,2.369-3.577,2.865-.848.538-1.708,1.056-2.59,1.538q-1.8.978-3.643,1.865c-1.159.455-2.9,1.138-3.631,1.368-4.067,1.276-8.225,2.219-12.363,3.229a58.384,58.384,0,0,0-11.665,3.73c-4.285,1.233-8.368,2.723-11.565,6.207-7.179,7.827-7.341,18.641-.246,26.593a21.214,21.214,0,0,0,12.5,6.515c10.692,1.832,21,2.463,31.5-.593a93.041,93.041,0,0,0,33.749-17.416c9.287-7.646,17.043-18.924,19.852-30.727C1087.613,417.97,1085.242,402.128,1078.573,386.268Z"/><path class="c" d="M994.613,318.828c-3.925-9.12-8.082-15.76-14.462-19.562-14.935-8.9-31.091-11.989-46.624-16.281a18.368,18.368,0,0,0-3.809,0c-15.531,4.292-31.688,7.379-46.626,16.281-6.38,3.8-10.533,10.442-14.459,19.562-2.712,6.3-5.48,13.775-6.485,21.7l5.212,120.694,134.405-1.575-.658-119.119C1000.1,332.6,997.326,325.127,994.613,318.828Z"/><g class="d"><path class="e" d="M1012.483,246.94s-36.053,68.922-80.526,68.922S851.43,246.94,851.43,246.94s36.053-55.886,80.527-55.886S1012.483,246.94,1012.483,246.94Z"/><rect class="f" width="32.225" height="50.861" transform="translate(915.844 282.818)"/><g class="g"><path class="h" d="M983.944,240.52c0,37.407-23.5,67.728-52.473,67.728S879,277.921,879,240.52s23.5-67.727,52.477-67.723S983.944,203.121,983.944,240.52Z"/></g><path class="f" d="M983.944,228.18c0,37.407-23.5,67.728-52.473,67.728S879,265.581,879,228.18s23.5-67.726,52.477-67.722S983.944,190.782,983.944,228.18Z"/><path class="i" d="M920.089,261.342c2.158,12.406,23.736,11.956,23.736-.541"/><path class="e" d="M996.645,219.912c-12.133-1.2-24.4-.77-36.578-.754H903.846c-12.181-.016-24.445-.446-36.578.754a2.9,2.9,0,0,0-.688,5.7c-1.333,7.187,2.218,17.16,7.051,21.635a4.521,4.521,0,0,0,2.705,1.255,5.862,5.862,0,0,0,7.955,2.822c10.778-5.193,22.621.517,33.64-3.547A24.132,24.132,0,0,0,931.957,234.6a24.13,24.13,0,0,0,14.025,13.176c11.019,4.064,22.862-1.646,33.641,3.547a5.861,5.861,0,0,0,7.954-2.822,4.519,4.519,0,0,0,2.7-1.255c4.834-4.475,8.385-14.448,7.051-21.635A2.9,2.9,0,0,0,996.645,219.912Z"/><path class="j" d="M967.637,228.183l-23.59,2.742S952.119,246.355,967.637,228.183Z"/><path class="j" d="M896.277,228.183l23.59,2.742S911.794,246.355,896.277,228.183Z"/><path class="h" d="M931.957,231.5c32.306,0,61.15.659,80.125,16.189.263-.487.4-.749.4-.749s-36.053-55.886-80.526-55.886S851.43,246.94,851.43,246.94s.137.262.4.749C870.8,232.159,899.65,231.5,931.957,231.5Z"/><path class="k" d="M968.907,180.35c-4.793-4.913-10.975-8.46-17.067-11.487-7.526-3.74-16.405-7.319-24.946-5.744-5.976,1.1-12.535,6.185-14.8,11.75a9,9,0,0,0,1.869,10c2.458,11.564,8.684,23.165,20.163,27.753,4.15,1.658,8.341-.625,10.616-4.044a10.116,10.116,0,0,0,1.028-2.031c6.336,5.265,13.719,9.31,21.75,7.4,6.681-1.589,10.635-8.716,11.122-15.043C979.2,191.671,973.57,185.128,968.907,180.35Z"/></g><path class="l" d="M898.079,325.554a4.964,4.964,0,1,1-4.964-4.962A4.963,4.963,0,0,1,898.079,325.554Z"/><line class="m" y2="60.622" transform="translate(893.115 325.555)"/><path class="l" d="M975.759,325.554a4.963,4.963,0,1,1-4.963-4.962A4.963,4.963,0,0,1,975.759,325.554Z"/><line class="m" y2="60.622" transform="translate(970.796 325.555)"/><path class="n" d="M925.986,248.838c-.669,4.682,5.351,7.357,8.026,3.344"/><path class="o" d="M11.775,0H65.248A11.775,11.775,0,0,1,77.023,11.775V107a11.774,11.774,0,0,1-11.774,11.774H11.775A11.775,11.775,0,0,1,0,107V11.775A11.775,11.775,0,0,1,11.775,0Z" transform="translate(1053.074 260.863)"/><rect class="e" width="64.171" height="97.23" transform="translate(1059.5 267.473)"/><path class="p" d="M1095.634,371.6a4.048,4.048,0,1,1-4.048-4.048A4.048,4.048,0,0,1,1095.634,371.6Z"/><path class="q" d="M1118.311,331.107l-23.2-40.187a4.074,4.074,0,0,0-7.056,0l-23.329,40.407a4.073,4.073,0,0,0,3.529,6.11h46.667a4.072,4.072,0,0,0,3.391-6.33Z"/><path class="r" d="M1111.249,327.269l-17.07-29.567a3,3,0,0,0-5.192,0l-17.164,29.73a3,3,0,0,0,2.595,4.5h34.336a3,3,0,0,0,2.495-4.659Z"/><path class="j" d="M1088.2,326.551a3.392,3.392,0,0,1,6.765,0,3.387,3.387,0,0,1-6.765,0Zm.106-21.744h6.554l-1.092,16.1H1089.4Z"/><path class="s" d="M1117.122,489.425c0,6.393-83.509,11.575-186.522,11.575s-186.526-5.182-186.526-11.575S827.584,477.85,930.6,477.85,1117.122,483.033,1117.122,489.425Z"/><path class="e" d="M823.523,485.607H1040.39a7.757,7.757,0,0,0,7.758-7.757H815.764A7.758,7.758,0,0,0,823.523,485.607Z"/><path class="e" d="M7.989,0H194.606a7.99,7.99,0,0,1,7.99,7.99v114.25a7.99,7.99,0,0,1-7.99,7.99H7.992A7.992,7.992,0,0,1,0,122.239V7.989A7.989,7.989,0,0,1,7.989,0Z" transform="translate(830.658 355.376)"/><path class="t" d="M963.9,481.73c-69.816,0-126.413-52.334-126.413-116.888q0-4.761.41-9.428a7.989,7.989,0,0,0-7.242,7.952V477.618a7.989,7.989,0,0,0,7.99,7.989h186.615a7.989,7.989,0,0,0,7.992-7.989V462.574A133.258,133.258,0,0,1,963.9,481.73Z"/><path class="o" d="M8.751,0H112.014a8.752,8.752,0,0,1,8.752,8.752V68.58a8.752,8.752,0,0,1-8.752,8.752H8.752A8.752,8.752,0,0,1,0,68.58V8.751A8.751,8.751,0,0,1,8.751,0Z" transform="translate(714.133 269.123)"/><g class="u"><rect class="j" width="120.766" height="77.332" rx="8.751" transform="translate(711.205 266.196)"/><rect class="v" width="181.833" height="42.516" transform="translate(682.619 238.847)"/></g><path class="e" d="M732.115,312.527l2.98,1.614-1.339,2.241-3.008-1.776.055,3.307h-2.569l.027-3.336-3.007,1.8-1.312-2.241,2.98-1.614-2.98-1.64,1.312-2.241,3.007,1.8-.027-3.335H730.8l-.055,3.335,3.008-1.8,1.339,2.241Z"/><path class="e" d="M753.15,312.527l2.98,1.614-1.339,2.241-3.008-1.776.055,3.307h-2.57l.027-3.336-3.007,1.8-1.312-2.241,2.98-1.614-2.98-1.64,1.312-2.241,3.007,1.8-.027-3.335h2.57l-.055,3.335,3.008-1.8,1.339,2.241Z"/><path class="e" d="M774.185,312.527l2.98,1.614-1.34,2.241-3.007-1.776.055,3.307H770.3l.027-3.336-3.007,1.8-1.312-2.241,2.98-1.614-2.98-1.64,1.312-2.241,3.007,1.8-.027-3.335h2.57l-.055,3.335,3.007-1.8,1.34,2.241Z"/><path class="e" d="M795.22,312.527l2.979,1.614-1.339,2.241-3.008-1.776.055,3.307h-2.57l.028-3.336-3.007,1.8-1.312-2.241,2.98-1.614-2.98-1.64,1.312-2.241,3.007,1.8-.028-3.335h2.57l-.055,3.335,3.008-1.8,1.339,2.241Z"/><path class="e" d="M816.254,312.527l2.98,1.614-1.34,2.241-3.007-1.776.055,3.307h-2.57l.027-3.336-3.007,1.8-1.312-2.241,2.981-1.614-2.981-1.64,1.312-2.241,3.007,1.8-.027-3.335h2.57l-.055,3.335,3.007-1.8,1.34,2.241Z"/><rect class="w" width="25.142" height="4.376" transform="matrix(0.446, -0.895, 0.895, 0.446, 705.817, 347.126)"/><rect class="x" width="19.241" height="8.752" transform="translate(702.875 348.127) rotate(-63.534)"/><path class="y" d="M725.57,329.247a17.3,17.3,0,1,1,17.3-17.3A17.316,17.316,0,0,1,725.57,329.247Zm0-30.216a12.921,12.921,0,1,0,12.92,12.92A12.936,12.936,0,0,0,725.57,299.031Z"/><path class="z" d="M799.65,274.793a1.532,1.532,0,1,1-1.532-1.531A1.532,1.532,0,0,1,799.65,274.793Z"/><path class="z" d="M811.464,274.793a1.531,1.531,0,1,1-1.532-1.531A1.532,1.532,0,0,1,811.464,274.793Z"/><path class="z" d="M823.278,274.793a1.531,1.531,0,1,1-1.532-1.531A1.532,1.532,0,0,1,823.278,274.793Z"/><path class="aa" d="M1100.031,147.229h-78.126a3.086,3.086,0,0,0-3.086,3.084V206.9a3.085,3.085,0,0,0,1.276,2.5l39.064,28.295a3.082,3.082,0,0,0,3.619,0L1101.84,209.4a3.083,3.083,0,0,0,1.274-2.5v-56.59A3.083,3.083,0,0,0,1100.031,147.229Z"/><g class="ab"><path class="ac" d="M1097.676,146.051H1019.55a3.085,3.085,0,0,0-3.085,3.084v56.591a3.084,3.084,0,0,0,1.275,2.5l39.063,28.295a3.088,3.088,0,0,0,3.62,0l39.062-28.295a3.087,3.087,0,0,0,1.275-2.5V149.135A3.084,3.084,0,0,0,1097.676,146.051Z"/><rect class="ad" width="64.93" height="64.93" transform="translate(1058.594 115.709)"/><rect class="ad" width="64.93" height="64.93" transform="translate(993.701 180.639)"/><path class="j" d="M1073.918,173.9c-3.443-5.725-9.007-9.462-15.306-9.462s-11.862,3.737-15.306,9.462Z"/><path class="j" d="M1042.109,176.141a26.625,26.625,0,0,0-2.434,11.222c0,12.2,7.883,22.149,17.818,22.854v-31h2.238v31c9.936-.705,17.82-10.652,17.82-22.854a26.609,26.609,0,0,0-2.435-11.222Z"/><path class="j" d="M1031.655,168.9c-.491,5.462,4.279,10.81,9.538,11.711,2.229.382,3.182-3.021.94-3.4-3.838-.658-7.307-4.272-6.945-8.306.2-2.269-3.33-2.249-3.533,0Z"/><path class="j" d="M1030.413,188.273a15.6,15.6,0,0,0,12.546,2.532c2.232-.45,1.285-3.855-.939-3.4a12.147,12.147,0,0,1-9.825-2.178c-1.824-1.366-3.582,1.7-1.782,3.051Z"/><path class="j" d="M1040.517,210.885a10.6,10.6,0,0,1,9.419-10.891c2.23-.28,2.257-3.815,0-3.532-7.257.91-13.379,6.812-12.951,14.423.128,2.265,3.661,2.277,3.532,0Z"/><path class="j" d="M1050.16,161.8c1.523,1.809,3.187,3.491,4.709,5.3,1.47,1.745,3.955-.768,2.5-2.5-1.523-1.808-3.187-3.491-4.71-5.3-1.468-1.745-3.954.768-2.5,2.5Z"/><path class="j" d="M1085.57,168.9c.491,5.462-4.279,10.81-9.539,11.711-2.227.382-3.18-3.021-.938-3.4,3.838-.658,7.308-4.272,6.945-8.306-.2-2.269,3.33-2.249,3.532,0Z"/><path class="j" d="M1086.812,188.273a15.6,15.6,0,0,1-12.546,2.532c-2.232-.45-1.284-3.855.939-3.4a12.145,12.145,0,0,0,9.825-2.178c1.825-1.366,3.583,1.7,1.782,3.051Z"/><path class="j" d="M1076.707,210.885a10.6,10.6,0,0,0-9.419-10.891c-2.228-.28-2.257-3.815,0-3.532,7.258.91,13.38,6.812,12.952,14.423-.127,2.265-3.66,2.277-3.533,0Z"/><path class="j" d="M1067.064,161.8c-1.521,1.809-3.186,3.491-4.709,5.3-1.468,1.745-3.955-.768-2.5-2.5,1.524-1.808,3.187-3.491,4.71-5.3,1.469-1.745,3.956.768,2.5,2.5Z"/></g><path class="ae" d="M752.383,162.288c9.985,14.877,16.974,4.8,23.9-6.062,5.434-9.433,17.773-19.265,27.09-10.4,7.764,7.383,5.139,20.349,5.337,29.6"/><rect class="e" width="21.293" height="13.372" transform="translate(795.034 163.891)"/><path class="e" d="M842.474,208.79A36.793,36.793,0,1,1,805.68,172,36.793,36.793,0,0,1,842.474,208.79Z"/><path class="h" d="M815.387,230.824a36.8,36.8,0,0,1-34.7-49.024,36.791,36.791,0,1,0,59.7,39.22A36.656,36.656,0,0,1,815.387,230.824Z"/><path class="j" d="M826.213,194.527c5.315,0,5.315-8.242,0-8.242s-5.315,8.242,0,8.242Z"/><path class="j" d="M829.1,201.049a14.583,14.583,0,0,1,2.483,8.654c.085,3.791,5.972,3.8,5.888,0-.092-4.172-.83-8.163-3.288-11.625-2.177-3.067-7.286-.132-5.083,2.971Z"/><path class="q" d="M757.161,164.16l6.54,2.168-6.469-4.642,14.332-7.2-14.957,2.46,4.614-6.273-6.9,5.075-2.363-15.506-2.118,13.9-4.272-5.952,2.968,8.954-16.183-2.661,11.875,5.963-5.854,1.864,9.364-.055-7.9,15.276,9.772-9.889-.034,5.874,2.566-8.056,11.929,12.071Z"/><g class="af"><path class="e" d="M804.481,417.65s-20.311,18.532-45.366,18.532S713.75,417.65,713.75,417.65s20.311-18.532,45.365-18.532S804.481,417.65,804.481,417.65Z"/><path class="q" d="M782.873,417.65a23.758,23.758,0,1,1-23.758-23.759A23.757,23.757,0,0,1,782.873,417.65Z"/><circle class="e" cx="12.177" cy="12.177" r="12.177" transform="translate(746.938 405.473)"/></g><path class="j" d="M768.94,414.562c4.978,0,4.978-7.722,0-7.722s-4.979,7.722,0,7.722Z"/><g class="ag"><path class="ah" d="M1142.559,389.015c-12.14-.8-19.27,8.012-22.329,18.754-1.417,4.978-2.109,10.151-3.207,15.2-1.016,4.672-2.445,8.939-4.19,10.857-1.337,1.47-1.074,1.134-3.174,1.649a20.174,20.174,0,0,1-6.375-.673c-3.94-1.292-10.932-6.342-15.811-9.011-5.93-3.244-13.053-6.477-19.986-5.638-8.686,1.052-13.705,7.016-16.474,14.941-3.515,10.062,12.413,14.349,15.9,4.375,1.554-4.441,3.716-3.093,7.566-1.718,5.787,2.068,11.071,6.029,16.358,9.1,10.444,6.066,22.626,7.451,32.544-.331,7.637-5.991,9.295-17.592,11-26.469.454-2.369.941-4.729,1.529-7.07.849-3.376,2.359-7.765,6.656-7.486C1153.175,406.2,1153.109,389.708,1142.559,389.015Z"/><path class="e" d="M1103.369,429.91c5.111.9,7.822,5.628,9.382,10.167.49,1.427,2.766.814,2.27-.626-1.814-5.276-5.093-10.761-11.027-11.812-1.484-.263-2.119,2.007-.625,2.271Z"/><path class="e" d="M1108.391,423.673c6.277.259,10.266,6.284,13.113,11.191a1.178,1.178,0,0,0,2.033-1.189c-3.318-5.72-7.93-12.058-15.146-12.357-1.519-.063-1.514,2.292,0,2.355Z"/><path class="e" d="M1141.359,399.339c4.555,0,4.555-7.065,0-7.065s-4.555,7.065,0,7.065Z"/><path class="ai" d="M1149.054,392.756c.5,4.477-2.1,9.167-7.87,8.788-4.3-.28-5.807,4.109-6.655,7.485-.589,2.342-1.075,4.7-1.53,7.071-1.7,8.877-3.358,20.478-10.995,26.469-9.917,7.782-22.1,6.4-32.544.331-5.287-3.071-10.57-7.031-16.358-9.1-3.85-1.376-6.012-2.723-7.565,1.717-2.52,7.212-11.539,6.966-15.018,2.475.119,7.892,13.264,10.434,16.391,1.48,1.554-4.441,3.716-3.093,7.566-1.718,5.787,2.068,11.071,6.029,16.358,9.1,10.444,6.066,22.626,7.451,32.544-.331,7.637-5.991,9.295-17.592,11-26.469.454-2.369.941-4.729,1.529-7.07.849-3.376,2.359-7.765,6.656-7.486C1150.119,405.995,1152.257,397.779,1149.054,392.756Z"/></g><path class="aj" d="M838.588,254.14a3.69,3.69,0,1,1-3.69-3.689A3.69,3.69,0,0,1,838.588,254.14Z"/><g class="ak"><path class="al" d="M1001.765,159.319a5.194,5.194,0,1,1,5.194-5.194A5.2,5.2,0,0,1,1001.765,159.319Zm0-7.378a2.184,2.184,0,1,0,2.184,2.184A2.187,2.187,0,0,0,1001.765,151.941Z"/></g><path class="b" d="M714.77,388.965a3.69,3.69,0,1,1-3.689-3.69A3.689,3.689,0,0,1,714.77,388.965Z"/><path class="b" d="M1106.8,248.838a3.69,3.69,0,1,1-3.689-3.689A3.689,3.689,0,0,1,1106.8,248.838Z"/><rect class="j" width="3.01" height="9.531" transform="translate(1022.08 294.698)"/><rect class="j" width="9.531" height="3.01" transform="translate(1018.819 297.959)"/><g class="ak"><rect class="al" width="3.01" height="9.531" transform="translate(849.925 154.125)"/><rect class="al" width="9.531" height="3.01" transform="translate(846.665 157.386)"/></g><g class="ak"><rect class="al" width="3.01" height="9.531" transform="translate(748.937 451.889)"/><rect class="al" width="9.531" height="3.01" transform="translate(745.676 455.15)"/></g><rect class="j" width="11.669" height="3.01" transform="translate(763.052 375.811)"/><rect class="j" width="11.669" height="3.01" transform="translate(763.052 380.714)"/><path class="j" d="M1046.207,242.3c2.589,0,2.589-4.013,0-4.013s-2.588,4.013,0,4.013Z"/><path class="j" d="M788.873,357.872c2.589,0,2.589-4.013,0-4.013s-2.588,4.013,0,4.013Z"/><g class="ak"><path class="al" d="M752.383,228.772c2.589,0,2.589-4.013,0-4.013s-2.589,4.013,0,4.013Z"/></g><g class="ak"><path class="al" d="M1117.122,471.509c2.589,0,2.589-4.013,0-4.013s-2.588,4.013,0,4.013Z"/></g><path class="j" d="M955.734,399.494c0-10.895-10.668-19.727-23.827-19.727s-23.826,8.832-23.826,19.727c0,8.37,6.3,15.517,15.182,18.383v3.911a20.709,20.709,0,0,1,8.644,3.217,3.2,3.2,0,0,1,5.428,0,3.216,3.216,0,0,0,3.215-3.217v-3.911C949.435,415.012,955.734,407.865,955.734,399.494Z"/><path class="e" d="M925.585,391.928c-2.817-.858-7-.6-8.745.661a6.985,6.985,0,0,0-1.04,9.845c2.685,3.015,7.614,1.958,10.029-.757,1.915-2.154,4.311-6.2,1.887-8.606A5.182,5.182,0,0,0,925.585,391.928Z"/><path class="e" d="M936.2,393.071c-2.425,2.4-.027,6.452,1.887,8.606,2.413,2.715,7.343,3.772,10.029.757a6.984,6.984,0,0,0-1.041-9.845c-1.746-1.256-5.927-1.519-8.744-.661A5.176,5.176,0,0,0,936.2,393.071Z"/><path class="e" d="M930.255,408.5c.169-.377.279-.943.414-1.243a1.268,1.268,0,0,0-.445-1.7,1.247,1.247,0,0,0-1.7.446c-.169.377-.278.943-.414,1.242a1.272,1.272,0,0,0,.446,1.7,1.245,1.245,0,0,0,1.7-.446Z"/><path class="e" d="M933.659,408.5c-.169-.377-.281-.943-.415-1.243a1.27,1.27,0,0,1,.445-1.7,1.248,1.248,0,0,1,1.7.446c.168.377.278.943.414,1.242a1.271,1.271,0,0,1-.449,1.7,1.243,1.243,0,0,1-1.7-.446Z"/><path class="j" d="M960.563,446.329a4.479,4.479,0,0,0-6.095,1.722,4.794,4.794,0,0,0-.293.648l-16.04-8.974,17.087-9.558a4.584,4.584,0,0,0,.293.65,4.478,4.478,0,1,0,4.256-6.65,4.5,4.5,0,1,0-7.494.734l-20.321,11.368L911.636,424.9a4.378,4.378,0,0,0,.4-.587,4.478,4.478,0,1,0-7.894-.147,4.478,4.478,0,1,0,4.257,6.65,4.577,4.577,0,0,0,.292-.65l17.088,9.558L909.736,448.7a4.551,4.551,0,0,0-.292-.648,4.478,4.478,0,1,0-4.257,6.65,4.492,4.492,0,1,0,7.495-.737l19.274-10.782,19.275,10.782a4.081,4.081,0,0,0-.4.589,4.477,4.477,0,1,0,7.892.148,4.478,4.478,0,0,0,1.838-8.372Z"/></g></svg>