<svg xmlns="http://www.w3.org/2000/svg" width="374.635" height="408.965" viewBox="0 0 374.635 408.965"><defs><style>.a{fill:#b9c7e6;}.b{fill:#29a86e;}.c{fill:#155f45;}.d{fill:#48b28a;}.e{fill:#ffedc1;}.f{fill:#451447;}.g{fill:#ffc53c;}.h{fill:#fff2d3;}.i{fill:#fd8;}.j{fill:#fa8708;}.k{fill:#eb3f17;}.l{fill:#10255f;}.m{fill:#23448d;}.n{fill:#fffbde;}.o{fill:#0f3885;}.p{fill:#10255e;}.q{fill:#ec5358;}.r{fill:#f6b1b4;}.s{fill:#000f31;}.t{fill:#0e1d4d;}.u{fill:#a10c1a;}.v{fill:#f1878d;}.w{fill:#b81e82;}.x{fill:#cd1b21;}.y{fill:#002e87;}.z{fill:#9b1879;}.aa{fill:#fff;}.ab{fill:#dd151a;}.ac{fill:#ef5613;}.ad{fill:#dc101a;}.ae{fill:#ec401a;}</style></defs><g transform="translate(-9147.334 -114.702)"><ellipse class="a" cx="148.742" cy="27.35" rx="148.742" ry="27.35" transform="translate(9224.485 468.966)"/><path class="a" d="M9339.312,467.535c0,6.9-42.976,12.5-95.988,12.5s-95.989-5.6-95.989-12.5,42.976-12.5,95.989-12.5S9339.312,460.631,9339.312,467.535Z"/><path class="b" d="M9248.121,389.468l45.2-74.348h-9.59l-40.412,66.458Z"/><path class="c" d="M9300.469,303.372h-9.589l-7.145,11.748h9.59Z"/><path class="c" d="M9195.766,303.372h-9.621l7.145,11.748h9.621Z"/><path class="d" d="M9243.323,381.578l-40.413-66.458h-9.621l45.228,74.362,4.8,7.89,45.142,74.221h9.6l-49.939-82.125Z"/><path class="b" d="M9238.517,389.482l-49.932,82.111h9.6l45.128-74.221Z"/><path class="c" d="M9245.184,389.468a1.869,1.869,0,1,1-1.868-1.869A1.868,1.868,0,0,1,9245.184,389.468Z"/><rect class="b" width="11.214" height="11.809" transform="translate(9197.54 291.564)"/><rect class="d" width="32" height="11.809" transform="translate(9208.754 291.564)"/><rect class="b" width="7.931" height="11.809" transform="translate(9240.754 291.564)"/><rect class="d" width="11.396" height="11.809" transform="translate(9186.145 291.564)"/><rect class="b" width="14.86" height="11.809" transform="translate(9171.284 291.564)"/><rect class="d" width="14.628" height="11.809" transform="translate(9156.656 291.564)"/><rect class="d" width="7.932" height="11.809" transform="translate(9312.411 291.564)"/><rect class="b" width="10.12" height="11.809" transform="translate(9302.292 291.564)"/><rect class="b" width="4.376" height="11.809" transform="translate(9320.343 291.564)"/><rect class="d" width="5.271" height="11.809" transform="translate(9324.719 291.564)"/><rect class="d" width="12.034" height="11.809" transform="translate(9248.686 291.564)"/><rect class="d" width="24.342" height="11.809" transform="translate(9277.95 291.564)"/><rect class="b" width="17.231" height="11.809" transform="translate(9260.72 291.564)"/><rect class="e" width="41.846" height="7.658" transform="translate(9240.754 268.489)"/><rect class="f" width="21.333" height="7.658" transform="translate(9282.6 268.489)"/><path class="g" d="M9205.466,226.18a14.039,14.039,0,1,1-10.233-17.014A14.039,14.039,0,0,1,9205.466,226.18Z"/><path class="h" d="M9188.914,234.557a12.125,12.125,0,1,1,14.7-8.839A12.137,12.137,0,0,1,9188.914,234.557Z"/><path class="i" d="M9189.113,233.761a11.3,11.3,0,1,1,13.7-8.241A11.318,11.318,0,0,1,9189.113,233.761Z"/><path class="g" d="M9192.837,213.178a9.613,9.613,0,0,0-4.767.72.781.781,0,0,0-.371,1.121l3,4.986a.778.778,0,0,0,1.421-.213l1.405-5.651A.783.783,0,0,0,9192.837,213.178Z"/><path class="g" d="M9182.23,221.8a9.608,9.608,0,0,0,.719,4.767.781.781,0,0,0,1.121.37l4.985-3a.777.777,0,0,0-.213-1.42l-5.649-1.406A.781.781,0,0,0,9182.23,221.8Z"/><path class="g" d="M9184.342,228.878a9.613,9.613,0,0,0,3.874,2.87.782.782,0,0,0,1.06-.528l1.405-5.651a.777.777,0,0,0-1.154-.853l-4.986,3A.78.78,0,0,0,9184.342,228.878Z"/><path class="g" d="M9201.455,223.785a9.619,9.619,0,0,0-.72-4.767.781.781,0,0,0-1.121-.37l-4.986,3a.777.777,0,0,0,.213,1.42l5.651,1.406A.782.782,0,0,0,9201.455,223.785Z"/><path class="g" d="M9199.342,216.7a9.613,9.613,0,0,0-3.874-2.87.782.782,0,0,0-1.059.528L9193,220.012a.777.777,0,0,0,1.155.853l4.985-3A.78.78,0,0,0,9199.342,216.7Z"/><path class="g" d="M9185.754,215.291a9.6,9.6,0,0,0-2.869,3.874.783.783,0,0,0,.528,1.059l5.65,1.4a.777.777,0,0,0,.854-1.155l-3-4.985A.781.781,0,0,0,9185.754,215.291Z"/><path class="g" d="M9193.767,225.106l3,4.986a.782.782,0,0,0,1.164.2,9.624,9.624,0,0,0,2.87-3.875.781.781,0,0,0-.528-1.058l-5.65-1.406A.777.777,0,0,0,9193.767,225.106Z"/><path class="g" d="M9190.848,232.4a9.62,9.62,0,0,0,4.768-.72.781.781,0,0,0,.37-1.121l-3-4.986a.777.777,0,0,0-1.42.213l-1.406,5.651A.782.782,0,0,0,9190.848,232.4Z"/><path class="j" d="M9193.022,224.065l.807,27.2a14.934,14.934,0,0,0,10.333,13.766,5.379,5.379,0,0,1,3.68,5.137v14.883a4.86,4.86,0,0,1-3.2,4.567l-5.348,1.946h19.28l-5.349-1.946a4.86,4.86,0,0,1-3.2-4.567V270a5.39,5.39,0,0,1,3.645-5.077,14.929,14.929,0,0,0,10-13.654l.809-27.2Z"/><path class="k" d="M9219.557,224.065h-3.281l6.569-31.074h3.282Z"/><rect class="l" width="92.417" height="2.639" transform="translate(9329.99 455.034)"/><path class="l" d="M9322.9,486.269h-3.955l34.91-117.465h3.956Z"/><path class="l" d="M9428.892,486.269h3.955L9397.937,368.8h-3.956Z"/><path class="b" d="M9472.491,266.682a54.24,54.24,0,0,1-26.265-1.239l-18.671-5.612-6.458,19.846A83.419,83.419,0,0,0,9472.491,266.682Z"/><path class="c" d="M9486.1,296.839h0a20.266,20.266,0,0,0,8.631-24.052l-4.19-11.931-10.515,3.743a54.122,54.122,0,0,1-7.538,2.083,83.419,83.419,0,0,1-51.394,12.995l-29.255,89.893-49.354.064a23.993,23.993,0,0,0,16.966,7.028h20.786a27.518,27.518,0,0,0,20.421-13.023l4.207-6.9a39.161,39.161,0,0,1,33.438-18.779h21.2a39.441,39.441,0,0,0,21.983-6.7l-3.806-10.133A20.121,20.121,0,0,1,9486.1,296.839Z"/><path class="b" d="M9494.026,259.617l-3.482,1.239,4.19,11.931a20.266,20.266,0,0,1-8.631,24.052h0a20.121,20.121,0,0,0-8.419,24.288l3.806,10.133a39.452,39.452,0,0,0,9.59-9.1l3.275-4.374,14.926-43.033A11.917,11.917,0,0,0,9494.026,259.617Z"/><rect class="m" width="101.743" height="2.906" transform="translate(9377.505 471.593)"/><path class="m" d="M9369.7,505.98h-4.354l38.434-129.319h4.355Z"/><path class="m" d="M9486.388,505.98h4.354l-38.434-129.319h-4.355Z"/><rect class="c" width="173.334" height="1.367" transform="translate(9156.656 294.745)"/><path class="e" d="M9336.771,192.208l-.743-4.4c-8.019-1.823-29.726,1.459-39.206,10.854A54.191,54.191,0,0,1,9336.771,192.208Z"/><path class="n" d="M9295.689,197.309c.074.089.151.176.227.265l.906,1.085c-1.824-8.848-18.234-16.688-18.234-16.688l-2.749,3.345A36.685,36.685,0,0,1,9295.689,197.309Z"/><path class="n" d="M9335.705,195.923l.323.087,2.309-3.409c-.519-.141-1.042-.27-1.565-.393a54.191,54.191,0,0,0-39.949,6.451h0A59.414,59.414,0,0,1,9335.705,195.923Z"/><path class="n" d="M9336.028,196.01l7.664,50.29h0Z"/><path class="e" d="M9336.028,196.01l7.665,50.29,2.5-2.974-7.852-50.725Z"/><path class="o" d="M9336.028,196.01l-.323-.087a59.414,59.414,0,0,0-38.883,2.736h0l7.11,46.308,3.278-.578a69.981,69.981,0,0,1,30.357,1.344l6.3,1.7-.172-1.129Z"/><path class="p" d="M9295.916,197.574c-.075-.089-.152-.176-.227-.265a70.1,70.1,0,0,1-10.906,35.482l.552,2.6h0a35.19,35.19,0,0,1,15.915,7.377l2.683,2.195-7.11-46.308Z"/><path class="o" d="M9295.689,197.309a36.685,36.685,0,0,0-19.851-11.993c-.389-.087-.779-.171-1.171-.246h0l10.115,47.721A70.1,70.1,0,0,0,9295.689,197.309Z"/><path class="q" d="M9356.445,306.323l-.475,1.934a15.842,15.842,0,0,0,5.132-6.24l21.234-45.654,1.1-29.212a54.012,54.012,0,0,0-11.076,20.893Z"/><path class="r" d="M9382.337,216.979h0a20.211,20.211,0,0,0-14.521,13.151l-21.582,63.247-23.7-30.084L9310.5,257l-1.459-10.849,7.741-19.43a5.121,5.121,0,0,0-.994-5.367h0l-6.747,13.128,3.789-12.428a4.651,4.651,0,0,0-1-4.478l-5.339-5.886-5.834,16.957,2.149-13.334a11.39,11.39,0,0,0-1.056-6.9l-6.322,22.294a31.126,31.126,0,0,0,4.571,26.52l33.611,47.308a15.989,15.989,0,0,0,22.365,3.726l.475-1.934,15.914-58.279a54.012,54.012,0,0,1,11.076-20.893l.26-6.89Z"/><path class="q" d="M9322.539,263.293l-13.5-17.141L9310.5,257Z"/><path class="s" d="M9372.94,194.551a55.127,55.127,0,0,0,23.421,27.2,25.093,25.093,0,0,0,5.894,2.318,40.74,40.74,0,0,0,3.42-14.436c.421-8.817-2.206-17.569-6.212-25.435a105.531,105.531,0,0,0-10.746-16.189c-1.109-1.442-2.228-2.875-3.339-4.305a49.972,49.972,0,0,1-6.365.6,64.9,64.9,0,0,1-8.845-.451A55.208,55.208,0,0,0,9372.94,194.551Z"/><path class="t" d="M9396.361,221.747a54.616,54.616,0,0,1-26.193-57.9c-1.93-.212-3.861-.473-5.789-.738a45.327,45.327,0,0,0,10.509,51.725c6.834,6.352,15.889,10.929,19.864,19.37a26.913,26.913,0,0,0,7.5-10.141A25.093,25.093,0,0,1,9396.361,221.747Z"/><path class="u" d="M9339.652,163.393c-2.24.753-4.68,2.228-4.789,4.529a3.709,3.709,0,0,0,1.165,2.785,11.341,11.341,0,0,0,2.8,1.686,29.8,29.8,0,0,0,6.339,1.885,43.639,43.639,0,0,0,7,.576,55.492,55.492,0,0,0,8.924-.857,45.508,45.508,0,0,1,3.291-10.886C9355.944,161.951,9347.571,160.732,9339.652,163.393Z"/><path class="v" d="M9421.413,197.308a16.662,16.662,0,0,1-12.71,11.726l-7.55,1.528a4.714,4.714,0,0,1-3.3,2.988l-2.057.511,11.25,18.052,16.684-24.069Z"/><path class="q" d="M9421.413,197.308l-3.02-14.016-19.281,15.453,2.188,9.123a4.688,4.688,0,0,1-.147,2.694l7.55-1.528A16.662,16.662,0,0,0,9421.413,197.308Z"/><path class="w" d="M9407.043,232.113l-11.854-19.022-12.852,3.888v9.1a45.688,45.688,0,0,1-6.288,23.131l-2.476,4.218a15.527,15.527,0,0,0,5.472,21.218h0a45.7,45.7,0,0,1,18.183,20.155l.607,1.316h48.593l1.053-11.388a159.094,159.094,0,0,1,9.4-41.061l4.319-11.55-2.735-23.522-33.5-2.121-1.231,1.574Z"/><path class="v" d="M9285.983,425.532h0a82.136,82.136,0,0,0-38.05,14.558l-7.18,5.083,24.524,1.373a83.887,83.887,0,0,1,21.977,4.221l5.271,1.767a9.774,9.774,0,0,0,8.434-.989,9.609,9.609,0,0,0,4.31-9.24l-1.068-8.644a12.289,12.289,0,0,1-.092-1.714l-9.9-34.591Z"/><path class="x" d="M9316.114,400.775l4.411-10.585-20.272-13.528-3.881,13.29-2.162,7.4,9.9,34.591a12.582,12.582,0,0,1,.966-4.679Z"/><path class="r" d="M9326.89,484.375a12.61,12.61,0,0,1-1.2-6.339l2.046-28.629a42.1,42.1,0,0,1-9.2-2.167c-4.186-1.339-8.752-2.621-12.957-1.818l1.209,30.667a11.512,11.512,0,0,1-5.015,9.964l-29.2,19.927h49.419a9.6,9.6,0,0,0,8.661-13.749Z"/><path class="q" d="M9318.529,447.24a42.1,42.1,0,0,0,9.2,2.167l.816-11.438-23.521-6.382.545,13.835C9309.777,444.619,9314.344,445.9,9318.529,447.24Z"/><path class="o" d="M9271.112,505.98h34.756a52.231,52.231,0,0,0-9.874-20.318C9282,486.8,9271.112,495.46,9271.112,505.98Z"/><rect class="o" width="72.226" height="3.464" rx="1.399" transform="translate(9269.086 505.98)"/><path class="o" d="M9237.023,441.141l33.5,9.273a52.25,52.25,0,0,0-4.095-22.216C9252.631,425.559,9239.83,431,9237.023,441.141Z"/><path class="s" d="M9339.663,388q-1.293-6.537-3.206-12.948l-1.618-5.419h-11.761C9326.835,376.619,9333.042,382.676,9339.663,388Z"/><path class="y" d="M9446.428,296.112h-48.593l-5.992,9.376h48.478l-9.079,9.078,9.079,7.8-48.478-16.883-42.209-14.7a25.192,25.192,0,0,0-32.775,17.884l-6.367,26.4a36.88,36.88,0,0,0-12.328,30.617l5.933,73.894,1.336-.307a29.039,29.039,0,0,1,17.983,1.631,29.015,29.015,0,0,0,11.484,2.368h6.117l1.113-20.22A140.673,140.673,0,0,0,9339.663,388c-6.621-5.325-12.828-11.382-16.585-18.367h58.962l-50.447-43.7h0l84.722,43.479c10.97,0,23.981,1.5,33.868-3.258,12.021-5.781,19.369-19.349,19.159-32.686S9456.723,304.593,9446.428,296.112Zm-114.837,29.82a37.094,37.094,0,0,0-5.657.965l-.093.023q-1.053.268-2.08.6l-.15.048c-.333.108-.665.219-.993.336a23.567,23.567,0,0,1-2.092-8.449l11.066,6.48Z"/><path class="s" d="M9331.593,325.932l50.3,43.573.148.129,34.274-.223-84.721-43.479Z"/><path class="s" d="M9322.617,327.9c.328-.117.66-.228.993-.336l.15-.048q1.028-.327,2.08-.6l.093-.023a37.094,37.094,0,0,1,5.657-.965h0l-11.066-6.48A23.567,23.567,0,0,0,9322.617,327.9Z"/><path class="s" d="M9431.24,314.566l9.079-9.079h-48.476l48.476,16.883Z"/><path class="o" d="M9298.041,471.593a1.766,1.766,0,0,1-1.049-.343l-12.788-9.357a82.3,82.3,0,0,0-27.271-13.092l-21.11-5.7a1.778,1.778,0,0,1,.927-3.433l21.111,5.7a85.841,85.841,0,0,1,28.442,13.656l12.788,9.357a1.778,1.778,0,0,1-1.051,3.212Z"/><path class="z" d="M9427.556,296.112l-9.572-19.966,3.43,19.966Z"/><path class="z" d="M9412.787,296.112l-3.027-11.761-1.622,11.761Z"/><path class="z" d="M9435.214,296.112l3.009-15.59,2.1,15.59Z"/><path class="z" d="M9441.231,296.112l1.025-7.795.479,7.795Z"/><path class="q" d="M9466.835,270.566l2.513,5.581,7.438-3.738Z"/><path class="q" d="M9419.5,315.121l12.435,4.33,36.221-22.161L9429.2,315.121Z"/><path class="r" d="M9486.062,267.572l-22.891-53.841a10,10,0,0,0-13.675-5.03h0a10,10,0,0,0-4.644,13.047l21.982,48.818,9.952,1.843-7.439,3.738-49.723,35.032-11.488-.017,11.366,3.959h9.694l38.961-17.831,10.433-6.383A18.752,18.752,0,0,0,9486.062,267.572Z"/><path class="aa" d="M9352.164,174.854a43.639,43.639,0,0,1-7-.576A37.166,37.166,0,0,0,9352.164,174.854Z"/><path class="aa" d="M9336.028,170.707a9.957,9.957,0,0,0,3.9,2.271,34.251,34.251,0,0,0,5.233,1.3,29.8,29.8,0,0,1-6.339-1.885A11.341,11.341,0,0,1,9336.028,170.707Z"/><path class="u" d="M9385.378,163.7c1.111,1.43,2.229,2.863,3.339,4.305.116-.013.232-.03.349-.042,1.292-.138,2.585-.231,3.879-.287a41.13,41.13,0,0,1-2.268-5.043C9388.922,163.058,9387.157,163.421,9385.378,163.7Z"/><path class="u" d="M9450.327,157.762c-.4-2.385-2.93-3.81-5.28-4.6-6.893-2.31-14.242-2.046-21.461-.61a44.869,44.869,0,0,1,10.18,15.021,36.163,36.163,0,0,0,15.247-7,15.891,15.891,0,0,0,1.2-1.062A3.9,3.9,0,0,0,9450.327,157.762Z"/><path class="q" d="M9368.989,159.855l4.127,20.388c1.484-.111,2.965-.291,4.426-.525,6.87-1.1,13.5-3.32,20.283-4.892a109.761,109.761,0,0,1,19.137-2.683l-4.278-21.133Z"/><path class="r" d="M9377.542,179.718c-1.461.234-2.941.414-4.426.525l1.706,8.426a20.566,20.566,0,0,0,24.238,16.078h0a24.013,24.013,0,0,0,18.772-28.3l-.871-4.3a109.761,109.761,0,0,0-19.137,2.683C9391.047,176.4,9384.412,178.617,9377.542,179.718Z"/><path class="s" d="M9423.586,152.554a97.039,97.039,0,0,0-11.83,3.246c-.112.037-.224.076-.336.114a52.854,52.854,0,0,0,19.46,5.9A44.415,44.415,0,0,0,9423.586,152.554Z"/><path class="s" d="M9425.142,275.738a19.848,19.848,0,0,1-10.882-19.491c.91-8.512,7.393-16.132,6.417-24.637-.538-4.689-3.29-8.786-5-13.185-1.125-2.893-1.786-6.343-.934-9.4.8-2.864,2.551-4.849,3.176-7.9,1.025-5,.988-10.354-1.042-15.038-2.242-5.175-6.641-9.03-10.39-13.244-3.272-3.676-6.234-8.166-6.491-12.971-3.083,1.034-6.184,1.993-9.317,2.753a41.21,41.21,0,0,0,11.728,16.873c2.554,2.185,5.373,4.051,7.847,6.326a16.863,16.863,0,0,1,5.385,8.339c1.457,6.371-2.634,12.544-4.108,18.911a24.251,24.251,0,0,0,2.927,17.952A14.543,14.543,0,0,1,9416.519,242c-.849,3.871-2.814,7.388-4.275,11.072a29.681,29.681,0,0,0-2.32,11.2,17.985,17.985,0,0,0,3.483,10.764,16.487,16.487,0,0,0,14.912,5.934,18.849,18.849,0,0,0,9.105-3.863A19.464,19.464,0,0,1,9425.142,275.738Z"/><path class="t" d="M9447.946,224.646a19.854,19.854,0,0,0-1.793-11.878c-1.42-3.135-3.589-5.461-5.3-8.362a25.779,25.779,0,0,1-3.081-10.022c-.6-4.954-.332-9.981-.905-14.937a44.263,44.263,0,0,0-3.105-11.872,45.244,45.244,0,0,0-2.886-5.756,52.854,52.854,0,0,1-19.46-5.9c-3.8,1.283-7.6,2.682-11.426,3.966.257,4.8,3.219,9.295,6.491,12.971,3.749,4.214,8.147,8.069,10.39,13.244,2.03,4.684,2.067,10.038,1.042,15.038-.625,3.046-2.378,5.031-3.176,7.9-.853,3.054-.191,6.5.934,9.4,1.712,4.4,4.464,8.5,5,13.185.976,8.505-5.507,16.125-6.417,24.637a19.848,19.848,0,0,0,10.882,19.491,19.464,19.464,0,0,0,12.282,1.368,20.706,20.706,0,0,0,4.59-4.939,24.853,24.853,0,0,0,3.728-16.044c-.636-6.479-3.5-12.908-2.173-19.283C9444.447,232.6,9447.107,228.892,9447.946,224.646Z"/><path class="k" d="M9453.257,152.435c-.412-3.127-3.036-5-5.472-6.03-8.6-3.646-17.877-2.407-26.784.522-2.616.86-5.2,1.864-7.724,2.935q-.864.366-1.727.742c-10.541,4.584-21.064,10.019-32.215,10.407-10.208.355-20.65-3.533-30.669-3.267a27.369,27.369,0,0,0-10.132,2.077c-2.322.988-4.85,2.923-4.964,5.94a6.117,6.117,0,0,0,2.457,4.946,3.709,3.709,0,0,1-1.165-2.785c.109-2.3,2.549-3.776,4.789-4.529,12.5-4.2,26.136,1.27,39.36.907,11.345-.311,22.017-4.9,32.743-8.5s22.563-6.232,33.291-2.636c2.351.788,4.882,2.213,5.28,4.6a3.9,3.9,0,0,1-.114,1.753C9452.077,157.69,9453.625,155.223,9453.257,152.435Z"/><path class="ab" d="M9379.336,161.011c11.15-.388,21.674-5.823,32.215-10.407a297,297,0,0,0-41.683,2.681,124.333,124.333,0,0,0-21.2,4.459h0C9358.686,157.478,9369.128,161.366,9379.336,161.011Z"/><path class="ac" d="M9411.449,142.717q-1.668,3.969-3.506,7.864c1.251,0,2.458,0,3.607.023q.863-.375,1.727-.742c2.523-1.071,5.107-2.075,7.724-2.935q.151-.982.293-1.966a53.108,53.108,0,0,0-9.238-3.708Q9411.758,141.987,9411.449,142.717Z"/><path class="j" d="M9412.056,141.253a52.366,52.366,0,0,0-39.964,4.141c-.8,2.61-1.523,5.252-2.224,7.891a304.358,304.358,0,0,1,38.075-2.7q1.83-3.9,3.506-7.864Q9411.757,141.986,9412.056,141.253Z"/><path class="ab" d="M9421.957,134.278c-.279-4.765-1.664-9.6-4.742-13.25a16.827,16.827,0,0,0-5.171-4.083,12.613,12.613,0,0,1,.8,1.1,18.667,18.667,0,0,1,2.358,12.394,43.1,43.1,0,0,1-3.146,10.811,53.108,53.108,0,0,1,9.238,3.708A53.48,53.48,0,0,0,9421.957,134.278Z"/><path class="k" d="M9412.056,141.253a43.1,43.1,0,0,0,3.146-10.811,18.667,18.667,0,0,0-2.358-12.394,12.613,12.613,0,0,0-.8-1.1,22.021,22.021,0,0,0-17.136-.955c-7.641,2.727-13.563,9.061-17.453,16.18a70.888,70.888,0,0,0-5.363,13.224,52.366,52.366,0,0,1,39.964-4.141Z"/><path class="ad" d="M9271.8,276.147h-40.479v3.11H9271.8v9.2h-40.479v3.11h43.351V276.147Z"/><rect class="e" width="38.154" height="9.198" transform="translate(9233.643 279.256)"/><rect class="ae" width="32.684" height="15.417" transform="translate(9274.668 276.147)"/><path class="d" d="M9459.507,337.958h-21.2a39.161,39.161,0,0,0-33.438,18.779l-4.207,6.9a27.518,27.518,0,0,1-20.421,13.023h70.032a33.249,33.249,0,0,0,31.413-22.355l12.67-36.525-3.275,4.374A39.443,39.443,0,0,1,9459.507,337.958Z"/></g></svg>