<svg xmlns="http://www.w3.org/2000/svg" width="52.954" height="57.671" viewBox="0 0 52.954 57.671"><defs><style>.a{fill:none;stroke:#040505;stroke-miterlimit:10;}.a,.b{fill-rule:evenodd;}.b{fill:#ce001b;}</style></defs><g transform="translate(-1652.3 -709.806)"><path class="a" d="M1704.754,737.411h0a10.234,10.234,0,0,1-1.637-.31,11.841,11.841,0,0,0-6.386.31c-1.326.391-1.4.391-1.559-1.012a37.528,37.528,0,0,0-2.726-10.437,25.619,25.619,0,0,0-6.231-9.268c-.311-.235-.7-.468-.7-.858.233-.311.544-.155.856-.077a24.514,24.514,0,0,1,18.225,19.394,1.761,1.761,0,0,0,.158.623v1.635Z"/><path class="a" d="M1652.8,737.411h0a12.162,12.162,0,0,0,1.637-.31,11.879,11.879,0,0,1,6.386.31c1.325.391,1.4.391,1.482-1.012a37.6,37.6,0,0,1,2.8-10.437,25.62,25.62,0,0,1,6.231-9.268c.311-.235.7-.468.7-.858-.311-.311-.544-.155-.856-.077a24.408,24.408,0,0,0-18.227,19.394c-.076.234-.076.39-.156.623v1.635Z"/><path class="b" d="M1666.042,759.3h0l3.271-.39c.078,2.027.467,3.505,1.17,4.206a3.636,3.636,0,0,0,2.881,1.169,4.742,4.742,0,0,0,2.335-.623,3.065,3.065,0,0,0,1.326-1.636,12.111,12.111,0,0,0,.389-3.426V739.825H1681v18.539a13.822,13.822,0,0,1-.778,5.3,6.768,6.768,0,0,1-2.649,2.881,8.81,8.81,0,0,1-4.2.936,7.212,7.212,0,0,1-5.451-2.027c-1.249-1.4-1.871-3.426-1.871-6.152Z"/><path class="a" d="M1679.751,710.306c1.012,1.091,0,3.584.545,4.83.389.7,1.478.467,2.181.778a14.987,14.987,0,0,1,5.372,4.986c3.2,4.36,4.674,9.346,5.608,14.643.081.7.236,1.48.312,2.181.08.545.08.934-.7.623a47.657,47.657,0,0,0-11.916-2.493,35.268,35.268,0,0,0-9.891.856,37.077,37.077,0,0,0-5.764,1.559c-.778.311-1.014,0-.933-.7.155-1.635.544-3.193.855-4.828,1.012-4.519,2.494-8.879,5.453-12.54a12.67,12.67,0,0,1,5.45-4.44c1.87-.7,1.87-.7,1.87-2.8.078-.856-.311-1.869.545-2.649Z"/></g></svg>