<svg xmlns="http://www.w3.org/2000/svg" width="44.601" height="44.601" viewBox="0 0 44.601 44.601"><defs><style>.a{fill:#ce001b;}</style></defs><g transform="translate(-706.427 -399.384)"><path class="a" d="M728.728,443.985a22.3,22.3,0,1,1,22.3-22.3A22.326,22.326,0,0,1,728.728,443.985Zm0-43.368A21.068,21.068,0,1,0,749.8,421.685,21.092,21.092,0,0,0,728.728,400.617Z"/><path class="a" d="M737.513,416.134l-.263-.254v-5.53h-3.205v2.421l-5.317-5.159-8.108,7.867-.59.572-3.343,3.243h3.343v13.667h17.483V419.294h3.256Zm-4.432,6.753h-3.348V419.5h3.348Zm-5.1-3.387v3.387h-3.426V419.5Zm-3.426,5.135h3.426v3.387h-3.426Zm5.175,3.387v-3.387h3.348v3.387Z"/></g></svg>