<svg xmlns="http://www.w3.org/2000/svg" width="66.878" height="66.843" viewBox="0 0 66.878 66.843"><defs><style>.a{fill:#fff;}.b{fill:#ce001b;}</style></defs><g transform="translate(-861.408 -1091.151)"><path d="M914.767,1138.148c1.486,1.583,2.945,3.193,4.465,4.743,2.447,2.494,4.948,4.934,7.4,7.423,2.048,2.079,2.2,4.685.428,6.454-1.8,1.793-4.294,1.613-6.419-.505-4.949-4.931-9.912-9.85-14.791-14.85a9.3,9.3,0,0,1-1.326-2.742c-.161-.358-.166-.832-.411-1.1-1.478-1.6-3.005-3.155-4.479-4.687-12.5,9.025-26.565,4.792-33.487-4.283a23.41,23.41,0,0,1,32.964-32.631c9.064,6.9,12.83,21.24,4.056,33.247l4.775,4.622c.085.082.182.235.261.228,3.083-.3,4.247,2.39,6.149,3.927a1.912,1.912,0,0,0,.469.206Zm-50.856-23.595a21.019,21.019,0,1,0,21.177-20.927A20.942,20.942,0,0,0,863.911,1114.553Zm42.624,24.556c5.2,5.188,10.332,10.327,15.481,15.454,1.212,1.206,2.6,1.434,3.39.488,1.081-1.3.424-2.365-.6-3.38q-7.11-7.063-14.186-14.162c-.408-.408-.844-.787-1.152-1.073Zm-5.3-7.812-.12.141,4.908,4.851.075-.107Z"/><path d="M922.47,1141.222h-2.018v-2.029q0-17.743,0-35.489c0-3.6-1.032-4.623-4.664-4.626-3.545,0-7.09,0-10.822,0-.036-.7-.068-1.31-.1-2a4.683,4.683,0,0,1,.894-.188c3.9-.007,7.808-.055,11.711.026a5.115,5.115,0,0,1,5.137,5.066c.06,12.894.033,25.788.031,38.682A2.337,2.337,0,0,1,922.47,1141.222Z"/><path d="M867.366,1135.751h2c0,3.315,0,6.555,0,9.8,0,3.6,1.028,4.619,4.678,4.619q17.586,0,35.171,0H911.5c.033.712.062,1.327.1,2.2h-1.989q-17.94,0-35.881,0c-4.622,0-6.564-1.948-6.567-6.571,0-3.2.019-6.393.037-9.589A1.865,1.865,0,0,1,867.366,1135.751Z"/><path d="M905.92,1144.647v2.116H871.654v-2.116Z"/><path d="M871.615,1141.163v-2.034h29.922c.031.648.06,1.269.1,2.034Z"/><path d="M907.134,1130.238h11.074v2.083H907.134Z"/><path d="M918.228,1124.747v1.961H907.18v-1.961Z"/><path d="M918.317,1119.134c-.044.88-.073,1.451-.106,2.123h-8.786v-2.123Z"/><path d="M918.2,1102.483v2.111h-8.8c-.029-.628-.061-1.294-.1-2.111Z"/><path d="M918.155,1110.134h-8.748v-2.072h8.748Z"/><path d="M909.385,1115.632v-2h8.793v2Z"/><path d="M914.82,1138.2v-2.394h3.319v2.086l-3.372.252Z"/><path class="a" d="M863.911,1114.553a21.019,21.019,0,1,1,20.837,21.11A20.868,20.868,0,0,1,863.911,1114.553Zm40.97.1a19.99,19.99,0,1,0-19.949,19.942A20,20,0,0,0,904.881,1114.653Z"/><path class="a" d="M906.535,1139.109l2.936-2.673c.308.286.744.665,1.152,1.073q7.094,7.08,14.186,14.162c1.021,1.015,1.678,2.08.6,3.38-.788.946-2.178.718-3.39-.488C916.867,1149.436,911.731,1144.3,906.535,1139.109Z"/><path class="a" d="M901.238,1131.3l4.863,4.885-.075.107-4.908-4.851Z"/><path d="M904.881,1114.653a19.99,19.99,0,1,1-19.9-20.038A19.905,19.905,0,0,1,904.881,1114.653Zm-37.7-.034a17.749,17.749,0,1,0,17.742-17.723A17.861,17.861,0,0,0,867.182,1114.619Z"/><path class="a" d="M867.182,1114.619a17.749,17.749,0,1,1,17.721,17.775A17.792,17.792,0,0,1,867.182,1114.619Zm1.774-.039c8.809,10.74,23.472,10.7,31.762,0C891.7,1104,878.355,1103.816,868.956,1114.58Zm25.881-12.124H875.065v2.134h19.772Zm0,22.275H875.042v2h19.792Z"/><path d="M868.956,1114.58c9.4-10.764,22.742-10.584,31.762,0C892.428,1125.281,877.765,1125.32,868.956,1114.58Zm3.442.017c7.852,8.688,19.972,6.549,25.052-.13A16.8,16.8,0,0,0,872.4,1114.6Z"/><path d="M894.837,1102.456v2.134H875.065v-2.134Z"/><path d="M894.834,1124.731v2H875.042v-2Z"/><path class="a" d="M872.4,1114.6a16.8,16.8,0,0,1,25.052-.13C892.37,1121.146,880.25,1123.285,872.4,1114.6Zm16.965.052a4.55,4.55,0,0,0-4.518-4.521,4.65,4.65,0,0,0-4.431,4.47,4.55,4.55,0,0,0,4.559,4.479A4.436,4.436,0,0,0,889.363,1114.649Z"/><path d="M889.363,1114.649a4.436,4.436,0,0,1-4.39,4.428,4.55,4.55,0,0,1-4.559-4.479,4.65,4.65,0,0,1,4.431-4.47A4.55,4.55,0,0,1,889.363,1114.649Zm-2.237-.039c-.2-1.236-.8-2.1-2.171-2.1a1.953,1.953,0,0,0-2.165,2.049,2.082,2.082,0,0,0,2.184,2.244A2.212,2.212,0,0,0,887.126,1114.61Z"/><path class="b" d="M887.126,1114.61a2.212,2.212,0,0,1-2.152,2.19,2.082,2.082,0,0,1-2.184-2.244,1.953,1.953,0,0,1,2.165-2.049C886.326,1112.512,886.923,1113.374,887.126,1114.61Z"/></g></svg>