<svg xmlns="http://www.w3.org/2000/svg" width="68.616" height="64.761" viewBox="0 0 68.616 64.761"><defs><style>.a,.c{fill:#fff;}.b{fill:#040505;}.c{stroke:#040505;stroke-miterlimit:10;}.c,.d{fill-rule:evenodd;}.d,.e{fill:#ce001b;}</style></defs><g transform="translate(-733.302 -693.463)"><g transform="translate(-1375.263 -15.194)"><path class="a" d="M2126.622,736.506h40.145c1.439,0,2.621.637,2.621,1.413v20.85c0,.779-1.182,1.413-2.621,1.413h-40.145c-1.445,0-2.62-.634-2.62-1.413v-20.85C2124,737.143,2125.177,736.506,2126.622,736.506Z"/><path class="b" d="M2166.767,760.387h-40.145c-1.654,0-3-.726-3-1.618v-20.85c0-.891,1.345-1.617,3-1.617h40.145c1.655,0,3,.726,3,1.617v20.85C2169.768,759.661,2168.422,760.387,2166.767,760.387Zm-40.145-23.676c-1.236,0-2.24.542-2.24,1.208v20.85c0,.666,1,1.209,2.24,1.209h40.145c1.236,0,2.242-.543,2.242-1.209v-20.85c0-.666-1.006-1.208-2.242-1.208Z"/><path class="b" d="M2130.492,760.387l-3.468,2.815h.771l5.174-2.815Z"/><path class="b" d="M2160.421,760.387h2.477l3.468,2.815"/></g><path class="c" d="M2109.139,740.8c.48,1.148,2.3,1.816,4.5,1.625a11.049,11.049,0,0,0,1.719-.383c2.583-.765,16.061-5.354,16.156-5.544h.286l-.191-.192c-1.528-1.337-2.294-2.675-1.914-3.727.479-1.624,2.678-2.678,6.215-2.964a45.742,45.742,0,0,1,11.949.861h-1.624c-3.441,0-6.6,0-9.081.191-3.921.288-5.735,1.148-6.022,2.676-.1.958.477,1.722,1.815,2.391a31.465,31.465,0,0,0,7.361,1.529c2.008.382,3.823.67,5.163.956,4.683,1.242,9.461,2.485,15.006,2.006a11.274,11.274,0,0,0,2.582-.382,106.792,106.792,0,0,0,12.806-2.964l.478-.1-6.4-9.27a22.8,22.8,0,0,1-3.538.573,15.981,15.981,0,0,1-4.3-.1c-1.817-.286-6.309-1.147-10.518-2.008-4.4-1.051-8.6-1.815-10.227-2.006a9.031,9.031,0,0,0-2.773-.1,17.169,17.169,0,0,0-6.4,2.486c-.668.382-1.436.668-2.008,1.051l-19.116,10.323c-2.1,1.338-2.1,2.388-1.914,3.059Z" transform="translate(-1375.263 -15.194)"/><path class="d" d="M2138.611,709.622l-.522-.965-.522.965c-2.239,3.682-3.589,5.925-3.2,9.11a5.016,5.016,0,0,0,.964,2.456,3.4,3.4,0,0,0,5.6-.12,4.958,4.958,0,0,0,.9-2.529C2142.145,715.456,2140.8,713.229,2138.611,709.622Z" transform="translate(-1375.263 -15.194)"/><path class="d" d="M2147.115,709.61l-.236-.436-.237.436c-1.012,1.664-1.622,2.679-1.445,4.118a2.265,2.265,0,0,0,.436,1.11,1.538,1.538,0,0,0,2.53-.054,2.242,2.242,0,0,0,.407-1.143C2148.712,712.247,2148.106,711.241,2147.115,709.61Z" transform="translate(-1375.263 -15.194)"/><path class="d" d="M2156.2,714.5l-.236-.436-.236.436c-1.013,1.664-1.623,2.678-1.446,4.118a2.269,2.269,0,0,0,.436,1.11,1.538,1.538,0,0,0,2.53-.054,2.235,2.235,0,0,0,.407-1.143C2157.794,717.141,2157.189,716.134,2156.2,714.5Z" transform="translate(-1375.263 -15.194)"/><path class="d" d="M2130.041,714.254l-.236-.436-.236.436c-1.012,1.665-1.622,2.679-1.445,4.118a2.261,2.261,0,0,0,.435,1.11,1.537,1.537,0,0,0,2.531-.054,2.239,2.239,0,0,0,.406-1.143C2131.639,716.891,2131.033,715.885,2130.041,714.254Z" transform="translate(-1375.263 -15.194)"/><path class="d" d="M2149.564,718.166l-.118-.218-.118.218a3.1,3.1,0,0,0-.722,2.059,1.128,1.128,0,0,0,.218.555.768.768,0,0,0,1.265-.027,1.126,1.126,0,0,0,.2-.571A3.164,3.164,0,0,0,2149.564,718.166Z" transform="translate(-1375.263 -15.194)"/><path class="e" d="M2135.842,738.3l1.887,3.318,1.343,2.1L2148.5,760.5l.237-.92,8.816,13.842-6.927-13.553-4.26-12.279-1.191,2.936-4.843-6.718Z" transform="translate(-1375.263 -15.194)"/></g></svg>