<svg xmlns="http://www.w3.org/2000/svg" width="72.407" height="48.598" viewBox="0 0 72.407 48.598"><defs><style>.a{fill:#fff;}.b{fill:#040505;}.c{fill:#ce001b;}</style></defs><g transform="translate(-393.272 -753.412)"><path class="a" d="M396.074,770.062l45.211-15.92c1.621-.571,3.249-.2,3.611.832l9.728,27.626c.364,1.033-.672,2.341-2.293,2.912l-45.21,15.92c-1.628.573-3.246.2-3.61-.833l-9.728-27.626C393.421,771.944,394.447,770.635,396.074,770.062Z"/><path class="b" d="M452.427,785.783,407.216,801.7c-1.862.655-3.716.227-4.132-.954l-9.728-27.626c-.416-1.181.761-2.676,2.623-3.332l45.211-15.92c1.863-.656,3.718-.229,4.134.953l9.728,27.626C455.468,783.631,454.29,785.127,452.427,785.783Zm-56.257-15.45c-1.392.49-2.27,1.606-1.959,2.489l9.727,27.626c.311.883,1.7,1.2,3.087.713l45.211-15.92c1.393-.49,2.272-1.608,1.961-2.49l-9.728-27.626c-.311-.883-1.7-1.2-3.088-.712Z"/><rect class="c" width="5.138" height="5.138" transform="translate(402.818 777.061) rotate(-11.899)"/><rect class="c" width="5.138" height="5.138" transform="translate(411.112 775.313) rotate(-11.899)"/><rect class="c" width="5.138" height="5.138" transform="translate(419.406 773.565) rotate(-11.899)"/><rect class="c" width="5.138" height="5.138" transform="translate(427.7 771.818) rotate(-11.899)"/><rect class="c" width="5.138" height="5.138" transform="translate(435.994 770.07) rotate(-11.899)"/><rect class="c" width="5.138" height="5.138" transform="translate(444.288 768.322) rotate(-11.899)"/><rect class="c" width="5.138" height="5.138" transform="translate(452.582 766.575) rotate(-11.9)"/><rect class="c" width="5.138" height="5.138" transform="translate(404.224 783.732) rotate(-11.899)"/><rect class="c" width="5.138" height="5.138" transform="translate(412.518 781.984) rotate(-11.899)"/><rect class="c" width="5.138" height="5.138" transform="translate(420.812 780.237) rotate(-11.9)"/><rect class="c" width="5.138" height="5.138" transform="translate(429.106 778.489) rotate(-11.899)"/><rect class="c" width="5.138" height="5.138" transform="translate(437.4 776.741) rotate(-11.899)"/><rect class="c" width="5.138" height="5.138" transform="translate(445.694 774.994) rotate(-11.899)"/><rect class="c" width="5.138" height="5.138" transform="translate(453.988 773.246) rotate(-11.9)"/><rect class="c" width="5.138" height="5.138" transform="translate(405.629 790.403) rotate(-11.899)"/><rect class="c" width="5.138" height="5.138" transform="translate(413.923 788.656) rotate(-11.899)"/><rect class="c" width="5.138" height="5.138" transform="translate(422.217 786.908) rotate(-11.9)"/><rect class="c" width="5.138" height="5.138" transform="translate(430.512 785.16) rotate(-11.899)"/><rect class="c" width="5.138" height="5.138" transform="translate(438.806 783.413) rotate(-11.899)"/><rect class="c" width="5.138" height="5.138" transform="translate(447.1 781.665) rotate(-11.899)"/><rect class="c" width="5.138" height="5.138" transform="translate(455.394 779.917) rotate(-11.9)"/><path class="a" d="M396.5,769.911l45.21-15.919c1.621-.571,3.249-.2,3.612.832l19.845,8.538c.364,1.032-.672,2.34-2.293,2.911l-45.211,15.92c-1.627.573-3.245.2-3.609-.833l-19.846-8.538C393.848,771.793,394.874,770.484,396.5,769.911Z"/><path class="b" d="M462.972,766.544l-45.211,15.92c-1.863.656-3.716.228-4.132-.954l-19.846-8.537c-.416-1.182.761-2.677,2.623-3.333l45.211-15.92c1.863-.656,3.718-.228,4.134.953l19.845,8.538C466.012,764.392,464.835,765.888,462.972,766.544ZM396.6,770.182c-1.391.49-2.27,1.607-1.959,2.49l19.845,8.537c.311.883,1.7,1.2,3.087.713L462.781,766c1.392-.49,2.272-1.607,1.961-2.49L444.9,754.974c-.31-.882-1.7-1.2-3.088-.712Z"/></g></svg>