<svg xmlns="http://www.w3.org/2000/svg" width="49.585" height="48" viewBox="0 0 49.585 48"><defs><style>.a{fill:#fff;}.b{fill:#040505;}.c{fill:#ce001b;}</style></defs><g transform="translate(-493.473 -742.469)"><path class="a" d="M2.815,0H45.953A2.817,2.817,0,0,1,48.77,2.817V44.369a2.816,2.816,0,0,1-2.816,2.816H2.815A2.815,2.815,0,0,1,0,44.37V2.815A2.815,2.815,0,0,1,2.815,0Z" transform="translate(493.88 742.876)"/><path class="b" d="M539.834,790.469H496.7a3.228,3.228,0,0,1-3.223-3.224V745.692a3.227,3.227,0,0,1,3.223-3.223h43.138a3.227,3.227,0,0,1,3.224,3.223v41.553A3.228,3.228,0,0,1,539.834,790.469ZM496.7,743.284a2.41,2.41,0,0,0-2.408,2.408v41.553a2.41,2.41,0,0,0,2.408,2.408h43.138a2.411,2.411,0,0,0,2.409-2.408V745.692a2.411,2.411,0,0,0-2.409-2.408Z"/><rect class="a" width="33.408" height="7.758" transform="translate(502.746 777.318)"/><path class="c" d="M536.154,785.484H502.746a.408.408,0,0,1-.407-.408v-7.758a.407.407,0,0,1,.407-.408h33.408a.407.407,0,0,1,.408.408v7.758A.408.408,0,0,1,536.154,785.484Zm-33-.816h32.593v-6.943H503.154Z"/><path class="a" d="M518.262,749.822a10.611,10.611,0,1,1-10.606,10.612A10.61,10.61,0,0,1,518.262,749.822Z"/><path class="b" d="M518.262,771.453a11.02,11.02,0,1,1,11.019-11.019A11.03,11.03,0,0,1,518.262,771.453Zm0-21.224a10.2,10.2,0,1,0,10.2,10.205A10.213,10.213,0,0,0,518.262,750.229Z"/><path class="c" d="M518.066,755.492a3.124,3.124,0,1,1-3.127,3.121A3.122,3.122,0,0,1,518.066,755.492Z"/><path class="b" d="M518.066,762.148a3.532,3.532,0,1,1,3.533-3.535A3.539,3.539,0,0,1,518.066,762.148Zm0-6.248a2.716,2.716,0,1,0,2.717,2.713A2.719,2.719,0,0,0,518.066,755.9Z"/><path class="c" d="M516.581,764.157h3.405a2.871,2.871,0,0,1,2.867,2.867v2.867a9.653,9.653,0,0,1-9.14,0v-2.867A2.872,2.872,0,0,1,516.581,764.157Z"/><path class="b" d="M518.372,771.448a11.133,11.133,0,0,1-4.836-1.19.408.408,0,0,1-.231-.367v-2.867a3.279,3.279,0,0,1,3.276-3.275h3.405a3.278,3.278,0,0,1,3.275,3.275v2.867a.407.407,0,0,1-.22.361A10.027,10.027,0,0,1,518.372,771.448Zm-4.251-1.815a9.232,9.232,0,0,0,8.324.008v-2.617a2.462,2.462,0,0,0-2.459-2.459h-3.405a2.462,2.462,0,0,0-2.46,2.459Z"/><path class="c" d="M504.892,783.466a.408.408,0,0,1-.306-.677l3.285-3.723a.407.407,0,0,1,.611.539l-3.285,3.722A.409.409,0,0,1,504.892,783.466Z"/><path class="c" d="M508.177,783.466a.41.41,0,0,1-.306-.139l-3.285-3.722a.407.407,0,0,1,.611-.539l3.285,3.723a.406.406,0,0,1-.036.574A.4.4,0,0,1,508.177,783.466Z"/><path class="c" d="M513.5,783.466a.408.408,0,0,1-.305-.678l3.286-3.722a.408.408,0,1,1,.611.54l-3.286,3.722A.409.409,0,0,1,513.5,783.466Z"/><path class="c" d="M516.791,783.466a.409.409,0,0,1-.306-.138l-3.286-3.722a.408.408,0,1,1,.611-.54l3.286,3.722a.408.408,0,0,1-.3.678Z"/><path class="c" d="M522.111,783.466a.408.408,0,0,1-.3-.678l3.286-3.722a.408.408,0,1,1,.611.54l-3.286,3.722A.409.409,0,0,1,522.111,783.466Z"/><path class="c" d="M525.4,783.466a.408.408,0,0,1-.3-.138l-3.286-3.722a.408.408,0,1,1,.611-.54l3.286,3.722a.407.407,0,0,1-.036.575A.4.4,0,0,1,525.4,783.466Z"/><path class="c" d="M530.726,783.466a.409.409,0,0,1-.306-.678l3.287-3.722a.408.408,0,1,1,.611.54l-3.287,3.722A.408.408,0,0,1,530.726,783.466Z"/><path class="c" d="M534.012,783.466a.405.405,0,0,1-.305-.138l-3.287-3.722a.408.408,0,1,1,.611-.54l3.287,3.722a.409.409,0,0,1-.306.678Z"/></g></svg>