<svg xmlns="http://www.w3.org/2000/svg" width="68.976" height="78.508" viewBox="0 0 68.976 78.508"><defs><style>.a{fill:#bc071c;}.b{fill:#fff;}</style></defs><g transform="translate(-5973.532 -1321.042)"><path class="a" d="M5995.372,1387.333c-5,0-9.765.029-14.529-.01-3.671-.03-6.388-2.107-7.124-5.4a10.135,10.135,0,0,1-.173-2.2q-.018-25.646-.011-51.289c0-4.458,2.889-7.379,7.35-7.386q18.59-.028,37.178,0c2.165,0,2.59.43,2.6,2.6.018,3.119,0,6.238,0,9.618h1.912c4.149,0,8.3-.012,12.449,0,4.591.012,7.464,2.851,7.467,7.435q.02,25.815,0,51.631a6.876,6.876,0,0,1-7.176,7.2q-18.759.038-37.519.007c-1.935,0-2.416-.486-2.426-2.425C5995.36,1393.941,5995.372,1390.764,5995.372,1387.333Zm3.6-50.588v59.336h1.487q17.137,0,34.275-.009c3.069,0,4.3-1.255,4.3-4.377q0-25.3,0-50.6c0-3.117-1.229-4.344-4.328-4.346q-9.464,0-18.928,0Zm12.561-11.905-.116-.323c-10.288,0-20.575-.023-30.862.018-2.251.009-3.537,1.51-3.539,3.92q-.018,25.646-.007,51.292c0,2.784,1.309,4.079,4.062,4.084q6.395.01,12.791-.012c.483,0,.966-.074,1.522-.12v-2.545c0-15.052.019-30.1-.032-45.157a3.081,3.081,0,0,1,1.84-3.09c4.345-2.349,8.638-4.8,12.948-7.213C6010.616,1325.428,6011.07,1325.126,6011.534,1324.84Zm5.6.937-13.073,7.347h13.073Z"/><path class="b" d="M5998.973,1336.745h16.806q9.465,0,18.928,0c3.1,0,4.327,1.229,4.328,4.346q.006,25.3,0,50.6c0,3.122-1.233,4.376-4.3,4.377q-17.137.009-34.275.009h-1.487Zm19.8,27.927c4.207,0,8.413.012,12.62-.006,1.813-.007,2.374-.537,2.382-2.319q.036-9.03.008-18.061c-.007-1.761-.6-2.323-2.4-2.326q-12.363-.023-24.727,0c-2.031,0-2.556.506-2.563,2.5q-.031,8.86,0,17.721c.006,1.984.536,2.483,2.568,2.489C6010.7,1364.682,6014.737,1364.673,6018.773,1364.672Zm.136,26.182h5.962c2.328,0,4.656.018,6.983-.021a1.669,1.669,0,0,0,1.877-1.756c-.01-1.176-.8-1.674-1.906-1.739-.17-.01-.341-.005-.511-.005q-12.349,0-24.7,0a2.673,2.673,0,0,0-1.472.248,2.155,2.155,0,0,0-.943,1.433,2.432,2.432,0,0,0,.973,1.586,3.022,3.022,0,0,0,1.642.242C6010.846,1390.863,6014.878,1390.855,6018.909,1390.854Zm-.154-17.492v.011c4.2,0,8.4-.008,12.6.005,1.262,0,2.376-.263,2.359-1.776-.016-1.381-1.034-1.722-2.252-1.721q-12.517.014-25.036,0c-1.213,0-2.24.32-2.271,1.7-.034,1.513,1.062,1.793,2.335,1.787C6010.581,1373.351,6014.668,1373.362,6018.755,1373.362Zm.177,5.283c-4.143,0-8.286.014-12.429-.009-1.278-.007-2.368.265-2.339,1.778.026,1.382,1.038,1.7,2.262,1.7q12.429-.019,24.859,0c1.246,0,2.4-.2,2.422-1.714.021-1.646-1.219-1.775-2.515-1.768C6027.1,1378.659,6023.019,1378.645,6018.932,1378.645Z"/><path class="b" d="M6011.534,1324.84c-.464.286-.918.588-1.393.854-4.31,2.416-8.6,4.864-12.948,7.213a3.081,3.081,0,0,0-1.84,3.09c.051,15.053.031,30.105.032,45.157v2.545c-.556.046-1.039.118-1.522.12q-6.4.018-12.791.012c-2.753-.005-4.061-1.3-4.062-4.084q-.01-25.645.007-51.292c0-2.41,1.288-3.911,3.539-3.92,10.287-.041,20.574-.018,30.862-.018Z"/><path class="b" d="M6017.131,1325.777v7.347h-13.073Z"/><path class="a" d="M6018.773,1364.672c-4.036,0-8.072.01-12.108,0-2.032-.006-2.562-.505-2.568-2.489q-.027-8.861,0-17.721c.007-1.995.532-2.5,2.563-2.5q12.363-.02,24.727,0c1.8,0,2.391.565,2.4,2.326q.033,9.03-.008,18.061c-.008,1.782-.569,2.312-2.382,2.319C6027.186,1364.684,6022.98,1364.672,6018.773,1364.672Zm11.413-19.118h-22.455v15.53h22.455Z"/><path class="a" d="M6018.909,1390.854c-4.031,0-8.063.009-12.094-.008a3.022,3.022,0,0,1-1.642-.242,2.432,2.432,0,0,1-.973-1.586,2.155,2.155,0,0,1,.943-1.433,2.673,2.673,0,0,1,1.472-.248q12.349-.016,24.7,0c.17,0,.341-.005.511.005,1.106.065,1.9.563,1.906,1.739a1.669,1.669,0,0,1-1.877,1.756c-2.327.039-4.655.019-6.983.021Z"/><path class="a" d="M6018.755,1373.362c-4.087,0-8.174-.011-12.262.007-1.273.006-2.369-.274-2.335-1.787.031-1.381,1.058-1.7,2.271-1.7q12.519.015,25.036,0c1.218,0,2.236.34,2.252,1.721.017,1.513-1.1,1.78-2.359,1.776-4.2-.013-8.4-.005-12.6-.005Z"/><path class="a" d="M6018.932,1378.645c4.087,0,8.173.014,12.26-.008,1.3-.007,2.536.122,2.515,1.768-.018,1.511-1.176,1.716-2.422,1.714q-12.429-.02-24.859,0c-1.224,0-2.236-.319-2.262-1.7-.029-1.513,1.061-1.785,2.339-1.778C6010.646,1378.659,6014.789,1378.645,6018.932,1378.645Z"/><path class="b" d="M6030.186,1345.554v15.53h-22.455v-15.53Z"/></g></svg>