<svg xmlns="http://www.w3.org/2000/svg" viewBox="0 0 403.83 208.02"><defs><style>.cls-1{isolation:isolate;}.cls-2{fill:#263238;}.cls-3{opacity:0.9;}.cls-4{fill:#213959;}.cls-5{fill:#fff;}.cls-6{fill:#ededed;}.cls-7{fill:#c6c6c6;}.cls-8{fill:#63c2d9;}.cls-9{fill:#1d1d1b;}.cls-10{fill:#362a2b;}.cls-11,.cls-12{fill:#e55d5b;}.cls-12{opacity:0.5;mix-blend-mode:multiply;}.cls-13{fill:#f6b55a;}.cls-14{fill:#16191e;}.cls-15{fill:#f26d5b;}.cls-16{fill:#e8505b;}</style></defs><title>scooty-moving</title><g class="cls-1"><g id="Layer_2" data-name="Layer 2"><g id="Layer_2-2" data-name="Layer 2"><path class="cls-2" d="M0,207.68c0,.09,90.41.16,201.91.16s201.92-.07,201.92-.16-90.39-.16-201.92-.16S0,207.59,0,207.68Z"/><g class="cls-3"><path class="cls-4" d="M103.78,181.83a11.79,11.79,0,1,0,11.81-11.76A11.78,11.78,0,0,0,103.78,181.83Z"/><path class="cls-4" d="M90.16,181.82a25.4,25.4,0,1,0,25.45-25.36A25.42,25.42,0,0,0,90.16,181.82Zm9.77,0a15.64,15.64,0,1,1,15.61,15.66A15.64,15.64,0,0,1,99.93,181.83Z"/><path class="cls-5" d="M100,181.83a15.59,15.59,0,1,0,15.61-15.56A15.58,15.58,0,0,0,100,181.83Zm1.69,0a13.9,13.9,0,1,1,13.87,13.93A13.89,13.89,0,0,1,101.67,181.83Z"/><path class="cls-6" d="M106,181.84a9.56,9.56,0,1,0,9.57-9.54A9.55,9.55,0,0,0,106,181.84Zm3.55,0a6,6,0,1,1,6,6A6,6,0,0,1,109.56,181.85Z"/><path class="cls-7" d="M109.56,181.85a6,6,0,1,0,6-6A6,6,0,0,0,109.56,181.85Zm3.71-2.29a.85.85,0,0,1-1.21,0,.85.85,0,0,1,0-1.21.86.86,0,0,1,1.21,0A.88.88,0,0,1,113.27,179.56Zm2.8-1.39a.5.5,0,0,1-.5.5.5.5,0,0,1,0-1A.5.5,0,0,1,116.07,178.17Zm3,1.4a.85.85,0,0,1-1.21,0,.85.85,0,0,1,0-1.21.86.86,0,1,1,1.21,1.22Zm.17,2.8a.51.51,0,0,1-.5-.51.5.5,0,0,1,.51-.49.49.49,0,0,1,.49.5A.5.5,0,0,1,119.25,182.37Zm-1.39,1.79a.86.86,0,1,1,0,1.22A.86.86,0,0,1,117.86,184.16Zm-2.8,1.39a.5.5,0,0,1,.5-.5.51.51,0,0,1,.5.5.5.5,0,0,1-.5.5A.5.5,0,0,1,115.06,185.55Zm-1.77-3.69a2.28,2.28,0,1,1,2.27,2.28A2.28,2.28,0,0,1,113.29,181.86Zm-1.24,2.29a.86.86,0,0,1,1.21,0,.88.88,0,0,1,0,1.22.86.86,0,0,1-1.21-1.22Zm-.68-2.3a.51.51,0,0,1,.51-.5.5.5,0,1,1-.51.5Z"/><path class="cls-8" d="M101.67,181.83A13.9,13.9,0,1,0,115.59,168,13.9,13.9,0,0,0,101.67,181.83Zm5.07-5.09a1.56,1.56,0,1,1-.67-1.9A1.44,1.44,0,0,1,106.74,176.74Zm8.84-4.44a9.56,9.56,0,1,1-9.57,9.54A9.57,9.57,0,0,1,115.58,172.3Zm-5.1.72a1.45,1.45,0,0,1-1.91-.68,1.33,1.33,0,1,1,1.91.68Zm6.42-2.9a1.33,1.33,0,1,1-1.31-1.54A1.44,1.44,0,0,1,116.9,170.12Zm5.69,2.24a1.33,1.33,0,1,1-.37-2A1.44,1.44,0,0,1,122.59,172.36Zm3.81,4.79a1.33,1.33,0,1,1,.67-1.91A1.43,1.43,0,0,1,126.4,177.15Zm.9,6a1.33,1.33,0,1,1,0-2.63,1.33,1.33,0,1,1,0,2.63ZM124.39,187a1.56,1.56,0,1,1,.67,1.91A1.44,1.44,0,0,1,124.39,187Zm-3.74,3.73a1.56,1.56,0,1,1-.37,2A1.45,1.45,0,0,1,120.65,190.7Zm-6.42,2.9a1.33,1.33,0,1,1,1.31,1.53A1.44,1.44,0,0,1,114.23,193.6Zm-5.69-2.24a1.33,1.33,0,1,1,.37,2A1.43,1.43,0,0,1,108.54,191.36Zm-3.8-4.79a1.33,1.33,0,1,1-.68,1.91A1.43,1.43,0,0,1,104.74,186.57Zm-2.45-4.74a1.55,1.55,0,1,1,1.54,1.32A1.43,1.43,0,0,1,102.29,181.83Z"/><rect class="cls-4" x="113.78" y="163.28" width="25.91" height="20.39"/><path class="cls-4" d="M123.48,181.86a7.92,7.92,0,1,1-7.92-7.91A7.92,7.92,0,0,1,123.48,181.86Z"/><path class="cls-9" d="M120.82,181.86a5.26,5.26,0,1,1-5.26-5.26A5.26,5.26,0,0,1,120.82,181.86Z"/><path class="cls-5" d="M117.51,181.86a2,2,0,1,1-2-2A1.95,1.95,0,0,1,117.51,181.86Z"/><path class="cls-10" d="M251.18,181.83A11.79,11.79,0,1,0,263,170.07,11.77,11.77,0,0,0,251.18,181.83Z"/><path class="cls-4" d="M237.56,181.82A25.4,25.4,0,1,0,263,156.46,25.42,25.42,0,0,0,237.56,181.82Zm9.77,0a15.64,15.64,0,1,1,15.61,15.66A15.64,15.64,0,0,1,247.33,181.83Z"/><path class="cls-5" d="M247.38,181.83A15.59,15.59,0,1,0,263,166.27,15.58,15.58,0,0,0,247.38,181.83Zm1.68,0a13.9,13.9,0,1,1,13.88,13.93A13.91,13.91,0,0,1,249.06,181.83Z"/><path class="cls-6" d="M253.41,181.84A9.55,9.55,0,1,0,263,172.3,9.55,9.55,0,0,0,253.41,181.84Zm3.55,0a6,6,0,1,1,6,6A6,6,0,0,1,257,181.85Z"/><path class="cls-5" d="M257,181.85a6,6,0,1,0,6-6A6,6,0,0,0,257,181.85Zm3.71-2.29a.87.87,0,0,1-1.22,0,.85.85,0,0,1,0-1.21.86.86,0,0,1,1.21,0A.88.88,0,0,1,260.67,179.56Zm2.8-1.39a.5.5,0,0,1-.5.5.5.5,0,0,1-.5-.5.5.5,0,1,1,1,0Zm3,1.4a.87.87,0,0,1-1.22,0,.85.85,0,0,1,0-1.21.86.86,0,1,1,1.21,1.22Zm.17,2.8a.5.5,0,1,1,0-1,.5.5,0,0,1,.5.5A.5.5,0,0,1,266.65,182.37Zm-1.39,1.79a.86.86,0,1,1,0,1.22A.86.86,0,0,1,265.26,184.16Zm-2.8,1.39a.5.5,0,0,1,.5-.5.5.5,0,1,1,0,1A.49.49,0,0,1,262.46,185.55Zm-1.78-3.69a2.29,2.29,0,0,1,2.29-2.28,2.28,2.28,0,1,1-2.29,2.28Zm-1.23,2.29a.86.86,0,0,1,1.21,0,.86.86,0,0,1-1.22,1.22A.87.87,0,0,1,259.45,184.15Zm-.68-2.3a.51.51,0,0,1,.5-.5.5.5,0,0,1,.5.5.5.5,0,0,1-.5.5A.5.5,0,0,1,258.77,181.85Z"/><path class="cls-8" d="M249.06,181.83A13.9,13.9,0,1,0,263,168,13.9,13.9,0,0,0,249.06,181.83Zm5.07-5.09a1.42,1.42,0,0,1-2,.37,1.33,1.33,0,1,1,1.31-2.27A1.42,1.42,0,0,1,254.13,176.74ZM263,172.3a9.56,9.56,0,1,1-9.57,9.54A9.56,9.56,0,0,1,263,172.3Zm-5.1.72a1.45,1.45,0,0,1-1.91-.68,1.33,1.33,0,1,1,2.28-1.31A1.45,1.45,0,0,1,257.88,173Zm6.41-2.9a1.33,1.33,0,1,1-1.31-1.54A1.44,1.44,0,0,1,264.29,170.12Zm5.7,2.24a1.44,1.44,0,0,1-1.91.67,1.42,1.42,0,0,1-.37-2,1.33,1.33,0,1,1,2.28,1.31Zm3.8,4.79a1.33,1.33,0,1,1,.68-1.91A1.44,1.44,0,0,1,273.79,177.15Zm.91,6a1.33,1.33,0,1,1,0-2.63,1.33,1.33,0,1,1,0,2.63ZM271.79,187a1.56,1.56,0,1,1,.67,1.91A1.44,1.44,0,0,1,271.79,187Zm-3.74,3.73a1.56,1.56,0,1,1-.37,2A1.44,1.44,0,0,1,268.05,190.7Zm-6.42,2.9a1.33,1.33,0,1,1,1.31,1.53A1.44,1.44,0,0,1,261.63,193.6Zm-5.69-2.24a1.33,1.33,0,1,1,.37,2A1.43,1.43,0,0,1,255.94,191.36Zm-3.8-4.79a1.33,1.33,0,1,1-.68,1.91A1.43,1.43,0,0,1,252.14,186.57Zm-2.45-4.74a1.55,1.55,0,1,1,1.53,1.32A1.42,1.42,0,0,1,249.69,181.83Z"/><rect class="cls-4" x="251.98" y="146.19" width="6.37" height="37.37" transform="translate(-45.51 121.43) rotate(-24.65)"/><path class="cls-11" d="M235.8,177.48a2.75,2.75,0,0,0,4.11.22c10.83-11.07,25-16.89,42.11-18.15a2.63,2.63,0,0,0,1.88-4.28c-7.89-9.39-19.81-14.14-35.26-14.81Z"/><path class="cls-12" d="M276,156.35a1.55,1.55,0,0,0,.85-2.7c-6.33-5.31-14.77-8.34-25.59-9.2l-1,2.73c10.23.73,18.32,3.64,24.5,8.82A1.52,1.52,0,0,0,276,156.35Z"/><path class="cls-4" d="M218.85,80.24a.64.64,0,0,1-.62-.47l-6.66-25.71a.64.64,0,0,1,.45-.78.65.65,0,0,1,.78.46l6.67,25.71a.64.64,0,0,1-.46.78Z"/><path class="cls-4" d="M207.64,54.54c0,4.52,1.63,8.18,3.68,8.18s3.74-3.66,3.75-8.18-1.62-8.18-3.68-8.18S207.66,50,207.64,54.54Z"/><path class="cls-4" d="M207,54.54c0,4.52,1.63,8.18,3.68,8.18s3.74-3.66,3.76-8.18-1.63-8.18-3.69-8.18S207,50,207,54.54Z"/><path class="cls-5" d="M210.66,62.08a1.56,1.56,0,0,1-1.08-.54c-1.2-1.21-2-4-2-7,0-4.44,1.66-7.54,3.11-7.54a1.58,1.58,0,0,1,1.09.54c1.2,1.21,2,4,2,7C213.76,59,212.12,62.08,210.66,62.08Z"/><path class="cls-5" d="M233.43,86.74c0,3.76-1.27,6.8-2.83,6.8s-2.84-3-2.84-6.8,1.27-6.8,2.84-6.8S233.43,83,233.43,86.74Z"/><rect class="cls-11" x="99.9" y="129.58" width="33.13" height="17.52"/><polygon class="cls-12" points="99.9 146.45 96.42 145.64 96.42 130.38 99.9 129.58 99.9 146.45"/><path class="cls-11" d="M252.15,124.33,225.49,87.57l-8.71,3.82,11.28,32.16a44.91,44.91,0,0,1-1.42,33.24l-5.29,11.75a6.38,6.38,0,0,1-5.82,3.76H183.86c-13.14,0-13.33-26.34,0-43.63l-62.29-5L100,145.87l1.69,24.2,33.76,15.25h85.73a17.59,17.59,0,0,0,14.64-7.84l16.91-25.4A24.34,24.34,0,0,0,252.15,124.33Z"/><path class="cls-12" d="M227.16,171.16l5.29-11.75a51,51,0,0,0,1.62-38l-7.6-21.66-1-12.21-8.71,3.82,11.28,32.16a44.91,44.91,0,0,1-1.42,33.24l-5.29,11.75a6.38,6.38,0,0,1-5.82,3.76H183.86c-13.14,0-13.33-26.34,0-43.63l-65.08-2.13-3.22,3.31L173,134.2c-5.93,12.28-7.33,26.45-2.85,35.55a15.15,15.15,0,0,0,11.21,8.73h36.29A12.78,12.78,0,0,0,227.16,171.16Z"/><path class="cls-12" d="M147.8,141.55l-42.23,8a15.87,15.87,0,0,0-5.84,2.38l1.94,18.16,44.21,11.46a14,14,0,0,0,16.91-12l1.54-12.47A14,14,0,0,0,147.8,141.55Z"/><path class="cls-4" d="M191.57,114.18H115.35a5.85,5.85,0,0,0-1,11.6l16.82,2.89h60.39Z"/><path class="cls-2" d="M213.8,77.67l1.07,7.27a11.18,11.18,0,0,0,1.17,5l1.78,4.44h12.6l1.06-2.17-.68-12.35-3.29-1.3Z"/><polygon class="cls-5" points="232.15 93.3 230.42 94.36 227.51 78.54 237.81 80.16 231.47 81.98 232.15 93.3"/><path class="cls-4" d="M208.81,54.54c0,4.52-1.66,8.18-3.71,8.18s-3.72-3.66-3.72-8.18,1.66-8.18,3.72-8.18S208.81,50,208.81,54.54Z"/><path class="cls-8" d="M209.47,54.54c0,4.52-1.66,8.18-3.72,8.18S202,59.06,202,54.54s1.66-8.18,3.71-8.18S209.47,50,209.47,54.54Z"/><path class="cls-4" d="M218.47,80.24a.63.63,0,0,1-.58-.37l-11.82-25.7a.65.65,0,0,1,.32-.85.64.64,0,0,1,.84.32l11.82,25.7a.65.65,0,0,1-.32.85A.58.58,0,0,1,218.47,80.24Z"/><path class="cls-4" d="M215.93,172.05a22.56,22.56,0,0,1-10,2.51l-3,0-7.56,0h-.73l-1,0-.17,0h-.23l-1,0-1.83.07h-.64a5.27,5.27,0,0,1-1-.12l-1.92-.38a.54.54,0,0,1-.37-.25,1,1,0,0,1-.06-.27c0-.1,0-.23,0-.37,0-.6,0-1.57.1-2.62,0-.33,0-.67.07-1s0-.49.06-.73a35.89,35.89,0,0,1,.45-3.89c.08-.32.51-1.1.83-2.16a7.69,7.69,0,0,0,.34-2.47,2.83,2.83,0,0,0,0-.41l2.83-.2,3.29-.22.31,0,3.54-.24a6.27,6.27,0,0,0,.7,1.31,11.86,11.86,0,0,0,4,3.08,2.83,2.83,0,0,0,.55.24c1.14.41,3,.64,4.8,1.12l1.29.34c2.37.59,4.33,1,5.36,1.92,1,.67,1,2.14,1.26,3.91A.7.7,0,0,1,215.93,172.05Z"/><path class="cls-11" d="M207.43,110.7a1.52,1.52,0,0,1,0,.25c-.1,1-.47,4.56-1,9.63-1,10.51-2.54,30.93-3.13,44.15l-6.77,2L192.14,168l-5.67,1.69c-2.42-14-1-40.28.51-50.2.06-.44.14-.87.19-1.28.2-1.24.4-2.4.59-3.44.06-.33.12-.67.18-1,.65-3.3,1.14-5.32,1.2-5.54a8.63,8.63,0,0,1,1.75-3.61,8.92,8.92,0,0,1,1.83-1.75,9.09,9.09,0,0,1,4.63-1.71,8.47,8.47,0,0,1,1.59,0l.18,0a9,9,0,0,1,6.09,3.12,9.28,9.28,0,0,1,1.73,3,3.33,3.33,0,0,1,.13.45A8.58,8.58,0,0,1,207.43,110.7Z"/><path class="cls-11" d="M207.71,108.06a9.32,9.32,0,0,1-.29,2.89,10.33,10.33,0,0,1-4.61,6,12.06,12.06,0,0,1-7.15,1.72c-.07,0-1.73-.09-4.38-.21-.83,0-1.72-.09-2.72-.12l-1.38-.07L182,118c-2.22-.12-4.55-.21-6.88-.32a2.08,2.08,0,0,1-.43,0c-1.8-.05-3.57-.13-5.3-.21l-.5,0c-5.24-.24-10-.44-12.72-.58-1.47-.08-2.37-.16-2.47-.17A15.79,15.79,0,0,1,148,115a7.88,7.88,0,0,1-1.34-.86,10.29,10.29,0,0,1-3.56-4.83,18.63,18.63,0,0,1-.7-8.86,34.69,34.69,0,0,1,1.25-5.65,18.46,18.46,0,0,1,2.15-5.19l.14,0L156,93l6.41,2.12c.33,0,.65,0,1,.09l10.47.85,2.87.23c2.27.18,4.3.34,6.09.5l10,.79c6.35.51,5.4.45,6.3.68a11.9,11.9,0,0,1,6.24,3.84,10.26,10.26,0,0,1,.91,1.28,9.7,9.7,0,0,1,.51.95,9.5,9.5,0,0,1,.83,2.7c0,.17,0,.34.08.51S207.7,107.9,207.71,108.06Z"/><path class="cls-12" d="M191.29,118.44c.07-1.43.17-2.85.28-4.26l-3.63-.36-27.24-2.66c-4.6-.43-9.46-1-13.16-3.74a17,17,0,0,1-5.17-6.93,18.76,18.76,0,0,0,.71,8.86,10.14,10.14,0,0,0,3.5,4.79,10.69,10.69,0,0,0,1.4.9,15.85,15.85,0,0,0,5.72,1.67l2.47.16c2.76.14,7.48.35,12.72.58l.49,0c1.73.07,3.51.16,5.3.21a3.17,3.17,0,0,0,.43,0l6.9.31c1.82.09,3.58.16,5.16.22,0,.41-.14.84-.2,1.28-1.53,9.92-2.92,36.16-.5,50.18,0,0,5.68-1.67,5.68-1.67l4.37-1.29C191.52,152.64,190.46,133.59,191.29,118.44Z"/><path class="cls-13" d="M165.74,38.62a10.91,10.91,0,0,0,6.41,1l2.16-17.45c-1.12-.11-7.22-1.83-11.75-3.19L159.7,30.26l-.41,1.57a.65.65,0,0,0-.16.13C158.05,32.87,163,37.44,165.74,38.62Z"/><path class="cls-13" d="M180.24,12.4a18.62,18.62,0,0,1,.54,2.56,13.56,13.56,0,0,1-.45,1.61l.38.64,1.68,2.88a1.41,1.41,0,0,1-.8,2l-.27.11-.93.38c0,.07,0,.18,0,.33.08.46.2,1.26.35,2.08s.35,2,.45,2.63c.08.4.12.65.12.65a7.11,7.11,0,0,1-.59,3.45A3.38,3.38,0,0,1,178,33.78l-2.79.22h-.34c-3.37-.2-8.42-3.46-9-8.78,0-.12,0-.27-.05-.4h-.19a6,6,0,0,0-.76.11c-2,.51-4.39,2.18-4.75.43-.46-2.2-3.26-5.19-3.82-8.08-.52-6.48,1.2-9.79,3.68-11.52l.51-.34c2.43-1.45,5.41-1.63,7.68-1.88a11.08,11.08,0,0,1,10.33,4.91A14.85,14.85,0,0,1,180.24,12.4Z"/><path class="cls-14" d="M160.67,28.32c9,.91,2.91-8.56,2.91-8.56s2.08-.22,2.89.58c1.12,0,1.8-.12,2.72-.14C168.44,9.11,166,7.27,178.44,8.45c2.08-2.76,1.18-7.61-11.81-6.32-6.51.65-11.74,5.06-11.57,11.59C155.16,17.53,155,19.67,160.67,28.32Z"/><path class="cls-13" d="M162.2,20.78c.23,2,2.22,4.18,3.55,4s1-1.79.78-3.82c-.15-1.35,0-3.3-1.54-3.56C163.67,17.21,161.85,17.8,162.2,20.78Z"/><path class="cls-2" d="M177.85,75.42a89.36,89.36,0,0,1-4,20.67l-.06.16a54.44,54.44,0,0,1-16.67,2,38.28,38.28,0,0,1-5.92-.8,36.42,36.42,0,0,1-7.54-2.5c-.14-1.35-.1-1.49-.25-3.09.06-.82.17-1.6.23-2.42,2.25-24.27-1.48-51.29,15.67-57.52a31.43,31.43,0,0,0,7.31,5.51c2.34,1.33,4.51,2.21,5.53,2.19a19.14,19.14,0,0,1,1.25,2.07,36.87,36.87,0,0,1,4.57,15A106.11,106.11,0,0,1,177.85,75.42Z"/><path class="cls-12" d="M192.78,97.6c-9.48,4.14-21.86,3.55-35.68.6a54.44,54.44,0,0,0,16.67-2l.06-.16c1,.06,1.95.14,2.87.22l6.08.5Z"/><path class="cls-12" d="M177.85,75.42a89.36,89.36,0,0,1-4,20.67l-.06.16a54.44,54.44,0,0,1-16.67,2s6.27-3,6.27-3L170.1,92c-2-11.8-8.58-26-16.4-41Z"/><path class="cls-2" d="M180.82,33.31c-1.21,1.55-3.59,1.48-5.56,1.36a13.07,13.07,0,0,1-5.36-1.19,8.94,8.94,0,0,1-4.41-7.1,14.91,14.91,0,0,1,2-8.35c.95,1.51,2.91,2,4.25,3.19a10.63,10.63,0,0,1,2.62,4.71c.26.73.28,1.43,1,1.59a1.26,1.26,0,0,0,1.39-1.13,3.92,3.92,0,0,1,3.6-3.84C180.81,22.55,182.63,31,180.82,33.31Z"/><path class="cls-13" d="M205.55,73.17s-.82,5.71-.82,5.65-28.72-.53-29.38-.69c-2.72-.67-3-1.4-4.55-3.37-1.05-1.29,7.85-6.85,9.27-9.08C184.43,66.06,205.55,73.17,205.55,73.17Z"/><path class="cls-2" d="M180.07,65.68l-16.35-22.3a6.93,6.93,0,0,0-9.63-1.62l-.11.08a6.86,6.86,0,0,0-1.74,9.57l.74,1.08L170.8,74.76Z"/><path class="cls-13" d="M216.61,74a5.55,5.55,0,0,1,1.84,2.19,20.42,20.42,0,0,1,2,5.67c.57,2.46-5.46,3.22-5.85,2.9a1.26,1.26,0,0,1-.45-1.33c.37-1.1,2.34-1,2.54-2.17a1.66,1.66,0,0,0-.33-1.12c-.54-.89-1.44-1.78-2.47-1.59a4.5,4.5,0,0,0-1.76,1.17c-1.45,1.14-4.42.89-6-.12s-5-4-4.56-5.78c.22-.8,4.69-.47,5.52-.48C212,73.27,215.66,73.57,216.61,74Z"/><path class="cls-4" d="M216.56,79.54a3,3,0,1,1-3.87-1.65A3,3,0,0,1,216.56,79.54Z"/><path class="cls-15" d="M173.18,13.6h8.26a1.73,1.73,0,0,0,1.63-2.15c-1.5-8.74-9-12-16.8-11.38a16.46,16.46,0,0,0-15.06,15.78,16.26,16.26,0,0,0,6.67,13.62,4.25,4.25,0,0,0,2.49.83h2.24a6.83,6.83,0,0,0,6.83-6.83V17.35A3.75,3.75,0,0,1,173.18,13.6Z"/><path class="cls-11" d="M160.37,28.78a2.64,2.64,0,0,1-1.59-.53,14.78,14.78,0,0,1,7.6-26.67c.56,0,1.11-.06,1.66-.06,3.54,0,12,1,13.54,10.19a.44.44,0,0,1-.07.35l-8.33,0a5.27,5.27,0,0,0-5.26,5.26v6.12a5.31,5.31,0,0,1-5.31,5.31Z"/><path class="cls-2" d="M173.2,12.09a5.27,5.27,0,0,0-5.26,5.26v6.12a5.31,5.31,0,0,1-5.31,5.31h-5.56c.27.23.54.48.83.69a4.23,4.23,0,0,0,2.49.83h2.24a6.83,6.83,0,0,0,6.83-6.83V17.35a3.75,3.75,0,0,1,3.74-3.75h8.26a1.7,1.7,0,0,0,1.69-1.51Z"/><path class="cls-2" d="M181.19,13.6V18l-.28.56a1.83,1.83,0,0,1-1,1,1.8,1.8,0,0,1-.73.15c-2.53,0-3-2.57-3.06-5.09a1,1,0,0,1,1-1Z"/><path class="cls-5" d="M181.19,13.6V18l-.28.56a1.83,1.83,0,0,1-1,1c-1.73-.56-2.08-2.76-2.12-4.94a1,1,0,0,1,1-1Z"/><path class="cls-4" d="M179.87,19.08c-1.09-.46-1.6-1.84-1.66-4.45a.56.56,0,0,1,.16-.41.49.49,0,0,1,.37-.16h2v3.87l-.23.47A1.44,1.44,0,0,1,179.87,19.08Z"/><rect class="cls-2" x="169.13" y="14.98" width="7.78" height="1.68"/><path class="cls-4" d="M268.12,181.86A5.16,5.16,0,1,1,263,176.7,5.15,5.15,0,0,1,268.12,181.86Z"/><path class="cls-5" d="M265.2,181.86a2.24,2.24,0,1,1-2.24-2.23A2.24,2.24,0,0,1,265.2,181.86Z"/><path class="cls-11" d="M92.87,164.57l49.59,10.77a14,14,0,0,0,16.91-12l1.54-12.47a14,14,0,0,0-16.53-15.51l-42.24,8a15.87,15.87,0,0,0-12.93,15.6V160A4.65,4.65,0,0,0,92.87,164.57Z"/><path class="cls-5" d="M100.54,150l46.62-8a12.89,12.89,0,0,1,2.14-.19,12,12,0,0,1,6.2,1.74,10.19,10.19,0,0,0-8.47-4.6,10.53,10.53,0,0,0-1.94.18l-42.24,8A12,12,0,0,0,95.2,152,14,14,0,0,1,100.54,150Z"/></g><path class="cls-16" d="M344,175.87a6,6,0,0,1,3.17,3.48,10.73,10.73,0,0,1,.49,4.78,18.81,18.81,0,0,1-3.88,8.78c-2.65-2.25-3.31-6.21-3.52-8.25-.33-3.21,1-9.22,3.74-8.79"/><path class="cls-16" d="M346.88,198a5.15,5.15,0,0,1,1.58-4.91,6.81,6.81,0,0,1,5-1.64,2.89,2.89,0,0,1,2.22.95,2.2,2.2,0,0,1,.07,2.23,4.47,4.47,0,0,1-1.62,1.64c-2.24,1.46-4.68,2.45-7.25,1.73"/><path class="cls-2" d="M343.68,207.54a3.73,3.73,0,0,1,.08-.64c.08-.45.17-1,.29-1.72a18.31,18.31,0,0,1,1.69-5.54,11,11,0,0,1,3.89-4.25,7.06,7.06,0,0,1,1.6-.74,4.47,4.47,0,0,1,.46-.13l.16,0a12.14,12.14,0,0,0-2.14,1,11.45,11.45,0,0,0-3.77,4.23,19.45,19.45,0,0,0-1.73,5.45c-.15.73-.27,1.32-.36,1.72A3.74,3.74,0,0,1,343.68,207.54Z"/><path class="cls-2" d="M343.35,180.54s0,.1,0,.28,0,.47.06.8c.05.69.1,1.7.17,2.94.11,2.48.23,5.92.27,9.72s0,7.23-.06,9.72c0,1.24-.06,2.24-.09,2.94,0,.33,0,.59,0,.8l0,.28a.9.9,0,0,1,0-.28v-.8c0-.73,0-1.73,0-2.95,0-2.48,0-5.92,0-9.71s-.14-7.23-.22-9.71c0-1.22-.06-2.22-.09-2.95,0-.32,0-.59,0-.8S343.35,180.54,343.35,180.54Z"/><path class="cls-16" d="M342.39,199.94a12,12,0,0,0-6.69-8.69c-.88-.41-2-.66-2.73,0s-.53,1.83-.16,2.73a10.25,10.25,0,0,0,9.52,6.21"/><path class="cls-2" d="M336.17,194.18a3.45,3.45,0,0,1,.56.24,6.28,6.28,0,0,1,.63.32c.24.15.52.28.81.49s.6.41.92.67a10.94,10.94,0,0,1,1,.87,12.5,12.5,0,0,1,1.88,2.34,13,13,0,0,1,1.26,2.73,10,10,0,0,1,.33,1.27,10.36,10.36,0,0,1,.17,1.13,6.49,6.49,0,0,1,.06.94,4,4,0,0,1,0,.71,2.41,2.41,0,0,1-.06.6c-.05,0,0-.86-.15-2.23a8.33,8.33,0,0,0-.19-1.11c-.08-.4-.21-.81-.34-1.25a13.92,13.92,0,0,0-1.26-2.67,13.73,13.73,0,0,0-1.84-2.31,10.72,10.72,0,0,0-.95-.87c-.31-.27-.62-.49-.9-.69C336.94,194.57,336.15,194.23,336.17,194.18Z"/></g></g></g></svg>