<svg xmlns="http://www.w3.org/2000/svg" viewBox="0 0 413.29 230.48"><defs><style>.cls-1,.cls-3{opacity:0.75;}.cls-2,.cls-3{fill:#bbbdc0;}.cls-4{fill:#e0e0e0;}.cls-5{fill:#ebebeb;}.cls-6{fill:#f5f5f5;}.cls-7{fill:#263238;}.cls-8{fill:#e8505b;}.cls-9{opacity:0.5;}.cls-10{fill:#fafafa;}.cls-11{opacity:0.4;}.cls-12{fill:#fff;}.cls-13{fill:#455a64;}.cls-14{fill:#d42028;}.cls-15{opacity:0.2;}.cls-16{fill:#b78876;}.cls-17{fill:#aa6550;}.cls-18{opacity:0.3;}</style></defs><title>standing-car</title><g id="Layer_2" data-name="Layer 2"><g id="Layer_2-2" data-name="Layer 2"><g class="cls-1"><path class="cls-2" d="M19.25,70.33a8.17,8.17,0,0,0-2.1,6.06,14.44,14.44,0,0,0,2,6.23c2,3.73,5.89,6.76,9.56,8.89,2.11-4.22.81-9.54,0-12.19-1.31-4.2-6.23-11-9.39-9"/></g><path class="cls-3" d="M27.49,99.53a7,7,0,0,0-4.61-5.28,9.26,9.26,0,0,0-7.14.63,3.85,3.85,0,0,0-2.26,2.38,3,3,0,0,0,1.11,2.82,6.05,6.05,0,0,0,2.91,1.19c3.58.61,7.16.55,10-1.74"/><path class="cls-4" d="M36.63,109.78a4.93,4.93,0,0,0-.45-.76l-1.29-2a24.29,24.29,0,0,0-5.09-6,14.83,14.83,0,0,0-7.14-3.24,10.11,10.11,0,0,0-2.4-.07,4.58,4.58,0,0,0-.64.1c-.15,0-.22,0-.22,0a15.27,15.27,0,0,1,3.23.13,15.51,15.51,0,0,1,7,3.27,26,26,0,0,1,5.1,5.89l1.37,2A4.58,4.58,0,0,0,36.63,109.78Z"/><path class="cls-4" d="M22.53,75.84a2.1,2.1,0,0,0,.11.37c.09.26.21.6.35,1,.31.9.78,2.19,1.38,3.77,1.18,3.17,2.88,7.53,4.86,12.3s3.88,9,5.3,12.12c.7,1.54,1.29,2.78,1.7,3.63l.48,1a1.87,1.87,0,0,0,.19.33,2.89,2.89,0,0,0-.13-.36l-.43-1c-.4-.9-.94-2.14-1.61-3.67-1.37-3.09-3.23-7.38-5.21-12.15s-3.71-9.11-4.95-12.26L23.1,77.19l-.4-1A1.35,1.35,0,0,0,22.53,75.84Z"/><path class="cls-3" d="M34.16,99.57a16.29,16.29,0,0,1,3.7-14.45c.88-1,2.17-1.92,3.41-1.47s1.65,2,1.67,3.32a14,14,0,0,1-8.58,12.89"/><path class="cls-4" d="M38.85,89a4.67,4.67,0,0,0-.58.59,8.07,8.07,0,0,0-.61.75,11.36,11.36,0,0,0-.75,1c-.25.4-.54.83-.79,1.33a16.31,16.31,0,0,0-.77,1.62,18.4,18.4,0,0,0-1.09,3.94,17.68,17.68,0,0,0-.11,4.08,14.66,14.66,0,0,0,.27,1.77,13.23,13.23,0,0,0,.39,1.51,11.61,11.61,0,0,0,.43,1.2,5.75,5.75,0,0,0,.4.88,3.85,3.85,0,0,0,.39.73c.06,0-.49-1.07-1-2.88a15,15,0,0,1-.35-1.49,17,17,0,0,1-.24-1.74,18.37,18.37,0,0,1,.13-4,18.77,18.77,0,0,1,1.06-3.88,17,17,0,0,1,.72-1.6c.24-.5.52-.93.75-1.33C38.09,89.94,38.9,89.08,38.85,89Z"/><path class="cls-5" d="M277.87,43.28s4,2.55-2.67,10.86a121.3,121.3,0,0,1-10.95,12.23s-1.29,2,.46,2.7,5.88.92,6.23,3.32-1.78,4.31-5.58,5.5-12,4.14-12.77,4.4-1.58,1.14-.47,1.82,9.92,3.5,8.33,7.6-12.72,5.7-13.94,5.9-1.58.61-1.62,1.25,3,1.31,5.49,2.21,5.18,2.4,4.07,4.68-8.31,6.09-23.49,4.43L224,109l-2.55-6.65c-4.59-14.57-2.27-22.36-.24-23.9s4,.82,5.38,3.07,2.63,5.11,3.24,5,1-.6.92-1.83-.65-12.46,3.06-14.82,8.21,5.73,9.09,6.69,1.57-.06,1.68-.82,1.39-9.42,1.82-13.38,1.81-6.41,4.32-6.54,3.42,3.89,4.46,5.46,2.74-.08,2.74-.08A122.7,122.7,0,0,1,267.75,48c6.85-8.19,10.2-4.63,10.2-4.63"/><path class="cls-4" d="M223.27,110.51c5-6,13.72-16.91,21.25-26.21s14.35-17.7,19.32-23.76l5.9-7.17,1.6-1.95.41-.51a1.16,1.16,0,0,0,.14-.18l-.15.17-.43.49-1.64,1.93c-1.41,1.67-3.45,4.11-5.95,7.12-5,6-11.85,14.43-19.37,23.72s-16.23,20.19-21.2,26.25"/><path class="cls-4" d="M265.13,72.34a2.18,2.18,0,0,0-.51,0c-.32,0-.8.1-1.38.19-1.17.16-2.77.44-4.54.78l-4.51.88-1.37.26a3,3,0,0,0-.5.11,1.65,1.65,0,0,0,.51,0c.33,0,.8-.1,1.38-.19,1.17-.18,2.77-.48,4.54-.81l4.52-.85,1.37-.25A1.64,1.64,0,0,0,265.13,72.34Z"/><path class="cls-4" d="M251.94,74.05c.06,0-.37-3.34-.95-7.44s-1.11-7.42-1.17-7.42.37,3.34,1,7.45S251.88,74.06,251.94,74.05Z"/><path class="cls-4" d="M241,88.85a3.25,3.25,0,0,0-.19-.49c-.16-.35-.36-.78-.59-1.3-.49-1.09-1.17-2.61-1.85-4.31s-1.26-3.26-1.66-4.39L236.25,77a2.62,2.62,0,0,0-.2-.48,3.19,3.19,0,0,0,.12.51c.09.32.23.79.41,1.36.37,1.15.91,2.72,1.6,4.43s1.39,3.21,1.92,4.29c.27.54.49,1,.65,1.27A3.5,3.5,0,0,0,241,88.85Z"/><path class="cls-4" d="M253.3,89.93a1.66,1.66,0,0,0-.48-.09l-1.3-.17c-1.11-.13-2.63-.3-4.32-.47s-3.21-.31-4.32-.4l-1.31-.1a1.56,1.56,0,0,0-.49,0l.48.09,1.3.16c1.11.13,2.63.3,4.32.47s3.21.31,4.32.4l1.31.1A2.63,2.63,0,0,0,253.3,89.93Z"/><path class="cls-4" d="M245.32,104.22a2.79,2.79,0,0,0-.61-.12l-1.67-.22-5.53-.64c-2.16-.24-4.12-.44-5.53-.58l-1.68-.15a2.66,2.66,0,0,0-.62,0,4.49,4.49,0,0,0,.61.11l1.67.22,5.53.64c2.16.24,4.11.44,5.53.58l1.68.15A4.77,4.77,0,0,0,245.32,104.22Z"/><path class="cls-4" d="M230.06,102.42a2.63,2.63,0,0,0-.22-.62l-.69-1.67c-.57-1.41-1.36-3.37-2.17-5.55s-1.5-4.17-2-5.61q-.35-1.05-.57-1.71a3.48,3.48,0,0,0-.24-.63,3.81,3.81,0,0,0,.16.65c.11.41.28,1,.51,1.74.44,1.45,1.11,3.46,1.92,5.64s1.62,4.13,2.24,5.53c.31.69.56,1.26.75,1.64A3.73,3.73,0,0,0,230.06,102.42Z"/><path class="cls-6" d="M214.55,104.08C230,96.3,235.8,78.57,237.61,62.14c.31-2.74,1-5.57.07-8.16s-3.75-4.65-6.36-3.86c-2.16.66-3.38,2.89-4.8,4.68A16.07,16.07,0,0,1,219.23,60c-1.86.65-4.09.89-5.67-.3-2.17-1.64-2-4.94-1.57-7.65q1.15-7.57,2.29-15.16a25.6,25.6,0,0,0,.35-8.18c-.47-2.7-2-5.36-4.47-6.46s-5.89-.07-6.82,2.51a26.62,26.62,0,0,0-.56,3.37,2.9,2.9,0,0,1-2.06,2.44c-1.13.16-2.11-.76-2.8-1.68-2.41-3.14-3.8-6.94-5.07-10.71s-2.47-7.62-4.58-11S183,1,179.13.18s-8.35,1-9.88,4.69.13,7.89,2.11,11.34a61.18,61.18,0,0,0,10.88,13.85A5,5,0,0,1,184,32.64c.33,1.89-1.64,3.44-3.52,3.78-2.12.38-4.28-.15-6.44-.2s-4.58.54-5.67,2.42c-1.51,2.62.39,5.86,2.4,8.1a52.56,52.56,0,0,0,14.08,11.09c1.89,1,3.9,2,5.31,3.6s2,4.21.78,6-3.84,2-5.88,1.34-3.74-2.1-5.62-3.14c-3.53-2-8.39-2.39-11.24.49a8.68,8.68,0,0,0-2,7.47,19.82,19.82,0,0,0,3.14,7.3,52.84,52.84,0,0,0,20,18.89c8.22,4.25,16.13,6.22,25.18,4.32"/><path class="cls-4" d="M211.81,93.22a245.88,245.88,0,0,0-5.87-27.59c-.64-2.41-1.28-4.8-1.91-7.15s-1.26-4.67-2-6.91A122.67,122.67,0,0,0,197,39c-1.81-3.93-3.66-7.6-5.43-11s-3.47-6.56-5.15-9.37A98.71,98.71,0,0,0,177.46,6c-1.16-1.4-2.1-2.46-2.75-3.17L174,2a2.33,2.33,0,0,0-.26-.26,2.59,2.59,0,0,0,.22.29l.71.84c.62.73,1.53,1.81,2.67,3.23a103.71,103.71,0,0,1,8.75,12.69c1.66,2.81,3.34,6,5.09,9.37s3.59,7.09,5.38,11a123.72,123.72,0,0,1,5,12.57c.75,2.23,1.37,4.53,2,6.89s1.26,4.73,1.9,7.14a249.11,249.11,0,0,1,5.9,27.53"/><path class="cls-4" d="M201.88,51.53a6.18,6.18,0,0,0,.43-1.12c.25-.73.58-1.8,1-3.12C204.05,44.64,205,41,206,36.88s2-7.75,2.84-10.38c.4-1.31.73-2.37,1-3.11a5.46,5.46,0,0,0,.32-1.15,5.34,5.34,0,0,0-.51,1.09c-.3.71-.69,1.76-1.13,3.06-.91,2.61-2,6.28-3,10.36s-1.9,7.66-2.6,10.45l-.81,3.16A4.69,4.69,0,0,0,201.88,51.53Z"/><path class="cls-4" d="M167.92,40a6.46,6.46,0,0,0,1.37.37c.88.21,2.16.51,3.73.92,3.15.81,7.46,2.08,12.15,3.68S194,48.19,197,49.47c1.5.62,2.7,1.16,3.53,1.53a7.55,7.55,0,0,0,1.32.53,8.16,8.16,0,0,0-1.23-.71c-.81-.42-2-1-3.48-1.69-3-1.36-7.13-3.06-11.84-4.68a124.16,124.16,0,0,0-12.22-3.55c-1.59-.37-2.88-.61-3.78-.77A8.36,8.36,0,0,0,167.92,40Z"/><path class="cls-4" d="M211.47,92.51s.12-.12.31-.39l.77-1.18c.68-1,1.61-2.53,2.74-4.41,2.26-3.75,5.22-9,8.41-14.91s6.1-11.18,8.28-15l2.6-4.49.7-1.23c.15-.28.23-.43.21-.44s-.12.12-.3.39-.47.7-.78,1.18c-.67,1-1.61,2.53-2.74,4.4-2.26,3.76-5.22,9-8.41,14.92s-6.1,11.18-8.28,15c-1.06,1.85-1.94,3.36-2.59,4.49l-.7,1.22A2.15,2.15,0,0,0,211.47,92.51Z"/><path class="cls-4" d="M167.26,70.86s.14.1.43.26l1.28.64,4.74,2.33c4,2,9.48,4.74,15.54,7.82s11.58,5.81,15.62,7.7c2,.94,3.66,1.69,4.81,2.18l1.32.56a1.74,1.74,0,0,0,.47.16,2.36,2.36,0,0,0-.43-.26l-1.28-.64L205,89.28c-4-2-9.49-4.74-15.55-7.82s-11.58-5.81-15.62-7.7c-2-.94-3.66-1.69-4.81-2.18L167.73,71A1.62,1.62,0,0,0,167.26,70.86Z"/><path class="cls-7" d="M5.08,230.32c0,.09,90.41.16,201.91.16s201.92-.07,201.92-.16-90.39-.15-201.92-.15S5.08,230.24,5.08,230.32Z"/><rect class="cls-8" x="24.91" y="148.97" width="334.44" height="49.07" transform="translate(384.26 347) rotate(180)"/><g class="cls-9"><rect x="24.91" y="148.97" width="334.44" height="49.07" transform="translate(384.26 347) rotate(180)"/></g><path class="cls-7" d="M346.66,197.25A32.25,32.25,0,1,1,314,165.47,32.25,32.25,0,0,1,346.66,197.25Z"/><path class="cls-7" d="M346.65,197.16s0,.06,0,.09a32.25,32.25,0,0,1-64.49.93v-.09Z"/><path class="cls-10" d="M337.05,197.38a22.64,22.64,0,1,1-23-22.31A22.64,22.64,0,0,1,337.05,197.38Z"/><path class="cls-4" d="M314.09,175.07a22.64,22.64,0,0,1,23,22.31l-45.27.66A22.63,22.63,0,0,1,314.09,175.07Z"/><path class="cls-7" d="M328.2,197.51a13.79,13.79,0,1,1-14-13.59A13.79,13.79,0,0,1,328.2,197.51Z"/><path class="cls-7" d="M100.05,197.25a32.25,32.25,0,1,1-32.71-31.78A32.25,32.25,0,0,1,100.05,197.25Z"/><path class="cls-7" d="M100.05,197.16v.09a32.25,32.25,0,1,1-64.49.93v-.09Z"/><path class="cls-10" d="M90.45,197.38a22.64,22.64,0,1,1-23-22.31A22.64,22.64,0,0,1,90.45,197.38Z"/><path class="cls-4" d="M67.48,175.07a22.65,22.65,0,0,1,23,22.31L45.17,198A22.65,22.65,0,0,1,67.48,175.07Z"/><path class="cls-7" d="M81.6,197.51a13.79,13.79,0,1,1-14-13.59A13.79,13.79,0,0,1,81.6,197.51Z"/><path class="cls-8" d="M272.14,121.36s47.49,3.5,65.09,7.45c12.4,2.78,36.32,7.58,36,22.63l-1.9,10.79s8.88,4.05,8.88,14.39,2.16,26.38-18.55,27c-3.41.11-9.9,0-9.9,0s4-44.1-36.54-45.4c-41.23-1.31-38.49,45-38.49,45h-172s7.06-45.12-37.32-45.18-37.63,45.48-37.63,45.48S13.45,205,5.85,191.23.23,167.74.23,167.74l.25-8.67a5.63,5.63,0,0,1,5.4-5.45h0s-3-21.83,1.58-25.62S37,101.43,37,101.43l-1.18-.75a2.79,2.79,0,0,1,.57-5c9.47-3.26,28.19-9.7,32.6-11.24A7.89,7.89,0,0,1,71,84c2.63-.2,10.07-.68,23.72-.82,16.63-.18,82.66,0,82.66,0s22.73,1.87,35.39,7.44C226.06,96.48,272.14,121.36,272.14,121.36Z"/><g class="cls-11"><path d="M368.21,175.43c1.72-.35,4.36-.39,5.67.78a5.43,5.43,0,0,1,1.38,3.57,15,15,0,0,1-.12,5.34,6.51,6.51,0,0,1-3,4.26,4.2,4.2,0,0,1-5-.59c-1.12-1.2-1.25-3-1.22-4.63a37.06,37.06,0,0,1,.29-6.58,3.2,3.2,0,0,1,.59-1.33,1.78,1.78,0,0,1,1.38-.82"/></g><path class="cls-10" d="M371.37,162.23c-5,0-9.93-.28-15-.61a1.85,1.85,0,0,1-2.06-2.3c0-2.71.11-5.78,2.16-7.54a8.11,8.11,0,0,1,4.61-1.56,29.89,29.89,0,0,1,12.15,1.22Z"/><path class="cls-12" d="M266.69,201.86s0-.14,0-.43,0-.71.08-1.26c.06-1.13.15-2.76.27-4.87s.26-4.7.56-7.68a60,60,0,0,1,1.78-10,45.64,45.64,0,0,1,4.85-11.31,35.5,35.5,0,0,1,9.38-10.46c8.14-5.79,19.13-9.06,30.62-9.2s22.47,3.51,30.4,9.58a44.29,44.29,0,0,1,9.87,10.07,47.07,47.07,0,0,1,5.78,10.86,44.55,44.55,0,0,1,2.44,9.87,42,42,0,0,1,.3,7.68,37.41,37.41,0,0,1-.6,4.82c-.09.55-.17,1-.22,1.25s-.07.43-.07.43,0-.14.1-.42l.26-1.24a37.67,37.67,0,0,0,.65-4.83,41,41,0,0,0-.25-7.71,44,44,0,0,0-2.4-9.92,47.86,47.86,0,0,0-5.77-10.94A44.83,44.83,0,0,0,344.85,156c-8-6.12-19-9.79-30.58-9.65s-22.59,3.43-30.79,9.28a35.74,35.74,0,0,0-9.43,10.56,45.46,45.46,0,0,0-4.85,11.38,60.38,60.38,0,0,0-1.74,10.07c-.28,3-.41,5.58-.5,7.69s-.16,3.75-.21,4.87c0,.55,0,1-.05,1.27S266.69,201.86,266.69,201.86Z"/><path class="cls-7" d="M264.86,202.61s0-.12,0-.36,0-.6,0-1.07c0-1,.07-2.35.13-4.17.1-3.65.26-9,.45-15.8s.41-15.07.67-24.54c.07-2.37.13-4.81.2-7.32a26,26,0,0,0-.16-3.83c-.1-.64-.19-1.29-.28-1.94s-.27-1.3-.4-2a39.32,39.32,0,0,0-2.68-7.72,38.59,38.59,0,0,0-4.42-7.34h0c-9.2-5.8-19.21-12.11-29.8-18.77l-8-5.07A64.16,64.16,0,0,0,212,98a86.93,86.93,0,0,0-9.25-3.69c-1.58-.56-3.2-1-4.82-1.49s-3.28-.89-4.95-1.22a112.79,112.79,0,0,0-19.21-2.42,179.84,179.84,0,0,0-18.59.06h-.17l0,.17c2.85,12.76,5.54,24.79,8,35.82v0a39.07,39.07,0,0,1,3.59,7.69,21,21,0,0,1,1.22,8c-.21,2.65-.28,5.24-.35,7.75s-.09,5-.14,7.32c-.14,9.46-.17,17.72-.2,24.52s0,12.15,0,15.8c0,1.82,0,3.21,0,4.16,0,.47,0,.83,0,1.07s0,.36,0,.36,0-.12,0-.36,0-.6,0-1.07c0-1,0-2.34,0-4.16,0-3.65,0-9,.09-15.8s.11-15.05.26-24.51q.09-3.56.16-7.32c.07-2.51.15-5.09.36-7.74a21.24,21.24,0,0,0-1.22-8.06,39.42,39.42,0,0,0-3.61-7.76l0,0c-2.46-11-5.14-23.06-8-35.82l-.14.18a182.13,182.13,0,0,1,18.56,0A111.85,111.85,0,0,1,193,91.86c1.67.33,3.3.8,4.93,1.21s3.23.93,4.81,1.49a86.32,86.32,0,0,1,9.22,3.67,64.66,64.66,0,0,1,8.48,4.73l8.05,5.07c10.59,6.66,20.61,13,29.81,18.75l0,0a40.19,40.19,0,0,1,7.07,14.94c1.35,5.16.67,10.26.66,15-.24,9.47-.44,17.73-.61,24.54s-.29,12.15-.37,15.8c0,1.82-.07,3.22-.09,4.17,0,.47,0,.82,0,1.07Z"/><path class="cls-7" d="M155.43,90.21l-.28,0-.83,0-3.2-.08-11.87-.23-40-.68h-.07l0,.06L93.5,96.09l-16,19.63L75.67,118a12.82,12.82,0,0,0-1.5,2.4A12.59,12.59,0,0,0,73,125.6a12.8,12.8,0,0,0,1,4.94c.64,1.47,1.25,2.89,1.83,4.24l5.53,12.8,1.52,3.47c.17.39.31.69.4.91a3.19,3.19,0,0,0,.15.3l-.12-.32c-.09-.21-.21-.52-.37-.91-.34-.81-.83-2-1.47-3.5L76,134.69c-1-2.72-2.86-5.59-2.74-9.08a12.36,12.36,0,0,1,1.19-5.13,12.82,12.82,0,0,1,1.47-2.35l1.83-2.23c4.92-6,10.34-12.66,16-19.61l5.6-6.87-.12.06,40,.57,11.87.15,3.21,0h1.11Z"/><path class="cls-7" d="M175.63,143.42a4,4,0,0,0-.48-.07,3.32,3.32,0,0,1-2.56-2.18,3.58,3.58,0,0,1-.16-1.33,3.27,3.27,0,0,1,.37-1.43,3.19,3.19,0,0,1,2.78-1.7h4.06l9.32,0a3.19,3.19,0,0,1,2.12.83,3.12,3.12,0,0,1,1,2,3.58,3.58,0,0,1-.39,2.13,3.25,3.25,0,0,1-1.54,1.37,4.86,4.86,0,0,1-2,.24h-2l-3.54,0-5.13.05-1.39,0-.49,0a3.14,3.14,0,0,0,.49,0l1.39,0,5.13.05,3.54,0h2c.35,0,.68,0,1,0a3.44,3.44,0,0,0,2.77-1.74,3.83,3.83,0,0,0,.43-2.31,3.45,3.45,0,0,0-1.1-2.17,3.49,3.49,0,0,0-2.33-.91l-9.32,0h-4.07a3.58,3.58,0,0,0-3.14,4.77,3.36,3.36,0,0,0,1.38,1.73,3.18,3.18,0,0,0,1.33.46A1.83,1.83,0,0,0,175.63,143.42Z"/><path class="cls-7" d="M86.46,143.42a4,4,0,0,0-.48-.07,3.32,3.32,0,0,1-2.56-2.18,3.58,3.58,0,0,1-.16-1.33,3.27,3.27,0,0,1,.37-1.43,3.18,3.18,0,0,1,2.78-1.7h4.06l9.31,0a3.19,3.19,0,0,1,2.13.83,3.16,3.16,0,0,1,1,2,3.51,3.51,0,0,1-.38,2.13A3.29,3.29,0,0,1,101,143a4.86,4.86,0,0,1-2,.24H97l-3.55,0-5.12.05-1.4,0-.48,0a2.91,2.91,0,0,0,.48,0l1.4,0,5.12.05,3.55,0h2c.34,0,.67,0,1,0a3.44,3.44,0,0,0,2.77-1.74,3.83,3.83,0,0,0,.43-2.31,3.46,3.46,0,0,0-3.44-3.08l-9.31,0H86.4a3.39,3.39,0,0,0-3.34,3.39,3.67,3.67,0,0,0,.19,1.38A3.37,3.37,0,0,0,84.64,143a3.18,3.18,0,0,0,1.33.46A1.83,1.83,0,0,0,86.46,143.42Z"/><path class="cls-10" d="M8.26,128.87H26.1a6.57,6.57,0,0,1,5.83,3.52h0a6.61,6.61,0,0,1,.2,5.71l-7,15.9-17.87-.18S3.46,133.68,8.26,128.87Z"/><path class="cls-7" d="M256.07,126.62,164,124.92l-59.92-1.1-19.76-11.4a3.07,3.07,0,0,1-.91-4.52l12.3-16.16A6.86,6.86,0,0,1,101.1,89l67-.54s25.24-1.47,45.12,9.66C234.17,109.88,256.07,126.62,256.07,126.62Z"/><path class="cls-13" d="M213.87,90.17s-4.61,2.1-1.61,4,49.65,31.36,49.65,31.36l10.72-4.85C253.64,110.14,234.45,99.87,213.87,90.17Z"/><path class="cls-7" d="M260.4,126.31l.29.08.85.18,3.27.68c2.84.57,7,1.36,12.08,2.24,10.23,1.76,24.43,3.81,40.2,5.17,4,.35,7.8.63,11.53.87s7.32.47,10.73.79a93,93,0,0,1,17.91,3.06,50.91,50.91,0,0,1,11.29,4.71c1.28.68,2.19,1.34,2.84,1.74l.74.47.25.15a1.79,1.79,0,0,0-.23-.18l-.72-.49a33.15,33.15,0,0,0-2.82-1.79,49,49,0,0,0-11.29-4.82A91.52,91.52,0,0,0,339.38,136c-3.42-.32-7-.56-10.74-.8s-7.58-.54-11.52-.88c-15.77-1.36-30-3.38-40.19-5.08-5.12-.85-9.25-1.61-12.1-2.14l-3.28-.62-.86-.15Z"/><path class="cls-7" d="M1.13,167.54c0,.09,6.13.16,13.7.16s13.71-.07,13.71-.16-6.14-.16-13.71-.16S1.13,167.46,1.13,167.54Z"/><path class="cls-7" d="M113.39,183.2c0,.09,34.64.16,77.35.16s77.37-.07,77.37-.16-34.63-.15-77.37-.15S113.39,183.12,113.39,183.2Z"/><path class="cls-7" d="M355.92,168.06c0,.09,4.9.16,10.94.16s10.94-.07,10.94-.16-4.9-.16-10.94-.16S355.92,168,355.92,168.06Z"/><path class="cls-13" d="M37.45,100.8s4.11,4.6,2.49,8S21.62,124,21.62,124L9.5,126.25Z"/><polygon class="cls-13" points="152.7 92.56 155.43 122 106.65 120.61 86.99 109.18 99.72 92.56 152.7 92.56"/><path class="cls-13" d="M244.51,123.5s-29.42-21.25-41-25.47c-11.21-4.08-17-5.1-27.58-5.4-10.06-.29-16.19,0-16.19,0l7.78,29.93Z"/><path class="cls-8" d="M248.82,123.6h0a5.19,5.19,0,0,0-2.63-4.5l-6.76-3.79a12.81,12.81,0,0,0-6.31-1.65h0a13,13,0,0,0-4,.64,7.3,7.3,0,0,0-4.92,6.73h0a7.44,7.44,0,0,0,7.44,7.73h12A5.16,5.16,0,0,0,248.82,123.6Z"/><path class="cls-7" d="M248.82,123.6s0,.23-.08.65a5.16,5.16,0,0,1-.59,1.77,5.33,5.33,0,0,1-2.07,2,5.08,5.08,0,0,1-1.74.55c-.64.07-1.35,0-2.08,0l-10.31,0a7.66,7.66,0,0,1-2.87-.47,7.33,7.33,0,0,1-4.27-4.23,7.48,7.48,0,0,1-.45-3.19,7.31,7.31,0,0,1,3-5.4,7.79,7.79,0,0,1,2.79-1.17,12.26,12.26,0,0,1,2.92-.35,12.93,12.93,0,0,1,5.29,1.13c.78.35,1.49.79,2.2,1.17l2,1.12,3.47,1.92a5.26,5.26,0,0,1,2.07,2,5.54,5.54,0,0,1,.6,1.77c.06.42.05.65.07.65a3.31,3.31,0,0,0,0-.66,5,5,0,0,0-.56-1.81,5.18,5.18,0,0,0-2.09-2.14l-3.44-2-2-1.14c-.7-.39-1.41-.83-2.21-1.19a13.09,13.09,0,0,0-5.4-1.19,12.9,12.9,0,0,0-3,.35,7.9,7.9,0,0,0-2.9,1.21A7.64,7.64,0,0,0,224,120.7a7.78,7.78,0,0,0,.48,3.32,7.5,7.5,0,0,0,1.79,2.72,7.64,7.64,0,0,0,2.66,1.68,8.13,8.13,0,0,0,3,.48l10.31,0c.73,0,1.43,0,2.1-.06a5.31,5.31,0,0,0,1.8-.6,5.38,5.38,0,0,0,2.1-2.13,5.3,5.3,0,0,0,.55-1.82A4.71,4.71,0,0,0,248.82,123.6Z"/><path class="cls-12" d="M22.1,202.13s0-.14,0-.41,0-.7-.08-1.23-.1-1.2-.14-2-.05-1.7-.09-2.71,0-2.17,0-3.41.08-2.6.25-4a52.48,52.48,0,0,1,1.75-9.7,42.27,42.27,0,0,1,1.92-5.4,36.32,36.32,0,0,1,2.91-5.48A37.35,37.35,0,0,1,38,157.93a44.46,44.46,0,0,1,13.52-6.66,55.8,55.8,0,0,1,16.07-2.14,52.67,52.67,0,0,1,16,2.33,46,46,0,0,1,7.13,2.94,41.62,41.62,0,0,1,6.2,4,52.07,52.07,0,0,1,9.55,9.79,38.91,38.91,0,0,1,3.17,5.33,52.28,52.28,0,0,1,2.19,5.3,63.1,63.1,0,0,1,3.48,16.91c.1,2.05.09,3.64,0,4.71,0,.53-.06.94-.07,1.23s0,.41,0,.41,0-.14,0-.41.06-.69.1-1.22a47.08,47.08,0,0,0,0-4.72,62,62,0,0,0-3.39-17,51.63,51.63,0,0,0-2.18-5.33,39.47,39.47,0,0,0-3.18-5.38,52,52,0,0,0-9.58-9.86,41,41,0,0,0-6.24-4.09,45.72,45.72,0,0,0-7.18-3,53.26,53.26,0,0,0-16.13-2.35A56.52,56.52,0,0,0,51.47,151a44.7,44.7,0,0,0-13.6,6.73,41,41,0,0,0-5.33,4.67,32.76,32.76,0,0,0-4.14,5.26,35.34,35.34,0,0,0-2.91,5.52,42.64,42.64,0,0,0-1.92,5.43,51.77,51.77,0,0,0-1.7,9.74c-.16,1.45-.16,2.81-.23,4.06s0,2.38,0,3.41.09,1.93.12,2.72.12,1.45.16,2,.09.93.12,1.22A3.37,3.37,0,0,0,22.1,202.13Z"/><path class="cls-12" d="M168.78,126.62h.14l.41,0,1.57,0,5.78.1c4.88.09,11.62.27,19.07.47s14.2.35,19.08.38c2.45,0,4.42,0,5.79,0l1.57,0,.41,0h.14l-.14,0-.41,0-1.57,0-5.78-.11c-4.88-.09-11.63-.27-19.08-.47s-14.19-.34-19.08-.38c-2.44,0-4.42,0-5.78,0l-1.57,0h-.41C168.82,126.61,168.78,126.61,168.78,126.62Z"/><path class="cls-12" d="M176.77,135.68a43.25,43.25,0,0,0,5.28.16,43.25,43.25,0,0,0,5.28-.16,47.35,47.35,0,0,0-5.28-.15A47.35,47.35,0,0,0,176.77,135.68Z"/><path class="cls-12" d="M174.83,103.42c0,.09,6.52,2.81,14.64,6.1s14.73,5.89,14.76,5.81-6.52-2.81-14.64-6.1S174.86,103.34,174.83,103.42Z"/><path class="cls-12" d="M188.12,105.48c0,.08,6.2,2.83,13.94,6.14s14,5.94,14.06,5.86-6.2-2.83-13.94-6.14S188.15,105.4,188.12,105.48Z"/><path class="cls-12" d="M103.87,102.28c0,.09,6.52,2.82,14.64,6.1s14.73,5.89,14.76,5.81-6.52-2.81-14.64-6.1S103.9,102.21,103.87,102.28Z"/><path class="cls-12" d="M117.15,104.34c0,.08,6.21,2.83,13.94,6.15s14,5.93,14.07,5.85-6.21-2.83-13.94-6.14S117.19,104.26,117.15,104.34Z"/><path class="cls-12" d="M102.59,126.61c0,.09,13,.24,29.12.33s29.12.11,29.12,0-13-.23-29.12-.33S102.59,126.53,102.59,126.61Z"/><path class="cls-12" d="M88.15,135.18c0,.09,3.65.19,8.16.23s8.17,0,8.17-.08-3.65-.19-8.16-.23S88.15,135.09,88.15,135.18Z"/><path class="cls-12" d="M337.8,130.72a1.29,1.29,0,0,0,.35.07l1,.13c.45.06,1,.12,1.62.23s1.34.19,2.13.34c1.57.28,3.43.69,5.47,1.23s4.25,1.28,6.52,2.16,4.37,1.88,6.24,2.85,3.51,2,4.85,2.82c.69.42,1.27.84,1.8,1.19s1,.67,1.34.94l.84.59a3,3,0,0,0,.3.2s-.08-.1-.26-.25l-.81-.64c-.35-.28-.79-.62-1.31-1s-1.1-.8-1.77-1.24c-1.33-.89-3-1.88-4.84-2.89a66.18,66.18,0,0,0-6.27-2.88,63,63,0,0,0-6.56-2.14,53.23,53.23,0,0,0-5.51-1.17c-.78-.15-1.51-.23-2.14-.31s-1.18-.13-1.62-.17l-1-.07A1.39,1.39,0,0,0,337.8,130.72Z"/><path class="cls-12" d="M230.15,116.5s.18-.23.58-.56a4.07,4.07,0,0,1,2-.81,8.81,8.81,0,0,1,3.22.35,24.81,24.81,0,0,1,10,5.13c1.43,1.21,2.19,2.1,2.23,2a3.85,3.85,0,0,0-.5-.64,19.87,19.87,0,0,0-1.59-1.57,22.83,22.83,0,0,0-6.19-4A23.77,23.77,0,0,0,236,115.2a8.47,8.47,0,0,0-3.31-.28,3.88,3.88,0,0,0-2,.93,3.27,3.27,0,0,0-.4.46A1.14,1.14,0,0,0,230.15,116.5Z"/><path class="cls-7" d="M36.08,100.58a9.55,9.55,0,0,0,2.57.26,15.23,15.23,0,0,0,3-.37,26.84,26.84,0,0,0,3.84-1.18c1.39-.53,2.88-1.19,4.48-1.88l2.5-1c.87-.34,1.77-.64,2.69-1a103.12,103.12,0,0,1,12.29-3.35,141,141,0,0,1,23-2.86c1.48-.08,2.82-.08,4-.11h3l1.91,0h.5c.11,0,.17,0,.17,0l-.17,0-.5,0L97.43,89l-3,0c-1.18,0-2.53,0-4,.07a134.06,134.06,0,0,0-23,2.77,102.82,102.82,0,0,0-12.31,3.38c-.92.34-1.83.65-2.7,1l-2.5,1c-1.6.7-3.08,1.38-4.46,1.91a27.32,27.32,0,0,1-3.79,1.22,16.4,16.4,0,0,1-3,.42,14,14,0,0,1-1.9-.07l-.49-.06Z"/><path class="cls-14" d="M326.1,101.41c2.41-13.19,4-15.21,5.4-19.75s3.52-7.49,6.22-8.53c1.82-.7,10.89-4,14-2.89a39.57,39.57,0,0,1,8.76,4.4,11.81,11.81,0,0,1,4.57,5.85L370,94.09l-8.49,8.47-4.25-9-4.62,10.82.68,10.94-26.48,7.13C324.38,118.55,324.74,108.89,326.1,101.41Z"/><g class="cls-15"><path d="M333,87c1.17,6.87,1.36,7.82,2.53,14.68.4,2.36,1.57,6,3.25,7.74a8.92,8.92,0,0,0,4.19,2.88,9.88,9.88,0,0,0,5.55-.24c1.51-.67,2.8-3.6,2.18-5.13-2.25.48-2.94,1.23-4.88,0a16.82,16.82,0,0,1-5-5.22C337,94.25,335.89,94,333,87"/></g><path class="cls-7" d="M352.17,100.33a18,18,0,0,0,1.17-1.83l2.72-4.45,2.8-4.41A14.38,14.38,0,0,0,360,87.79a2.52,2.52,0,0,0-.37.45c-.23.29-.55.73-.93,1.28-.77,1.1-1.8,2.63-2.88,4.36s-2,3.34-2.66,4.51c-.32.59-.57,1.07-.74,1.4A1.82,1.82,0,0,0,352.17,100.33Z"/><path class="cls-7" d="M333.69,112.64a2.83,2.83,0,0,0,.62.24,5.63,5.63,0,0,0,.75.2c.3.07.63.16,1,.22a17,17,0,0,0,2.68.24,19.4,19.4,0,0,0,3.29-.28,19.13,19.13,0,0,0,3.17-.9,16.15,16.15,0,0,0,2.42-1.17c.34-.19.62-.39.88-.56a5.26,5.26,0,0,0,.62-.46c.34-.27.52-.42.5-.44s-.78.54-2.11,1.26a17.9,17.9,0,0,1-2.41,1.1A19.7,19.7,0,0,1,342,113a21,21,0,0,1-3.23.3,18.37,18.37,0,0,1-2.64-.17C334.61,112.87,333.71,112.58,333.69,112.64Z"/><path class="cls-16" d="M344.31,92.09c.05.24,2.9,5.9,2.9,5.9l13.43-7.07L362,85.13a3.61,3.61,0,0,1,4.35-2.67l4,1.62a1.08,1.08,0,0,1,.65.77c0,.29,0,.58-.52.54-1-.08-3-.3-3-.3l.94,3.3a3.54,3.54,0,0,1-.27,2.59l-.59,1.14-1.31,2.11,0,0s-13.06,13.41-20.39,14.29c-4.4.52-9.4-11.83-9.4-11.83Z"/><path class="cls-17" d="M367.53,85.32s-.1-.14-.33-.29a1.76,1.76,0,0,0-1-.32,1.09,1.09,0,0,0-.9.58c-.12.27,0,.46,0,.45a1.45,1.45,0,0,1,.15-.38,1,1,0,0,1,.78-.45,1.94,1.94,0,0,1,.94.24C367.36,85.26,367.51,85.34,367.53,85.32Z"/><path class="cls-17" d="M365.84,87.37s.08-.11.21-.27a1.64,1.64,0,0,1,.62-.46,1.59,1.59,0,0,1,.78-.09c.2,0,.32.08.34,0s-.1-.12-.32-.18a1.33,1.33,0,0,0-1.53.61C365.83,87.22,365.81,87.37,365.84,87.37Z"/><path class="cls-14" d="M341.53,74.21l3.64,17.23-9.64,5.79-3.71-10.59S333.36,73.78,341.53,74.21Z"/><path class="cls-5" d="M336.33,74.51a1.16,1.16,0,0,0,.25.15c.16.1.41.23.73.39.64.33,1.58.78,2.75,1.31a41,41,0,0,0,9.58,3,24,24,0,0,0,10-.34,17.62,17.62,0,0,0,2.88-1,7.89,7.89,0,0,0,.74-.38c.16-.09.25-.14.24-.15a9.79,9.79,0,0,0-1,.42,20.23,20.23,0,0,1-2.88.92,24.91,24.91,0,0,1-9.91.25,43.24,43.24,0,0,1-9.55-2.92c-1.18-.49-2.13-.92-2.79-1.21A8.13,8.13,0,0,0,336.33,74.51Z"/><path class="cls-5" d="M333.8,76.41s.08.08.26.2l.8.51a14.65,14.65,0,0,0,1.3.76c.52.27,1.1.61,1.78.9l1.05.49c.37.16.77.3,1.17.46.8.34,1.69.61,2.62.91a39.84,39.84,0,0,0,6.22,1.3,40.67,40.67,0,0,0,6.35.19c1-.08,1.91-.13,2.76-.27.44-.07.85-.11,1.25-.18l1.14-.23c.72-.13,1.37-.32,1.93-.47a11.69,11.69,0,0,0,1.44-.43l.9-.31a1.41,1.41,0,0,0,.31-.12,1.27,1.27,0,0,0-.33.06l-.91.26c-.39.12-.88.25-1.45.38s-1.21.3-1.94.41l-1.13.21c-.4.07-.81.1-1.24.16-.85.13-1.77.17-2.74.24a41.34,41.34,0,0,1-6.3-.21,43.47,43.47,0,0,1-6.18-1.26c-.92-.3-1.81-.56-2.61-.88-.4-.16-.8-.29-1.16-.45L338,78.58c-.68-.28-1.26-.6-1.78-.86s-1-.5-1.33-.7l-.82-.47A1.43,1.43,0,0,0,333.8,76.41Z"/><path class="cls-7" d="M335.53,97.23a4.81,4.81,0,0,0,.78-.39l2.12-1.2,7.25-4.17.09-.06,0-.1c-.26-1.29-.53-2.67-.82-4.09-.44-2.15-.85-4.19-1.24-6-.2-.93-.36-1.81-.54-2.64a9.21,9.21,0,0,0-.77-2.24,4.55,4.55,0,0,0-2.5-2.29,3.08,3.08,0,0,0-.92-.15,1,1,0,0,0-.32,0,4,4,0,0,1,1.2.23,4.46,4.46,0,0,1,2.34,2.26,10,10,0,0,1,.72,2.2l.51,2.64c.37,1.87.78,3.91,1.21,6,.29,1.43.57,2.81.84,4.1l.07-.16c-2.88,1.7-5.37,3.19-7.19,4.27l-2.08,1.27A7.21,7.21,0,0,0,335.53,97.23Z"/><path class="cls-7" d="M332.58,86.13a6.48,6.48,0,0,0,0,1.61,26.17,26.17,0,0,0,.69,3.82,25.56,25.56,0,0,0,1.28,3.66,6.87,6.87,0,0,0,.75,1.42,10.77,10.77,0,0,0-.54-1.5,36.42,36.42,0,0,1-1.18-3.66,37.66,37.66,0,0,1-.78-3.77A13.83,13.83,0,0,0,332.58,86.13Z"/><path class="cls-13" d="M384.87,182l.11,9.2s9.39,3,9.57,4.69l-17.83.84L376,182.39Z"/><path class="cls-4" d="M379.43,190.68a.75.75,0,0,0-.47.86.71.71,0,0,0,.84.47.76.76,0,0,0,.49-.91.72.72,0,0,0-.93-.39"/><path class="cls-4" d="M376.72,196.72l0-1.44,17.11-.28s.81.31.74.88Z"/><path class="cls-7" d="M385.26,191.09c0,.09-.43.15-.84.45s-.63.68-.71.64,0-.54.53-.89S385.28,191,385.26,191.09Z"/><path class="cls-7" d="M387.17,191.78c0,.08-.35.25-.62.63s-.35.77-.44.77-.16-.49.19-1S387.17,191.69,387.17,191.78Z"/><path class="cls-7" d="M388.34,194c-.08,0-.22-.41,0-.9s.6-.7.64-.63-.2.34-.36.74S388.43,194,388.34,194Z"/><path class="cls-7" d="M385,189c0,.09-.44,0-.93,0s-.87.23-.92.16.31-.4.89-.46S385.05,188.92,385,189Z"/><g class="cls-18"><polygon points="384.89 183.81 384.91 185.46 376.14 185.79 376.06 184.32 384.89 183.81"/></g><path class="cls-7" d="M385,187.14a1.71,1.71,0,0,1-.89,0,4,4,0,0,1-.95-.25,4.86,4.86,0,0,1-.53-.24,1.35,1.35,0,0,1-.28-.2.39.39,0,0,1-.06-.46.49.49,0,0,1,.37-.22,1.2,1.2,0,0,1,.34,0,3.06,3.06,0,0,1,.56.17,2.85,2.85,0,0,1,.85.5c.44.36.59.68.56.7s-.25-.24-.68-.53a3.48,3.48,0,0,0-.82-.41,2.83,2.83,0,0,0-.52-.14c-.19,0-.35,0-.4.05s0,0,0,.11a1.33,1.33,0,0,0,.2.14l.48.25a5.27,5.27,0,0,0,.88.29A4.9,4.9,0,0,1,385,187.14Z"/><path class="cls-7" d="M384.84,187.27a1.49,1.49,0,0,1-.27-.85,2.9,2.9,0,0,1,.07-1,3,3,0,0,1,.2-.55.77.77,0,0,1,.55-.48.44.44,0,0,1,.39.23,1.22,1.22,0,0,1,.1.33,1.75,1.75,0,0,1,0,.6,2,2,0,0,1-.33.94c-.33.48-.69.6-.7.57s.27-.22.51-.68a2,2,0,0,0,.24-.85,1.83,1.83,0,0,0,0-.52c0-.19-.11-.34-.18-.31s-.23.15-.3.3a3.47,3.47,0,0,0-.2.5,3.43,3.43,0,0,0-.13.9C384.78,186.93,384.89,187.25,384.84,187.27Z"/><path class="cls-7" d="M348.52,115.38S376.38,103.7,385,103.2c5.41-.32,9.5,3.16,8.77,8.75-.37,2.8-8.07,35.58-8.07,35.58L374,142.16l5.64-22.66-22.88,11.13Z"/><path class="cls-13" d="M383.12,113.77c.09.08-.84,1.27-1.81,2.84a32.34,32.34,0,0,1-1.73,2.88,12.72,12.72,0,0,1,3.54-5.72Z"/><path class="cls-13" d="M385.4,115.07a34.23,34.23,0,0,1-3,2.21,32,32,0,0,1-3,2.2,11.41,11.41,0,0,1,2.76-2.53A11.58,11.58,0,0,1,385.4,115.07Z"/><path class="cls-7" d="M326.79,122.41s3.5,4.51,6.84,5.75c4.2,1.55,35.24,16.19,35.24,16.19s5.63,41.83,5.19,40.08l13-.31-1.42-38.53c-.17-4.93-4.12-10.59-8.37-13.11l-28.74-17.1Z"/><path class="cls-13" d="M385.88,152.64a3.08,3.08,0,0,1-.05-.52c0-.39-.05-.9-.08-1.52a52.11,52.11,0,0,0-.52-5.54,19,19,0,0,0-2.8-7.63,14.75,14.75,0,0,0-3.34-3.46,39.89,39.89,0,0,0-4.41-2.78c-6.25-3.59-11.65-7.24-15.63-9.74-2-1.27-3.61-2.27-4.73-3l-1.29-.8a2.1,2.1,0,0,1-.44-.3,3.06,3.06,0,0,1,.48.23c.31.17.76.4,1.33.73,1.15.65,2.79,1.62,4.8,2.86,4,2.44,9.45,6.05,15.68,9.62a38.78,38.78,0,0,1,4.45,2.83,14.53,14.53,0,0,1,3.41,3.56,19,19,0,0,1,2.78,7.8,43,43,0,0,1,.39,5.58v1.51A2.4,2.4,0,0,1,385.88,152.64Z"/><path class="cls-13" d="M338.25,126.82a9.76,9.76,0,0,1,.8-1.07,8,8,0,0,0,1.23-2.89,7.73,7.73,0,0,0,0-3.13,10.53,10.53,0,0,1-.31-1.3,2.78,2.78,0,0,1,.6,1.22,7,7,0,0,1,.13,3.29,6.79,6.79,0,0,1-1.4,3A2.94,2.94,0,0,1,338.25,126.82Z"/><path class="cls-13" d="M382.28,184.12s0-.07,0-.22,0-.37-.07-.63c-.07-.58-.15-1.4-.26-2.43-.22-2.15-.51-5.21-.88-9q-.27-2.85-.59-6.2c-.22-2.22-.44-4.6-.61-7.11s-.44-5.13-.89-7.82a32,32,0,0,0-2.39-8,26.74,26.74,0,0,0-4.72-6.91,42.15,42.15,0,0,0-5.88-5.19,118.51,118.51,0,0,0-11.3-7.05c-3.3-1.9-5.93-3.51-7.68-4.73-.88-.6-1.54-1.09-2-1.44l-.5-.39-.17-.14s.07,0,.19.11l.53.36c.45.32,1.13.79,2,1.37,1.77,1.17,4.41,2.74,7.73,4.6a113.16,113.16,0,0,1,11.38,7,41.58,41.58,0,0,1,6,5.22,27,27,0,0,1,4.79,7,32.13,32.13,0,0,1,2.41,8.15c.46,2.71.69,5.34.87,7.85s.37,4.89.57,7.12.38,4.29.54,6.19c.32,3.76.58,6.82.76,9,.07,1,.13,1.86.18,2.45,0,.26,0,.46,0,.63Z"/><path class="cls-7" d="M351.68,49a5.09,5.09,0,0,1,5.81-3.12,6.52,6.52,0,0,0,1.62.35,12.32,12.32,0,0,0,2-.52,3,3,0,0,1,3.33,2.15,4,4,0,0,1,3.31.66,2.61,2.61,0,0,1,.78,3.13c-.24.43-.63.79-.84,1.23a19.46,19.46,0,0,0-.44,2.42,3.27,3.27,0,0,1-2.81,2,9.48,9.48,0,0,1-3.6-.52"/><path class="cls-16" d="M357.28,72.87c.15-1.16.25-2,.25-2s3.88,0,5.45-4.84a52.93,52.93,0,0,0,1.61-9.76,5.28,5.28,0,0,0-5-5.78L349.3,50l-.22,1.6-2.72,19.85a5.51,5.51,0,0,0,4.74,6.21h0A5.52,5.52,0,0,0,357.28,72.87Z"/><path class="cls-7" d="M363.13,59.14a.64.64,0,0,1-.71.54.62.62,0,0,1-.56-.68.65.65,0,0,1,.71-.54A.62.62,0,0,1,363.13,59.14Z"/><path class="cls-7" d="M363.39,58.24c-.09.07-.52-.36-1.2-.46s-1.23.15-1.29,0,.07-.17.31-.3a1.8,1.8,0,0,1,1.06-.15,1.7,1.7,0,0,1,.93.48C363.39,58.05,363.43,58.21,363.39,58.24Z"/><path class="cls-7" d="M356.66,58a.63.63,0,0,1-.71.54.62.62,0,0,1-.57-.68.65.65,0,0,1,.71-.54A.62.62,0,0,1,356.66,58Z"/><path class="cls-7" d="M356.67,57.31c-.09.07-.51-.36-1.19-.47s-1.24.15-1.3.06.07-.18.32-.3a1.69,1.69,0,0,1,1.05-.15,1.66,1.66,0,0,1,.93.47C356.67,57.12,356.72,57.28,356.67,57.31Z"/><path class="cls-7" d="M358.34,62.75a4.75,4.75,0,0,1,1.14,0c.18,0,.35,0,.4-.11a1,1,0,0,0,0-.54c-.1-.45-.2-.91-.3-1.4a23.12,23.12,0,0,1-.61-3.65,23.49,23.49,0,0,1,.9,3.59c.1.49.19,1,.28,1.41a1,1,0,0,1,0,.69.42.42,0,0,1-.33.21,1,1,0,0,1-.3,0A4.29,4.29,0,0,1,358.34,62.75Z"/><path class="cls-17" d="M357.53,70.89a12.74,12.74,0,0,1-6.33-2.82s1.06,3.65,6.08,4Z"/><path class="cls-7" d="M356.26,62.9c.11,0,0,.75.55,1.38s1.35.67,1.34.77-.2.12-.54.08a1.86,1.86,0,0,1-1.12-.61,1.61,1.61,0,0,1-.41-1.14C356.1,63.06,356.21,62.89,356.26,62.9Z"/><path class="cls-7" d="M357.27,54.66c-.1.18-.76,0-1.57,0s-1.5.09-1.58-.1.1-.24.39-.38a2.74,2.74,0,0,1,2.41.12C357.19,54.41,357.31,54.58,357.27,54.66Z"/><path class="cls-7" d="M363.45,56.23c-.14.14-.59-.1-1.15-.19s-1.06-.07-1.14-.24.06-.24.29-.35a1.61,1.61,0,0,1,1-.1,1.63,1.63,0,0,1,.87.45C363.48,56,363.52,56.16,363.45,56.23Z"/><path class="cls-7" d="M365.11,54.13A7.15,7.15,0,0,1,359.24,53c-2.06-1.38-4.55-2.24-5.17-1.87s-1,2.62-3.29,3c0,0-.4,4.34-2.1,4-1.22-.26-.5-5,0-7.78a2.4,2.4,0,0,1,2.26-1.94l3.17-.12,4,1.11,4.26,1.16,3.23,1.34Z"/><path class="cls-16" d="M349.06,56.3c-.06,0-2.7-1.43-3.19,1.44a2.19,2.19,0,0,0,2.52,2.69C348.41,60.35,349.06,56.3,349.06,56.3Z"/><path class="cls-17" d="M347.7,59.2s-.06,0-.15,0a.53.53,0,0,1-.37-.06,1.25,1.25,0,0,1-.39-1.21,1.68,1.68,0,0,1,.26-.69.59.59,0,0,1,.44-.32.28.28,0,0,1,.28.18c0,.09,0,.15,0,.15s.07,0,.07-.16a.33.33,0,0,0-.09-.19.38.38,0,0,0-.26-.13.71.71,0,0,0-.6.36,1.76,1.76,0,0,0-.31.77,1.31,1.31,0,0,0,.52,1.37.58.58,0,0,0,.47,0C347.68,59.26,347.71,59.2,347.7,59.2Z"/><path class="cls-13" d="M363.73,46.84s-.1.15-.31.38a2.46,2.46,0,0,1-1.08.7,3.59,3.59,0,0,1-1.92.08,16.07,16.07,0,0,1-2.32-.73,6.23,6.23,0,0,0-2.46-.44,2.65,2.65,0,0,0-1.87.84,2,2,0,0,0-.58,1.26.88.88,0,0,0,.09.5s0-.18,0-.49a2,2,0,0,1,.62-1.12,2.55,2.55,0,0,1,1.73-.7,6.42,6.42,0,0,1,2.34.44,14.54,14.54,0,0,0,2.37.73,3.67,3.67,0,0,0,2-.16,2.45,2.45,0,0,0,1.11-.83A1.16,1.16,0,0,0,363.73,46.84Z"/><path class="cls-13" d="M354,49.59s.15-.15.45-.36a2.68,2.68,0,0,1,1.45-.43,4.67,4.67,0,0,1,2.19.54,22.27,22.27,0,0,0,2.62,1.22,6.52,6.52,0,0,0,5.15-.56,5.19,5.19,0,0,0,1.26-1,2,2,0,0,0,.37-.45,11.18,11.18,0,0,1-1.74,1.23,6.54,6.54,0,0,1-4.95.46,25.89,25.89,0,0,1-2.59-1.19,4.83,4.83,0,0,0-2.33-.49,2.69,2.69,0,0,0-1.51.55A1.1,1.1,0,0,0,354,49.59Z"/><path class="cls-16" d="M362.94,98.57l14-11.93,4.61,1s-4.86,10.11-8.38,13.81a8.27,8.27,0,0,1-9.21,2.65C358.22,102.14,362.94,98.57,362.94,98.57Z"/><path class="cls-13" d="M378,73.5H384a1.52,1.52,0,0,1,1.38,1.9l-6,11.65a1.33,1.33,0,0,1-1.2.74h-7.26a1,1,0,0,1-.79-1.54l5.78-11.41A2.36,2.36,0,0,1,378,73.5Z"/><path class="cls-7" d="M378.4,74.21h6a1,1,0,0,1,.89,1.44l-5.85,11.4a1.33,1.33,0,0,1-1.2.74H371a.58.58,0,0,1-.52-.85l5.77-11.41A2.37,2.37,0,0,1,378.4,74.21Z"/><path class="cls-16" d="M378.9,79l3.62,1.45.78,2.91-1.75,4.35-6.39.93L377,86.7,376.79,85S375,84.47,375,84.2s.22-1.19.5-1.23a13.14,13.14,0,0,1,2.14.65s-2.21-1.75-2.15-2,.3-1,.74-1.09a26.21,26.21,0,0,1,4,1.61l.58,1.32.51-2.11S378.12,80.42,378.9,79Z"/><path class="cls-17" d="M378.45,85.82s.09-.13.12-.36a1.92,1.92,0,0,0-.11-.91,2,2,0,0,0-.51-.77c-.18-.15-.32-.21-.33-.19a3.76,3.76,0,0,1,.67,1A4.35,4.35,0,0,1,378.45,85.82Z"/><path class="cls-17" d="M380.17,85.19a7.86,7.86,0,0,1-.15-1,3.72,3.72,0,0,0-.18-1,1.62,1.62,0,0,0-.33-.56,1.59,1.59,0,0,0-.59-.37c-.87-.32-1.65-.57-2.22-.76a4.4,4.4,0,0,0-.93-.25,6.13,6.13,0,0,0,.89.38l2.19.8a1.44,1.44,0,0,1,.53.33,1.38,1.38,0,0,1,.3.49,4.07,4.07,0,0,1,.21,1A1.86,1.86,0,0,0,380.17,85.19Z"/><path class="cls-17" d="M381,84.53c.05,0,0-.32,0-.71s-.16-.69-.21-.68,0,.32,0,.71S381,84.54,381,84.53Z"/><path class="cls-10" d="M381.1,76.41a.76.76,0,1,1-.76-.76A.76.76,0,0,1,381.1,76.41Z"/><path class="cls-8" d="M401.94,191.31a7.34,7.34,0,0,0-4.39,3.72,12.92,12.92,0,0,0-1.34,5.71c-.12,3.81,1.46,7.91,3.32,11.25,3.56-2.3,5-7,5.56-9.44.91-3.84.22-11.35-3.15-11.24"/><path class="cls-8" d="M395,217.65a6.27,6.27,0,0,0-1.14-6.19,8.32,8.32,0,0,0-5.8-2.79,3.51,3.51,0,0,0-2.84.81,2.69,2.69,0,0,0-.44,2.69,5.43,5.43,0,0,0,1.71,2.24c2.48,2.12,5.28,3.71,8.51,3.24"/><path class="cls-7" d="M397.33,229.74a3.91,3.91,0,0,0,0-.78c0-.56,0-1.28-.08-2.14a21.78,21.78,0,0,0-1.18-7,13.36,13.36,0,0,0-4-5.78,9.23,9.23,0,0,0-1.82-1.14,5.25,5.25,0,0,0-.54-.23l-.2-.06a15,15,0,0,1,2.44,1.58,14,14,0,0,1,3.9,5.72,24,24,0,0,1,1.25,6.89c.06.9.11,1.63.16,2.13A3.82,3.82,0,0,0,397.33,229.74Z"/><path class="cls-7" d="M402,197.07a1.32,1.32,0,0,0-.09.33c-.05.24-.12.56-.2,1-.17.83-.39,2-.66,3.53-.54,3-1.22,7.14-1.87,11.74s-1.14,8.77-1.45,11.79c-.16,1.51-.28,2.74-.34,3.58,0,.4-.06.73-.08,1a2.17,2.17,0,0,0,0,.34,1.77,1.77,0,0,0,.07-.33c0-.25.07-.58.12-1,.11-.88.25-2.09.43-3.58.37-3,.89-7.18,1.54-11.77s1.3-8.74,1.78-11.74c.24-1.48.43-2.68.58-3.55.06-.4.11-.72.14-1A2.25,2.25,0,0,0,402,197.07Z"/><path class="cls-8" d="M400.09,220.72a14.67,14.67,0,0,1,9.47-9.47c1.13-.36,2.56-.48,3.31.43s.36,2.29-.23,3.33a12.54,12.54,0,0,1-12.52,6"/><path class="cls-7" d="M408.53,214.73a4.35,4.35,0,0,0-.71.2,6.37,6.37,0,0,0-.82.29,11.18,11.18,0,0,0-1.05.47,12.48,12.48,0,0,0-1.22.66,14.18,14.18,0,0,0-1.33.9,16.53,16.53,0,0,0-2.65,2.54,15.69,15.69,0,0,0-2,3.11,11.9,11.9,0,0,0-.59,1.5,10.33,10.33,0,0,0-.39,1.34,9.69,9.69,0,0,0-.22,1.13,5.05,5.05,0,0,0-.1.86,6.8,6.8,0,0,0,0,.74c.07,0,.11-1.05.54-2.68a12.24,12.24,0,0,1,.41-1.32c.16-.47.38-.95.61-1.46a17,17,0,0,1,1.94-3,17.44,17.44,0,0,1,2.59-2.52,13.87,13.87,0,0,1,1.3-.9,12.82,12.82,0,0,1,1.19-.69C407.54,215.08,408.55,214.79,408.53,214.73Z"/></g></g></svg>