<svg xmlns="http://www.w3.org/2000/svg" width="54.998" height="74.502" viewBox="0 0 54.998 74.502"><defs><style>.a{fill:none;}.a,.c{stroke:#000;}.a,.b,.c{stroke-miterlimit:10;}.b{fill:#ce001b;stroke:#040505;}.c{fill:#fff;stroke-width:0.5px;}</style></defs><g transform="translate(-6301.717 -687.741)"><path class="a" d="M6345.308,702.441v-4.186c5.565-1.133,10.82,3.539,10.881,9.749.079,8.063.024,16.127.022,24.191,0,6.438.018,12.877-.019,19.315-.036,6.254-4.106,10.231-10.4,10.231q-16.689,0-33.379,0c-6.022,0-10.145-4.044-10.161-10.086q-.057-21.753-.008-43.506c.018-6.252,4.791-10.644,10.839-9.991v4.411c-.575.072-1.06.147-1.547.193a4.924,4.924,0,0,0-4.819,5.17c-.064,4.75-.041,9.5-.043,14.252q-.007,14.346,0,28.691c.005,4.318,1.856,6.18,6.152,6.185q16.408.016,32.817,0c4.268-.005,6.114-1.884,6.116-6.225q.013-20.066-.005-40.13C6351.749,704.388,6351.354,703.9,6345.308,702.441Z"/><path class="a" d="M6321.724,695.533c.125-.517.256-.991.355-1.472a7.154,7.154,0,0,1,7.236-5.82,7.013,7.013,0,0,1,7,5.843c.217,1.28.73,1.584,1.941,1.6,2.547.026,3.683,1.3,3.712,3.888.065,5.84-.4,6.314-6.19,6.314-5.063,0-10.125.01-15.188,0-2.928-.008-4.095-1.181-4.112-4.069,0-.563,0-1.125,0-1.688,0-3.352.941-4.332,4.276-4.481C6321.051,695.626,6321.352,695.575,6321.724,695.533Zm11.143.046c-.056-2.457-1.734-4.054-3.906-3.883a3.425,3.425,0,0,0-3.3,3.883Z"/><path d="M6312.174,733.308a2.718,2.718,0,0,1-.106-.4c-.1-1.031-.1-1.032,2.5-1.032h16.764v1.433Z"/><path d="M6312.158,747.8v-1.663h19.194V747.8Z"/><path d="M6331.389,718.321v1.619h-19.2v-1.619Z"/><path class="b" d="M6347.075,725.83a7.662,7.662,0,0,1-.874,1.653c-2.029,2.281-4.076,4.548-6.193,6.748-1.313,1.363-2.324,1.273-3.352-.259a25.991,25.991,0,0,1-1.874-3.429,3.6,3.6,0,0,1-.043-1.373,4.163,4.163,0,0,1,1.515.194,18.573,18.573,0,0,1,2.122,1.591l8.032-5.787Z"/><path class="b" d="M6347.075,738.391a7.685,7.685,0,0,1-.874,1.653c-2.029,2.281-4.076,4.548-6.193,6.747-1.313,1.364-2.324,1.274-3.352-.258a25.942,25.942,0,0,1-1.874-3.43,3.589,3.589,0,0,1-.043-1.372,4.162,4.162,0,0,1,1.515.194,18.466,18.466,0,0,1,2.122,1.591l8.032-5.787Z"/><path class="b" d="M6347.075,710.577a7.662,7.662,0,0,1-.874,1.653c-2.029,2.282-4.076,4.549-6.193,6.748-1.313,1.364-2.324,1.273-3.352-.259a25.861,25.861,0,0,1-1.874-3.429,3.594,3.594,0,0,1-.043-1.373,4.184,4.184,0,0,1,1.515.2,18.466,18.466,0,0,1,2.122,1.591l8.032-5.787Z"/><path class="c" d="M6332.867,695.579h-7.2a3.425,3.425,0,0,1,3.3-3.883C6331.133,691.525,6332.811,693.122,6332.867,695.579Z"/></g></svg>