<svg xmlns="http://www.w3.org/2000/svg" width="250.824" height="344.414" viewBox="0 0 250.824 344.414"><defs><style>.a{fill:#ce001b;}.b{fill:#fff;}</style></defs><g transform="translate(-1029.018 -1755.935)"><g transform="translate(1029.018 1755.935)"><g transform="translate(18.367)"><path class="a" d="M1220.881,1837.419l-25.489,8.131-5.778-18.106a64.258,64.258,0,1,0-122.437,39.059l23.6,73.963-25.489,8.132-23.595-73.963a91.012,91.012,0,1,1,173.414-55.322Z" transform="translate(-1037.359 -1755.935)"/></g><rect class="a" width="250.824" height="192.03" rx="5.697" transform="translate(0 152.384)"/></g><g transform="translate(1081.335 1999.005)"><path class="b" d="M1058.146,1866.491v14.768c0,4.756,2.444,6.166,5.117,6.166,3.067,0,4.992-1.667,4.992-6.166v-14.768h5.364v14.5c0,8.475-4.961,10.634-10.426,10.634-5.595,0-10.415-2.252-10.415-10.531v-14.6Z" transform="translate(-1052.778 -1866.132)"/><path class="b" d="M1064.817,1891.277v-24.786h6.643c3.094,5.566,8.816,15.6,9.954,18.3h.069c-.28-2.585-.275-6.89-.275-10.957v-7.345h4.857v24.786h-6.3c-2.662-4.844-9-16.373-10.23-19.237h-.068c.178,2.169.238,7.259.238,11.7v7.539Z" transform="translate(-1038.309 -1866.132)"/><path class="b" d="M1077.162,1866.491h5.359v20.394h12.346l-.612,4.392h-17.093Z" transform="translate(-1023.472 -1866.132)"/><path class="b" d="M1109.954,1879c0,6.9-4.142,12.837-12.192,12.837-7.779,0-11.848-5.652-11.848-12.751,0-7.213,4.5-12.753,12.194-12.753C1105.359,1866.328,1109.954,1871.407,1109.954,1879Zm-18.507-.024c0,4.84,2.125,8.5,6.518,8.5,4.767,0,6.454-3.99,6.454-8.409,0-4.687-1.92-8.372-6.54-8.372C1093.4,1870.69,1091.447,1874.147,1091.447,1878.971Z" transform="translate(-1012.953 -1866.328)"/><path class="b" d="M1120.669,1883.833c-1,4.624-4.483,7.991-10.689,7.991-7.859,0-11.573-5.562-11.573-12.612,0-6.795,3.833-12.883,11.831-12.883,6.6,0,9.8,3.874,10.406,8.017h-5.362c-.515-1.911-1.845-3.813-5.214-3.813-4.419,0-6.128,3.974-6.128,8.485,0,4.19,1.482,8.6,6.271,8.6a4.93,4.93,0,0,0,5.069-3.788Z" transform="translate(-997.939 -1866.328)"/><path class="b" d="M1110.393,1866.491h5.3v11.061c1.632-1.909,6.734-7.5,9.867-11.061h6.419l-9.959,10.3,10.321,14.483h-6.427l-7.605-11.009-2.614,2.5v8.513h-5.3Z" transform="translate(-983.533 -1866.132)"/></g></g></svg>