<svg xmlns="http://www.w3.org/2000/svg" width="65.57" height="62.855" viewBox="0 0 65.57 62.855"><defs><style>.a{fill:#fff;}</style></defs><g transform="translate(-6093.21 -701.714)"><path d="M6133.043,708.9a3.4,3.4,0,0,0,.427.71c2.714,2.734,5.447,5.449,8.156,8.188a.8.8,0,0,0,1.037.236c1.014-.437,2.066-.787,3.07-1.246a1.727,1.727,0,0,0,.781-.8c.446-.981.785-2.012,1.217-3a.851.851,0,0,0-.252-1.1c-2.721-2.691-5.417-5.407-8.129-8.107a6.751,6.751,0,0,0-.805-.573,16.788,16.788,0,0,1,7.723-1.442,13.572,13.572,0,0,1,12.057,10.259c1.325,5.438-.271,10.023-4.422,13.727a1.518,1.518,0,0,0-.589,1.271q.024,15.259.009,30.518a6.85,6.85,0,1,1-13.7.171c-.043-3.576-.009-7.152-.009-10.727,0-6.144-.011-12.288.015-18.432a1.1,1.1,0,0,0-.707-1.134c-5.114-2.79-7.711-7.1-7.419-12.943a34.621,34.621,0,0,1,1.128-5.416Zm1.437,5.614-.292.062a21.8,21.8,0,0,0,.2,2.741,10.721,10.721,0,0,0,7.286,8.414.955.955,0,0,1,.748,1.079q-.029,15.072-.013,30.145c0,.327,0,.655.013.981a4.054,4.054,0,0,0,7.946.965,6.845,6.845,0,0,0,.186-1.791q.016-15.676-.005-31.354a1.445,1.445,0,0,1,.688-1.351,10.909,10.909,0,0,0-2.928-19.432,7.288,7.288,0,0,0-4.144-.316c.223.243.381.429.553.6,2.01,2.013,4.017,4.031,6.041,6.031a.752.752,0,0,1,.212.97c-.806,1.95-1.551,3.924-2.361,5.872a1.521,1.521,0,0,1-.726.752c-1.43.614-2.886,1.168-4.336,1.734-.7.273-1.478.845-2.084.7-.653-.154-1.154-.977-1.705-1.526Q6137.114,717.159,6134.48,714.514Z"/><path d="M6098.746,744.06c.123-.351.226-.659.339-.963a6.874,6.874,0,0,1,6.531-4.488,6.8,6.8,0,0,1,6.335,4.639.992.992,0,0,0,1.145.83c7.6-.029,15.208-.018,22.811-.018h.952v2.783h-.95c-7.578,0-15.157.008-22.736-.014-.664,0-1,.135-1.227.833a6.786,6.786,0,0,1-12.837.128,1.22,1.22,0,0,0-1.439-.968,4.085,4.085,0,0,1-4.353-3.191,4.188,4.188,0,0,1-.1-.97q-.012-3.664,0-7.329a3.976,3.976,0,0,1,3.058-3.989c4.375-1.127,8.765-2.194,13.139-3.325a4.037,4.037,0,0,0,1.565-.8c2.792-2.391,5.554-4.817,8.313-7.245a6.55,6.55,0,0,1,4.206-1.813c2.158-.055,4.319-.014,6.532-.014V720.9h-.7c-1.737,0-3.475.022-5.212-.007a4.218,4.218,0,0,0-2.961,1.1c-2.956,2.586-5.908,5.176-8.888,7.734a3.868,3.868,0,0,1-1.5.8c-4.474,1.151-8.96,2.257-13.442,3.374-1.068.267-1.388.648-1.391,1.732q-.01,3.288,0,6.574c0,1.432.418,1.852,1.829,1.855Zm6.7,5.452a3.991,3.991,0,0,0,4.115-3.988,4.033,4.033,0,0,0-4.044-4.158,4.079,4.079,0,0,0-4.1,4.049A4.036,4.036,0,0,0,6105.446,749.512Z"/><path class="a" d="M6134.48,714.514q2.638,2.64,5.278,5.278c.551.549,1.052,1.372,1.705,1.526.606.144,1.387-.428,2.084-.7,1.45-.566,2.906-1.12,4.336-1.734a1.521,1.521,0,0,0,.726-.752c.81-1.948,1.555-3.922,2.361-5.872a.752.752,0,0,0-.212-.97c-2.024-2-4.031-4.018-6.041-6.031-.172-.172-.33-.358-.553-.6a7.288,7.288,0,0,1,4.144.316,10.909,10.909,0,0,1,2.928,19.432,1.445,1.445,0,0,0-.688,1.351q.027,15.676.005,31.354a6.845,6.845,0,0,1-.186,1.791,4.054,4.054,0,0,1-7.946-.965c-.016-.326-.013-.654-.013-.981q0-15.074.013-30.145a.955.955,0,0,0-.748-1.079,10.721,10.721,0,0,1-7.286-8.414,21.8,21.8,0,0,1-.2-2.741Z"/><path class="a" d="M6105.446,749.512a4.036,4.036,0,0,1-4.03-4.1,4.079,4.079,0,0,1,4.1-4.049,4.033,4.033,0,0,1,4.044,4.158A3.991,3.991,0,0,1,6105.446,749.512Z"/></g></svg>